<?xml version="1.0" encoding="UTF-8" standalone="no"?>
<!-- Created with Inkscape (http://www.inkscape.org/) -->

<svg
   width="347.26135mm"
   height="314.58701mm"
   viewBox="0 0 347.26135 314.58701"
   version="1.1"
   id="svg1"
   xml:space="preserve"
   xmlns:inkscape="http://www.inkscape.org/namespaces/inkscape"
   xmlns:sodipodi="http://sodipodi.sourceforge.net/DTD/sodipodi-0.dtd"
   xmlns="http://www.w3.org/2000/svg"
   xmlns:svg="http://www.w3.org/2000/svg"><sodipodi:namedview
     id="namedview1"
     pagecolor="#ffffff"
     bordercolor="#000000"
     borderopacity="0.25"
     inkscape:showpageshadow="2"
     inkscape:pageopacity="0.0"
     inkscape:pagecheckerboard="0"
     inkscape:deskcolor="#d1d1d1"
     inkscape:document-units="mm"><inkscape:page
       x="0"
       y="0"
       width="347.26135"
       height="314.58701"
       id="page2"
       margin="0"
       bleed="0" /></sodipodi:namedview><defs
     id="defs1" /><g
     inkscape:label="Layer 1"
     inkscape:groupmode="layer"
     id="layer1"
     transform="translate(783.12918,-227.93319)"><path
       style="fill:#0a131c;fill-opacity:1"
       d="m -697.35265,542.33199 c -4.06722,-0.62256 -8.3442,-2.89754 -11.05054,-5.87792 -1.79158,-1.97299 -3.85148,-6.0517 -4.46236,-8.83567 -0.59153,-2.69582 -0.54309,-7.08286 0.10821,-9.79952 1.5659,-6.53157 6.09228,-11.46869 12.59987,-13.7432 1.92597,-0.67316 2.40513,-0.73032 6.18865,-0.73819 3.60604,-0.007 4.32458,0.066 5.95312,0.60928 6.25144,2.08532 10.43572,6.36438 12.59076,12.87594 0.59104,1.78588 0.61646,2.22445 0.71105,12.26807 0.0728,7.73161 0.0157,10.61484 -0.22152,11.18761 -0.52067,1.257 -1.45229,1.81203 -3.0415,1.81203 -2.27061,0 -3.55056,-1.5099 -3.55502,-4.19373 l -10e-4,-0.88645 -1.47725,1.35013 c -3.39215,3.10023 -9.31661,4.74085 -14.34199,3.97162 z m 5.79511,-6.32838 c 2.20175,-0.41091 4.5279,-1.68845 6.2988,-3.45935 3.50824,-3.50824 4.76689,-8.80464 3.28238,-13.81219 -1.69683,-5.72371 -6.21641,-9.1854 -11.99246,-9.1854 -6.94436,0 -12.13933,5.12255 -12.61121,12.43542 -0.57071,8.84427 6.6502,15.58404 15.02249,14.02152 z m 39.78976,6.24283 c -5.8485,-1.1444 -10.72737,-4.76745 -13.22392,-9.82008 -1.45979,-2.95437 -2.03325,-5.55059 -2.04399,-9.25365 -0.0119,-4.09548 0.53532,-6.69265 2.09048,-9.92187 1.00413,-2.08503 1.57652,-2.87853 3.3575,-4.65446 1.70978,-1.70492 2.64206,-2.38749 4.57792,-3.35172 3.38544,-1.68624 5.67792,-2.15287 9.70888,-1.97623 3.58329,0.15703 5.52966,0.67558 8.29651,2.21032 1.85563,1.0293 4.66528,3.50836 5.24352,4.62656 0.91872,1.7766 0.0491,3.83596 -1.89003,4.47594 -1.36247,0.44966 -2.13448,0.13902 -4.00637,-1.61204 -0.92222,-0.86269 -2.12293,-1.79614 -2.66826,-2.07435 -2.57745,-1.31492 -6.44606,-1.77901 -9.05113,-1.08582 -5.47038,1.45565 -8.99568,6.609 -8.98693,13.13728 0.005,3.96325 1.11965,6.92794 3.61852,9.62701 2.50135,2.70177 5.82017,3.89826 10.01587,3.6109 2.48626,-0.17028 4.63362,-0.90357 6.24658,-2.13312 2.33846,-1.7826 3.53297,-2.10516 4.99538,-1.34892 1.49854,0.77493 2.04021,2.99466 1.08448,4.44418 -1.17329,1.7795 -5.08274,4.04677 -8.30502,4.81649 -2.42035,0.57816 -6.84654,0.7167 -9.05999,0.28358 z m 127.45263,0.0863 c -0.91522,-0.14049 -2.5995,-0.59685 -3.74286,-1.01413 -10.43495,-3.80828 -14.98059,-17.21282 -9.52974,-28.10204 1.62401,-3.24431 4.74661,-6.28002 8.18976,-7.96187 3.42712,-1.67403 5.83806,-2.16564 9.76045,-1.99025 5.3759,0.24039 9.218,1.91097 12.86728,5.59481 2.39739,2.4201 3.69883,4.71776 4.6692,8.2434 0.53784,1.95412 0.58582,2.81754 0.68498,12.32575 0.0937,8.98686 0.0555,10.32338 -0.31608,11.04188 -0.53907,1.04246 -1.65977,1.62014 -3.14306,1.62014 -2.01356,0 -3.35611,-1.59484 -3.35611,-3.9868 v -1.09338 l -1.47725,1.35013 c -1.63885,1.49781 -4.42614,2.94648 -6.87506,3.57325 -2.09762,0.53686 -5.64229,0.71984 -7.73151,0.39911 z m 6.05969,-6.32912 c 6.18207,-1.15376 10.73632,-7.44914 10.18363,-14.07695 -0.637,-7.63894 -5.47261,-12.37999 -12.62693,-12.37999 -6.37983,0 -11.18545,4.34884 -12.34636,11.17282 -0.39084,2.29743 -0.38988,2.66277 0.0124,4.70469 1.47605,7.49221 7.64699,11.91015 14.77726,10.57943 z m 64.02937,6.34766 c -6.04289,-0.84638 -12.46078,-4.83596 -12.46467,-7.74847 -0.002,-1.25879 0.73228,-2.30496 2.01523,-2.87247 1.5929,-0.70461 2.50172,-0.46899 4.44517,1.15248 2.92584,2.4411 5.64222,3.37605 9.82861,3.38287 3.59794,0.006 5.99952,-0.88341 7.36588,-2.72747 0.86354,-1.16544 0.77733,-3.49864 -0.17542,-4.74776 -1.03659,-1.35904 -3.46769,-2.45933 -7.20858,-3.26252 -5.70347,-1.22456 -7.28432,-1.66457 -8.94573,-2.48992 -2.91087,-1.44604 -4.85999,-3.68607 -5.60625,-6.44296 -1.47225,-5.43892 1.61731,-10.35887 7.86696,-12.52771 1.51805,-0.52682 2.62527,-0.69573 5.26286,-0.80285 4.15025,-0.16856 6.44405,0.28571 9.70687,1.92237 3.52889,1.77012 5.41349,3.85727 5.41349,5.99532 0,1.30734 -0.62711,2.21339 -1.79983,2.60042 -1.43789,0.47455 -2.57068,0.12549 -4.31047,-1.32824 -0.85959,-0.71825 -2.14461,-1.59637 -2.8556,-1.95137 -3.65723,-1.82605 -8.78492,-1.48132 -11.41183,0.76721 -2.23915,1.91663 -2.12889,4.23061 0.2767,5.80682 0.40194,0.26336 0.67127,0.53836 0.59851,0.61112 -0.0728,0.0728 -0.46343,-0.0832 -0.86815,-0.34663 -0.6007,-0.39095 -0.67118,-0.39997 -0.38373,-0.0491 0.43594,0.53213 2.66142,1.63199 2.87337,1.42005 0.0854,-0.0854 -0.17551,-0.2809 -0.57967,-0.43457 -0.40417,-0.15366 -0.67709,-0.33715 -0.60649,-0.40775 0.0706,-0.0706 0.5336,0.0407 1.02889,0.24731 0.49528,0.20662 2.56739,0.69259 4.60468,1.07993 7.876,1.49744 11.58079,3.49316 13.42003,7.22919 0.81362,1.65268 0.86747,1.93489 0.86747,4.54576 0,2.57825 -0.062,2.91453 -0.83989,4.55658 -2.03615,4.29803 -6.48086,6.61445 -13.31532,6.93945 -1.38244,0.0657 -3.27383,0.013 -4.20309,-0.11712 z m 15.96728,-17.83342 c -0.43949,-0.67074 -1.14596,-1.07135 -1.41496,-0.80235 -0.0871,0.0871 0.0515,0.27581 0.30802,0.41936 0.25651,0.14355 0.38595,0.39114 0.28765,0.5502 -0.1031,0.16681 -0.0572,0.21409 0.10844,0.11172 0.15795,-0.0976 0.36197,-0.0565 0.45337,0.0914 0.0914,0.14789 0.28097,0.2689 0.42126,0.2689 0.14028,0 0.0666,-0.28766 -0.16378,-0.63924 z m -160.44868,17.37372 c -0.63271,-0.31999 -2.98525,-3.03192 -7.63118,-8.79698 -3.69407,-4.58391 -6.77969,-8.32152 -6.85694,-8.30581 -0.0773,0.0157 -1.0783,0.84159 -2.22455,1.8353 l -2.08408,1.80673 v 5.93022 5.93023 l -0.89959,0.89958 c -0.81262,0.81263 -1.04536,0.89958 -2.4077,0.89958 -1.36235,0 -1.59509,-0.087 -2.40771,-0.89958 l -0.89959,-0.89958 v -25.18835 -25.18833 l 0.89959,-0.89959 c 0.87577,-0.87577 1.4369,-1.04067 3.06916,-0.90193 0.97707,0.0831 1.55464,0.46495 2.12984,1.4083 0.49259,0.80786 0.51406,1.45343 0.51501,15.48329 5.9e-4,8.70409 0.0988,14.60452 0.24224,14.55208 0.37442,-0.13687 6.98468,-5.9399 12.70706,-11.15528 2.84661,-2.5944 5.45129,-4.82683 5.78818,-4.96094 2.74232,-1.0917 5.27965,1.82244 3.90364,4.48335 -0.20824,0.40269 -3.24434,3.33063 -6.74688,6.50653 -3.50254,3.17589 -6.36825,5.85496 -6.36825,5.95349 0,0.16561 3.19798,4.18519 10.02292,12.59789 2.77532,3.42098 3.71981,4.99105 3.72861,6.19823 0.007,1.00579 -0.95561,2.36817 -1.97487,2.79404 -1.16408,0.48639 -1.39516,0.47878 -2.50491,-0.0825 z m -164.61353,-0.19884 c -1.61053,-0.87523 -1.55614,-0.0113 -1.55614,-24.71729 v -22.52148 l -8.06202,0.0192 c -5.13524,0.0122 -8.24951,-0.0811 -8.57844,-0.25719 -1.50433,-0.80509 -2.06222,-2.88227 -1.21443,-4.52171 0.85582,-1.65498 0.01,-1.59583 21.70958,-1.51765 l 19.73679,0.0711 0.77197,0.86407 c 1.31206,1.46859 0.94782,4.21614 -0.67399,5.0841 -0.55465,0.29684 -2.34781,0.37614 -8.76222,0.38752 l -8.06486,0.0143 0.0127,22.4405 c 0.014,24.73181 0.0748,23.79783 -1.60596,24.66699 -0.93948,0.48583 -2.8076,0.47955 -3.71299,-0.0125 z m 3.11817,-52.89063 c 0,-0.212 -0.16107,-0.30984 -0.37496,-0.22776 -0.30858,0.11841 -0.31248,0.18349 -0.0221,0.3676 0.1941,0.12304 0.36283,0.22553 0.37496,0.22776 0.0121,0.002 0.0221,-0.16319 0.0221,-0.3676 z m 21.35557,52.78308 c -0.45393,-0.2768 -0.95994,-0.88943 -1.12448,-1.36141 -0.2101,-0.60269 -0.29915,-5.76733 -0.29915,-17.34977 0,-14.60144 0.0492,-16.6147 0.42967,-17.56547 0.5179,-1.29435 1.46241,-1.84727 3.15553,-1.84727 1.0463,0 1.36471,0.13449 2.1298,0.89958 0.68988,0.68988 0.89959,1.12163 0.89959,1.85208 0,0.52388 0.0646,0.9525 0.14364,0.9525 0.079,0 0.76361,-0.46284 1.52135,-1.02855 0.75775,-0.5657 1.85396,-1.26479 2.43605,-1.55354 3.70787,-1.83932 10.61483,-1.86478 12.92494,-0.0477 1.27651,1.0041 1.37218,3.39938 0.18325,4.58791 -0.52364,0.52346 -0.83257,0.55537 -5.37667,0.55537 -4.66737,0 -4.86899,0.0224 -6.32265,0.7039 -2.00808,0.94136 -3.75179,2.6 -4.6446,4.41804 l -0.73302,1.49265 -0.0266,11.68995 c -0.0289,12.66643 -0.0647,13.00476 -1.45269,13.72252 -1.04113,0.53839 -2.85639,0.48132 -3.84391,-0.12084 z m 156.37789,0.12916 c -0.44891,-0.19545 -1.07399,-0.6831 -1.38906,-1.08366 l -0.57288,-0.72829 v -24.79947 c 0,-24.74836 10e-4,-24.80092 0.55253,-25.5019 1.20564,-1.53271 0.61484,-1.4856 18.62976,-1.4856 14.28709,0 16.66938,0.0551 17.33887,0.40135 2.32205,1.20078 2.00975,5.24569 -0.45792,5.93094 -0.64779,0.17988 -6.02215,0.27987 -15.09501,0.28082 l -14.08906,0.002 v 8.33437 8.33438 h 10.41191 c 10.40002,0 10.41294,6.9e-4 11.30709,0.60325 1.55811,1.05001 1.95944,2.58519 1.13178,4.32935 -0.79826,1.68222 -0.7965,1.68198 -12.3866,1.68198 h -10.46418 v 8.73125 8.73125 l 14.35365,4.1e-4 c 16.1563,4.6e-4 15.72969,-0.0488 16.69603,1.92932 0.65853,1.34805 0.40109,2.65575 -0.7493,3.80614 l -0.87871,0.87871 -16.76136,-0.0103 c -13.42961,-0.008 -16.92359,-0.081 -17.57754,-0.36573 z m 101.75473,-0.0427 c -4.85431,-1.28069 -7.54293,-4.02975 -8.90607,-9.10626 -0.40488,-1.50782 -0.4566,-2.95082 -0.41957,-11.70781 l 0.0422,-9.98802 h -1.98138 c -3.31899,0 -4.74251,-0.95955 -4.74251,-3.19676 0,-1.0553 0.13284,-1.4222 0.7324,-2.02275 0.67571,-0.67682 0.93176,-0.74386 3.30729,-0.86591 l 2.57489,-0.13229 0.13229,-5.61705 0.13229,-5.61705 0.70405,-0.70338 c 0.91673,-0.91587 2.91086,-1.15979 4.16777,-0.50982 1.42593,0.73738 1.61047,1.5867 1.61047,7.41172 v 5.16787 l 4.0349,0.004 c 4.52248,0.004 5.08126,0.15717 5.86034,1.60245 0.92889,1.72321 -0.0932,3.93419 -1.99457,4.31446 -0.45268,0.0905 -2.41552,0.16461 -4.36186,0.16461 h -3.53881 v 9.47698 c 0,10.63555 0.10797,11.45825 1.74094,13.26575 1.42231,1.57433 2.42435,1.92731 5.57547,1.96404 2.60679,0.0304 2.75799,0.0638 3.45945,0.76539 0.63508,0.63516 0.73352,0.94214 0.73352,2.28732 0,1.75024 -0.45184,2.48393 -1.90973,3.10099 -1.117,0.47278 -5.0662,0.43962 -6.95381,-0.0584 z m -184.7416,-75.25096 c -2.10473,-0.63374 -4.47302,-3.0098 -5.09817,-5.11488 -0.24857,-0.83705 -0.39565,-2.43692 -0.39565,-4.30388 v -2.97159 l -3.63802,-1.91258 c -11.00307,-5.78455 -21.91862,-14.184 -29.74598,-22.88937 -15.26359,-16.97573 -23.63311,-36.55204 -24.71342,-57.8047 -0.19877,-3.91045 0.0126,-4.82985 1.30505,-5.6767 0.54298,-0.35578 11.61176,-0.40031 99.16213,-0.39897 78.51155,10e-4 98.63415,-0.0658 98.96022,-0.32963 0.41039,-0.332 2.97031,-3.50193 20.88642,-25.86342 31.05995,-38.76662 30.12753,-37.68754 34.37898,-39.7862 7.4408,-3.67306 14.8389,-2.12871 18.32864,3.82609 2.94577,5.02657 1.40442,13.26776 -3.46719,18.53813 -0.83048,0.89845 -4.72464,4.63295 -8.6537,8.29889 -13.73144,12.81185 -21.00497,19.6322 -29.0575,27.24705 l -8.11392,7.67292 6.81175,0.19548 c 4.07373,0.1169 7.10923,0.31799 7.55183,0.50028 1.39412,0.57419 1.6022,1.45597 1.42634,6.04426 -0.6975,18.19814 -8.18917,37.33956 -20.70206,52.89437 -8.67332,10.78184 -20.47062,20.44992 -33.493,27.44807 l -3.87448,2.08212 -0.10111,3.57188 c -0.0859,3.03486 -0.18768,3.73562 -0.67694,4.66102 -0.93299,1.76471 -1.84438,2.6662 -3.5644,3.52571 l -1.61916,0.8091 -55.58638,-0.0227 c -30.57251,-0.0125 -55.91214,-0.12083 -56.31028,-0.24071 z m 111.22427,-6.06262 c 0.59916,-0.48465 0.63001,-0.68145 0.75691,-4.82865 0.0986,-3.22052 0.23354,-4.47764 0.52917,-4.92804 0.21828,-0.33254 1.70656,-1.27515 3.30729,-2.09468 6.90067,-3.53296 13.93872,-8.05657 19.71146,-12.66929 4.52075,-3.61232 12.66405,-11.75237 15.72621,-15.71994 7.96508,-10.32019 13.05161,-20.51939 16.16418,-32.41145 1.34447,-5.13675 2.50544,-12.49257 2.50544,-15.87425 v -0.86921 l -113.68264,0.0374 c -86.64654,0.0285 -113.70722,0.1111 -113.786,0.34744 -0.14091,0.42274 0.65834,7.77812 1.05881,9.74408 l 0.32338,1.5875 78.87633,0.0666 78.87634,0.0666 0.69067,0.69067 c 1.27879,1.27879 1.16709,3.533 -0.2201,4.44192 -0.53327,0.34941 -8.48002,0.40621 -66.5821,0.47592 -36.28711,0.0435 -71.48066,0.13869 -78.20789,0.21145 l -12.23132,0.13229 1.41982,4.23333 c 2.67645,7.98011 5.68154,14.12694 10.34805,21.16667 3.52416,5.31642 6.49117,8.90114 11.62409,14.04409 8.37873,8.39511 16.39913,14.09905 29.23014,20.78787 2.68442,1.39939 2.77335,1.60426 2.92909,6.74812 0.11908,3.93276 0.18361,4.40674 0.64588,4.74409 0.43913,0.32045 8.40415,0.37479 54.93788,0.37479 53.17061,0 54.43867,-0.0116 55.04891,-0.50524 z m -110.23579,-21.67843 c -15.6897,-8.15746 -27.59478,-19.31645 -36.30172,-34.02668 -1.79003,-3.02423 -1.8514,-4.46193 -0.24596,-5.76239 0.77506,-0.62782 2.56811,-0.60563 3.39139,0.042 0.3572,0.28097 1.454,1.86299 2.43734,3.51559 7.90068,13.27787 19.56058,24.04905 33.70209,31.1333 4.09246,2.05013 4.82206,2.70457 4.82206,4.32531 0,0.84032 -0.17902,1.22813 -0.89958,1.94869 -1.40755,1.40755 -2.19477,1.27351 -6.90562,-1.17578 z m 146.94396,-73.59547 h 3.36422 l 9.6642,-9.06198 c 5.31531,-4.98409 13.1041,-12.27666 17.30843,-16.20573 25.46923,-23.80173 24.07116,-22.43132 25.21468,-24.716 1.36182,-2.72084 1.814,-5.13788 1.36634,-7.3036 -0.27244,-1.31805 -0.532,-1.78783 -1.55327,-2.81137 -1.45593,-1.45916 -2.87395,-1.93418 -5.19398,-1.7399 -0.87313,0.0731 -2.26911,0.39148 -3.10218,0.70748 -2.97739,1.12937 -4.13145,2.27691 -11.87533,11.80819 -18.74965,23.07734 -39.02239,48.47061 -39.32396,49.25647 -0.12291,0.32032 -0.0496,0.37966 0.30217,0.24467 0.25545,-0.098 1.97835,-0.17823 3.82868,-0.17823 z m -189.01271,-1.43583 c -2.64297,-1.14527 -2.49035,-3.71413 0.49483,-8.32875 3.11732,-4.81887 8.16493,-8.29431 14.1152,-9.71873 2.66985,-0.63912 7.56088,-0.56137 10.2608,0.16312 3.18559,0.85482 2.93944,0.94716 3.91929,-1.47036 2.6288,-6.48596 8.49667,-12.00522 15.19355,-14.29093 3.47363,-1.18559 5.91977,-1.5326 9.46216,-1.34232 3.61646,0.19425 6.44526,0.90144 9.525,2.38122 l 2.38125,1.14416 1.05833,-1.44376 c 1.5883,-2.16673 5.16826,-5.42536 7.61368,-6.93029 8.5167,-5.24122 19.6725,-5.34216 28.35858,-0.25659 3.38241,1.98035 5.22204,3.68908 9.0208,8.37893 l 0.54307,0.67045 1.09144,-0.55681 c 3.83375,-1.95584 10.56752,-2.69165 15.41988,-1.68496 3.13246,0.64988 6.02711,1.84025 8.66935,3.56513 2.40286,1.5686 5.21741,4.21356 6.56348,6.16798 l 0.96185,1.39657 1.04883,-0.37005 c 4.01335,-1.41599 10.82909,-1.53787 15.11147,-0.27022 5.06323,1.49879 9.43112,4.4655 12.46896,8.46904 1.80186,2.37465 2.7984,4.36681 2.7984,5.59421 0,1.27048 -1.4071,2.76046 -2.60692,2.76046 -1.44996,0 -2.12577,-0.53914 -3.42231,-2.7302 -1.48691,-2.51278 -3.83751,-5.02553 -5.98084,-6.39344 -5.51029,-3.51674 -13.09285,-3.87925 -18.68159,-0.89313 -2.60844,1.39372 -2.5914,1.36162 -1.32883,2.50228 2.09334,1.89121 2.38427,3.33696 0.95841,4.76282 -1.28053,1.28053 -2.59105,1.25949 -4.16861,-0.0669 -0.63224,-0.53158 -1.92342,-1.33525 -2.86931,-1.78594 -1.56757,-0.7469 -1.95397,-0.81943 -4.36562,-0.81943 -2.30584,0 -2.83691,0.0896 -4.1328,0.69722 -1.78356,0.83629 -3.53192,2.35767 -4.19499,3.65036 -1.23988,2.41723 -3.20822,2.92524 -4.96347,1.28102 -1.54776,-1.44984 -0.68397,-4.12721 2.29173,-7.10341 3.161,-3.16153 7.3439,-4.67651 12.17668,-4.41021 l 2.54651,0.14032 1.12882,-1.05295 1.12882,-1.05296 -0.72386,-0.94902 c -3.63213,-4.76198 -9.50222,-7.71804 -15.35448,-7.73223 -3.56068,-0.009 -7.7817,1.15479 -10.70202,2.94977 -1.4619,0.89855 -3.02558,0.9963 -3.97619,0.24855 -0.35048,-0.27569 -1.11068,-1.37702 -1.68933,-2.4474 -1.38358,-2.55933 -5.10402,-6.35231 -7.7062,-7.85644 -1.04039,-0.60138 -3.00492,-1.46922 -4.36563,-1.92855 -2.07446,-0.70026 -2.98676,-0.85454 -5.64901,-0.95532 -4.86726,-0.18425 -8.97427,0.93769 -12.83996,3.5076 -2.01112,1.33699 -5.16195,4.53261 -6.1772,6.26501 l -0.68442,1.16787 1.00797,2.00642 c 0.55438,1.10354 1.21311,2.65863 1.46384,3.45576 l 0.45587,1.44934 1.66122,0.1702 c 5.47055,0.56047 11.5365,3.55829 15.69405,7.75606 2.06656,2.08654 2.59262,3.19917 2.18485,4.62098 -0.32955,1.14906 -0.96636,1.77155 -2.0132,1.96794 -1.22806,0.23039 -2.30684,-0.27738 -3.4756,-1.63593 -2.48489,-2.88838 -7.28403,-5.73157 -11.08798,-6.56893 -2.36743,-0.52114 -6.30491,-0.53448 -8.44992,-0.0286 -3.45753,0.81537 -6.59842,2.68075 -9.8593,5.85545 -1.1939,1.16234 -2.25805,1.9657 -2.72843,2.05978 -1.18646,0.23729 -2.42697,-0.41568 -2.97209,-1.56443 -0.74794,-1.57617 -0.25825,-2.72847 2.19658,-5.16878 2.12519,-2.11261 4.22528,-3.65373 6.65185,-4.88137 1.66552,-0.84262 4.88732,-1.98288 5.60259,-1.98288 0.26555,0 0.48282,-0.18156 0.48282,-0.40348 0,-0.53143 -1.73838,-3.99848 -2.54001,-5.06584 -0.83783,-1.11555 -2.87355,-2.2482 -5.93217,-3.30057 -2.29568,-0.78987 -2.78804,-0.86397 -5.81532,-0.87516 -2.75008,-0.0102 -3.64161,0.0922 -5.29166,0.60738 -7.04303,2.19917 -11.86748,7.26342 -13.9029,14.59392 -1.15051,4.14353 -2.44217,4.81186 -5.86176,3.03296 -4.81358,-2.50405 -10.15231,-2.55528 -15.02805,-0.14421 -3.49065,1.72614 -6.03046,4.3349 -7.90876,8.12346 -1.37298,2.76933 -2.61296,3.6124 -4.26207,2.89779 z m 3.91532,-42.40548 c -0.32043,-0.0621 -0.94551,-0.52632 -1.38907,-1.03151 -0.73027,-0.83174 -0.80646,-1.08898 -0.80646,-2.72296 0,-4.84215 0.89162,-12.38809 2.11369,-17.88859 3.70839,-16.69135 11.5058,-30.68288 24.1983,-43.42097 13.80554,-13.85513 30.76619,-22.77857 50.41717,-26.52578 12.02357,-2.29276 25.57176,-2.29323 37.57084,-0.001 13.65629,2.60845 26.53329,7.97765 37.57083,15.66553 4.77425,3.32537 7.98304,6.04061 12.71389,10.75832 8.30114,8.2781 13.3423,15.27435 17.97091,24.94049 5.06044,10.56795 7.74832,21.58998 8.37274,34.33361 0.14941,3.04913 0.11043,3.70464 -0.26327,4.42729 -0.78166,1.51156 -2.67425,2.0742 -4.11478,1.22326 -1.2505,-0.73869 -1.43826,-1.32081 -1.52622,-4.73168 -0.66659,-25.84821 -13.55329,-49.54436 -35.53452,-65.34109 -10.71419,-7.69971 -22.9469,-12.91148 -36.30226,-15.46663 -10.01657,-1.91638 -20.9308,-2.09885 -31.82795,-0.53213 -19.05683,2.73988 -36.41887,11.32217 -50.2296,24.82917 -15.70275,15.35739 -24.06373,34.02827 -25.1875,56.24609 -0.1174,2.32116 -0.30117,3.64035 -0.56516,4.057 -0.35691,0.56331 -1.89278,1.41786 -2.39205,1.33093 -0.11382,-0.0198 -0.46911,-0.0869 -0.78953,-0.14903 z m 19.43748,-1.81661 c -1.31749,-0.71487 -1.6038,-1.70129 -1.40879,-4.85374 1.19744,-19.35739 9.20096,-35.79783 23.59353,-48.4647 8.07421,-7.10609 16.05849,-11.76053 26.03225,-15.17553 11.90794,-4.07724 26.29033,-5.19293 39.15833,-3.03762 20.73281,3.47261 39.36776,15.35053 50.68131,32.30429 6.71488,10.06248 10.99723,23.47965 11.07529,34.70032 l 0.0236,3.39322 -0.86407,0.77397 c -0.5986,0.53617 -1.14201,0.77396 -1.76872,0.77396 -2.33281,0 -3.31783,-1.22829 -3.31935,-4.13915 -0.004,-7.43208 -2.5005,-17.5419 -6.1927,-25.07686 -3.14325,-6.41465 -6.56872,-11.26556 -11.66766,-16.52289 -10.98927,-11.33063 -24.7875,-18.26288 -41.40729,-20.80309 -3.90315,-0.59657 -11.80414,-0.80255 -16.11758,-0.42019 -24.8536,2.2031 -46.20034,16.21142 -56.7179,37.21983 -3.66407,7.31884 -5.93111,15.94491 -6.48889,24.69016 -0.22559,3.53712 -0.2285,3.54882 -1.06864,4.29948 -0.9622,0.85973 -2.33959,0.99135 -3.54273,0.33854 z m 20.9649,-4.7991 c -0.21828,-0.0794 -0.72429,-0.44949 -1.12447,-0.82236 -0.62944,-0.58649 -0.72761,-0.88152 -0.72761,-2.18683 0,-1.9051 0.82479,-5.9817 1.86947,-9.24004 1.04248,-3.25144 3.99994,-9.30227 6.01948,-12.31555 2.01595,-3.00792 5.83463,-7.47026 8.11002,-9.47699 9.65161,-8.51207 20.47704,-13.35445 32.92856,-14.72945 3.66554,-0.40478 11.27921,-0.20019 14.83705,0.3987 7.17935,1.2085 14.12558,3.67337 19.76499,7.0136 11.00841,6.52031 18.90159,15.4841 23.19014,26.33559 1.87147,4.73544 3.3377,11.59047 2.78893,13.03903 -0.67836,1.79065 -2.30744,2.52802 -4.01184,1.81588 -1.18195,-0.49385 -1.66345,-1.40439 -1.91117,-3.61414 -0.71373,-6.36679 -4.03253,-13.98779 -8.65419,-19.87275 -2.21812,-2.82443 -7.16461,-7.66836 -9.73561,-9.53376 -6.75669,-4.90234 -13.73021,-7.82765 -22.35729,-9.37865 -3.61831,-0.65051 -12.12006,-0.65968 -15.875,-0.0171 -5.79378,0.99144 -9.95547,2.36162 -15.47812,5.09596 -5.73578,2.83986 -10.42912,6.38994 -14.47921,10.95218 -5.73675,6.46218 -9.57159,14.18714 -10.89587,21.94878 -0.2647,1.55142 -0.62025,3.08045 -0.79011,3.39783 -0.55655,1.03995 -2.26741,1.62703 -3.46815,1.19011 z m 19.57917,-0.26458 c -0.79023,-0.28755 -1.84879,-1.51198 -1.99497,-2.30756 -0.37711,-2.05251 2.96868,-10.11675 5.66155,-13.64583 4.31862,-5.65969 10.81665,-10.31281 17.51302,-12.54074 4.73114,-1.57409 6.67543,-1.87279 12.1579,-1.86778 6.77631,0.006 10.41186,0.78378 16.07282,3.43771 9.14209,4.28592 15.6604,11.51017 18.55553,20.56511 1.06074,3.31761 1.07133,4.41007 0.0538,5.54891 -0.67916,0.76012 -0.9331,0.86407 -2.11065,0.86407 -1.82525,0 -2.55092,-0.74534 -3.2449,-3.33286 -2.11905,-7.90097 -7.63077,-14.36848 -15.46557,-18.14746 -17.17931,-8.28616 -37.94224,0.36287 -42.9912,17.90845 -0.6695,2.32656 -0.96286,2.81717 -1.97048,3.29532 -0.87766,0.41648 -1.52663,0.48108 -2.23682,0.22266 z"
       id="path1"
       inkscape:export-filename="path1.png"
       inkscape:export-xdpi="96"
       inkscape:export-ydpi="96" /></g></svg>
