<?xml version="1.0" encoding="UTF-8" standalone="no"?>
<!-- Created with Inkscape (http://www.inkscape.org/) -->

<svg
   width="83.905167mm"
   height="15.814104mm"
   viewBox="0 0 83.905167 15.814104"
   version="1.1"
   id="svg1"
   xml:space="preserve"
   inkscape:version="1.4.3 (0d15f75, 2025-12-25)"
   sodipodi:docname="text-as-paths.svg"
   xmlns:inkscape="http://www.inkscape.org/namespaces/inkscape"
   xmlns:sodipodi="http://sodipodi.sourceforge.net/DTD/sodipodi-0.dtd"
   xmlns="http://www.w3.org/2000/svg"
   xmlns:svg="http://www.w3.org/2000/svg"><sodipodi:namedview
     id="namedview1"
     pagecolor="#ffffff"
     bordercolor="#000000"
     borderopacity="0.25"
     inkscape:showpageshadow="2"
     inkscape:pageopacity="0.0"
     inkscape:pagecheckerboard="0"
     inkscape:deskcolor="#d1d1d1"
     inkscape:document-units="mm"
     inkscape:zoom="1.9603365"
     inkscape:cx="148.4439"
     inkscape:cy="4.8461068"
     inkscape:window-width="1920"
     inkscape:window-height="1017"
     inkscape:window-x="-8"
     inkscape:window-y="-8"
     inkscape:window-maximized="1"
     inkscape:current-layer="layer1"
     showgrid="false"
     inkscape:lockguides="false"><inkscape:page
       x="0"
       y="-3.6052435e-22"
       width="83.905167"
       height="15.814103"
       id="page2"
       margin="0"
       bleed="0" /></sodipodi:namedview><defs
     id="defs1"><linearGradient
       id="swatch3"
       inkscape:swatch="solid"><stop
         style="stop-color:#000000;stop-opacity:1;"
         offset="0"
         id="stop3" /></linearGradient></defs><g
     inkscape:label="Layer 1"
     inkscape:groupmode="layer"
     id="layer1"
     transform="translate(-63.757148,-150.24015)"><path
       d="m -163.27661,1010.4314 q 0.6604,0 0.9652,-0.3302 0.3302,-0.3556 0.3302,-0.8128 0,-0.4572 -0.3302,-0.7874 -0.3048,-0.3556 -0.9652,-0.3556 -0.254,0 -0.9906,0 -0.7112,0 -1.7272,0 -1.016,0 -2.1336,0 -1.0922,0 -2.159,0 -1.0414,0 -1.8288,0 -0.508,0 -0.8382,0.2286 -0.3048,0.2286 -0.4064,0.5842 -0.1016,0.3302 0,0.6858 0.1016,0.3302 0.4064,0.5588 0.3302,0.2286 0.8382,0.2286 0.6096,0 1.1938,0.025 0.5842,0.025 1.0414,0.2032 0.4826,0.1778 0.762,0.6096 0.2794,0.4064 0.2794,1.1938 0,0.8128 0,1.9812 0,1.1684 0,2.413 0,1.2192 0,2.2352 0,0.9906 0,1.4732 0,0.6096 0,1.2954 0,0.6858 0,1.3462 0,0.635 0,1.1938 0,0.635 0.3302,0.9652 0.3556,0.3302 0.8128,0.3302 0.4572,0 0.7874,-0.3302 0.3556,-0.3302 0.3556,-0.9652 0,-0.5588 0,-1.1938 0,-0.6604 0,-1.3462 0,-0.6858 0,-1.2954 0,-0.4826 0,-1.4224 0,-0.9398 0,-2.0828 0,-1.1684 0,-2.3622 0,-1.2192 0,-2.2352 0,-0.9652 -0.3302,-1.6764 -0.3048,-0.7112 -0.8636,-1.2192 -0.5588,-0.508 -1.27,-0.8128 -0.7112,-0.3302 -1.524,-0.4572 -0.7874,-0.1524 -1.5748,-0.1524 -0.508,0 -0.8382,0.2286 -0.3048,0.2286 -0.4064,0.5842 -0.1016,0.3302 0,0.6858 0.1016,0.3302 0.4064,0.5588 0.3302,0.2286 0.8382,0.2286 0.4826,0 1.397,0 0.9398,0 2.032,0 1.1176,0 2.2098,0 1.1176,0 1.9558,0 0.8636,0 1.2446,0 z m 9.34716,4.5466 q 0.635,0.076 0.9906,-0.2032 0.381,-0.3048 0.4318,-0.762 0.0762,-0.4572 -0.2032,-0.8382 -0.2794,-0.381 -0.9144,-0.4826 -1.397,-0.1778 -2.5146,0.1016 -1.0922,0.2794 -1.905,0.9144 -0.8128,0.635 -1.3462,1.524 -0.5334,0.889 -0.8128,1.9304 -0.254,1.0414 -0.254,2.1336 0,0.4826 0,1.4224 0,0.9398 0,1.9558 0,1.016 0,1.7272 0,0.508 0.2286,0.8382 0.2286,0.3048 0.5588,0.4064 0.3556,0.1016 0.6858,-0.025 0.3556,-0.1016 0.5842,-0.4064 0.2286,-0.3048 0.2286,-0.8128 0,-0.508 0,-1.3462 0,-0.8636 0,-1.8034 0,-0.9398 0,-1.7018 0,-0.762 0,-1.0922 0,-0.8382 0,-1.5494 0,-0.7366 0,-1.4478 0,-0.7366 0,-1.5748 0,-0.635 -0.3556,-0.9652 -0.3302,-0.3302 -0.7874,-0.3302 -0.4572,0 -0.8128,0.3302 -0.3302,0.3048 -0.3302,0.9652 0,0.6858 0,1.4986 0,0.7874 0,1.5748 0,0.7874 0,1.4986 0,0.4826 0,1.27 0,0.7874 0,1.6764 0,0.8636 0,1.6764 0,0.7874 0,1.3208 0,0.508 0.2286,0.8382 0.2286,0.3048 0.5588,0.4064 0.3556,0.1016 0.6858,-0.025 0.3556,-0.1016 0.5842,-0.4064 0.2286,-0.3048 0.2286,-0.8128 0,-0.508 0,-1.2192 0,-0.7112 0,-1.4986 0,-0.7874 0,-1.5494 0,-0.762 0,-1.3462 0,-0.889 0.2286,-1.651 0.2286,-0.762 0.7112,-1.2954 0.508,-0.5588 1.3208,-0.7874 0.8128,-0.254 1.9812,-0.076 z m 14.73202,-1.0414 q 0,-0.635 -0.3556,-0.9652 -0.3302,-0.3302 -0.7874,-0.3302 -0.4572,0 -0.8128,0.3302 -0.3302,0.3302 -0.3302,0.9652 0,0.4318 0,1.1176 0,0.6604 0,1.4478 0,0.7874 0,1.6002 0,0.8128 0,1.5494 0,0.9398 -0.2794,1.651 -0.254,0.7112 -0.762,1.1938 -0.508,0.4572 -1.2192,0.6858 -0.6858,0.2286 -1.524,0.2286 -0.8382,0 -1.5494,-0.3048 -0.7112,-0.3302 -1.2192,-0.9144 -0.508,-0.5842 -0.7874,-1.3716 -0.2794,-0.7874 -0.2794,-1.7272 0,-0.9398 0.2794,-1.7272 0.2794,-0.7874 0.762,-1.3462 0.508,-0.5842 1.2192,-0.889 0.7112,-0.3302 1.5494,-0.3302 1.1176,0 1.9812,0.5334 0.8636,0.5334 1.3462,1.4986 0.4826,0.9652 0.4826,2.2098 0,0.381 0,1.016 0,0.6096 0,1.2192 0,0.5842 0,0.8636 0,0.4318 0,0.8636 0,0.4064 0,0.8382 0,0.4318 0,0.8382 0,0.635 0.3302,0.9652 0.3556,0.3302 0.8128,0.3302 0.4572,0 0.7874,-0.3302 0.3556,-0.3302 0.3556,-0.9652 0,-0.6858 0,-1.27 0,-0.5842 0,-1.27 0,-0.4318 0,-0.9144 0,-0.508 0,-1.0414 0,-0.5588 0,-1.143 0,-1.4478 -0.4826,-2.6416 -0.4572,-1.1938 -1.2954,-2.0574 -0.8128,-0.889 -1.9304,-1.3462 -1.0922,-0.4826 -2.3876,-0.4826 -1.7272,0 -3.1242,0.8382 -1.3716,0.8382 -2.1844,2.3368 -0.7874,1.4732 -0.7874,3.4036 0,1.4478 0.4572,2.667 0.4572,1.1938 1.2954,2.0828 0.8382,0.889 1.9558,1.3716 1.1176,0.4826 2.413,0.4826 1.2954,0 2.3876,-0.4064 1.1176,-0.4064 1.9304,-1.1684 0.8382,-0.7874 1.2954,-1.905 0.4572,-1.1176 0.4572,-2.5654 0,-1.0922 0,-1.8796 0,-0.8128 0,-1.4224 0,-0.635 0,-1.1938 0,-0.5588 0,-1.2192 z m 12.31899,10.6934 q 0.5334,-0.381 0.5842,-0.8382 0.0762,-0.4572 -0.1778,-0.8128 -0.2286,-0.381 -0.6604,-0.4826 -0.4318,-0.127 -0.9398,0.1778 -0.6858,0.4318 -1.2954,0.5842 -0.6096,0.1524 -1.143,0.1524 -1.0414,0.025 -1.905,-0.4826 -0.8636,-0.5334 -1.3716,-1.4986 -0.4826,-0.9906 -0.4826,-2.3114 0,-1.3208 0.4826,-2.2606 0.508,-0.9652 1.3462,-1.4986 0.8382,-0.5334 1.8796,-0.5334 0.5334,0 1.143,0.1524 0.635,0.127 1.3462,0.5588 0.508,0.3048 0.9398,0.2032 0.4572,-0.127 0.6858,-0.4826 0.254,-0.381 0.1778,-0.8382 -0.0762,-0.4572 -0.6096,-0.8382 -0.762,-0.5334 -1.778,-0.7874 -0.9906,-0.254 -1.905,-0.254 -1.6256,0 -2.9972,0.8128 -1.3462,0.7874 -2.1844,2.286 -0.8128,1.4732 -0.8128,3.4798 0,2.0574 0.8382,3.5306 0.8382,1.4732 2.2098,2.286 1.397,0.7874 3.048,0.762 0.8636,0 1.8542,-0.2794 0.9906,-0.2794 1.7272,-0.7874 z m 5.46101,-16.8656 q 0,-0.635 -0.3556,-0.9398 -0.3302,-0.3302 -0.7874,-0.3302 -0.4572,0 -0.8128,0.3302 -0.3302,0.3048 -0.3302,0.9398 0,0.7112 0,1.2954 0,0.5588 0,1.0668 0,0.508 0,1.016 0,1.4986 0,2.6924 0,1.1684 0,2.2606 0,1.0922 0,2.286 0,1.1684 0,2.667 0,0.762 0,1.6002 0,0.8382 0,1.7526 0,0.6604 0.3302,0.9906 0.3556,0.3048 0.8128,0.3048 0.4572,0 0.7874,-0.3302 0.3556,-0.3302 0.3556,-0.9652 0,-0.6096 0,-1.143 0,-0.5334 0,-1.0668 0,-0.5334 0,-1.143 0,-1.016 0,-2.286 0,-1.2954 0,-2.667 0,-1.3716 0,-2.6416 0,-1.2954 0,-2.3114 0,-0.6096 0,-1.143 0,-0.5334 0,-1.0668 0,-0.5588 0,-1.1684 z m 7.1374,6.9342 q 0.508,-0.381 0.5588,-0.8382 0.0508,-0.4826 -0.2286,-0.8382 -0.254,-0.381 -0.7366,-0.4572 -0.4572,-0.076 -0.9652,0.3048 -0.6604,0.508 -1.397,1.0414 -0.7112,0.508 -1.4732,1.0414 -0.7366,0.5334 -1.524,1.1176 -1.0668,0.7874 -1.6002,1.397 -0.5334,0.5842 -0.5588,1.143 0,0.5334 0.508,1.1684 0.5334,0.6096 1.5748,1.4224 0.7874,0.6096 1.5748,1.3208 0.7874,0.6858 1.5748,1.397 0.7874,0.6858 1.4986,1.3208 0.4572,0.4318 0.9144,0.381 0.4826,-0.025 0.7874,-0.3556 0.3048,-0.3302 0.3048,-0.7874 0,-0.4826 -0.4826,-0.9144 -0.7366,-0.6858 -1.524,-1.397 -0.7874,-0.7112 -1.6256,-1.397 -0.8128,-0.7112 -1.6002,-1.3462 -0.5842,-0.4572 -0.7874,-0.6096 -0.2032,-0.1778 0,-0.3048 0.2032,-0.1524 0.8128,-0.6096 0.762,-0.5588 1.4986,-1.0922 0.762,-0.5334 1.4732,-1.0668 0.7366,-0.5334 1.4224,-1.0414 z m 12.26818,-4.2672 q 0.635,0 0.9652,-0.3302 0.3302,-0.3556 0.3302,-0.8128 0,-0.4572 -0.3302,-0.7874 -0.3302,-0.3556 -0.9652,-0.3556 -0.762,0 -1.2446,0 -0.4826,0 -0.9398,0 -0.4318,0 -1.0922,0 -0.381,0 -0.6604,0 -0.2794,0 -0.635,0 -0.3556,0 -0.9398,0 -1.1684,0 -1.8796,0.381 -0.6858,0.381 -1.016,1.1684 -0.3048,0.762 -0.3048,1.905 0,0.4826 0,1.0668 0,0.5588 0,1.0922 0,0.5334 0,0.8382 0,0.6604 0.2032,1.2192 0.2286,0.5588 0.6096,0.9906 0.381,0.4064 0.8636,0.635 0.508,0.2286 1.0922,0.2286 0.3302,0 1.0414,0 0.7112,0 1.524,0 0.8382,0 1.6002,0 0.7874,0 1.27,0 0.508,0 0.8128,-0.2286 0.3048,-0.2286 0.4064,-0.5588 0.1016,-0.3556 0,-0.6858 -0.1016,-0.3556 -0.4064,-0.5842 -0.3048,-0.2286 -0.8128,-0.2286 -0.4826,0 -1.1684,0 -0.6604,0 -1.4224,0 -0.762,0 -1.4986,0 -0.7112,0 -1.3208,0 -0.9652,0 -1.6002,0.3048 -0.6096,0.2794 -0.9144,0.8382 -0.2794,0.5588 -0.2794,1.3462 0,0.6096 0,1.4224 0,0.8128 0,1.6256 0,0.8128 0,1.397 0,1.1176 0.3556,1.8034 0.381,0.6858 1.0668,0.9906 0.7112,0.3048 1.7272,0.3048 0.3048,0 0.5334,0 0.254,0 0.6096,0 0.3556,0 0.9906,0 0.5842,0 1.5748,0 0.9906,0 1.8542,0 0.635,0 0.9398,-0.3302 0.3302,-0.3556 0.3302,-0.8128 0,-0.4572 -0.3302,-0.7874 -0.3048,-0.3556 -0.9398,-0.3556 -0.8636,0 -1.4224,0 -0.5334,0 -0.9906,0 -0.4318,0 -1.016,0 -0.635,0 -1.0414,0 -0.4064,0 -1.0922,0 -0.5588,0 -0.7112,-0.1016 -0.1524,-0.1016 -0.1524,-0.7112 0,-0.381 0,-1.0922 0,-0.7112 0,-1.5748 0,-0.889 0,-1.778 0,-0.2032 0.127,-0.2032 0.127,0 0.381,0 0.4064,0 1.0922,0 0.7112,0 1.524,0 0.8128,0 1.5494,0 0.762,0 1.2446,0 0.508,0 0.8128,-0.2286 0.3048,-0.2286 0.4064,-0.5588 0.1016,-0.3556 0,-0.6858 -0.1016,-0.3556 -0.4064,-0.5842 -0.3048,-0.2286 -0.8128,-0.2286 -0.4826,0 -1.1938,0 -0.7112,0 -1.4986,0 -0.7874,0 -1.524,0 -0.7112,0 -1.2192,0 -0.127,0 -0.2286,-0.076 -0.0762,-0.076 -0.1524,-0.1778 -0.0508,-0.127 -0.0762,-0.254 -0.0254,-0.1524 -0.0254,-0.2794 0,-0.4572 0,-0.889 0,-0.4318 0,-0.9398 0,-0.508 0,-1.1684 0,-0.7112 0.1016,-0.9398 0.1016,-0.2286 0.8128,-0.2286 0.4064,0 0.6858,0 0.3048,0 0.635,0 0.3556,0 0.9144,0 0.6604,0 1.5748,0 0.9398,0 1.7018,0 z m 15.341636,3.5052 q 0,-0.635 -0.3556,-0.9652 -0.3302,-0.3302 -0.7874,-0.3302 -0.4572,0 -0.8128,0.3302 -0.3302,0.3302 -0.3302,0.9652 0,0.4318 0,1.1176 0,0.6604 0,1.4478 0,0.7874 0,1.6002 0,0.8128 0,1.5494 0,0.9398 -0.2794,1.651 -0.254,0.7112 -0.762,1.1938 -0.508,0.4572 -1.2192,0.6858 -0.6858,0.2286 -1.524,0.2286 -0.8382,0 -1.5494,-0.3048 -0.7112,-0.3302 -1.2192,-0.9144 -0.508,-0.5842 -0.7874,-1.3716 -0.2794,-0.7874 -0.2794,-1.7272 0,-0.9398 0.2794,-1.7272 0.2794,-0.7874 0.762,-1.3462 0.508,-0.5842 1.2192,-0.889 0.7112,-0.3302 1.5494,-0.3302 1.1176,0 1.9812,0.5334 0.8636,0.5334 1.3462,1.4986 0.4826,0.9652 0.4826,2.2098 0,0.381 0,1.016 0,0.6096 0,1.2192 0,0.5842 0,0.8636 0,0.4318 0,0.8636 0,0.4064 0,0.8382 0,0.4318 0,0.8382 0,0.635 0.3302,0.9652 0.3556,0.3302 0.8128,0.3302 0.4572,0 0.7874,-0.3302 0.3556,-0.3302 0.3556,-0.9652 0,-0.6858 0,-1.27 0,-0.5842 0,-1.27 0,-0.4318 0,-0.9144 0,-0.508 0,-1.0414 0,-0.5588 0,-1.143 0,-1.4478 -0.4826,-2.6416 -0.4572,-1.1938 -1.2954,-2.0574 -0.8128,-0.889 -1.9304,-1.3462 -1.0922,-0.4826 -2.3876,-0.4826 -1.7272,0 -3.1242,0.8382 -1.3716,0.8382 -2.1844,2.3368 -0.7874,1.4732 -0.7874,3.4036 0,1.4478 0.4572,2.667 0.4572,1.1938 1.2954,2.0828 0.8382,0.889 1.9558,1.3716 1.1176,0.4826 2.413,0.4826 1.2954,0 2.3876,-0.4064 1.1176,-0.4064 1.9304,-1.1684 0.8382,-0.7874 1.2954,-1.905 0.4572,-1.1176 0.4572,-2.5654 0,-1.0922 0,-1.8796 0,-0.8128 0,-1.4224 0,-0.635 0,-1.1938 0,-0.5588 0,-1.2192 z m 4.648188,10.4648 q 0,0.6604 0.3302,0.9906 0.3556,0.3048 0.8128,0.3048 0.4572,0 0.7874,-0.3302 0.3556,-0.3302 0.3556,-0.9652 0,-0.6858 0,-1.1176 0,-0.4572 0,-0.9144 0,-0.4572 0,-1.143 0,-1.27 0,-2.2606 0,-0.9906 0,-1.8542 0,-0.8636 0,-1.6764 0,-0.8382 0,-1.778 0,-0.5842 0,-0.9906 0,-0.4318 0,-0.762 0,-0.3302 0,-0.6604 0,-0.3302 0,-0.762 0,-0.635 -0.3556,-0.9652 -0.3302,-0.3302 -0.7874,-0.3302 -0.4572,0 -0.8128,0.3302 -0.3302,0.3302 -0.3302,0.9652 0,0.381 0,0.9398 0,0.5334 0,1.1176 0,0.5842 0,1.1176 0,1.397 0,2.4384 0,1.0414 0,1.905 0,0.8382 0,1.6256 0,0.762 0,1.6002 0,0.635 0,1.1176 0,0.4826 0,0.9652 0,0.4826 0,1.0922 z m 4.0894,-9.3472 q 0.635,0 0.9652,-0.3302 0.3302,-0.3556 0.3302,-0.8128 0,-0.4572 -0.3302,-0.7874 -0.3302,-0.3556 -0.9652,-0.3556 -0.4064,0 -0.7366,0 -0.3048,0 -0.7112,0 -0.7112,0 -1.4224,0 -0.6858,0 -1.397,0 -0.254,0 -0.4572,0 -0.1778,0 -0.381,0 -0.2032,0 -0.5334,0 -0.635,0 -0.9652,0.3556 -0.3302,0.3302 -0.3302,0.7874 0,0.4572 0.3302,0.8128 0.3302,0.3302 0.9652,0.3302 0.254,0 0.4826,0 0.254,0 0.4572,0 0.2032,0 0.4318,0 0.762,0 1.397,0 0.6604,0 1.4224,0 0.3556,0 0.7112,0 0.3556,0 0.7366,0 z m 9.956816,0.4064 q 0.5842,0.3048 1.016,0.127 0.4572,-0.1778 0.635,-0.5842 0.2032,-0.4064 0.0508,-0.8382 -0.127,-0.4572 -0.6858,-0.7366 -0.9652,-0.4826 -1.905,-0.6858 -0.9398,-0.2286 -1.8034,-0.2286 -1.3208,0 -2.3368,0.4826 -1.016,0.4572 -1.6002,1.2954 -0.5842,0.8382 -0.5842,1.9558 0,1.143 0.5588,1.8542 0.5842,0.6858 1.5494,1.1684 0.9652,0.4572 2.159,0.8636 0.5334,0.1778 1.1938,0.4318 0.6858,0.2286 1.1684,0.6096 0.4826,0.3556 0.4826,0.889 0,0.4826 -0.3302,0.7874 -0.3048,0.2794 -0.8128,0.4318 -0.4826,0.127 -1.0668,0.127 -0.508,0 -1.0668,-0.1016 -0.5334,-0.127 -1.0922,-0.3302 -0.5588,-0.2032 -1.1176,-0.508 -0.5588,-0.3048 -1.016,-0.1524 -0.4318,0.1524 -0.6604,0.5588 -0.2032,0.4064 -0.1016,0.8636 0.127,0.4572 0.7112,0.762 1.0922,0.5842 2.2098,0.889 1.1176,0.3048 2.1336,0.3048 1.3208,0 2.3114,-0.4318 1.016,-0.4572 1.6002,-1.27 0.5842,-0.8382 0.5842,-1.9304 0,-1.1938 -0.6096,-1.9558 -0.5842,-0.762 -1.6002,-1.2446 -0.9906,-0.508 -2.2098,-0.9144 -0.3556,-0.1016 -0.8128,-0.254 -0.4572,-0.1778 -0.889,-0.381 -0.4318,-0.2032 -0.7112,-0.4572 -0.2794,-0.2794 -0.2794,-0.6096 0,-0.508 0.3048,-0.8128 0.3302,-0.3302 0.8382,-0.4826 0.508,-0.1524 1.0922,-0.1524 0.4318,0 0.8636,0.076 0.4572,0.076 0.9144,0.2286 0.4572,0.1524 0.9144,0.3556 z"
       id="text67"
       style="font-size:25.4px;line-height:0;font-family:'Tilt Neon';-inkscape-font-specification:'Tilt Neon';fill:#00ff00;stroke:#008000;stroke-linecap:round"
       inkscape:label="text"
       aria-label="TrackEats"
       transform="matrix(0.7721055,0,0,0.7721055,198.07419,-626.49362)" /></g></svg>
