<?xml version="1.0" encoding="UTF-8" standalone="no"?>
<!-- Created with Inkscape (http://www.inkscape.org/) -->

<svg
   width="1024"
   height="1024"
   viewBox="0 0 270.93333 270.93333"
   version="1.1"
   id="svg1"
   xml:space="preserve"
   inkscape:version="1.4.3 (0d15f75, 2025-12-25)"
   sodipodi:docname="trackeats-logo-clear-text.svg"
   xmlns:inkscape="http://www.inkscape.org/namespaces/inkscape"
   xmlns:sodipodi="http://sodipodi.sourceforge.net/DTD/sodipodi-0.dtd"
   xmlns="http://www.w3.org/2000/svg"
   xmlns:svg="http://www.w3.org/2000/svg"><defs
     id="defs1" /><sodipodi:namedview
     id="namedview1"
     pagecolor="#ffffff"
     bordercolor="#000000"
     borderopacity="0.25"
     inkscape:showpageshadow="2"
     inkscape:pageopacity="0.0"
     inkscape:pagecheckerboard="0"
     inkscape:deskcolor="#d1d1d1"
     inkscape:document-units="px"
     inkscape:zoom="0.49008412"
     inkscape:cx="676.41449"
     inkscape:cy="580.51259"
     inkscape:window-width="1920"
     inkscape:window-height="1017"
     inkscape:window-x="1912"
     inkscape:window-y="-8"
     inkscape:window-maximized="1"
     inkscape:current-layer="g67"
     showgrid="false"
     inkscape:lockguides="false"><inkscape:page
       x="0"
       y="0"
       width="270.93332"
       height="270.93332"
       id="page2"
       margin="0"
       bleed="0" /></sodipodi:namedview><g
     inkscape:label="Layer 1"
     inkscape:groupmode="layer"
     id="layer1"
     transform="translate(-61.460164,-34.137375)"><g
       id="g67"
       inkscape:label="trackeats logo"
       inkscape:export-filename="trackeats-logo-3.svg"
       inkscape:export-xdpi="96"
       inkscape:export-ydpi="96"
       transform="matrix(2.1139014,0,0,2.1139014,-21.636141,10.74046)"><g
         id="g1"
         inkscape:label="image"
         transform="translate(-3.3588672)"><g
           id="g40"
           inkscape:label="food"
           transform="translate(-4.3189866,-118.77213)"
           style="opacity:1;fill:none"><g
             id="g47"
             inkscape:label="food edge"
             style="fill:none;stroke:#e5ceae;stroke-width:1.75;stroke-dasharray:none;stroke-opacity:1"><path
               style="fill:none;stroke:#e5ceae;stroke-width:1.75;stroke-linecap:round;stroke-dasharray:none;stroke-opacity:1"
               d="m 113.81816,184.87383 0.46302,-0.59532 0.66146,-0.53468 0.39687,-0.16352 0.52917,-0.0974 1.12448,-0.0643 h 0.92604 0.26458"
               id="path43" /><path
               style="fill:none;stroke:#e5ceae;stroke-width:1.75;stroke-linecap:round;stroke-dasharray:none;stroke-opacity:1"
               d="m 100.52286,182.55867 c -0.0502,0.0413 -0.10259,0.11644 -0.20212,0.15434 -0.39802,0.15157 -1.25739,0.28835 -1.84841,0.58796 -0.15246,0.0773 -0.25872,0.13862 -0.39687,0.22784 -0.24367,0.15737 -0.51385,0.3434 -0.7276,0.55122 -0.25464,0.24755 -0.46905,0.46904 -0.72761,0.7276"
               id="path44" /><path
               style="fill:none;stroke:#e5ceae;stroke-width:1.75;stroke-linecap:round;stroke-dasharray:none;stroke-opacity:1"
               d="m 83.39057,186.13072 c 0.22661,-0.37195 0.44392,-0.794 0.75333,-1.19062 0.11377,-0.14585 0.24802,-0.32413 0.37666,-0.46302 0.21053,-0.22731 0.53266,-0.46604 0.78824,-0.62104 0.33014,-0.20022 0.52481,-0.33194 0.92604,-0.47404 0.32931,-0.11664 0.65595,-0.20088 0.99219,-0.22968 0.28965,-0.0248 0.62532,-0.0727 0.92604,-0.0643 0.2649,0.007 0.60378,0.0498 0.8599,0.0919 0.54862,0.0902 0.91586,0.11029 1.12448,0.14699 0.0289,0.005 0.11765,0.0401 0.26458,0.009 0.10732,-0.0226 0.16577,-0.0593 0.19293,-0.0827 0.0746,-0.0643 0.12581,-0.10998 0.20211,-0.29766 0.0976,-0.24001 0.24778,-0.66447 0.38401,-0.92604 0.0971,-0.18652 0.17284,-0.29749 0.27745,-0.46302 0.16322,-0.25829 0.3632,-0.55453 0.57142,-0.79191 0.29565,-0.33706 0.77461,-0.74138 1.15021,-0.9683 0.11606,-0.0701 0.21057,-0.11236 0.33072,-0.17272 0.18045,-0.0906 0.40352,-0.21305 0.59532,-0.2903 0.16656,-0.0671 0.36019,-0.12066 0.52916,-0.16721 0.16448,-0.0453 0.29147,-0.0973 0.46302,-0.11759 0.60646,-0.0716 1.29532,-0.0745 1.91823,-0.011 0.25968,0.0265 0.41744,0.035 0.66146,0.11576 0.47149,0.15607 1.26203,0.49466 1.65365,0.59347 0.22044,0.0556 0.28312,0.0711 0.46302,0.09"
               id="path45" /><path
               style="fill:none;stroke:#e5ceae;stroke-width:1.75;stroke-linecap:round;stroke-dasharray:none;stroke-opacity:1"
               d="m 105.48315,184.87411 c -0.38692,-0.47713 -0.80387,-0.8446 -1.32291,-1.19063 -0.14727,-0.0982 -0.25214,-0.17496 -0.39688,-0.26274 -0.2153,-0.13058 -0.5467,-0.27329 -0.79375,-0.35278 -0.24881,-0.0801 -0.54753,-0.1818 -0.79375,-0.22967 -0.15148,-0.0294 -0.36462,-0.0618 -0.52917,-0.0808 -0.1274,-0.0148 -0.20989,-0.0346 -0.33072,-0.0515 -0.13965,-0.0194 -0.42902,-0.001 -0.52917,-0.022 -0.13852,-0.0283 -0.20406,-0.0487 -0.28296,-0.25723 -0.0352,-0.0931 -0.0406,-0.17494 -0.0441,-0.19844 -0.0147,-0.0977 -0.0281,-0.15518 -0.0661,-0.39688 -0.0177,-0.11242 -0.0592,-0.34912 -0.0992,-0.46302 -0.0774,-0.22011 -0.22649,-0.43355 -0.28663,-0.66145 -0.0272,-0.10311 -0.0684,-0.30957 -0.09,-0.39688 -0.0453,-0.18308 -0.0583,-0.23974 -0.0735,-0.33073 l 0.0129,-0.13229 c 0.0504,-0.14717 0.13477,-0.19743 0.18741,-0.26458 0.0863,-0.11003 0.19883,-0.2827 0.34911,-0.46302 0.0946,-0.11347 0.17928,-0.21887 0.2756,-0.33073 0.32383,-0.37606 0.74576,-0.74851 1.17593,-1.03629 0.30134,-0.20159 0.56147,-0.35193 0.92604,-0.49793 0.30765,-0.1232 0.74327,-0.28571 1.05833,-0.35645 0.22718,-0.051 0.55047,-0.0778 0.79375,-0.0919 0.25267,-0.0146 0.33338,-0.002 0.59532,-0.002 0.31504,0 0.42672,-0.0271 0.7276,0.0147 0.42987,0.0597 0.79206,0.1309 1.19063,0.24069 0.25451,0.0701 0.54876,0.17689 0.79375,0.29031 0.30785,0.14252 0.47238,0.22469 0.7276,0.40607 0.26848,0.19079 0.61801,0.46366 0.85806,0.70371 0.22472,0.22473 0.49978,0.54807 0.68718,0.79191 0.22052,0.28695 0.26101,0.52395 0.57143,0.62839 0.19112,0.0643 0.35106,2.5e-4 0.5953,-0.0478 0.31969,-0.0629 0.66491,-0.22974 0.99219,-0.33808 0.16293,-0.0539 0.29299,-0.0902 0.46302,-0.11024 0.36103,-0.0426 0.74832,-0.12533 1.12448,-0.1323 0.26186,-0.005 0.54343,0.0462 0.79375,0.0717 0.65829,0.067 1.43858,0.31196 2.05052,0.68167 0.15307,0.0925 0.25995,0.17621 0.39687,0.28112 0.37258,0.28547 0.92597,0.75884 1.21451,1.14837 0.17761,0.23976 0.20383,0.45926 0.28296,0.58796 0.0357,0.058 0.0847,0.11289 0.22232,0.12678 0.13823,0.014 0.35328,-0.0497 0.46303,-0.068 0.15652,-0.0261 0.47701,-0.0647 0.66145,-0.1176 0.15565,-0.0446 0.28957,-0.0919 0.46302,-0.11759 0.2735,-0.0405 0.64332,-0.0626 0.92605,-0.079 0.35247,-0.0204 0.84947,0.0221 1.19062,0.079 0.28473,0.0474 0.57243,0.16084 0.8599,0.2407 0.17185,0.0478 0.30718,0.115 0.46302,0.19292 0.40643,0.20322 0.84469,0.50548 1.19062,0.79375 0.50485,0.42071 0.96372,1.1299 1.32292,1.6022"
               id="path46" /><path
               style="fill:none;stroke:#e5ceae;stroke-width:1.75;stroke-linecap:round;stroke-dasharray:none;stroke-opacity:1"
               d="m 118.84473,182.1618 -0.33992,0.52916 -0.25356,0.59532 -0.005,0.26458 0.12678,0.26458 0.40607,0.46302"
               id="path47" /></g><g
             id="g87"
             inkscape:label="food gas"
             style="opacity:1;fill:none;stroke:#fdecd2;stroke-width:0.75;stroke-linecap:round;stroke-dasharray:none;stroke-opacity:1"><path
               style="fill:none;stroke:#fdecd2;stroke-width:0.75;stroke-linecap:round;stroke-dasharray:none;stroke-opacity:1"
               d="m 113.81816,184.87383 0.46302,-0.59532 0.66146,-0.53468 0.39687,-0.16352 0.52917,-0.0974 1.12448,-0.0643 h 0.92604 0.26458"
               id="path83" /><path
               style="fill:none;stroke:#fdecd2;stroke-width:0.75;stroke-linecap:round;stroke-dasharray:none;stroke-opacity:1"
               d="m 100.52286,182.55867 c -0.0502,0.0413 -0.10259,0.11644 -0.20212,0.15434 -0.39802,0.15157 -1.25739,0.28835 -1.84841,0.58796 -0.15246,0.0773 -0.25872,0.13862 -0.39687,0.22784 -0.24367,0.15737 -0.51385,0.3434 -0.7276,0.55122 -0.25464,0.24755 -0.46905,0.46904 -0.72761,0.7276"
               id="path84" /><path
               style="fill:none;stroke:#fdecd2;stroke-width:0.75;stroke-linecap:round;stroke-dasharray:none;stroke-opacity:1"
               d="m 83.39057,186.13072 c 0.22661,-0.37195 0.44392,-0.794 0.75333,-1.19062 0.11377,-0.14585 0.24802,-0.32413 0.37666,-0.46302 0.21053,-0.22731 0.53266,-0.46604 0.78824,-0.62104 0.33014,-0.20022 0.52481,-0.33194 0.92604,-0.47404 0.32931,-0.11664 0.65595,-0.20088 0.99219,-0.22968 0.28965,-0.0248 0.62532,-0.0727 0.92604,-0.0643 0.2649,0.007 0.60378,0.0498 0.8599,0.0919 0.54862,0.0902 0.91586,0.11029 1.12448,0.14699 0.0289,0.005 0.11765,0.0401 0.26458,0.009 0.10732,-0.0226 0.16577,-0.0593 0.19293,-0.0827 0.0746,-0.0643 0.12581,-0.10998 0.20211,-0.29766 0.0976,-0.24001 0.24778,-0.66447 0.38401,-0.92604 0.0971,-0.18652 0.17284,-0.29749 0.27745,-0.46302 0.16322,-0.25829 0.3632,-0.55453 0.57142,-0.79191 0.29565,-0.33706 0.77461,-0.74138 1.15021,-0.9683 0.11606,-0.0701 0.21057,-0.11236 0.33072,-0.17272 0.18045,-0.0906 0.40352,-0.21305 0.59532,-0.2903 0.16656,-0.0671 0.36019,-0.12066 0.52916,-0.16721 0.16448,-0.0453 0.29147,-0.0973 0.46302,-0.11759 0.60646,-0.0716 1.29532,-0.0745 1.91823,-0.011 0.25968,0.0265 0.41744,0.035 0.66146,0.11576 0.47149,0.15607 1.26203,0.49466 1.65365,0.59347 0.22044,0.0556 0.28312,0.0711 0.46302,0.09"
               id="path85" /><path
               style="fill:none;stroke:#fdecd2;stroke-width:0.75;stroke-linecap:round;stroke-dasharray:none;stroke-opacity:1"
               d="m 105.48315,184.87411 c -0.38692,-0.47713 -0.80387,-0.8446 -1.32291,-1.19063 -0.14727,-0.0982 -0.25214,-0.17496 -0.39688,-0.26274 -0.2153,-0.13058 -0.5467,-0.27329 -0.79375,-0.35278 -0.24881,-0.0801 -0.54753,-0.1818 -0.79375,-0.22967 -0.15148,-0.0294 -0.36462,-0.0618 -0.52917,-0.0808 -0.1274,-0.0148 -0.20989,-0.0346 -0.33072,-0.0515 -0.13965,-0.0194 -0.42902,-0.001 -0.52917,-0.022 -0.13852,-0.0283 -0.20406,-0.0487 -0.28296,-0.25723 -0.0352,-0.0931 -0.0406,-0.17494 -0.0441,-0.19844 -0.0147,-0.0977 -0.0281,-0.15518 -0.0661,-0.39688 -0.0177,-0.11242 -0.0592,-0.34912 -0.0992,-0.46302 -0.0774,-0.22011 -0.22649,-0.43355 -0.28663,-0.66145 -0.0272,-0.10311 -0.0684,-0.30957 -0.09,-0.39688 -0.0453,-0.18308 -0.0583,-0.23974 -0.0735,-0.33073 l 0.0129,-0.13229 c 0.0504,-0.14717 0.13477,-0.19743 0.18741,-0.26458 0.0863,-0.11003 0.19883,-0.2827 0.34911,-0.46302 0.0946,-0.11347 0.17928,-0.21887 0.2756,-0.33073 0.32383,-0.37606 0.74576,-0.74851 1.17593,-1.03629 0.30134,-0.20159 0.56147,-0.35193 0.92604,-0.49793 0.30765,-0.1232 0.74327,-0.28571 1.05833,-0.35645 0.22718,-0.051 0.55047,-0.0778 0.79375,-0.0919 0.25267,-0.0146 0.33338,-0.002 0.59532,-0.002 0.31504,0 0.42672,-0.0271 0.7276,0.0147 0.42987,0.0597 0.79206,0.1309 1.19063,0.24069 0.25451,0.0701 0.54876,0.17689 0.79375,0.29031 0.30785,0.14252 0.47238,0.22469 0.7276,0.40607 0.26848,0.19079 0.61801,0.46366 0.85806,0.70371 0.22472,0.22473 0.49978,0.54807 0.68718,0.79191 0.22052,0.28695 0.26101,0.52395 0.57143,0.62839 0.19112,0.0643 0.35106,2.5e-4 0.5953,-0.0478 0.31969,-0.0629 0.66491,-0.22974 0.99219,-0.33808 0.16293,-0.0539 0.29299,-0.0902 0.46302,-0.11024 0.36103,-0.0426 0.74832,-0.12533 1.12448,-0.1323 0.26186,-0.005 0.54343,0.0462 0.79375,0.0717 0.65829,0.067 1.43858,0.31196 2.05052,0.68167 0.15307,0.0925 0.25995,0.17621 0.39687,0.28112 0.37258,0.28547 0.92597,0.75884 1.21451,1.14837 0.17761,0.23976 0.20383,0.45926 0.28296,0.58796 0.0357,0.058 0.0847,0.11289 0.22232,0.12678 0.13823,0.014 0.35328,-0.0497 0.46303,-0.068 0.15652,-0.0261 0.47701,-0.0647 0.66145,-0.1176 0.15565,-0.0446 0.28957,-0.0919 0.46302,-0.11759 0.2735,-0.0405 0.64332,-0.0626 0.92605,-0.079 0.35247,-0.0204 0.84947,0.0221 1.19062,0.079 0.28473,0.0474 0.57243,0.16084 0.8599,0.2407 0.17185,0.0478 0.30718,0.115 0.46302,0.19292 0.40643,0.20322 0.84469,0.50548 1.19062,0.79375 0.50485,0.42071 0.96372,1.1299 1.32292,1.6022"
               id="path86" /><path
               style="fill:none;stroke:#fdecd2;stroke-width:0.75;stroke-linecap:round;stroke-dasharray:none;stroke-opacity:1"
               d="m 118.84473,182.1618 -0.33992,0.52916 -0.25356,0.59532 -0.005,0.26458 0.12678,0.26458 0.40607,0.46302"
               id="path87" /></g></g><g
           id="g57"
           inkscape:label="spoon"
           transform="translate(-4.3189866,-118.77213)"
           style="opacity:1;fill:none"><path
             style="opacity:1;fill:none;fill-opacity:0;stroke:#5ba29b;stroke-width:1.75;stroke-linecap:round;stroke-dasharray:none;stroke-opacity:1"
             d="m 127.12118,188.06786 12.00573,-15.2824 c 0.26801,-0.34115 0.61272,-0.58749 0.92659,-0.8314 0.40751,-0.31669 0.9235,-0.52551 1.42692,-0.63919 0.45482,-0.10271 0.94706,-0.11027 1.3988,0.005 0.44832,0.11462 0.9584,0.28027 1.22035,0.66173 0.27397,0.39896 0.42586,0.78275 0.47051,1.21417 0.0405,0.39072 0.0104,0.8838 -0.0713,1.26803 -0.10746,0.50575 -0.31154,0.89069 -0.64377,1.20284 L 130.63728,188.086 Z"
             id="path80"
             sodipodi:nodetypes="csssssssscc"
             inkscape:label="spoon" /><path
             style="opacity:1;fill:none;fill-opacity:0;stroke:#d5f9f8;stroke-width:0.75;stroke-linecap:round;stroke-dasharray:none;stroke-opacity:1"
             d="m 127.12118,188.06786 12.00573,-15.2824 c 0.26801,-0.34115 0.61272,-0.58749 0.92659,-0.8314 0.40751,-0.31669 0.9235,-0.52551 1.42692,-0.63919 0.45482,-0.10271 0.94706,-0.11027 1.3988,0.005 0.44832,0.11462 0.9584,0.28027 1.22035,0.66173 0.27397,0.39896 0.42586,0.78275 0.47051,1.21417 0.0405,0.39072 0.0104,0.8838 -0.0713,1.26803 -0.10746,0.50575 -0.31154,0.89069 -0.64377,1.20284 L 130.63728,188.086 Z"
             id="path58"
             sodipodi:nodetypes="csssssssscc"
             inkscape:label="spoon gas" /></g><g
           id="g13"
           inkscape:label="bowl"
           style="opacity:1;fill:none;stroke:#5ba29b;stroke-width:1.75;stroke-dasharray:none;stroke-opacity:1"
           transform="translate(-4.3189866,-118.77213)"><g
             id="g42"
             inkscape:label="bowl edge"
             style="fill:none"><path
               style="fill:none;stroke:#5ba29b;stroke-width:1.75;stroke-linecap:round;stroke-dasharray:none;stroke-opacity:1"
               d="m 78.708431,192.49628 1.44153,-0.0157 c 12.655939,0.01 25.311819,-0.0359 37.967699,-0.0661"
               id="path13"
               inkscape:label="bowl lip" /><path
               style="fill:none;stroke:#5ba29b;stroke-width:1.75;stroke-linecap:round;stroke-dasharray:none;stroke-opacity:1"
               d="m 84.9786,196.44938 c 0.899364,1.46521 1.850659,2.91057 3.043886,4.15747 1.724939,1.88116 3.83805,3.37278 6.108497,4.52209 0.23397,0.12834 0.466179,0.26003 0.703357,0.38242"
               id="path6"
               inkscape:label="bowl accent" /><path
               style="fill:none;stroke:#5ba29b;stroke-width:1.75;stroke-linecap:round;stroke-dasharray:none;stroke-opacity:1"
               d="m 136.56996,188.38167 c 0.0376,4.02633 -1.18455,7.79623 -3.55439,11.41968 -2.36984,3.62345 -6.39217,7.03895 -10.59254,9.18107 -0.33933,1.51855 -0.22639,3.09729 -2.77743,3.0312 -8.46842,-0.0726 -16.70176,0.0507 -25.168769,-0.0638 -2.358388,-0.0919 -1.815771,-1.66075 -2.585396,-3.04895 -3.727,-1.85151 -7.202199,-5.45913 -9.570775,-8.87842 -2.225422,-3.27614 -4.24697,-8.51456 -4.748234,-11.69893 -0.09212,-0.58522 0.219733,-0.53412 1.235144,-0.49411 18.392818,0.015 38.79157,0.25471 57.18314,0.31261 0.17084,0.0412 0.5092,0.007 0.57925,0.23966 z"
               id="path7"
               inkscape:label="bowl"
               sodipodi:nodetypes="sccccccsccss" /></g><g
             id="g41"
             inkscape:label="bowl gas"
             style="fill:none;stroke:#d5f9f8;stroke-width:0.75;stroke-dasharray:none;stroke-opacity:1"><path
               style="opacity:1;fill:none;stroke:#d5f9f8;stroke-width:0.75;stroke-linecap:round;stroke-dasharray:none;stroke-opacity:1"
               d="m 78.708431,192.49628 1.44153,-0.0157 c 12.655939,0.01 25.311819,-0.0359 37.967699,-0.0661"
               id="path82"
               inkscape:label="bowl lip" /><path
               style="opacity:1;fill:none;stroke:#d5f9f8;stroke-width:0.75;stroke-linecap:round;stroke-dasharray:none;stroke-opacity:1"
               d="m 84.9786,196.44938 c 0.899364,1.46521 1.850659,2.91057 3.043886,4.15747 1.724939,1.88116 3.83805,3.37278 6.108497,4.52209 0.23397,0.12834 0.466179,0.26003 0.703357,0.38242"
               id="path81"
               inkscape:label="bowl accent" /><path
               style="opacity:1;fill:none;fill-opacity:0;stroke:#d5f9f8;stroke-width:0.75;stroke-linecap:round;stroke-dasharray:none;stroke-opacity:1"
               d="m 136.56996,188.38167 c 0.0376,4.02633 -1.18455,7.79623 -3.55439,11.41968 -2.36984,3.62345 -6.39217,7.03895 -10.59254,9.18107 -0.33933,1.51855 -0.22639,3.09729 -2.77743,3.0312 -8.46842,-0.0726 -16.70176,0.0507 -25.168769,-0.0638 -2.358388,-0.0919 -1.815771,-1.66075 -2.585396,-3.04895 -3.727,-1.85151 -7.202199,-5.45913 -9.570775,-8.87842 -2.225422,-3.27614 -4.24697,-8.51456 -4.748234,-11.69893 -0.09212,-0.58522 0.219733,-0.53412 1.235144,-0.49411 18.392818,0.015 38.79157,0.25471 57.18314,0.31261 0.17084,0.0412 0.5092,0.007 0.57925,0.23966 z"
               id="path73"
               inkscape:label="bowl"
               sodipodi:nodetypes="sccccccsccss" /></g></g><g
           id="g63"
           inkscape:label="heat waves"
           transform="translate(-4.3189866,-118.77213)"
           style="opacity:1;fill:none"><g
             id="g15"
             inkscape:label="heat waves edge"
             style="fill:none;stroke:#f3b54f;stroke-width:1.75;stroke-dasharray:none;stroke-opacity:1"><path
               style="fill:none;stroke:#f3b54f;stroke-width:1.75;stroke-linecap:round;stroke-dasharray:none;stroke-opacity:1"
               d="m 84.316586,175.28279 c -0.0106,-0.13299 -0.006,-0.27547 -0.002,-0.39687 0.003,-0.10673 -0.005,-0.19258 0.004,-0.33073 0.008,-0.13411 0.03,-0.19196 0.0496,-0.33073 0.028,-0.1978 0.0239,-0.27253 0.0551,-0.46302 0.0157,-0.0956 0.0186,-0.16043 0.0275,-0.26459 0.008,-0.0896 0.0244,-0.1758 0.0386,-0.26458 0.014,-0.0874 0.0213,-0.17675 0.0257,-0.26458 0.005,-0.10018 0.008,-0.1649 0.0257,-0.26459 0.0922,-0.51474 0.14807,-1.05768 0.26458,-1.5875 0.35927,-1.6337 0.94161,-3.28697 1.67937,-4.76249 0.0967,-0.1933 0.18979,-0.39789 0.29582,-0.59532 0.21288,-0.39639 0.51391,-0.89489 0.75517,-1.25677 0.11169,-0.16753 0.1888,-0.2832 0.30868,-0.46302 0.67883,-1.01824 1.47821,-1.99938 2.29857,-2.91042 0.78426,-0.87095 1.72891,-1.66625 2.64032,-2.39411 0.1646,-0.13145 0.29799,-0.22478 0.46302,-0.34359 0.16608,-0.11956 0.30311,-0.23068 0.46302,-0.34542 0.11317,-0.0812 0.21201,-0.14502 0.33073,-0.22417 0.69676,-0.4645 1.50118,-0.97094 2.24896,-1.37252 1.32903,-0.71374 2.78754,-1.25532 4.233334,-1.6904 0.61992,-0.18655 1.28506,-0.35571 1.91823,-0.48323 0.39853,-0.0803 0.86143,-0.11785 1.25677,-0.18374 0.22316,-0.0372 0.25104,-0.0422 0.46302,-0.0808 0.0884,-0.0161 0.17576,-0.0214 0.26458,-0.0312 0.0981,-0.0109 0.16525,-0.0319 0.26459,-0.046 0.14074,-0.0198 0.1907,-0.01 0.33073,-0.0294 0.16541,-0.0234 0.21341,-0.0464 0.39687,-0.0515 0.21686,-0.006 0.26452,0.007 0.52917,0 0.27922,-0.008 0.34909,-0.0632 0.66146,-0.0661 0.282,-0.002 0.37118,0 0.66146,0 h 0.66145 c 0.15295,0 0.25246,-0.002 0.46302,0 0.22578,0.002 0.30028,0.0378 0.52917,0.0606 0.27064,0.0269 0.37775,-0.0106 0.59531,0.011 0.15555,0.0155 0.22631,0.0474 0.39688,0.0588 0.0948,0.006 0.17114,0.001 0.26458,0.0165 0.11767,0.0189 0.21193,0.0383 0.33073,0.0514 0.10387,0.0115 0.15185,0.0219 0.26458,0.0404 0.19086,0.0314 0.37043,0.0438 0.59531,0.0772 0.12066,0.0179 0.20706,0.0196 0.33073,0.0404 0.25635,0.0433 0.53587,0.0951 0.79375,0.14699 0.85082,0.17134 1.68359,0.43259 2.51354,0.70923 0.71869,0.23956 1.41374,0.50307 2.11666,0.78456 1.06992,0.42847 2.14335,0.99295 3.10886,1.61874 0.21859,0.14168 0.37768,0.25178 0.59531,0.39687 0.14406,0.096 0.26099,0.17143 0.39688,0.26643 0.136,0.0951 0.25933,0.19082 0.39687,0.29398 0.8252,0.6189 1.64657,1.31345 2.38125,2.04133 0.73184,0.72506 1.4627,1.50764 2.10381,2.3151 0.19117,0.24078 0.36586,0.47051 0.54202,0.72761 0.45605,0.66557 0.94041,1.39111 1.30822,2.11667 0.22146,0.43685 0.4541,0.87899 0.65962,1.32291 0.12022,0.25966 0.22257,0.52973 0.33624,0.79375 0.30342,0.70471 0.5972,1.44401 0.79559,2.18281 0.15677,0.58381 0.29139,1.19434 0.39136,1.78594 0.0346,0.20481 0.0651,0.38225 0.10657,0.59531 0.0476,0.24502 0.0825,0.48581 0.12127,0.72761 0.0149,0.0926 0.0364,0.16824 0.046,0.26458 0.0118,0.11793 -0.001,0.20936 0.011,0.33073 0.0117,0.11751 0.0429,0.20783 0.0551,0.33073 0.0159,0.15958 0.005,0.24765 0.005,0.39687 0,0.1234 -0.003,0.21699 0,0.33073 0.005,0.17263 0.057,0.41367 0.0661,0.59532"
               id="path5" /><path
               style="fill:none;stroke:#f3b54f;stroke-width:1.75;stroke-linecap:round;stroke-dasharray:none;stroke-opacity:1"
               d="m 89.343166,174.88577 0.0404,-0.46302 0.0405,-0.39688 0.0514,-0.33073 0.8158,-3.57187 0.58796,-1.52136 0.9242,-1.71979 0.34359,-0.52916 1.08406,-1.38907 2.06522,-2.10197 1.45521,-1.11345 0.39687,-0.24989 1.05834,-0.66145 0.92604,-0.48691 1.256774,-0.51998 3.10885,-0.95176 1.98438,-0.2701 1.38906,-0.12678 h 0.52917 0.26458 l 0.33073,0.006 0.59531,0.0606 1.25677,0.1176 1.25676,0.16168 1.91823,0.49426 1.98438,0.73128 1.12448,0.49793 1.19062,0.66881 0.52917,0.3491 0.59531,0.40974 0.26458,0.18741 0.39688,0.31052 1.98437,1.82636 0.35646,0.39687 0.55672,0.66146 1.28434,1.91823 0.14331,0.26459 0.15618,0.26458 0.20027,0.39687 0.78273,1.78594 0.47956,1.71979 0.33991,1.78594 0.0515,0.39687 0.0147,0.39688 0.006,0.33073 0.0606,0.33073"
               id="path4" /><path
               style="fill:none;stroke:#f3b54f;stroke-width:1.75;stroke-linecap:round;stroke-dasharray:none;stroke-opacity:1"
               d="m 94.436906,173.76174 c 0.0663,-0.23202 0.11069,-0.49577 0.20763,-0.85989 0.19841,-0.74534 0.41058,-1.48217 0.73495,-2.18282 0.2859,-0.61754 0.61688,-1.22253 0.9977,-1.78593 0.1516,-0.22429 0.28595,-0.37905 0.45016,-0.59531 0.76748,-1.01084 1.70583,-1.97138 2.76894,-2.68258 0.29118,-0.1948 0.451584,-0.28652 0.727604,-0.452 0.2084,-0.12494 0.44126,-0.27117 0.66146,-0.38585 0.13597,-0.0708 0.26,-0.13 0.39687,-0.19844 0.1598,-0.0799 0.29569,-0.15327 0.46302,-0.22416 0.79575,-0.33708 1.66946,-0.65071 2.51355,-0.86174 0.43084,-0.10771 0.87327,-0.15956 1.32291,-0.2168 0.13379,-0.0171 0.20206,-0.0248 0.33073,-0.046 0.15947,-0.0262 0.27996,-0.0257 0.46302,-0.0257 0.72365,0 1.54655,-0.0644 2.24896,0.006 0.14398,0.0143 0.25591,0.0443 0.39688,0.0606 0.59135,0.0684 1.12503,0.1577 1.71979,0.32154 1.23976,0.34152 2.481,0.80786 3.57186,1.46439 0.11523,0.0694 0.21785,0.12868 0.33073,0.20028 0.12206,0.0774 0.21658,0.14041 0.33073,0.22232 0.35937,0.25789 0.91797,0.6669 1.25677,0.97198 0.27032,0.24341 0.4011,0.39558 0.66146,0.65595 0.24539,0.24539 0.32471,0.31886 0.52917,0.52916 0.11678,0.12013 0.18701,0.20573 0.29031,0.33073 0.0968,0.1171 0.18234,0.207 0.27744,0.33073 0.14516,0.18889 0.28429,0.39008 0.42443,0.59531 0.21428,0.31378 0.41027,0.6515 0.58062,0.99219 0.25988,0.51976 0.4857,1.04168 0.72576,1.5875 0.30994,0.7047 0.39443,1.63422 0.61185,2.3151"
               id="path3" /><path
               style="fill:none;stroke:#f3b54f;stroke-width:1.75;stroke-linecap:round;stroke-dasharray:none;stroke-opacity:1"
               d="m 99.397846,173.69601 c 0.27611,-0.86465 0.637484,-1.77799 1.170414,-2.51354 0.11001,-0.15183 0.20988,-0.2573 0.32522,-0.39687 0.16133,-0.19522 0.37149,-0.41192 0.55489,-0.59532 0.31046,-0.31045 0.63843,-0.59275 0.99219,-0.8507 0.19223,-0.14017 0.33354,-0.22219 0.52916,-0.33992 0.52214,-0.31425 1.07797,-0.55776 1.65365,-0.74965 0.24224,-0.0807 0.48447,-0.16863 0.7276,-0.23335 0.49399,-0.1315 0.95228,-0.20646 1.45521,-0.20763 0.50705,-0.001 1.03246,-0.0431 1.52136,0.005 0.11345,0.0113 0.22227,0.0413 0.33073,0.0551 0.10457,0.0133 0.16144,0.0127 0.26458,0.0312 0.1723,0.0308 0.414,0.0525 0.59531,0.0974 0.78687,0.19489 1.6311,0.52832 2.3151,0.93523 0.11556,0.0687 0.21786,0.12869 0.33072,0.20027 0.14561,0.0924 0.25683,0.16701 0.39688,0.27561 0.35485,0.27517 0.73877,0.59063 1.05833,0.91318 0.28956,0.29226 0.58553,0.65539 0.81396,0.99219 0.12538,0.18485 0.19401,0.33022 0.31052,0.52916 0.34449,0.58821 0.5048,1.2435 0.79375,1.85209"
               id="path42" /></g><g
             id="g91"
             inkscape:label="heat waves gas"
             style="fill:none;stroke:#ffe3a2;stroke-width:0.75;stroke-dasharray:none;stroke-opacity:1"><path
               style="fill:none;stroke:#ffe3a2;stroke-width:0.75;stroke-linecap:round;stroke-dasharray:none;stroke-opacity:1"
               d="m 84.316586,175.28279 c -0.0106,-0.13299 -0.006,-0.27547 -0.002,-0.39687 0.003,-0.10673 -0.005,-0.19258 0.004,-0.33073 0.008,-0.13411 0.03,-0.19196 0.0496,-0.33073 0.028,-0.1978 0.0239,-0.27253 0.0551,-0.46302 0.0157,-0.0956 0.0186,-0.16043 0.0275,-0.26459 0.008,-0.0896 0.0244,-0.1758 0.0386,-0.26458 0.014,-0.0874 0.0213,-0.17675 0.0257,-0.26458 0.005,-0.10018 0.008,-0.1649 0.0257,-0.26459 0.0922,-0.51474 0.14807,-1.05768 0.26458,-1.5875 0.35927,-1.6337 0.94161,-3.28697 1.67937,-4.76249 0.0967,-0.1933 0.18979,-0.39789 0.29582,-0.59532 0.21288,-0.39639 0.51391,-0.89489 0.75517,-1.25677 0.11169,-0.16753 0.1888,-0.2832 0.30868,-0.46302 0.67883,-1.01824 1.47821,-1.99938 2.29857,-2.91042 0.78426,-0.87095 1.72891,-1.66625 2.64032,-2.39411 0.1646,-0.13145 0.29799,-0.22478 0.46302,-0.34359 0.16608,-0.11956 0.30311,-0.23068 0.46302,-0.34542 0.11317,-0.0812 0.21201,-0.14502 0.33073,-0.22417 0.69676,-0.4645 1.50118,-0.97094 2.24896,-1.37252 1.32903,-0.71374 2.78754,-1.25532 4.233334,-1.6904 0.61992,-0.18655 1.28506,-0.35571 1.91823,-0.48323 0.39853,-0.0803 0.86143,-0.11785 1.25677,-0.18374 0.22316,-0.0372 0.25104,-0.0422 0.46302,-0.0808 0.0884,-0.0161 0.17576,-0.0214 0.26458,-0.0312 0.0981,-0.0109 0.16525,-0.0319 0.26459,-0.046 0.14074,-0.0198 0.1907,-0.01 0.33073,-0.0294 0.16541,-0.0234 0.21341,-0.0464 0.39687,-0.0515 0.21686,-0.006 0.26452,0.007 0.52917,0 0.27922,-0.008 0.34909,-0.0632 0.66146,-0.0661 0.282,-0.002 0.37118,0 0.66146,0 h 0.66145 c 0.15295,0 0.25246,-0.002 0.46302,0 0.22578,0.002 0.30028,0.0378 0.52917,0.0606 0.27064,0.0269 0.37775,-0.0106 0.59531,0.011 0.15555,0.0155 0.22631,0.0474 0.39688,0.0588 0.0948,0.006 0.17114,0.001 0.26458,0.0165 0.11767,0.0189 0.21193,0.0383 0.33073,0.0514 0.10387,0.0115 0.15185,0.0219 0.26458,0.0404 0.19086,0.0314 0.37043,0.0438 0.59531,0.0772 0.12066,0.0179 0.20706,0.0196 0.33073,0.0404 0.25635,0.0433 0.53587,0.0951 0.79375,0.14699 0.85082,0.17134 1.68359,0.43259 2.51354,0.70923 0.71869,0.23956 1.41374,0.50307 2.11666,0.78456 1.06992,0.42847 2.14335,0.99295 3.10886,1.61874 0.21859,0.14168 0.37768,0.25178 0.59531,0.39687 0.14406,0.096 0.26099,0.17143 0.39688,0.26643 0.136,0.0951 0.25933,0.19082 0.39687,0.29398 0.8252,0.6189 1.64657,1.31345 2.38125,2.04133 0.73184,0.72506 1.4627,1.50764 2.10381,2.3151 0.19117,0.24078 0.36586,0.47051 0.54202,0.72761 0.45605,0.66557 0.94041,1.39111 1.30822,2.11667 0.22146,0.43685 0.4541,0.87899 0.65962,1.32291 0.12022,0.25966 0.22257,0.52973 0.33624,0.79375 0.30342,0.70471 0.5972,1.44401 0.79559,2.18281 0.15677,0.58381 0.29139,1.19434 0.39136,1.78594 0.0346,0.20481 0.0651,0.38225 0.10657,0.59531 0.0476,0.24502 0.0825,0.48581 0.12127,0.72761 0.0149,0.0926 0.0364,0.16824 0.046,0.26458 0.0118,0.11793 -0.001,0.20936 0.011,0.33073 0.0117,0.11751 0.0429,0.20783 0.0551,0.33073 0.0159,0.15958 0.005,0.24765 0.005,0.39687 0,0.1234 -0.003,0.21699 0,0.33073 0.005,0.17263 0.057,0.41367 0.0661,0.59532"
               id="path88" /><path
               style="fill:none;stroke:#ffe3a2;stroke-width:0.75;stroke-linecap:round;stroke-dasharray:none;stroke-opacity:1"
               d="m 89.343166,174.88577 0.0404,-0.46302 0.0405,-0.39688 0.0514,-0.33073 0.8158,-3.57187 0.58796,-1.52136 0.9242,-1.71979 0.34359,-0.52916 1.08406,-1.38907 2.06522,-2.10197 1.45521,-1.11345 0.39687,-0.24989 1.05834,-0.66145 0.92604,-0.48691 1.256774,-0.51998 3.10885,-0.95176 1.98438,-0.2701 1.38906,-0.12678 h 0.52917 0.26458 l 0.33073,0.006 0.59531,0.0606 1.25677,0.1176 1.25676,0.16168 1.91823,0.49426 1.98438,0.73128 1.12448,0.49793 1.19062,0.66881 0.52917,0.3491 0.59531,0.40974 0.26458,0.18741 0.39688,0.31052 1.98437,1.82636 0.35646,0.39687 0.55672,0.66146 1.28434,1.91823 0.14331,0.26459 0.15618,0.26458 0.20027,0.39687 0.78273,1.78594 0.47956,1.71979 0.33991,1.78594 0.0515,0.39687 0.0147,0.39688 0.006,0.33073 0.0606,0.33073"
               id="path89" /><path
               style="fill:none;stroke:#ffe3a2;stroke-width:0.75;stroke-linecap:round;stroke-dasharray:none;stroke-opacity:1"
               d="m 94.436906,173.76174 c 0.0663,-0.23202 0.11069,-0.49577 0.20763,-0.85989 0.19841,-0.74534 0.41058,-1.48217 0.73495,-2.18282 0.2859,-0.61754 0.61688,-1.22253 0.9977,-1.78593 0.1516,-0.22429 0.28595,-0.37905 0.45016,-0.59531 0.76748,-1.01084 1.70583,-1.97138 2.76894,-2.68258 0.29118,-0.1948 0.451584,-0.28652 0.727604,-0.452 0.2084,-0.12494 0.44126,-0.27117 0.66146,-0.38585 0.13597,-0.0708 0.26,-0.13 0.39687,-0.19844 0.1598,-0.0799 0.29569,-0.15327 0.46302,-0.22416 0.79575,-0.33708 1.66946,-0.65071 2.51355,-0.86174 0.43084,-0.10771 0.87327,-0.15956 1.32291,-0.2168 0.13379,-0.0171 0.20206,-0.0248 0.33073,-0.046 0.15947,-0.0262 0.27996,-0.0257 0.46302,-0.0257 0.72365,0 1.54655,-0.0644 2.24896,0.006 0.14398,0.0143 0.25591,0.0443 0.39688,0.0606 0.59135,0.0684 1.12503,0.1577 1.71979,0.32154 1.23976,0.34152 2.481,0.80786 3.57186,1.46439 0.11523,0.0694 0.21785,0.12868 0.33073,0.20028 0.12206,0.0774 0.21658,0.14041 0.33073,0.22232 0.35937,0.25789 0.91797,0.6669 1.25677,0.97198 0.27032,0.24341 0.4011,0.39558 0.66146,0.65595 0.24539,0.24539 0.32471,0.31886 0.52917,0.52916 0.11678,0.12013 0.18701,0.20573 0.29031,0.33073 0.0968,0.1171 0.18234,0.207 0.27744,0.33073 0.14516,0.18889 0.28429,0.39008 0.42443,0.59531 0.21428,0.31378 0.41027,0.6515 0.58062,0.99219 0.25988,0.51976 0.4857,1.04168 0.72576,1.5875 0.30994,0.7047 0.39443,1.63422 0.61185,2.3151"
               id="path90" /><path
               style="fill:none;stroke:#ffe3a2;stroke-width:0.75;stroke-linecap:round;stroke-dasharray:none;stroke-opacity:1"
               d="m 99.397846,173.69601 c 0.27611,-0.86465 0.637484,-1.77799 1.170414,-2.51354 0.11001,-0.15183 0.20988,-0.2573 0.32522,-0.39687 0.16133,-0.19522 0.37149,-0.41192 0.55489,-0.59532 0.31046,-0.31045 0.63843,-0.59275 0.99219,-0.8507 0.19223,-0.14017 0.33354,-0.22219 0.52916,-0.33992 0.52214,-0.31425 1.07797,-0.55776 1.65365,-0.74965 0.24224,-0.0807 0.48447,-0.16863 0.7276,-0.23335 0.49399,-0.1315 0.95228,-0.20646 1.45521,-0.20763 0.50705,-0.001 1.03246,-0.0431 1.52136,0.005 0.11345,0.0113 0.22227,0.0413 0.33073,0.0551 0.10457,0.0133 0.16144,0.0127 0.26458,0.0312 0.1723,0.0308 0.414,0.0525 0.59531,0.0974 0.78687,0.19489 1.6311,0.52832 2.3151,0.93523 0.11556,0.0687 0.21786,0.12869 0.33072,0.20027 0.14561,0.0924 0.25683,0.16701 0.39688,0.27561 0.35485,0.27517 0.73877,0.59063 1.05833,0.91318 0.28956,0.29226 0.58553,0.65539 0.81396,0.99219 0.12538,0.18485 0.19401,0.33022 0.31052,0.52916 0.34449,0.58821 0.5048,1.2435 0.79375,1.85209"
               id="path91" /></g></g></g><g
         id="g73"
         inkscape:label="text"><g
           id="g72"
           inkscape:label="traced text"
           style="opacity:1"
           transform="matrix(0.7721055,0,0,0.7721055,22.47008,-621.91265)"><path
             style="font-size:25.4px;line-height:0;font-family:'Tilt Neon';-inkscape-font-specification:'Tilt Neon';baseline-shift:baseline;display:inline;overflow:visible;vector-effect:none;fill:#008000;stroke-linecap:round;enable-background:accumulate;stop-color:#000000;stop-opacity:1"
             d="m 101.84766,935.44727 c -0.42517,0 -0.83698,0.172 -1.15235,0.46484 -0.34631,0.32057 -0.49023,0.79731 -0.49023,1.30664 v 1.29492 1.06641 1.01562 2.69336 2.25977 2.28711 2.66601 1.59961 1.75391 c 0,0.5236 0.13858,1.00576 0.47656,1.34375 l 0.0137,0.0137 0.0137,0.0117 c 0.31746,0.27211 0.72277,0.42578 1.13868,0.42578 0.42155,0 0.82981,-0.17564 1.13086,-0.47266 0.34875,-0.32875 0.51171,-0.8094 0.51171,-1.32226 v -1.14258 -1.06836 -1.03711 c 0.18177,0.15343 0.27775,0.27709 0.48829,0.44141 l 0.002,0.002 c 0.5143,0.39817 1.02878,0.82873 1.54492,1.29492 l 0.004,0.004 0.004,0.002 c 0.52263,0.45519 1.04367,0.92043 1.56641,1.39258 l 0.004,0.002 0.004,0.004 c 0.51951,0.45248 1.0132,0.88777 1.48242,1.30664 4.8e-4,4.5e-4 0.001,-4.5e-4 0.002,0 0.36889,0.34784 0.82831,0.55765 1.30078,0.50977 0.42251,-0.0271 0.82772,-0.20057 1.11133,-0.50782 0.28121,-0.30464 0.4375,-0.71104 0.4375,-1.12695 0,-0.4884 -0.25968,-0.93752 -0.65039,-1.28711 -0.49086,-0.45694 -0.99725,-0.92298 -1.52149,-1.39648 -0.5311,-0.47971 -1.07956,-0.94986 -1.64453,-1.41211 -0.54212,-0.47407 -1.07723,-0.92323 -1.60352,-1.34766 l -0.002,-0.004 -0.004,-0.002 c -0.23093,-0.18072 -0.32768,-0.25291 -0.47071,-0.36328 l 0.48438,-0.36328 0.004,-0.004 c 0.50375,-0.3694 0.99935,-0.72937 1.48633,-1.08203 l 0.006,-0.004 c 0.51018,-0.35722 1.0036,-0.71462 1.48047,-1.07227 l -0.008,0.004 c 0.49243,-0.35659 0.96899,-0.70316 1.42773,-1.04297 v -0.002 h 0.002 c 0.40907,-0.3068 0.70348,-0.71213 0.75586,-1.18359 v -0.002 c 0.0444,-0.42169 -0.0728,-0.84715 -0.32617,-1.17969 -0.24259,-0.35235 -0.62935,-0.59418 -1.05664,-0.66211 h -0.002 c -0.46649,-0.0764 -0.93382,0.0925 -1.3418,0.39844 l -0.004,0.002 -0.002,0.002 c -0.43609,0.33546 -0.89728,0.67825 -1.38476,1.03125 -0.4721,0.3372 -0.96079,0.68291 -1.4668,1.03711 l -0.004,0.002 -0.002,0.004 c -0.49275,0.35682 -1.00293,0.73056 -1.5293,1.1211 v -0.002 c -0.24896,0.18376 -0.36504,0.33032 -0.57422,0.50196 v -0.0742 -2.64063 -2.3125 -1.14258 -1.0664 -1.16797 c 0,-0.50995 -0.16612,-0.98756 -0.52343,-1.30273 -0.30019,-0.29154 -0.70183,-0.46875 -1.11914,-0.46875 z m 0,1 c 0.18443,0 0.29505,0.045 0.43359,0.18359 l 0.0137,0.0137 0.0137,0.0137 c 0.10681,0.0915 0.18164,0.23055 0.18164,0.56055 v 1.16797 1.0664 1.14258 2.3125 2.64063 0.95117 c -0.0239,0.0262 -0.0748,0.058 -0.0977,0.084 -4.5e-4,4.9e-4 4.4e-4,10e-4 0,0.002 -0.40569,0.44478 -0.6657,0.93241 -0.68945,1.45508 v 0.0117 0.0117 c 0,0.51433 0.23585,1.00381 0.61718,1.48047 l 0.008,0.008 0.006,0.008 c 0.0369,0.0422 0.11656,0.0976 0.15625,0.14062 v 0.80078 1.14258 1.06836 1.14258 c 0,0.33 -0.0754,0.48627 -0.19531,0.59765 l -0.008,0.008 -0.006,0.006 c -0.13854,0.13854 -0.24916,0.18359 -0.43359,0.18359 -0.18359,0 -0.31613,-0.0548 -0.46289,-0.17383 -0.0988,-0.10344 -0.17969,-0.27283 -0.17969,-0.62109 v -1.75391 -1.59961 -2.66601 -2.28711 -2.25977 -2.69336 -1.01562 -1.06641 -1.29492 c 0,-0.33667 0.075,-0.48645 0.16797,-0.57227 l 0.002,-0.002 c 0.15877,-0.14743 0.28823,-0.19726 0.47266,-0.19726 z m -49.554691,0.65234 c -0.413667,0 -0.804251,0.0957 -1.123047,0.31641 l -0.0078,0.006 -0.0078,0.006 c -0.27906,0.2093 -0.486668,0.50451 -0.583985,0.83789 -1.94e-4,6.4e-4 1.94e-4,0.001 0,0.002 -0.09576,0.3126 -0.09478,0.64873 -0.0039,0.96679 l 0.002,0.006 0.002,0.004 c 0.09953,0.32346 0.309674,0.60677 0.583985,0.8125 l 0.0078,0.006 0.0078,0.006 c 0.318796,0.2207 0.70938,0.31641 1.123047,0.31641 0.399455,0 0.789948,0.009 1.171875,0.0254 0.34454,0.015 0.635611,0.0745 0.880859,0.16992 l 0.0039,0.002 h 0.0039 c 0.227899,0.084 0.383683,0.2082 0.515625,0.41211 l 0.0039,0.006 0.0039,0.006 c 0.100862,0.14671 0.191406,0.44436 0.191406,0.91016 v 1.98242 2.41211 2.23632 1.47266 1.29492 1.34766 1.19336 c 0,0.51 0.143111,0.98491 0.476563,1.31836 l 0.0078,0.006 0.0059,0.008 c 0.315365,0.29284 0.727173,0.46289 1.152343,0.46289 0.421559,0 0.831768,-0.17564 1.132813,-0.47266 0.348753,-0.32875 0.511719,-0.8094 0.511719,-1.32226 v -1.19336 -1.34766 -1.29492 -1.42187 -2.08399 -2.36133 -2.23632 c 0,-0.56856 -0.139653,-1.05833 -0.306641,-1.53125 h 1.837891 1.24414 c 0.522925,0 1.006767,-0.13886 1.332032,-0.49024 0.292839,-0.31536 0.46289,-0.72717 0.46289,-1.15234 0,-0.41794 -0.176416,-0.82078 -0.46875,-1.1211 -0.319698,-0.36097 -0.803871,-0.52148 -1.326172,-0.52148 H 60.140728 58.414165 56.2794 54.121197 Z m 64.591801,0 c -0.83329,0 -1.54259,0.13163 -2.11719,0.43945 l -0.002,0.002 -0.004,0.002 c -0.55525,0.30847 -0.97762,0.79985 -1.23438,1.41211 l -0.002,0.004 v 0.004 c -0.23522,0.58804 -0.3418,1.2834 -0.3418,2.08984 v 1.06836 1.0918 0.83789 c 0,0.49155 0.0773,0.95864 0.23438,1.39063 l 0.002,0.008 0.004,0.01 c 0.0364,0.089 0.10462,0.15493 0.14648,0.24024 -0.0108,0.0186 -0.0365,0.024 -0.0469,0.043 l -0.004,0.008 -0.004,0.008 c -0.22828,0.45656 -0.33204,0.98624 -0.33204,1.57031 v 1.42188 1.625 1.39648 c 0,0.7981 0.12396,1.47943 0.41211,2.03516 l 0.004,0.006 0.002,0.006 c 0.30058,0.54104 0.74781,0.95931 1.30078,1.20508 l 0.004,0.002 h 0.004 c 0.55337,0.23716 1.19649,0.3457 1.92382,0.3457 h 0.53321 0.60937 0.99024 1.57422 1.85546 c 0.51,0 0.98606,-0.14293 1.30665,-0.49023 0.29283,-0.31537 0.46289,-0.72717 0.46289,-1.15234 0,-0.41732 -0.17722,-0.81896 -0.46875,-1.11915 -0.31518,-0.3573 -0.79085,-0.52343 -1.30079,-0.52343 h -1.42187 -0.99219 -1.01562 -1.04102 -1.0918 c -0.27132,0 -0.33989,-0.0321 -0.34375,-0.0156 -0.0101,-0.0718 -0.0195,-0.15502 -0.0195,-0.29883 v -1.09179 -1.57422 -1.48242 h 0.008 1.01562 0.0762 1.44727 0.0762 1.52344 0.0254 1.24609 c 0.41367,0 0.80146,-0.0957 1.11133,-0.32813 0.27431,-0.20573 0.48641,-0.48708 0.58594,-0.81055 v -0.006 l 0.002,-0.004 c 0.0903,-0.31614 0.092,-0.65188 -0.002,-0.96289 -0.0966,-0.33576 -0.30526,-0.63519 -0.58594,-0.8457 -0.30987,-0.2324 -0.69766,-0.32813 -1.11133,-0.32813 h -1.16992 -0.0254 -1.39648 -0.10157 -1.39648 -0.12695 -1.1543 c -0.0115,-0.035 -0.0245,-0.0702 -0.0312,-0.10352 -1.2e-4,-5.7e-4 1.1e-4,-10e-4 0,-0.002 -0.011,-0.0712 -0.0156,-0.13438 -0.0156,-0.18164 v -0.88867 -0.93945 -1.16993 c 0,-0.38822 0.0433,-0.57889 0.0508,-0.63476 0.0746,-0.0154 0.18306,-0.0332 0.36329,-0.0332 h 0.68554 0.63477 0.91406 1.57422 1.70312 c 0.51,0 0.98491,-0.14312 1.31836,-0.47657 l 0.006,-0.006 0.008,-0.008 c 0.29283,-0.31536 0.46289,-0.72717 0.46289,-1.15234 0,-0.42156 -0.17565,-0.82982 -0.47266,-1.13086 -0.32875,-0.34875 -0.8094,-0.51172 -1.32227,-0.51172 h -1.24414 -0.9414 -1.0918 -0.66016 -0.63476 z m -64.591801,1 c 0.492675,0 0.984109,0.0469 1.478515,0.14258 l 0.0098,0.002 0.0078,0.002 c 0.498542,0.0779 0.960272,0.21621 1.390625,0.41602 l 0.0078,0.004 0.0059,0.002 c 0.421664,0.18071 0.791943,0.41925 1.121094,0.7168 h -0.59375 -2.03125 -1.396484 c -0.25908,0 -0.423944,-0.0551 -0.544922,-0.13672 -0.124232,-0.0954 -0.185599,-0.18232 -0.220703,-0.29493 -0.04177,-0.15103 -0.04031,-0.26986 -0.002,-0.39453 l 0.002,-0.004 v -0.006 c 0.03825,-0.13387 0.101893,-0.22123 0.220703,-0.3125 0.120978,-0.0816 0.285842,-0.13672 0.544922,-0.13672 z m 3.84375,0 h 0.142578 2.134765 1.726563 0.990234 c 0.350523,0 0.498859,0.0781 0.585938,0.17969 l 0.01172,0.0156 0.01367,0.0137 c 0.138545,0.13855 0.183594,0.24917 0.183594,0.4336 0,0.18443 -0.04789,0.31389 -0.195312,0.47265 h -0.002 c -0.08112,0.0879 -0.240723,0.16993 -0.597657,0.16993 h -1.24414 -1.955078 -0.414063 c -0.170916,-0.24727 -0.29569,-0.52893 -0.519531,-0.73243 -0.252819,-0.22983 -0.566561,-0.37911 -0.861328,-0.55273 z m 60.748051,0 h 0.93945 0.63476 0.66016 1.0918 0.9414 1.24414 c 0.33,0 0.48628,0.0754 0.59766,0.19531 l 0.008,0.006 0.006,0.008 c 0.13855,0.13855 0.1836,0.24917 0.1836,0.4336 0,0.17999 -0.0541,0.30732 -0.19336,0.46093 -0.10706,0.10424 -0.27013,0.18165 -0.60157,0.18165 h -1.70312 -1.57422 -0.91406 -0.63477 -0.68554 c -0.26386,0 -0.48667,0.0175 -0.69532,0.0762 -0.20864,0.0587 -0.45242,0.17518 -0.57422,0.44922 -0.14589,0.32825 -0.14453,0.64463 -0.14453,1.14257 v 1.16993 0.93945 0.88867 c 0,0.118 0.0106,0.23751 0.0312,0.36133 l 0.002,0.008 0.002,0.008 c 0.006,0.0318 0.0193,0.0623 0.0273,0.0937 -0.28767,0.0576 -0.62229,0.0527 -0.86718,0.16993 -0.14008,0.0646 -0.2025,0.21481 -0.32618,0.30078 -0.0921,-0.28722 -0.15625,-0.59225 -0.15625,-0.94141 v -0.83789 -1.0918 -1.06836 c 0,-0.71596 0.0991,-1.28718 0.26954,-1.71484 0.18332,-0.43429 0.43738,-0.72129 0.79492,-0.91992 0.37351,-0.19847 0.91561,-0.31836 1.63672,-0.31836 z m 26.64453,0.041 c -0.42517,0 -0.83893,0.17006 -1.1543,0.4629 l -0.006,0.008 -0.006,0.006 c -0.33345,0.33345 -0.47656,0.80836 -0.47656,1.31836 v 0.93945 0.84766 h -0.13672 -0.38086 -0.5332 c -0.51352,0 -0.99349,0.16008 -1.32227,0.50976 -0.29782,0.30117 -0.47265,0.71064 -0.47265,1.13281 0,0.42517 0.172,0.83698 0.46484,1.15235 l 0.006,0.008 0.006,0.006 c 0.33345,0.33345 0.80836,0.47656 1.31836,0.47656 h 0.48242 0.45703 0.11133 v 0.54102 1.90625 1.625 1.59961 1.11718 0.9668 1.0918 c 0,0.5236 0.13858,1.00576 0.47656,1.34375 l 0.0137,0.0137 0.0137,0.0117 c 0.31746,0.27211 0.72277,0.42578 1.13868,0.42578 0.42155,0 0.82981,-0.17564 1.13086,-0.47266 0.34875,-0.32875 0.51171,-0.8094 0.51171,-1.32226 v -1.11719 -0.91601 -1.14258 -2.25977 -1.85547 -1.55664 h 0.56641 0.73633 c 0.51,0 0.98686,-0.14311 1.32031,-0.47656 l 0.006,-0.006 0.006,-0.008 c 0.29284,-0.31537 0.46484,-0.72718 0.46484,-1.15235 0,-0.42217 -0.17483,-0.83164 -0.47265,-1.13281 -0.32878,-0.34969 -0.8107,-0.50976 -1.32422,-0.50976 h -0.73633 -0.56641 v -0.36524 -0.66015 -0.76172 c 0,-0.51287 -0.16296,-0.99352 -0.51171,-1.32227 -0.30105,-0.29701 -0.70931,-0.47266 -1.13086,-0.47266 z m 0,1 c 0.18443,0 0.29505,0.045 0.43359,0.1836 l 0.006,0.006 0.008,0.008 c 0.11996,0.11139 0.19531,0.26766 0.19531,0.59766 v 0.76172 0.66015 0.36524 h -0.5664 -0.71875 v -0.84766 -0.93945 c 0,-0.33144 0.0774,-0.49451 0.18164,-0.60157 0.15362,-0.13929 0.28094,-0.19335 0.46094,-0.19336 z m -87.9043,1.24415 h 0.0957 1.306641 c 0.0092,0.0204 0.02823,0.032 0.03711,0.0527 l 0.0039,0.008 0.002,0.006 c 0.183752,0.39578 0.285157,0.8784 0.285157,1.46485 v 2.23632 2.36133 2.08399 1.42187 1.29492 1.34766 1.19336 c 0,0.33 -0.07731,0.48627 -0.197266,0.59765 l -0.0059,0.008 -0.0059,0.006 c -0.138544,0.13854 -0.251117,0.18359 -0.435547,0.18359 -0.179993,0 -0.30732,-0.0541 -0.460937,-0.19336 -0.104231,-0.10706 -0.181641,-0.27012 -0.181641,-0.60156 v -1.19336 -1.34766 -1.29492 -1.47266 -2.23632 -2.41211 -1.98242 c 0,-0.58171 -0.09608,-1.07632 -0.365234,-1.47071 -0.01851,-0.0283 -0.05833,-0.0333 -0.07813,-0.0605 z m 23.490234,1.08203 c -1.232349,0 -2.373525,0.30458 -3.382812,0.91015 l -0.002,0.002 c -0.990034,0.60502 -1.783845,1.45705 -2.363282,2.52539 l -0.002,0.002 c -0.567729,1.0622 -0.847656,2.28571 -0.847656,3.64062 0,1.01784 0.162587,1.96808 0.490234,2.8418 v 0.002 0.002 c 0.326474,0.85246 0.796084,1.60516 1.400391,2.24609 0.603912,0.64051 1.315209,1.14029 2.121094,1.48828 0.809615,0.34961 1.685636,0.52344 2.611328,0.52344 0.915209,0 1.770391,-0.14447 2.558594,-0.4375 0.349312,-0.12702 0.602795,-0.3773 0.914062,-0.55469 0.07304,0.28068 0.08607,0.59389 0.28711,0.79492 l 0.0078,0.006 0.0059,0.008 c 0.315366,0.29284 0.729127,0.46289 1.154297,0.46289 0.421554,0 0.829816,-0.17565 1.13086,-0.47266 0.348752,-0.32875 0.511719,-0.8094 0.511718,-1.32226 v -1.26954 -1.27148 -0.91406 -1.04102 -0.5332 -0.60938 -1.27148 -1.42188 -1.19336 -1.21875 c 1e-6,-0.51286 -0.162966,-0.99351 -0.511718,-1.32226 -0.301044,-0.29701 -0.709306,-0.47266 -1.13086,-0.47266 -0.42517,0 -0.838931,0.17005 -1.154297,0.46289 l -0.0059,0.006 -0.0078,0.008 c -0.153132,0.15313 -0.141309,0.40288 -0.21875,0.60546 -0.333149,-0.22559 -0.608757,-0.53203 -0.988282,-0.6875 -6.93e-4,-3e-4 -0.0013,-0.002 -0.002,-0.002 -0.791501,-0.34749 -1.655446,-0.52148 -2.576172,-0.52148 z m 52.527346,0 c -1.23235,0 -2.37353,0.30458 -3.38281,0.91015 l -0.002,0.002 h -0.002 c -0.99003,0.60502 -1.78189,1.45705 -2.36133,2.52539 l -0.002,0.002 c -0.56773,1.0622 -0.84766,2.28571 -0.84766,3.64062 0,1.01784 0.16259,1.96808 0.49024,2.8418 v 0.002 0.002 c 0.32647,0.85246 0.79413,1.60516 1.39843,2.24609 0.60392,0.64051 1.31717,1.14029 2.12305,1.48828 0.80962,0.34961 1.68564,0.52344 2.61133,0.52344 0.91453,0 1.76892,-0.14491 2.55664,-0.4375 0.34986,-0.12722 0.60432,-0.37695 0.91601,-0.55469 0.073,0.28068 0.0861,0.59389 0.28711,0.79492 l 0.008,0.006 0.006,0.008 c 0.31536,0.29284 0.72717,0.46289 1.15234,0.46289 0.42156,0 0.83177,-0.17564 1.13281,-0.47266 0.34876,-0.32875 0.51172,-0.8094 0.51172,-1.32226 v -1.26954 -1.27148 -0.91406 -1.04102 -0.5332 -0.60938 -1.27148 -1.42188 -1.19336 -1.21875 c 0,-0.51286 -0.16296,-0.99351 -0.51172,-1.32226 -0.30104,-0.29702 -0.71125,-0.47266 -1.13281,-0.47266 -0.42517,0 -0.83698,0.17005 -1.15234,0.46289 l -0.006,0.006 -0.008,0.008 c -0.15313,0.15313 -0.1413,0.40288 -0.21875,0.60546 -0.3327,-0.22529 -0.60736,-0.53215 -0.98632,-0.6875 -0.79301,-0.34912 -1.65721,-0.52343 -2.58008,-0.52343 z m 22.09765,0 c -0.93921,0 -1.79497,0.17324 -2.54687,0.52929 -0.74703,0.33696 -1.35876,0.8287 -1.80078,1.46289 -0.44907,0.64433 -0.67383,1.41 -0.67383,2.24219 0,0.84348 0.21309,1.58761 0.66602,2.16406 l 0.006,0.008 0.006,0.008 c 0.44007,0.5166 1.01492,0.94496 1.70704,1.29101 l 0.004,0.002 0.006,0.002 c 0.66374,0.31441 1.39984,0.60865 2.21094,0.88477 l 0.002,0.002 h 0.002 c 0.34657,0.11552 0.73723,0.25665 1.17188,0.42383 l 0.01,0.004 0.0117,0.004 c 0.41153,0.13717 0.74613,0.31458 1.01563,0.52734 l 0.008,0.006 0.006,0.004 c 0.22562,0.16624 0.2793,0.28152 0.2793,0.48633 0,0.2077 -0.0445,0.30593 -0.16797,0.41992 -0.13374,0.1226 -0.3336,0.23321 -0.61524,0.31836 -0.27083,0.07 -0.5777,0.10937 -0.92578,0.10937 -0.29863,0 -0.61921,-0.0316 -0.95703,-0.0918 -0.33362,-0.0797 -0.67732,-0.18185 -1.03125,-0.31055 -0.34738,-0.12632 -0.6968,-0.28455 -1.04883,-0.47656 -0.45361,-0.24743 -0.95641,-0.342 -1.41406,-0.18946 l -0.004,0.002 -0.004,0.002 c -0.39329,0.13881 -0.72443,0.42026 -0.92969,0.78516 l -0.006,0.01 -0.006,0.0117 c -0.18391,0.36783 -0.23243,0.79098 -0.14258,1.19531 l 0.002,0.0137 0.004,0.0117 c 0.12992,0.46769 0.4957,0.82852 0.96289,1.07227 0.75698,0.40439 1.52713,0.71461 2.3086,0.92773 0.78217,0.21332 1.53829,0.32227 2.26562,0.32227 0.93502,0 1.7767,-0.15226 2.51172,-0.47266 l 0.002,-0.002 0.002,-0.002 c 0.74574,-0.33559 1.35707,-0.81626 1.80078,-1.4336 l 0.002,-0.002 0.004,-0.004 c 0.44772,-0.64237 0.67383,-1.39951 0.67383,-2.21679 0,-0.88029 -0.23551,-1.65837 -0.72071,-2.26563 -0.44168,-0.57334 -1.0399,-1.03514 -1.76953,-1.38281 -0.68443,-0.35046 -1.44087,-0.66258 -2.27148,-0.93945 l -0.0117,-0.004 -0.01,-0.004 c -0.22171,-0.0633 -0.48013,-0.14211 -0.76953,-0.23828 l -0.01,-0.004 c -0.004,-10e-4 -0.007,-0.002 -0.0117,-0.004 -0.28677,-0.11206 -0.56554,-0.23213 -0.83594,-0.35937 -0.24772,-0.11658 -0.43441,-0.24203 -0.57422,-0.36719 -0.10727,-0.10985 -0.1289,-0.17134 -0.1289,-0.24805 0,-0.23866 0.0532,-0.35399 0.1582,-0.45898 0.15667,-0.15668 0.35688,-0.27582 0.62891,-0.35742 0.28813,-0.0865 0.60323,-0.13086 0.94921,-0.13086 0.25846,0 0.51562,0.0225 0.77539,0.0684 h 0.004 0.002 c 0.27815,0.0463 0.55681,0.11724 0.83789,0.21093 0.28899,0.0963 0.57848,0.20871 0.86915,0.33789 l -0.0274,-0.0137 c 0.46771,0.24403 0.97871,0.33058 1.43164,0.14649 0.3979,-0.15624 0.72677,-0.4547 0.89844,-0.83789 0.18086,-0.37026 0.20443,-0.80264 0.0723,-1.19336 -0.13209,-0.45393 -0.48045,-0.81151 -0.93165,-1.03711 -0.67195,-0.33598 -1.34227,-0.57901 -2.00976,-0.72461 -0.001,-3.2e-4 -0.003,3.2e-4 -0.004,0 -0.65931,-0.16008 -1.29935,-0.24414 -1.91797,-0.24414 z m -59.894527,0.0273 c -1.16576,0 -2.259984,0.29613 -3.248047,0.88086 -0.977756,0.5719 -1.772883,1.40662 -2.36914,2.47266 v 0.002 h -0.002 c -0.588251,1.06621 -0.874999,2.31741 -0.875,3.72266 0,1.4395 0.296023,2.70825 0.904297,3.77734 0.597225,1.04967 1.398724,1.88211 2.388672,2.46875 l 0.0059,0.002 0.0039,0.004 c 1.006173,0.56711 2.11727,0.84402 3.298828,0.82617 0.628035,-5.8e-4 1.289445,-0.10282 1.984375,-0.29883 0.705435,-0.19897 1.332966,-0.48165 1.875,-0.85547 l 0.0039,-0.004 0.0039,-0.002 c 0.422261,-0.30161 0.725326,-0.7034 0.783204,-1.17773 0.0629,-0.40256 -0.0278,-0.8187 -0.257813,-1.15039 -0.211985,-0.34062 -0.551961,-0.59308 -0.941406,-0.68945 -0.439382,-0.12494 -0.911304,-0.0224 -1.326172,0.22656 l -0.0039,0.002 -0.0059,0.004 c -0.423118,0.26641 -0.80703,0.43613 -1.148437,0.52148 -0.373111,0.0933 -0.715457,0.13867 -1.023438,0.13867 h -0.0059 -0.0059 c -0.607449,0.0148 -1.137474,-0.12202 -1.632813,-0.41211 -0.493357,-0.30585 -0.883258,-0.72776 -1.183594,-1.29492 -0.281827,-0.58069 -0.429687,-1.26865 -0.429687,-2.08593 0,-0.81889 0.149974,-1.48965 0.427734,-2.03125 2.56e-4,-5e-4 -2.56e-4,-10e-4 0,-0.002 0.303011,-0.57328 0.687727,-0.99908 1.167969,-1.30469 0.479672,-0.30524 1.002427,-0.45507 1.611328,-0.45507 0.307981,0 0.650327,0.0434 1.023438,0.13672 l 0.0098,0.004 0.01172,0.002 c 0.351676,0.0703 0.749254,0.23121 1.185547,0.4961 h 0.002 v 0.002 c 0.413277,0.24797 0.873567,0.36305 1.3125,0.25977 l 0.0098,-0.002 0.0098,-0.002 c 0.397693,-0.11047 0.746786,-0.35276 0.966797,-0.69141 0.231723,-0.34942 0.324957,-0.77877 0.255859,-1.19335 -0.0782,-0.4692 -0.389088,-0.86163 -0.8125,-1.16407 h -0.002 l -0.002,-0.002 c -0.562299,-0.39361 -1.213782,-0.67912 -1.941406,-0.86133 -0.696254,-0.17852 -1.373401,-0.26953 -2.029297,-0.26953 z m -28.751953,0.0508 c -0.42517,0 -0.836979,0.17005 -1.152344,0.46289 -0.351377,0.32527 -0.490234,0.80911 -0.490234,1.33203 v 1.49805 1.57422 1.5 0.83789 0.43164 0.99023 0.68555 1.26953 0.40625 1.32227 c 0,0.41367 0.0957,0.80425 0.316406,1.12305 l 0.0059,0.008 0.0059,0.008 c 0.205733,0.27431 0.489039,0.48446 0.8125,0.58398 h 0.0039 l 0.0059,0.002 c 0.320957,0.0917 0.664843,0.0747 0.976563,-0.0391 0.327964,-0.0989 0.623561,-0.29887 0.830078,-0.57422 0.2324,-0.30987 0.328125,-0.69766 0.328125,-1.11133 v -1.34766 -1.37109 -0.43164 -1.11719 -0.58398 -0.76172 c 0,-0.54981 0.07001,-1.05107 0.207031,-1.50782 0.1338,-0.446 0.334904,-0.80662 0.603516,-1.10351 0.272211,-0.29943 0.620154,-0.51158 1.085937,-0.64258 l 0.0059,-0.002 0.0078,-0.002 c 0.44506,-0.13908 1.028984,-0.1692 1.75586,-0.0586 l 0.0078,0.002 h 0.0078 c 0.506073,0.0607 0.991255,-0.0174 1.359375,-0.30664 h 0.002 l 0.002,-0.002 c 0.336502,-0.2692 0.557859,-0.66115 0.609375,-1.08398 0.06597,-0.42034 -0.03648,-0.85869 -0.289063,-1.20313 -0.280554,-0.38257 -0.731918,-0.59836 -1.240234,-0.67969 l -0.0078,-0.002 h -0.0078 c -0.980438,-0.12478 -1.882386,-0.0929 -2.699219,0.11133 l -0.002,0.002 c -0.64161,0.16413 -1.182228,0.47697 -1.701172,0.81836 -0.08208,-0.18686 -0.06985,-0.42409 -0.21875,-0.56445 -0.301043,-0.29702 -0.709306,-0.47266 -1.130859,-0.47266 z m 14.021484,0.92188 c 0.801509,0 1.524256,0.1492 2.185547,0.4414 l 0.0059,0.002 0.0059,0.004 c 0.4314,0.17648 0.757351,0.49495 1.111328,0.77539 v 0.81836 1.03711 c -0.315289,-0.43815 -0.608634,-0.90206 -1.064453,-1.18359 -0.657776,-0.40628 -1.419529,-0.60742 -2.244141,-0.60742 -0.622326,0 -1.213225,0.12499 -1.753906,0.375 -0.538072,0.23175 -1.007922,0.57327 -1.392578,1.01562 v 0.002 h -0.002 c -0.366468,0.42434 -0.649375,0.93056 -0.853516,1.50586 -0.207231,0.58402 -0.308594,1.21845 -0.308594,1.89453 0,0.67609 0.101363,1.31052 0.308594,1.89454 0.205171,0.57821 0.498989,1.0921 0.88086,1.53125 0.383871,0.44145 0.851674,0.7926 1.386718,1.04101 l 0.0059,0.002 0.0059,0.004 c 0.539504,0.23122 1.128641,0.3457 1.748047,0.3457 0.602092,0 1.162111,-0.0834 1.675781,-0.2539 l 0.0059,-0.002 c 0.531098,-0.17155 1.001912,-0.43375 1.394531,-0.7871 l 0.0059,-0.006 0.0039,-0.004 c 0.08829,-0.0839 0.118834,-0.21579 0.197266,-0.30859 v 0.45312 0.83984 0.33204 c -0.342357,0.22845 -0.649435,0.4929 -1.066406,0.64453 l -0.002,0.002 h -0.002 c -0.667582,0.2484 -1.401579,0.375 -2.212891,0.375 -0.801508,0 -1.534325,-0.14755 -2.214844,-0.44141 -0.684249,-0.29547 -1.277327,-0.71103 -1.791015,-1.25586 -0.512916,-0.544 -0.908323,-1.17743 -1.191407,-1.91601 v -0.002 c -0.281527,-0.75142 -0.425781,-1.57641 -0.425781,-2.48829 0,-1.21823 0.246937,-2.26431 0.728516,-3.16601 v -0.002 c 0.503732,-0.92826 1.166666,-1.63232 2.003906,-2.14454 7.87e-4,-4.8e-4 0.0012,-10e-4 0.002,-0.002 0.852407,-0.51055 1.79424,-0.76562 2.863281,-0.76562 z m 52.527346,0 c 0.80151,0 1.52425,0.1492 2.18554,0.4414 l 0.006,0.002 0.006,0.004 c 0.4314,0.17648 0.75735,0.49495 1.11133,0.77539 v 0.81836 1.03906 c -0.31548,-0.43882 -0.61006,-0.90368 -1.0664,-1.18554 -0.65778,-0.40628 -1.41758,-0.60742 -2.24219,-0.60742 -0.62167,0 -1.21369,0.12552 -1.75391,0.375 -0.53807,0.23175 -1.00792,0.57327 -1.39258,1.01562 v 0.002 h -0.002 c -0.36647,0.42434 -0.64937,0.93056 -0.85351,1.50586 -0.20724,0.58402 -0.3086,1.21845 -0.3086,1.89453 0,0.67609 0.10136,1.31052 0.3086,1.89454 0.20517,0.57821 0.49898,1.0921 0.88085,1.53125 0.38388,0.44145 0.84973,0.7926 1.38477,1.04101 l 0.008,0.002 0.006,0.004 c 0.53951,0.23122 1.12864,0.3457 1.74805,0.3457 0.60209,0 1.16211,-0.0834 1.67578,-0.2539 l 0.006,-0.002 c 0.5311,-0.17155 1.00191,-0.43375 1.39453,-0.7871 l 0.006,-0.006 0.004,-0.004 c 0.0883,-0.0839 0.11883,-0.21579 0.19726,-0.30859 v 0.45312 0.83984 0.33204 c -0.34235,0.22845 -0.64943,0.4929 -1.0664,0.64453 l -0.002,0.002 h -0.002 c -0.66758,0.2484 -1.40158,0.375 -2.21289,0.375 -0.80151,0 -1.53433,-0.14755 -2.21485,-0.44141 -0.68424,-0.29547 -1.27732,-0.71103 -1.79101,-1.25586 -0.51292,-0.544 -0.90832,-1.17743 -1.19141,-1.91601 v -0.002 c -0.28152,-0.75142 -0.42578,-1.57641 -0.42578,-2.48829 0,-1.21823 0.24694,-2.26431 0.72852,-3.16601 v -0.002 c 0.50373,-0.92826 1.16471,-1.63232 2.00195,-2.14454 0.85338,-0.51202 1.7966,-0.76757 2.86719,-0.76757 z m 22.09765,0 c 0.53162,0 1.09319,0.0707 1.68555,0.21484 l 0.006,0.002 0.006,0.002 c 0.58118,0.12566 1.1766,0.33927 1.78711,0.64453 0.28851,0.14425 0.38665,0.27398 0.42773,0.42187 l 0.004,0.0176 0.006,0.0156 c 0.062,0.17567 0.056,0.28441 -0.0254,0.44726 l -0.006,0.0117 -0.006,0.0117 c -0.0662,0.15128 -0.15215,0.23853 -0.35742,0.31836 l -0.006,0.002 -0.004,0.002 c -0.12144,0.05 -0.28442,0.054 -0.59375,-0.10742 l -0.0137,-0.008 -0.0156,-0.006 c -0.31894,-0.14175 -0.63838,-0.26618 -0.95899,-0.37305 -0.32714,-0.10904 -0.65626,-0.19085 -0.98633,-0.24609 -0.31595,-0.0558 -0.63194,-0.084 -0.94922,-0.084 -0.43294,0 -0.84713,0.0571 -1.23632,0.17382 -0.40531,0.1216 -0.76524,0.32383 -1.04883,0.60743 -0.30141,0.30141 -0.45117,0.72735 -0.45117,1.16601 0,0.36116 0.16987,0.70699 0.42578,0.96289 l 0.01,0.01 0.008,0.008 c 0.23202,0.21093 0.51108,0.38711 0.83398,0.53906 0.29855,0.1405 0.60666,0.27195 0.92187,0.39453 l 0.0117,0.004 0.0117,0.004 c 0.30941,0.10313 0.58434,0.19147 0.83008,0.26172 5.3e-4,1.5e-4 0.001,-1.5e-4 0.002,0 0.78343,0.26218 1.49045,0.55454 2.11914,0.87695 l 0.008,0.004 0.006,0.004 c 0.61875,0.29391 1.08264,0.66028 1.41796,1.09766 l 0.004,0.004 0.004,0.004 c 0.32683,0.40854 0.5,0.93182 0.5,1.64258 0,0.63738 -0.16264,1.16632 -0.49219,1.64062 -0.33456,0.46466 -0.7899,0.82811 -1.39648,1.10157 -9.4e-4,4.2e-4 -0.001,0.002 -0.002,0.002 -0.58476,0.25393 -1.28177,0.38867 -2.10547,0.38867 -0.62733,0 -1.29399,-0.094 -2.00195,-0.28711 -0.70672,-0.19274 -1.40799,-0.47458 -2.10547,-0.84766 l -0.002,-0.002 h -0.004 c -0.3064,-0.15986 -0.41002,-0.30562 -0.45117,-0.44531 -0.0389,-0.18995 -0.022,-0.33723 0.0566,-0.5 0.0968,-0.16717 0.20164,-0.25955 0.37695,-0.32227 0.15132,-0.0496 0.32556,-0.0408 0.61524,0.11719 0.39303,0.21438 0.78786,0.39445 1.18555,0.53906 0.38911,0.1415 0.7707,0.25819 1.14648,0.34766 l 0.0137,0.002 0.0137,0.002 c 0.39877,0.0725 0.78425,0.11132 1.15625,0.11132 0.4257,0 0.82361,-0.0472 1.19336,-0.14453 l 0.008,-0.002 0.01,-0.002 c 0.39286,-0.11786 0.73405,-0.29381 1.00586,-0.54297 h 0.002 c 0.31678,-0.29241 0.49024,-0.72048 0.49024,-1.15625 0,-0.50488 -0.26789,-0.97913 -0.6836,-1.28711 -0.37188,-0.29149 -0.81013,-0.5194 -1.30859,-0.68555 -0.4357,-0.16725 -0.83378,-0.31043 -1.19141,-0.42969 l -0.002,-0.002 c -0.77809,-0.26497 -1.47801,-0.5456 -2.09961,-0.83984 -0.001,-5.7e-4 -0.003,-0.001 -0.004,-0.002 -0.58494,-0.29401 -1.03713,-0.63957 -1.37305,-1.03125 -0.29001,-0.37131 -0.44922,-0.86115 -0.44922,-1.53906 0,-0.65794 0.16428,-1.19664 0.49414,-1.66992 0.3361,-0.48224 0.78877,-0.85241 1.39453,-1.125 l 0.006,-0.002 0.004,-0.002 c 0.60148,-0.2857 1.30341,-0.43554 2.12304,-0.43554 z m -59.894527,0.0273 c 0.563304,0 1.156704,0.0781 1.78125,0.23828 h 0.002 0.002 c 0.624423,0.15611 1.155128,0.39305 1.607422,0.70899 0.287789,0.20556 0.384803,0.37327 0.408203,0.51367 0.03229,0.19372 0.0038,0.32052 -0.101562,0.47851 l -0.002,0.004 -0.002,0.004 c -0.08304,0.12917 -0.188879,0.20578 -0.388672,0.26367 -0.135309,0.0302 -0.297693,0.0123 -0.556641,-0.14258 h -0.002 c -0.50808,-0.30827 -1.00477,-0.51749 -1.496094,-0.61719 -0.434541,-0.10761 -0.853095,-0.16601 -1.251953,-0.16601 -0.779632,0 -1.508557,0.20537 -2.146484,0.61132 -0.635447,0.40438 -1.14771,0.97733 -1.521485,1.6875 v 0.002 l -0.002,0.002 c -0.365213,0.71121 -0.537109,1.5488 -0.537109,2.49024 0,0.94143 0.173149,1.79023 0.533203,2.52929 l 0.002,0.008 0.0039,0.006 c 0.375374,0.71322 0.899575,1.28799 1.552735,1.69141 l 0.0039,0.004 0.0039,0.002 c 0.654578,0.38505 1.393012,0.56978 2.171875,0.55078 0.399246,-0.001 0.81702,-0.0573 1.251953,-0.16601 0.471394,-0.11785 0.948171,-0.33716 1.439453,-0.64649 l -0.0078,0.006 c 0.258802,-0.15528 0.407951,-0.16609 0.541016,-0.12695 l 0.01367,0.004 0.01172,0.004 c 0.171376,0.0403 0.256626,0.10024 0.347656,0.25195 l 0.0098,0.0176 0.01172,0.0156 c 0.09668,0.13535 0.12433,0.2462 0.0918,0.4414 l -0.002,0.0117 -0.002,0.0137 c -0.01434,0.12906 -0.09417,0.28295 -0.378906,0.48633 -0.438722,0.30136 -0.959995,0.54215 -1.572265,0.71484 -0.623864,0.17597 -1.196939,0.25977 -1.71875,0.25977 h -0.0039 -0.0039 c -1.018368,0.0157 -1.935562,-0.21548 -2.791016,-0.69727 -0.835524,-0.49678 -1.504537,-1.18564 -2.023437,-2.09765 -0.509325,-0.89518 -0.773437,-1.97951 -0.773438,-3.2832 0,-1.27023 0.256472,-2.34022 0.751954,-3.23829 0.521113,-0.93074 1.181648,-1.61818 1.998046,-2.0957 l 0.002,-0.002 c 0.83987,-0.4977 1.741787,-0.74219 2.742187,-0.74219 z m 15.792967,0.0176 h 0.002 0.002 c 0.20827,0.0329 0.30359,0.097 0.40039,0.24219 l 0.01,0.0156 0.0117,0.0156 c 0.10887,0.13855 0.14699,0.26201 0.125,0.47461 -0.0156,0.13725 -0.0947,0.29086 -0.35937,0.49023 h -0.002 c -6.9e-4,5.2e-4 6.9e-4,10e-4 0,0.002 -0.45501,0.33703 -0.92708,0.68305 -1.41602,1.03711 l -0.004,0.002 -0.002,0.002 c -0.46956,0.35217 -0.95721,0.70599 -1.46094,1.05859 l -0.004,0.002 -0.002,0.002 c -0.49191,0.35621 -0.99317,0.72065 -1.50195,1.09375 l -0.002,0.002 -0.81446,0.61133 0.0352,-0.0234 c -0.14396,0.09 -0.33789,0.28948 -0.33789,0.5625 0,0.27302 0.15242,0.43513 0.27344,0.54102 l 0.0137,0.0137 0.0156,0.01 c 0.12747,0.0956 0.39076,0.29943 0.7793,0.60351 0.51768,0.41761 1.04279,0.86166 1.57813,1.33008 l 0.008,0.006 0.006,0.004 c 0.55262,0.45215 1.08865,0.9123 1.60742,1.38086 0.52316,0.47254 1.02845,0.93719 1.51758,1.39258 l 0.004,0.004 0.004,0.002 c 0.25275,0.22615 0.31641,0.3879 0.31641,0.54297 0,0.19369 -0.0486,0.31165 -0.17383,0.44727 -0.11833,0.12818 -0.23163,0.18406 -0.44531,0.19531 l -0.0137,0.002 -0.0156,0.002 c -0.13208,0.0147 -0.27843,-0.024 -0.51563,-0.24804 l -0.006,-0.006 -0.004,-0.004 c -0.4735,-0.42276 -0.97255,-0.86232 -1.4961,-1.31836 l -0.008,-0.006 c -0.52264,-0.47198 -1.04561,-0.93721 -1.56836,-1.39257 l -0.006,-0.006 c -0.53124,-0.47956 -1.06263,-0.92515 -1.5957,-1.33789 h -0.002 c -0.49686,-0.38787 -0.79473,-0.69011 -1.10157,-0.99415 v -1.04882 -1.27344 c 0.31198,-0.30852 0.63488,-0.62411 1.16797,-1.01758 h 0.002 c 0.52078,-0.38639 1.02469,-0.75665 1.51172,-1.10937 l 0.008,-0.006 c 0.50629,-0.35445 0.99776,-0.70125 1.4707,-1.03907 l 0.002,-0.002 c 0.49311,-0.35708 0.96109,-0.70601 1.4043,-1.04687 0.26827,-0.2012 0.44015,-0.23459 0.58203,-0.21094 z m -44.54492,0.0332 c 0.18443,0 0.29505,0.045 0.433594,0.1836 l 0.0059,0.006 0.0078,0.006 c 0.08906,0.0827 0.117078,0.26009 0.144531,0.44532 -0.403485,0.38016 -0.808821,0.76079 -1.097656,1.24218 -0.0602,0.10034 -0.08108,0.22314 -0.136719,0.32618 v -1.41407 c 0,-0.35693 0.08008,-0.51653 0.167969,-0.59765 l 0.002,-0.002 c 0.158768,-0.14742 0.288226,-0.19531 0.472656,-0.19531 z m 18.974609,0.0508 c 0.18443,0 0.29505,0.0451 0.433594,0.1836 l 0.0059,0.006 0.0078,0.006 c 0.119954,0.11138 0.195312,0.26961 0.195312,0.5996 v 1.21875 0.29883 c -0.277049,-0.50803 -0.520178,-1.04437 -0.916015,-1.45312 -0.09024,-0.0985 -0.226533,-0.13323 -0.322266,-0.22461 0.02692,-0.18536 0.05591,-0.36478 0.132813,-0.44336 0.154354,-0.14046 0.282253,-0.19141 0.46289,-0.19141 z m 52.525391,0 c 0.18443,0 0.297,0.0451 0.43555,0.1836 l 0.006,0.006 0.006,0.006 c 0.11995,0.11138 0.19726,0.26961 0.19726,0.5996 v 1.21875 0.29883 c -0.27705,-0.50803 -0.52018,-1.04437 -0.91601,-1.45312 -0.0902,-0.0985 -0.22654,-0.13323 -0.32227,-0.22461 0.0269,-0.18536 0.0559,-0.36478 0.13281,-0.44336 0.15434,-0.14043 0.28032,-0.19141 0.46094,-0.19141 z m -65.882813,0.0449 c 0.331891,0.0546 0.492866,0.15895 0.583985,0.28321 0.117046,0.15961 0.144087,0.2761 0.113281,0.46094 l -0.002,0.0137 -0.002,0.0137 c -0.01999,0.17995 -0.08212,0.29064 -0.248047,0.42383 -0.106214,0.0825 -0.280629,0.14023 -0.619141,0.0996 l 0.01563,0.002 c -0.82805,-0.12601 -1.560165,-0.10387 -2.197265,0.0937 -0.614889,0.1742 -1.145278,0.48383 -1.548828,0.92773 -0.03201,0.0354 -0.03978,0.0903 -0.07031,0.12696 v -0.17188 -1.39062 c 0.471711,-0.35629 1.011343,-0.62631 1.654297,-0.79102 0.670483,-0.16762 1.442673,-0.20238 2.320312,-0.0918 z m 70.125003,0.082 h 0.5332 0.38086 0.13672 v 0.38867 0.89648 h -0.11133 -0.45703 -0.48242 c -0.33144,0 -0.49451,-0.0774 -0.60157,-0.18164 -0.13929,-0.15362 -0.19335,-0.28094 -0.19335,-0.46094 0,-0.18443 0.0451,-0.29505 0.18359,-0.43359 l 0.006,-0.008 0.008,-0.006 c 0.11139,-0.11995 0.26766,-0.19531 0.59766,-0.19531 z m 2.05078,0 h 0.71875 0.5664 v 0.38867 0.89648 h -0.5664 -0.71875 v -0.89648 z m 2.28515,0 h 0.56641 0.73633 c 0.33,0 0.48822,0.0754 0.59961,0.19531 l 0.006,0.006 0.008,0.008 c 0.13854,0.13854 0.18359,0.24916 0.18359,0.43359 0,0.18 -0.0541,0.30732 -0.19336,0.46094 -0.10705,0.10424 -0.27206,0.18164 -0.60351,0.18164 h -0.73633 -0.56641 v -0.89648 z m -79.435542,1.89062 v 0.30078 1.44727 1.55078 0.33008 0.76172 0.58398 1.11719 0.43164 1.37109 0.12891 1.21875 c 0,0.26367 -0.05651,0.41518 -0.128906,0.51172 -0.09373,0.12498 -0.183027,0.18734 -0.320313,0.22656 l -0.02148,0.006 -0.02148,0.008 c -0.119723,0.046 -0.2213,0.0503 -0.361329,0.0117 -0.112601,-0.0351 -0.199534,-0.0965 -0.294921,-0.2207 -0.08164,-0.12098 -0.136719,-0.28391 -0.136719,-0.54297 v -1.32227 -0.40625 -1.26953 -0.68555 -0.99023 -0.43164 c 0,-0.68534 0.07839,-1.35238 0.236328,-2.00391 v -0.002 c 0.174841,-0.65105 0.427017,-1.24946 0.757812,-1.80078 0.07718,-0.12864 0.204608,-0.2106 0.291016,-0.33008 z m 17.6875,0.0879 c 0.311987,0.41268 0.638482,0.81136 0.837891,1.33203 v 0.004 l 0.002,0.004 c 0.29541,0.73075 0.447266,1.54543 0.447265,2.45507 v 0.60938 c 0,0.91257 -0.14377,1.69996 -0.419921,2.375 -0.206292,0.50427 -0.539093,0.88718 -0.867188,1.27539 v -0.29883 -0.86328 -0.86328 -1.21875 -0.40625 -0.60938 -0.93945 -1.60156 z m 52.527342,0 c 0.31199,0.41268 0.63848,0.81136 0.83789,1.33203 v 0.004 l 0.002,0.004 c 0.29541,0.73075 0.44726,1.54543 0.44726,2.45507 v 0.60938 c 0,0.91257 -0.14377,1.69996 -0.41992,2.375 -0.20629,0.50427 -0.53909,0.88718 -0.86719,1.27539 v -0.29883 -0.86328 -0.86328 -1.21875 -0.40625 -0.60938 -0.93945 -1.60156 z m -56.835936,0.0527 c 0.665522,0 1.223107,0.15405 1.716797,0.45898 0.496443,0.30663 0.877252,0.72716 1.16211,1.29688 0.283288,0.56657 0.429687,1.22122 0.429687,1.98632 v 0.60938 c 0,0.57698 -0.08528,1.06438 -0.244141,1.46875 l -0.002,0.006 -0.0039,0.008 c -0.145004,0.40601 -0.353435,0.7291 -0.630859,0.99414 -0.28222,0.25268 -0.618998,0.44562 -1.03125,0.57813 h -0.0039 l -0.002,0.002 c -0.399225,0.13307 -0.851889,0.20312 -1.365234,0.20312 -0.495289,0 -0.938897,-0.0905 -1.345703,-0.26367 -0.410297,-0.19155 -0.754982,-0.44948 -1.046875,-0.78515 -0.295463,-0.33979 -0.525997,-0.73928 -0.69336,-1.21094 -0.165301,-0.46585 -0.25,-0.98161 -0.25,-1.5586 0,-0.57698 0.0847,-1.09469 0.25,-1.56054 0.168064,-0.47364 0.391719,-0.86516 0.667969,-1.18555 l 0.002,-0.002 c 0.290698,-0.3337 0.630532,-0.58161 1.03711,-0.75586 l 0.0078,-0.002 0.0059,-0.004 c 0.406083,-0.18854 0.8467,-0.2832 1.339843,-0.2832 z m 52.527346,0 c 0.66552,0 1.2231,0.15405 1.71679,0.45898 0.49645,0.30663 0.87726,0.72716 1.16211,1.29688 0.28329,0.56657 0.42969,1.22122 0.42969,1.98632 v 0.60938 c 0,0.57698 -0.0853,1.06438 -0.24414,1.46875 l -0.004,0.006 -0.002,0.008 c -0.145,0.40601 -0.35343,0.7291 -0.63086,0.99414 -0.28222,0.25268 -0.619,0.44562 -1.03125,0.57813 h -0.004 l -0.002,0.002 c -0.39922,0.13307 -0.85189,0.20312 -1.36523,0.20312 -0.49529,0 -0.9389,-0.0905 -1.3457,-0.26367 -0.4103,-0.19155 -0.75499,-0.44948 -1.04688,-0.78515 -0.29546,-0.33979 -0.526,-0.73928 -0.69336,-1.21094 -0.1653,-0.46585 -0.25,-0.98161 -0.25,-1.5586 0,-0.57698 0.0847,-1.09469 0.25,-1.56054 0.16806,-0.47364 0.39172,-0.86516 0.66797,-1.18555 l 0.002,-0.002 c 0.2907,-0.3337 0.63053,-0.58161 1.03711,-0.75586 l 0.008,-0.002 0.006,-0.004 c 0.40609,-0.18854 0.8467,-0.2832 1.33985,-0.2832 z m 11.24414,0.2539 h 0.71875 0.5664 v 1.55664 1.85547 2.25977 1.14258 0.91601 1.11719 c 0,0.33 -0.0754,0.48627 -0.19531,0.59765 l -0.008,0.008 -0.006,0.006 c -0.13854,0.13854 -0.24916,0.18359 -0.43359,0.18359 -0.18359,0 -0.31613,-0.0548 -0.46289,-0.17383 -0.0988,-0.10344 -0.17969,-0.27283 -0.17969,-0.62109 v -1.0918 -0.9668 -1.11718 -1.59961 -1.625 -1.90625 z m -26.4082,0.33008 h 1.19336 0.12695 1.39648 0.10157 1.39648 0.0254 1.16992 c 0.26367,0 0.41519,0.0565 0.51172,0.12891 0.12498,0.0937 0.18734,0.18498 0.22656,0.32226 v 0.004 l 0.002,0.004 c 0.0384,0.12467 0.0398,0.2435 -0.002,0.39454 -0.036,0.11559 -0.0954,0.20633 -0.22656,0.30468 -0.0965,0.0724 -0.24805,0.12696 -0.51172,0.12696 h -1.24609 -0.0254 -1.52344 -0.0762 -1.44727 -0.0762 -1.01562 -0.0254 c -0.32288,0 -0.61058,-0.0617 -0.88282,-0.1836 -0.26052,-0.12414 -0.49351,-0.29286 -0.70508,-0.51758 -0.02,-0.0228 -0.0276,-0.0566 -0.0469,-0.0801 0.0949,-0.0747 0.14213,-0.18665 0.26758,-0.24414 l 0.004,-0.002 0.004,-0.002 c 0.33424,-0.16043 0.79393,-0.25586 1.38477,-0.25586 z m -31.287114,0.32813 0.0039,0.01 c -6.69e-4,-0.002 -0.0032,-0.002 -0.0039,-0.004 -6.95e-4,-0.002 6.97e-4,-0.004 0,-0.006 z m 52.527344,0 0.004,0.01 c -6.7e-4,-0.002 -0.003,-0.002 -0.004,-0.004 -7e-4,-0.002 7e-4,-0.004 0,-0.006 z m -23.41406,1.0625 c 0.25714,0.24266 0.52687,0.46996 0.84179,0.61914 l 0.004,0.002 0.004,0.002 c 0.0984,0.0443 0.21412,0.0329 0.3164,0.0664 v 1.6875 1.57422 1.09179 c 0,0.22404 0.0112,0.41212 0.0488,0.58789 0.0377,0.17578 0.0834,0.37719 0.32617,0.53907 0.33628,0.22418 0.58545,0.1875 0.98828,0.1875 h 1.0918 1.04102 1.01562 0.99219 1.42187 c 0.33,0 0.46901,0.0729 0.56055,0.17968 l 0.0117,0.0156 0.0137,0.0137 c 0.13855,0.13855 0.1836,0.24917 0.1836,0.4336 0,0.18443 -0.0498,0.31388 -0.19727,0.47265 -0.0858,0.093 -0.2356,0.16992 -0.57227,0.16992 h -1.85546 -1.57422 -0.99024 -0.60937 -0.53321 c -0.62486,0 -1.13116,-0.0937 -1.52539,-0.26172 l -0.002,-0.002 c -0.35832,-0.15986 -0.61971,-0.4021 -0.82617,-0.77148 -0.18392,-0.35847 -0.29688,-0.87672 -0.29688,-1.56446 v -1.39648 -1.625 -1.42188 c 0,-0.2487 0.0773,-0.4038 0.1211,-0.5996 z m -31.189456,4.19531 -0.0039,0.0156 c 0.0016,-0.004 3.8e-4,-0.01 0.002,-0.0137 3.16e-4,-8.8e-4 0.0016,-10e-4 0.002,-0.002 z m 52.527346,0 -0.006,0.0156 c 0.001,-0.003 8.2e-4,-0.007 0.002,-0.01 8.3e-4,-0.002 0.003,-0.004 0.004,-0.006 z m -50.931643,1.67773 v 0.26367 1.26954 c 0,0.33 -0.07536,0.48627 -0.195312,0.59765 l -0.0078,0.008 -0.0059,0.006 c -0.138544,0.13855 -0.249164,0.1836 -0.433594,0.1836 -0.181291,0 -0.309736,-0.0517 -0.464843,-0.19336 -0.09937,-0.10222 -0.165526,-0.27198 -0.171875,-0.57422 0.11088,-0.0895 0.26512,-0.12514 0.36914,-0.22266 0.393405,-0.36956 0.632327,-0.87 0.910156,-1.33789 z m 52.527343,0 v 0.26367 1.26954 c 0,0.33 -0.0773,0.48627 -0.19726,0.59765 l -0.006,0.008 -0.006,0.006 c -0.13855,0.13855 -0.25112,0.1836 -0.43555,0.1836 -0.18128,0 -0.3078,-0.0517 -0.46289,-0.19336 -0.0994,-0.10222 -0.16553,-0.27198 -0.17188,-0.57422 0.11043,-0.0892 0.26357,-0.12552 0.36719,-0.22266 h 0.002 c 0.39341,-0.36956 0.63233,-0.87 0.91016,-1.33789 z"
             id="path71" /><path
             style="font-size:25.4px;line-height:0;font-family:'Tilt Neon';-inkscape-font-specification:'Tilt Neon';baseline-shift:baseline;display:inline;overflow:visible;vector-effect:none;fill:#00ff00;stroke-linecap:round;enable-background:accumulate;stop-color:#000000;stop-opacity:1"
             d="m 61.131296,939.88497 q 0.6604,0 0.9652,-0.3302 0.3302,-0.3556 0.3302,-0.8128 0,-0.4572 -0.3302,-0.7874 -0.3048,-0.3556 -0.9652,-0.3556 -0.254,0 -0.9906,0 -0.7112,0 -1.7272,0 -1.016,0 -2.1336,0 -1.0922,0 -2.159,0 -1.0414,0 -1.8288,0 -0.508,0 -0.8382,0.2286 -0.3048,0.2286 -0.4064,0.5842 -0.1016,0.3302 0,0.6858 0.1016,0.3302 0.4064,0.5588 0.3302,0.2286 0.8382,0.2286 0.6096,0 1.1938,0.0254 0.5842,0.0254 1.0414,0.2032 0.4826,0.1778 0.762,0.6096 0.2794,0.4064 0.2794,1.1938 0,0.8128 0,1.9812 0,1.1684 0,2.413 0,1.2192 0,2.2352 0,0.9906 0,1.4732 0,0.6096 0,1.2954 0,0.6858 0,1.3462 0,0.635 0,1.1938 0,0.635 0.3302,0.9652 0.3556,0.3302 0.8128,0.3302 0.4572,0 0.7874,-0.3302 0.3556,-0.3302 0.3556,-0.9652 0,-0.5588 0,-1.1938 0,-0.6604 0,-1.3462 0,-0.6858 0,-1.2954 0,-0.4826 0,-1.4224 0,-0.9398 0,-2.0828 0,-1.1684 0,-2.3622 0,-1.2192 0,-2.2352 0,-0.9652 -0.3302,-1.6764 -0.3048,-0.7112 -0.8636,-1.2192 -0.5588,-0.508 -1.27,-0.8128 -0.7112,-0.3302 -1.524,-0.4572 -0.7874,-0.1524 -1.5748,-0.1524 -0.508,0 -0.8382,0.2286 -0.3048,0.2286 -0.4064,0.5842 -0.1016,0.3302 0,0.6858 0.1016,0.3302 0.4064,0.5588 0.3302,0.2286 0.8382,0.2286 0.4826,0 1.397,0 0.9398,0 2.032,0 1.1176,0 2.2098,0 1.1176,0 1.9558,0 0.8636,0 1.2446,0 z m 9.347162,4.5466 q 0.635,0.0762 0.9906,-0.2032 0.381,-0.3048 0.4318,-0.762 0.0762,-0.4572 -0.2032,-0.8382 -0.2794,-0.381 -0.9144,-0.4826 -1.396999,-0.1778 -2.514599,0.1016 -1.0922,0.2794 -1.905,0.9144 -0.8128,0.635 -1.3462,1.524 -0.5334,0.889 -0.8128,1.9304 -0.254,1.0414 -0.254,2.1336 0,0.4826 0,1.4224 0,0.9398 0,1.9558 0,1.016 0,1.7272 0,0.508 0.2286,0.8382 0.2286,0.3048 0.5588,0.4064 0.3556,0.1016 0.6858,-0.0254 0.3556,-0.1016 0.5842,-0.4064 0.2286,-0.3048 0.2286,-0.8128 0,-0.508 0,-1.3462 0,-0.8636 0,-1.8034 0,-0.9398 0,-1.7018 0,-0.762 0,-1.0922 0,-0.8382 0,-1.5494 0,-0.7366 0,-1.4478 0,-0.7366 0,-1.5748 0,-0.635 -0.3556,-0.9652 -0.3302,-0.3302 -0.7874,-0.3302 -0.4572,0 -0.8128,0.3302 -0.3302,0.3048 -0.3302,0.9652 0,0.6858 0,1.4986 0,0.7874 0,1.5748 0,0.7874 0,1.4986 0,0.4826 0,1.27 0,0.7874 0,1.6764 0,0.8636 0,1.6764 0,0.7874 0,1.3208 0,0.508 0.2286,0.8382 0.2286,0.3048 0.5588,0.4064 0.3556,0.1016 0.6858,-0.0254 0.3556,-0.1016 0.5842,-0.4064 0.2286,-0.3048 0.2286,-0.8128 0,-0.508 0,-1.2192 0,-0.7112 0,-1.4986 0,-0.7874 0,-1.5494 0,-0.762 0,-1.3462 0,-0.889 0.2286,-1.651 0.2286,-0.762 0.7112,-1.2954 0.508,-0.5588 1.3208,-0.7874 0.8128,-0.254 1.981199,-0.0762 z m 14.73202,-1.0414 q 0,-0.635 -0.3556,-0.9652 -0.3302,-0.3302 -0.7874,-0.3302 -0.4572,0 -0.8128,0.3302 -0.3302,0.3302 -0.3302,0.9652 0,0.4318 0,1.1176 0,0.6604 0,1.4478 0,0.7874 0,1.6002 0,0.8128 0,1.5494 0,0.9398 -0.2794,1.651 -0.254,0.7112 -0.762,1.1938 -0.508,0.4572 -1.2192,0.6858 -0.6858,0.2286 -1.524,0.2286 -0.8382,0 -1.5494,-0.3048 -0.7112,-0.3302 -1.2192,-0.9144 -0.508,-0.5842 -0.7874,-1.3716 -0.2794,-0.7874 -0.2794,-1.7272 0,-0.9398 0.2794,-1.7272 0.2794,-0.7874 0.762,-1.3462 0.508,-0.5842 1.2192,-0.889 0.7112,-0.3302 1.5494,-0.3302 1.1176,0 1.9812,0.5334 0.8636,0.5334 1.3462,1.4986 0.4826,0.9652 0.4826,2.2098 0,0.381 0,1.016 0,0.6096 0,1.2192 0,0.5842 0,0.8636 0,0.4318 0,0.8636 0,0.4064 0,0.8382 0,0.4318 0,0.8382 0,0.635 0.3302,0.9652 0.3556,0.3302 0.8128,0.3302 0.4572,0 0.7874,-0.3302 0.3556,-0.3302 0.3556,-0.9652 0,-0.6858 0,-1.27 0,-0.5842 0,-1.27 0,-0.4318 0,-0.9144 0,-0.508 0,-1.0414 0,-0.5588 0,-1.143 0,-1.4478 -0.4826,-2.6416 -0.4572,-1.1938 -1.2954,-2.0574 -0.8128,-0.889 -1.9304,-1.3462 -1.0922,-0.4826 -2.3876,-0.4826 -1.7272,0 -3.1242,0.8382 -1.3716,0.8382 -2.1844,2.3368 -0.7874,1.4732 -0.7874,3.4036 0,1.4478 0.4572,2.667 0.4572,1.1938 1.2954,2.0828 0.8382,0.889 1.9558,1.3716 1.1176,0.4826 2.413,0.4826 1.2954,0 2.3876,-0.4064 1.1176,-0.4064 1.9304,-1.1684 0.8382,-0.7874 1.2954,-1.905 0.4572,-1.1176 0.4572,-2.5654 0,-1.0922 0,-1.8796 0,-0.8128 0,-1.4224 0,-0.635 0,-1.1938 0,-0.5588 0,-1.2192 z m 12.318991,10.6934 q 0.5334,-0.381 0.5842,-0.8382 0.0762,-0.4572 -0.1778,-0.8128 -0.2286,-0.381 -0.6604,-0.4826 -0.4318,-0.127 -0.9398,0.1778 -0.6858,0.4318 -1.2954,0.5842 -0.6096,0.1524 -1.143,0.1524 -1.0414,0.0254 -1.905,-0.4826 -0.8636,-0.5334 -1.3716,-1.4986 -0.4826,-0.9906 -0.4826,-2.3114 0,-1.3208 0.4826,-2.2606 0.508,-0.9652 1.3462,-1.4986 0.8382,-0.5334 1.8796,-0.5334 0.5334,0 1.143,0.1524 0.635,0.127 1.3462,0.5588 0.508,0.3048 0.9398,0.2032 0.4572,-0.127 0.6858,-0.4826 0.254,-0.381 0.1778,-0.8382 -0.0762,-0.4572 -0.6096,-0.8382 -0.762,-0.5334 -1.778,-0.7874 -0.9906,-0.254 -1.905,-0.254 -1.6256,0 -2.9972,0.8128 -1.3462,0.7874 -2.1844,2.286 -0.8128,1.4732 -0.8128,3.4798 0,2.0574 0.8382,3.5306 0.8382,1.4732 2.2098,2.286 1.397,0.7874 3.048,0.762 0.8636,0 1.8542,-0.2794 0.9906,-0.2794 1.7272,-0.7874 z m 5.461011,-16.8656 q 0,-0.635 -0.3556,-0.9398 -0.3302,-0.3302 -0.7874,-0.3302 -0.4572,0 -0.8128,0.3302 -0.3302,0.3048 -0.3302,0.9398 0,0.7112 0,1.2954 0,0.5588 0,1.0668 0,0.508 0,1.016 0,1.4986 0,2.6924 0,1.1684 0,2.2606 0,1.0922 0,2.286 0,1.1684 0,2.667 0,0.762 0,1.6002 0,0.8382 0,1.7526 0,0.6604 0.3302,0.9906 0.3556,0.3048 0.8128,0.3048 0.4572,0 0.7874,-0.3302 0.3556,-0.3302 0.3556,-0.9652 0,-0.6096 0,-1.143 0,-0.5334 0,-1.0668 0,-0.5334 0,-1.143 0,-1.016 0,-2.286 0,-1.2954 0,-2.667 0,-1.3716 0,-2.6416 0,-1.2954 0,-2.3114 0,-0.6096 0,-1.143 0,-0.5334 0,-1.0668 0,-0.5588 0,-1.1684 z m 7.1374,6.9342 q 0.508,-0.381 0.5588,-0.8382 0.0508,-0.4826 -0.2286,-0.8382 -0.254,-0.381 -0.7366,-0.4572 -0.4572,-0.0762 -0.9652,0.3048 -0.6604,0.508 -1.397,1.0414 -0.7112,0.508 -1.4732,1.0414 -0.7366,0.5334 -1.524,1.1176 -1.0668,0.7874 -1.6002,1.397 -0.5334,0.5842 -0.5588,1.143 0,0.5334 0.508,1.1684 0.5334,0.6096 1.5748,1.4224 0.7874,0.6096 1.5748,1.3208 0.7874,0.6858 1.5748,1.397 0.7874,0.6858 1.4986,1.3208 0.4572,0.4318 0.9144,0.381 0.4826,-0.0254 0.7874,-0.3556 0.3048,-0.3302 0.3048,-0.7874 0,-0.4826 -0.4826,-0.9144 -0.7366,-0.6858 -1.524,-1.397 -0.7874,-0.7112 -1.6256,-1.397 -0.8128,-0.7112 -1.6002,-1.3462 -0.5842,-0.4572 -0.7874,-0.6096 -0.2032,-0.1778 0,-0.3048 0.2032,-0.1524 0.8128,-0.6096 0.762,-0.5588 1.4986,-1.0922 0.762,-0.5334 1.4732,-1.0668 0.7366,-0.5334 1.4224,-1.0414 z m 12.26818,-4.2672 q 0.635,0 0.9652,-0.3302 0.3302,-0.3556 0.3302,-0.8128 0,-0.4572 -0.3302,-0.7874 -0.3302,-0.3556 -0.9652,-0.3556 -0.762,0 -1.2446,0 -0.4826,0 -0.9398,0 -0.4318,0 -1.0922,0 -0.381,0 -0.6604,0 -0.2794,0 -0.635,0 -0.3556,0 -0.9398,0 -1.1684,0 -1.8796,0.381 -0.6858,0.381 -1.016,1.1684 -0.3048,0.762 -0.3048,1.905 0,0.4826 0,1.0668 0,0.5588 0,1.0922 0,0.5334 0,0.8382 0,0.6604 0.2032,1.2192 0.2286,0.5588 0.6096,0.9906 0.381,0.4064 0.8636,0.635 0.508,0.2286 1.0922,0.2286 0.3302,0 1.0414,0 0.7112,0 1.524,0 0.8382,0 1.6002,0 0.7874,0 1.27,0 0.508,0 0.8128,-0.2286 0.3048,-0.2286 0.4064,-0.5588 0.1016,-0.3556 0,-0.6858 -0.1016,-0.3556 -0.4064,-0.5842 -0.3048,-0.2286 -0.8128,-0.2286 -0.4826,0 -1.1684,0 -0.6604,0 -1.4224,0 -0.762,0 -1.4986,0 -0.7112,0 -1.3208,0 -0.9652,0 -1.6002,0.3048 -0.6096,0.2794 -0.9144,0.8382 -0.2794,0.5588 -0.2794,1.3462 0,0.6096 0,1.4224 0,0.8128 0,1.6256 0,0.8128 0,1.397 0,1.1176 0.3556,1.8034 0.381,0.6858 1.0668,0.9906 0.7112,0.3048 1.7272,0.3048 0.3048,0 0.5334,0 0.254,0 0.6096,0 0.3556,0 0.9906,0 0.5842,0 1.5748,0 0.9906,0 1.8542,0 0.635,0 0.9398,-0.3302 0.3302,-0.3556 0.3302,-0.8128 0,-0.4572 -0.3302,-0.7874 -0.3048,-0.3556 -0.9398,-0.3556 -0.8636,0 -1.4224,0 -0.5334,0 -0.9906,0 -0.4318,0 -1.016,0 -0.635,0 -1.0414,0 -0.4064,0 -1.0922,0 -0.5588,0 -0.7112,-0.1016 -0.1524,-0.1016 -0.1524,-0.7112 0,-0.381 0,-1.0922 0,-0.7112 0,-1.5748 0,-0.889 0,-1.778 0,-0.2032 0.127,-0.2032 0.127,0 0.381,0 0.4064,0 1.0922,0 0.7112,0 1.524,0 0.8128,0 1.5494,0 0.762,0 1.2446,0 0.508,0 0.8128,-0.2286 0.3048,-0.2286 0.4064,-0.5588 0.1016,-0.3556 0,-0.6858 -0.1016,-0.3556 -0.4064,-0.5842 -0.3048,-0.2286 -0.8128,-0.2286 -0.4826,0 -1.1938,0 -0.7112,0 -1.4986,0 -0.7874,0 -1.524,0 -0.7112,0 -1.2192,0 -0.127,0 -0.2286,-0.0762 -0.0762,-0.0762 -0.1524,-0.1778 -0.0508,-0.127 -0.0762,-0.254 -0.0254,-0.1524 -0.0254,-0.2794 0,-0.4572 0,-0.889 0,-0.4318 0,-0.9398 0,-0.508 0,-1.1684 0,-0.7112 0.1016,-0.9398 0.1016,-0.2286 0.8128,-0.2286 0.4064,0 0.6858,0 0.3048,0 0.635,0 0.3556,0 0.9144,0 0.6604,0 1.5748,0 0.9398,0 1.7018,0 z m 15.34164,3.5052 q 0,-0.635 -0.3556,-0.9652 -0.3302,-0.3302 -0.7874,-0.3302 -0.4572,0 -0.8128,0.3302 -0.3302,0.3302 -0.3302,0.9652 0,0.4318 0,1.1176 0,0.6604 0,1.4478 0,0.7874 0,1.6002 0,0.8128 0,1.5494 0,0.9398 -0.2794,1.651 -0.254,0.7112 -0.762,1.1938 -0.508,0.4572 -1.2192,0.6858 -0.6858,0.2286 -1.524,0.2286 -0.8382,0 -1.5494,-0.3048 -0.7112,-0.3302 -1.2192,-0.9144 -0.508,-0.5842 -0.7874,-1.3716 -0.2794,-0.7874 -0.2794,-1.7272 0,-0.9398 0.2794,-1.7272 0.2794,-0.7874 0.762,-1.3462 0.508,-0.5842 1.2192,-0.889 0.7112,-0.3302 1.5494,-0.3302 1.1176,0 1.9812,0.5334 0.8636,0.5334 1.3462,1.4986 0.4826,0.9652 0.4826,2.2098 0,0.381 0,1.016 0,0.6096 0,1.2192 0,0.5842 0,0.8636 0,0.4318 0,0.8636 0,0.4064 0,0.8382 0,0.4318 0,0.8382 0,0.635 0.3302,0.9652 0.3556,0.3302 0.8128,0.3302 0.4572,0 0.7874,-0.3302 0.3556,-0.3302 0.3556,-0.9652 0,-0.6858 0,-1.27 0,-0.5842 0,-1.27 0,-0.4318 0,-0.9144 0,-0.508 0,-1.0414 0,-0.5588 0,-1.143 0,-1.4478 -0.4826,-2.6416 -0.4572,-1.1938 -1.2954,-2.0574 -0.8128,-0.889 -1.9304,-1.3462 -1.0922,-0.4826 -2.3876,-0.4826 -1.7272,0 -3.1242,0.8382 -1.3716,0.8382 -2.1844,2.3368 -0.7874,1.4732 -0.7874,3.4036 0,1.4478 0.4572,2.667 0.4572,1.1938 1.2954,2.0828 0.8382,0.889 1.9558,1.3716 1.1176,0.4826 2.413,0.4826 1.2954,0 2.3876,-0.4064 1.1176,-0.4064 1.9304,-1.1684 0.8382,-0.7874 1.2954,-1.905 0.4572,-1.1176 0.4572,-2.5654 0,-1.0922 0,-1.8796 0,-0.8128 0,-1.4224 0,-0.635 0,-1.1938 0,-0.5588 0,-1.2192 z m 4.64818,10.4648 q 0,0.6604 0.3302,0.9906 0.3556,0.3048 0.8128,0.3048 0.4572,0 0.7874,-0.3302 0.3556,-0.3302 0.3556,-0.9652 0,-0.6858 0,-1.1176 0,-0.4572 0,-0.9144 0,-0.4572 0,-1.143 0,-1.27 0,-2.2606 0,-0.9906 0,-1.8542 0,-0.8636 0,-1.6764 0,-0.8382 0,-1.778 0,-0.5842 0,-0.9906 0,-0.4318 0,-0.762 0,-0.3302 0,-0.6604 0,-0.3302 0,-0.762 0,-0.635 -0.3556,-0.9652 -0.3302,-0.3302 -0.7874,-0.3302 -0.4572,0 -0.8128,0.3302 -0.3302,0.3302 -0.3302,0.9652 0,0.381 0,0.9398 0,0.5334 0,1.1176 0,0.5842 0,1.1176 0,1.397 0,2.4384 0,1.0414 0,1.905 0,0.8382 0,1.6256 0,0.762 0,1.6002 0,0.635 0,1.1176 0,0.4826 0,0.9652 0,0.4826 0,1.0922 z m 4.0894,-9.3472 q 0.635,0 0.9652,-0.3302 0.3302,-0.3556 0.3302,-0.8128 0,-0.4572 -0.3302,-0.7874 -0.3302,-0.3556 -0.9652,-0.3556 -0.4064,0 -0.7366,0 -0.3048,0 -0.7112,0 -0.7112,0 -1.4224,0 -0.6858,0 -1.397,0 -0.254,0 -0.4572,0 -0.1778,0 -0.381,0 -0.2032,0 -0.5334,0 -0.635,0 -0.9652,0.3556 -0.3302,0.3302 -0.3302,0.7874 0,0.4572 0.3302,0.8128 0.3302,0.3302 0.9652,0.3302 0.254,0 0.4826,0 0.254,0 0.4572,0 0.2032,0 0.4318,0 0.762,0 1.397,0 0.6604,0 1.4224,0 0.3556,0 0.7112,0 0.3556,0 0.7366,0 z m 9.95682,0.4064 q 0.5842,0.3048 1.016,0.127 0.4572,-0.1778 0.635,-0.5842 0.2032,-0.4064 0.0508,-0.8382 -0.127,-0.4572 -0.6858,-0.7366 -0.9652,-0.4826 -1.905,-0.6858 -0.9398,-0.2286 -1.8034,-0.2286 -1.3208,0 -2.3368,0.4826 -1.016,0.4572 -1.6002,1.2954 -0.5842,0.8382 -0.5842,1.9558 0,1.143 0.5588,1.8542 0.5842,0.6858 1.5494,1.1684 0.9652,0.4572 2.159,0.8636 0.5334,0.1778 1.1938,0.4318 0.6858,0.2286 1.1684,0.6096 0.4826,0.3556 0.4826,0.889 0,0.4826 -0.3302,0.7874 -0.3048,0.2794 -0.8128,0.4318 -0.4826,0.127 -1.0668,0.127 -0.508,0 -1.0668,-0.1016 -0.5334,-0.127 -1.0922,-0.3302 -0.5588,-0.2032 -1.1176,-0.508 -0.5588,-0.3048 -1.016,-0.1524 -0.4318,0.1524 -0.6604,0.5588 -0.2032,0.4064 -0.1016,0.8636 0.127,0.4572 0.7112,0.762 1.0922,0.5842 2.2098,0.889 1.1176,0.3048 2.1336,0.3048 1.3208,0 2.3114,-0.4318 1.016,-0.4572 1.6002,-1.27 0.5842,-0.8382 0.5842,-1.9304 0,-1.1938 -0.6096,-1.9558 -0.5842,-0.762 -1.6002,-1.2446 -0.9906,-0.508 -2.2098,-0.9144 -0.3556,-0.1016 -0.8128,-0.254 -0.4572,-0.1778 -0.889,-0.381 -0.4318,-0.2032 -0.7112,-0.4572 -0.2794,-0.2794 -0.2794,-0.6096 0,-0.508 0.3048,-0.8128 0.3302,-0.3302 0.8382,-0.4826 0.508,-0.1524 1.0922,-0.1524 0.4318,0 0.8636,0.0762 0.4572,0.0762 0.9144,0.2286 0.4572,0.1524 0.9144,0.3556 z"
             id="path70" /></g></g></g></g></svg>
