<?xml version="1.0" encoding="UTF-8" standalone="no"?>
<!-- Created with Inkscape (http://www.inkscape.org/) -->

<svg
   width="1024"
   height="1024"
   viewBox="0 0 270.93333 270.93333"
   version="1.1"
   id="svg1"
   xml:space="preserve"
   sodipodi:docname="trackeats-logo.svg"
   inkscape:version="1.4.3 (0d15f75, 2025-12-25)"
   xmlns:inkscape="http://www.inkscape.org/namespaces/inkscape"
   xmlns:sodipodi="http://sodipodi.sourceforge.net/DTD/sodipodi-0.dtd"
   xmlns="http://www.w3.org/2000/svg"
   xmlns:svg="http://www.w3.org/2000/svg"><sodipodi:namedview
     id="namedview1"
     pagecolor="#ffffff"
     bordercolor="#000000"
     borderopacity="0.25"
     inkscape:showpageshadow="2"
     inkscape:pageopacity="0.0"
     inkscape:pagecheckerboard="0"
     inkscape:deskcolor="#d1d1d1"
     inkscape:document-units="px"
     inkscape:zoom="0.44319345"
     inkscape:cx="674.64896"
     inkscape:cy="538.13972"
     inkscape:window-width="1920"
     inkscape:window-height="1017"
     inkscape:window-x="1912"
     inkscape:window-y="-8"
     inkscape:window-maximized="1"
     inkscape:current-layer="svg1" /><defs
     id="defs1"><linearGradient
       id="swatch3"><stop
         style="stop-color:#000000;stop-opacity:1;"
         offset="0"
         id="stop3" /></linearGradient><filter
       style="color-interpolation-filters:sRGB"
       id="filter2"
       x="-0.032986326"
       y="-0.1823064"
       width="1.0659727"
       height="1.3646128"><feGaussianBlur
         stdDeviation="1.2715241"
         id="feGaussianBlur2" /></filter><filter
       style="color-interpolation-filters:sRGB"
       id="filter17"
       x="-0.034574135"
       y="-0.10469097"
       width="1.0778108"
       height="1.1878437"><feGaussianBlur
         stdDeviation="0.46278935"
         id="feGaussianBlur17" /></filter><filter
       style="color-interpolation-filters:sRGB"
       id="filter18"
       x="-0.034574135"
       y="-0.10469097"
       width="1.0778108"
       height="1.1878437"><feGaussianBlur
         stdDeviation="0.46278935"
         id="feGaussianBlur18" /></filter><filter
       style="color-interpolation-filters:sRGB"
       id="filter21"
       x="-0.035730942"
       y="-17.21429"
       width="1.0714619"
       height="35.428579"><feGaussianBlur
         stdDeviation="0.22213704"
         id="feGaussianBlur21" /></filter><filter
       style="color-interpolation-filters:sRGB"
       id="filter22"
       x="-0.023043559"
       y="-11.10182"
       width="1.0460871"
       height="23.20364"><feGaussianBlur
         stdDeviation="0.22213704"
         id="feGaussianBlur22" /></filter><filter
       style="color-interpolation-filters:sRGB"
       id="filter23"
       x="-0.023043559"
       y="-11.10182"
       width="1.0460871"
       height="23.20364"><feGaussianBlur
         stdDeviation="0.22213704"
         id="feGaussianBlur23" /></filter><filter
       style="color-interpolation-filters:sRGB"
       id="filter24"
       x="-0.023234161"
       y="-0.058835786"
       width="1.0497046"
       height="1.1150294"><feGaussianBlur
         stdDeviation="0.40314095"
         id="feGaussianBlur24" /></filter><filter
       style="color-interpolation-filters:sRGB"
       id="filter25"
       x="-0.015114388"
       y="-0.039016122"
       width="1.033465"
       height="1.0753901"><feGaussianBlur
         stdDeviation="0.20568416"
         id="feGaussianBlur25" /></filter><filter
       style="color-interpolation-filters:sRGB"
       id="filter26"
       x="-0.093790074"
       y="-0.10200537"
       width="1.1875801"
       height="1.2040107"><feGaussianBlur
         stdDeviation="0.22890441"
         id="feGaussianBlur26" /></filter><filter
       style="color-interpolation-filters:sRGB"
       id="filter27"
       x="-0.093790074"
       y="-0.10200537"
       width="1.1875801"
       height="1.2040107"><feGaussianBlur
         stdDeviation="0.22890441"
         id="feGaussianBlur27" /></filter><filter
       style="color-interpolation-filters:sRGB"
       id="filter28"
       x="-0.13484784"
       y="-0.14665948"
       width="1.2696957"
       height="1.293319"><feGaussianBlur
         stdDeviation="0.1891772"
         id="feGaussianBlur28" /></filter><filter
       style="color-interpolation-filters:sRGB"
       id="filter29"
       x="-0.13484784"
       y="-0.14665948"
       width="1.2696957"
       height="1.293319"><feGaussianBlur
         stdDeviation="0.1891772"
         id="feGaussianBlur29" /></filter><filter
       style="color-interpolation-filters:sRGB"
       id="filter40"
       x="-0.019221658"
       y="-0.088652465"
       width="1.0384433"
       height="1.1773173"><feGaussianBlur
         stdDeviation="0.18862603"
         id="feGaussianBlur40" /></filter><filter
       style="color-interpolation-filters:sRGB"
       id="filter47"
       x="-0.04952301"
       y="-0.22841482"
       width="1.099046"
       height="1.4568523"><feGaussianBlur
         stdDeviation="0.52396118"
         id="feGaussianBlur47" /></filter><filter
       style="color-interpolation-filters:sRGB"
       id="filter56"
       x="-0.036746712"
       y="-0.16948089"
       width="1.0734934"
       height="1.3389844"><feGaussianBlur
         stdDeviation="0.29472817"
         id="feGaussianBlur56" /></filter><filter
       style="color-interpolation-filters:sRGB"
       id="filter57"
       x="-0.070513562"
       y="-0.049776109"
       width="1.1185542"
       height="1.0995702"><feGaussianBlur
         stdDeviation="0.19303412"
         id="feGaussianBlur57" /></filter><filter
       style="color-interpolation-filters:sRGB"
       id="filter58"
       x="-0.12916689"
       y="-0.079485772"
       width="1.2058984"
       height="1.1590135"><feGaussianBlur
         stdDeviation="0.19303412"
         id="feGaussianBlur58" /></filter><filter
       style="color-interpolation-filters:sRGB"
       id="filter63"
       x="-0.020770695"
       y="-0.044667662"
       width="1.041537"
       height="1.0893352"><feGaussianBlur
         stdDeviation="0.24386483"
         id="feGaussianBlur63" /></filter><filter
       style="color-interpolation-filters:sRGB"
       id="filter66"
       x="-0.054090205"
       y="-0.11632424"
       width="1.1081702"
       height="1.2326482"><feGaussianBlur
         stdDeviation="0.6774023"
         id="feGaussianBlur66" /></filter></defs><g
     id="layer1"
     transform="matrix(3.0651304,0,0,2.8182887,-181.38264,-77.361724)"><g
       id="g67"><g
         id="g40"
         transform="translate(-4.3189864,-118.77213)"><g
           id="g34"
           style="mix-blend-mode:normal;stroke:#fdeccf;stroke-width:1.75;stroke-dasharray:none;stroke-opacity:1;filter:url(#filter47)"><path
             style="fill:none;stroke:#fdeccf;stroke-width:1.75;stroke-linecap:round;stroke-dasharray:none;stroke-opacity:1"
             d="m 113.81816,184.87383 0.46302,-0.59532 0.66146,-0.53468 0.39687,-0.16352 0.52917,-0.0974 1.12448,-0.0643 h 0.92604 0.26458"
             id="path30" /><path
             style="fill:none;stroke:#fdeccf;stroke-width:1.75;stroke-linecap:round;stroke-dasharray:none;stroke-opacity:1"
             d="m 100.52286,182.55867 c -0.0502,0.0413 -0.10259,0.11644 -0.20212,0.15434 -0.39802,0.15157 -1.25739,0.28835 -1.84841,0.58796 -0.15246,0.0773 -0.25872,0.13862 -0.39687,0.22784 -0.24367,0.15737 -0.51385,0.3434 -0.7276,0.55122 -0.25464,0.24755 -0.46905,0.46904 -0.72761,0.7276"
             id="path31" /><path
             style="fill:none;stroke:#fdeccf;stroke-width:1.75;stroke-linecap:round;stroke-dasharray:none;stroke-opacity:1"
             d="m 83.39057,186.13072 c 0.22661,-0.37195 0.44392,-0.794 0.75333,-1.19062 0.11377,-0.14585 0.24802,-0.32413 0.37666,-0.46302 0.21053,-0.22731 0.53266,-0.46604 0.78824,-0.62104 0.33014,-0.20022 0.52481,-0.33194 0.92604,-0.47404 0.32931,-0.11664 0.65595,-0.20088 0.99219,-0.22968 0.28965,-0.0248 0.62532,-0.0727 0.92604,-0.0643 0.2649,0.007 0.60378,0.0498 0.8599,0.0919 0.54862,0.0902 0.91586,0.11029 1.12448,0.14699 0.0289,0.005 0.11765,0.0401 0.26458,0.009 0.10732,-0.0226 0.16577,-0.0593 0.19293,-0.0827 0.0746,-0.0643 0.12581,-0.10998 0.20211,-0.29766 0.0976,-0.24001 0.24778,-0.66447 0.38401,-0.92604 0.0971,-0.18652 0.17284,-0.29749 0.27745,-0.46302 0.16322,-0.25829 0.3632,-0.55453 0.57142,-0.79191 0.29565,-0.33706 0.77461,-0.74138 1.15021,-0.9683 0.11606,-0.0701 0.21057,-0.11236 0.33072,-0.17272 0.18045,-0.0906 0.40352,-0.21305 0.59532,-0.2903 0.16656,-0.0671 0.36019,-0.12066 0.52916,-0.16721 0.16448,-0.0453 0.29147,-0.0973 0.46302,-0.11759 0.60646,-0.0716 1.29532,-0.0745 1.91823,-0.011 0.25968,0.0265 0.41744,0.035 0.66146,0.11576 0.47149,0.15607 1.26203,0.49466 1.65365,0.59347 0.22044,0.0556 0.28312,0.0711 0.46302,0.09"
             id="path32" /><path
             style="fill:none;stroke:#fdeccf;stroke-width:1.75;stroke-linecap:round;stroke-dasharray:none;stroke-opacity:1"
             d="m 105.48315,184.87411 c -0.38692,-0.47713 -0.80387,-0.8446 -1.32291,-1.19063 -0.14727,-0.0982 -0.25214,-0.17496 -0.39688,-0.26274 -0.2153,-0.13058 -0.5467,-0.27329 -0.79375,-0.35278 -0.24881,-0.0801 -0.54753,-0.1818 -0.79375,-0.22967 -0.15148,-0.0294 -0.36462,-0.0618 -0.52917,-0.0808 -0.1274,-0.0148 -0.20989,-0.0346 -0.33072,-0.0515 -0.13965,-0.0194 -0.42902,-0.001 -0.52917,-0.022 -0.13852,-0.0283 -0.20406,-0.0487 -0.28296,-0.25723 -0.0352,-0.0931 -0.0406,-0.17494 -0.0441,-0.19844 -0.0147,-0.0977 -0.0281,-0.15518 -0.0661,-0.39688 -0.0177,-0.11242 -0.0592,-0.34912 -0.0992,-0.46302 -0.0774,-0.22011 -0.22649,-0.43355 -0.28663,-0.66145 -0.0272,-0.10311 -0.0684,-0.30957 -0.09,-0.39688 -0.0453,-0.18308 -0.0583,-0.23974 -0.0735,-0.33073 l 0.0129,-0.13229 c 0.0504,-0.14717 0.13477,-0.19743 0.18741,-0.26458 0.0863,-0.11003 0.19883,-0.2827 0.34911,-0.46302 0.0946,-0.11347 0.17928,-0.21887 0.2756,-0.33073 0.32383,-0.37606 0.74576,-0.74851 1.17593,-1.03629 0.30134,-0.20159 0.56147,-0.35193 0.92604,-0.49793 0.30765,-0.1232 0.74327,-0.28571 1.05833,-0.35645 0.22718,-0.051 0.55047,-0.0778 0.79375,-0.0919 0.25267,-0.0146 0.33338,-0.002 0.59532,-0.002 0.31504,0 0.42672,-0.0271 0.7276,0.0147 0.42987,0.0597 0.79206,0.1309 1.19063,0.24069 0.25451,0.0701 0.54876,0.17689 0.79375,0.29031 0.30785,0.14252 0.47238,0.22469 0.7276,0.40607 0.26848,0.19079 0.61801,0.46366 0.85806,0.70371 0.22472,0.22473 0.49978,0.54807 0.68718,0.79191 0.22052,0.28695 0.26101,0.52395 0.57143,0.62839 0.19112,0.0643 0.35106,2.5e-4 0.5953,-0.0478 0.31969,-0.0629 0.66491,-0.22974 0.99219,-0.33808 0.16293,-0.0539 0.29299,-0.0902 0.46302,-0.11024 0.36103,-0.0426 0.74832,-0.12533 1.12448,-0.1323 0.26186,-0.005 0.54343,0.0462 0.79375,0.0717 0.65829,0.067 1.43858,0.31196 2.05052,0.68167 0.15307,0.0925 0.25995,0.17621 0.39687,0.28112 0.37258,0.28547 0.92597,0.75884 1.21451,1.14837 0.17761,0.23976 0.20383,0.45926 0.28296,0.58796 0.0357,0.058 0.0847,0.11289 0.22232,0.12678 0.13823,0.014 0.35328,-0.0497 0.46303,-0.068 0.15652,-0.0261 0.47701,-0.0647 0.66145,-0.1176 0.15565,-0.0446 0.28957,-0.0919 0.46302,-0.11759 0.2735,-0.0405 0.64332,-0.0626 0.92605,-0.079 0.35247,-0.0204 0.84947,0.0221 1.19062,0.079 0.28473,0.0474 0.57243,0.16084 0.8599,0.2407 0.17185,0.0478 0.30718,0.115 0.46302,0.19292 0.40643,0.20322 0.84469,0.50548 1.19062,0.79375 0.50485,0.42071 0.96372,1.1299 1.32292,1.6022"
             id="path33" /><path
             style="fill:none;stroke:#fdeccf;stroke-width:1.75;stroke-linecap:round;stroke-dasharray:none;stroke-opacity:1"
             d="m 118.84473,182.1618 -0.33992,0.52916 -0.25356,0.59532 -0.005,0.26458 0.12678,0.26458 0.40607,0.46302"
             id="path34" /></g><g
           id="g56"
           style="mix-blend-mode:normal;stroke:#fdeccf;stroke-width:1.75;stroke-dasharray:none;stroke-opacity:1;filter:url(#filter56)"><path
             style="fill:none;stroke:#fdeccf;stroke-width:1.75;stroke-linecap:round;stroke-dasharray:none;stroke-opacity:1"
             d="m 113.81816,184.87383 0.46302,-0.59532 0.66146,-0.53468 0.39687,-0.16352 0.52917,-0.0974 1.12448,-0.0643 h 0.92604 0.26458"
             id="path52" /><path
             style="fill:none;stroke:#fdeccf;stroke-width:1.75;stroke-linecap:round;stroke-dasharray:none;stroke-opacity:1"
             d="m 100.52286,182.55867 c -0.0502,0.0413 -0.10259,0.11644 -0.20212,0.15434 -0.39802,0.15157 -1.25739,0.28835 -1.84841,0.58796 -0.15246,0.0773 -0.25872,0.13862 -0.39687,0.22784 -0.24367,0.15737 -0.51385,0.3434 -0.7276,0.55122 -0.25464,0.24755 -0.46905,0.46904 -0.72761,0.7276"
             id="path53" /><path
             style="fill:none;stroke:#fdeccf;stroke-width:1.75;stroke-linecap:round;stroke-dasharray:none;stroke-opacity:1"
             d="m 83.39057,186.13072 c 0.22661,-0.37195 0.44392,-0.794 0.75333,-1.19062 0.11377,-0.14585 0.24802,-0.32413 0.37666,-0.46302 0.21053,-0.22731 0.53266,-0.46604 0.78824,-0.62104 0.33014,-0.20022 0.52481,-0.33194 0.92604,-0.47404 0.32931,-0.11664 0.65595,-0.20088 0.99219,-0.22968 0.28965,-0.0248 0.62532,-0.0727 0.92604,-0.0643 0.2649,0.007 0.60378,0.0498 0.8599,0.0919 0.54862,0.0902 0.91586,0.11029 1.12448,0.14699 0.0289,0.005 0.11765,0.0401 0.26458,0.009 0.10732,-0.0226 0.16577,-0.0593 0.19293,-0.0827 0.0746,-0.0643 0.12581,-0.10998 0.20211,-0.29766 0.0976,-0.24001 0.24778,-0.66447 0.38401,-0.92604 0.0971,-0.18652 0.17284,-0.29749 0.27745,-0.46302 0.16322,-0.25829 0.3632,-0.55453 0.57142,-0.79191 0.29565,-0.33706 0.77461,-0.74138 1.15021,-0.9683 0.11606,-0.0701 0.21057,-0.11236 0.33072,-0.17272 0.18045,-0.0906 0.40352,-0.21305 0.59532,-0.2903 0.16656,-0.0671 0.36019,-0.12066 0.52916,-0.16721 0.16448,-0.0453 0.29147,-0.0973 0.46302,-0.11759 0.60646,-0.0716 1.29532,-0.0745 1.91823,-0.011 0.25968,0.0265 0.41744,0.035 0.66146,0.11576 0.47149,0.15607 1.26203,0.49466 1.65365,0.59347 0.22044,0.0556 0.28312,0.0711 0.46302,0.09"
             id="path54" /><path
             style="fill:none;stroke:#fdeccf;stroke-width:1.75;stroke-linecap:round;stroke-dasharray:none;stroke-opacity:1"
             d="m 105.48315,184.87411 c -0.38692,-0.47713 -0.80387,-0.8446 -1.32291,-1.19063 -0.14727,-0.0982 -0.25214,-0.17496 -0.39688,-0.26274 -0.2153,-0.13058 -0.5467,-0.27329 -0.79375,-0.35278 -0.24881,-0.0801 -0.54753,-0.1818 -0.79375,-0.22967 -0.15148,-0.0294 -0.36462,-0.0618 -0.52917,-0.0808 -0.1274,-0.0148 -0.20989,-0.0346 -0.33072,-0.0515 -0.13965,-0.0194 -0.42902,-0.001 -0.52917,-0.022 -0.13852,-0.0283 -0.20406,-0.0487 -0.28296,-0.25723 -0.0352,-0.0931 -0.0406,-0.17494 -0.0441,-0.19844 -0.0147,-0.0977 -0.0281,-0.15518 -0.0661,-0.39688 -0.0177,-0.11242 -0.0592,-0.34912 -0.0992,-0.46302 -0.0774,-0.22011 -0.22649,-0.43355 -0.28663,-0.66145 -0.0272,-0.10311 -0.0684,-0.30957 -0.09,-0.39688 -0.0453,-0.18308 -0.0583,-0.23974 -0.0735,-0.33073 l 0.0129,-0.13229 c 0.0504,-0.14717 0.13477,-0.19743 0.18741,-0.26458 0.0863,-0.11003 0.19883,-0.2827 0.34911,-0.46302 0.0946,-0.11347 0.17928,-0.21887 0.2756,-0.33073 0.32383,-0.37606 0.74576,-0.74851 1.17593,-1.03629 0.30134,-0.20159 0.56147,-0.35193 0.92604,-0.49793 0.30765,-0.1232 0.74327,-0.28571 1.05833,-0.35645 0.22718,-0.051 0.55047,-0.0778 0.79375,-0.0919 0.25267,-0.0146 0.33338,-0.002 0.59532,-0.002 0.31504,0 0.42672,-0.0271 0.7276,0.0147 0.42987,0.0597 0.79206,0.1309 1.19063,0.24069 0.25451,0.0701 0.54876,0.17689 0.79375,0.29031 0.30785,0.14252 0.47238,0.22469 0.7276,0.40607 0.26848,0.19079 0.61801,0.46366 0.85806,0.70371 0.22472,0.22473 0.49978,0.54807 0.68718,0.79191 0.22052,0.28695 0.26101,0.52395 0.57143,0.62839 0.19112,0.0643 0.35106,2.5e-4 0.5953,-0.0478 0.31969,-0.0629 0.66491,-0.22974 0.99219,-0.33808 0.16293,-0.0539 0.29299,-0.0902 0.46302,-0.11024 0.36103,-0.0426 0.74832,-0.12533 1.12448,-0.1323 0.26186,-0.005 0.54343,0.0462 0.79375,0.0717 0.65829,0.067 1.43858,0.31196 2.05052,0.68167 0.15307,0.0925 0.25995,0.17621 0.39687,0.28112 0.37258,0.28547 0.92597,0.75884 1.21451,1.14837 0.17761,0.23976 0.20383,0.45926 0.28296,0.58796 0.0357,0.058 0.0847,0.11289 0.22232,0.12678 0.13823,0.014 0.35328,-0.0497 0.46303,-0.068 0.15652,-0.0261 0.47701,-0.0647 0.66145,-0.1176 0.15565,-0.0446 0.28957,-0.0919 0.46302,-0.11759 0.2735,-0.0405 0.64332,-0.0626 0.92605,-0.079 0.35247,-0.0204 0.84947,0.0221 1.19062,0.079 0.28473,0.0474 0.57243,0.16084 0.8599,0.2407 0.17185,0.0478 0.30718,0.115 0.46302,0.19292 0.40643,0.20322 0.84469,0.50548 1.19062,0.79375 0.50485,0.42071 0.96372,1.1299 1.32292,1.6022"
             id="path55" /><path
             style="fill:none;stroke:#fdeccf;stroke-width:1.75;stroke-linecap:round;stroke-dasharray:none;stroke-opacity:1"
             d="m 118.84473,182.1618 -0.33992,0.52916 -0.25356,0.59532 -0.005,0.26458 0.12678,0.26458 0.40607,0.46302"
             id="path56" /></g><g
           id="g47"
           style="stroke:#dfceb1;stroke-width:1.75;stroke-dasharray:none;stroke-opacity:1"><path
             style="fill:none;stroke:#dfceb1;stroke-width:1.75;stroke-linecap:round;stroke-dasharray:none;stroke-opacity:1"
             d="m 113.81816,184.87383 0.46302,-0.59532 0.66146,-0.53468 0.39687,-0.16352 0.52917,-0.0974 1.12448,-0.0643 h 0.92604 0.26458"
             id="path43" /><path
             style="fill:none;stroke:#dfceb1;stroke-width:1.75;stroke-linecap:round;stroke-dasharray:none;stroke-opacity:1"
             d="m 100.52286,182.55867 c -0.0502,0.0413 -0.10259,0.11644 -0.20212,0.15434 -0.39802,0.15157 -1.25739,0.28835 -1.84841,0.58796 -0.15246,0.0773 -0.25872,0.13862 -0.39687,0.22784 -0.24367,0.15737 -0.51385,0.3434 -0.7276,0.55122 -0.25464,0.24755 -0.46905,0.46904 -0.72761,0.7276"
             id="path44" /><path
             style="fill:none;stroke:#dfceb1;stroke-width:1.75;stroke-linecap:round;stroke-dasharray:none;stroke-opacity:1"
             d="m 83.39057,186.13072 c 0.22661,-0.37195 0.44392,-0.794 0.75333,-1.19062 0.11377,-0.14585 0.24802,-0.32413 0.37666,-0.46302 0.21053,-0.22731 0.53266,-0.46604 0.78824,-0.62104 0.33014,-0.20022 0.52481,-0.33194 0.92604,-0.47404 0.32931,-0.11664 0.65595,-0.20088 0.99219,-0.22968 0.28965,-0.0248 0.62532,-0.0727 0.92604,-0.0643 0.2649,0.007 0.60378,0.0498 0.8599,0.0919 0.54862,0.0902 0.91586,0.11029 1.12448,0.14699 0.0289,0.005 0.11765,0.0401 0.26458,0.009 0.10732,-0.0226 0.16577,-0.0593 0.19293,-0.0827 0.0746,-0.0643 0.12581,-0.10998 0.20211,-0.29766 0.0976,-0.24001 0.24778,-0.66447 0.38401,-0.92604 0.0971,-0.18652 0.17284,-0.29749 0.27745,-0.46302 0.16322,-0.25829 0.3632,-0.55453 0.57142,-0.79191 0.29565,-0.33706 0.77461,-0.74138 1.15021,-0.9683 0.11606,-0.0701 0.21057,-0.11236 0.33072,-0.17272 0.18045,-0.0906 0.40352,-0.21305 0.59532,-0.2903 0.16656,-0.0671 0.36019,-0.12066 0.52916,-0.16721 0.16448,-0.0453 0.29147,-0.0973 0.46302,-0.11759 0.60646,-0.0716 1.29532,-0.0745 1.91823,-0.011 0.25968,0.0265 0.41744,0.035 0.66146,0.11576 0.47149,0.15607 1.26203,0.49466 1.65365,0.59347 0.22044,0.0556 0.28312,0.0711 0.46302,0.09"
             id="path45" /><path
             style="fill:none;stroke:#dfceb1;stroke-width:1.75;stroke-linecap:round;stroke-dasharray:none;stroke-opacity:1"
             d="m 105.48315,184.87411 c -0.38692,-0.47713 -0.80387,-0.8446 -1.32291,-1.19063 -0.14727,-0.0982 -0.25214,-0.17496 -0.39688,-0.26274 -0.2153,-0.13058 -0.5467,-0.27329 -0.79375,-0.35278 -0.24881,-0.0801 -0.54753,-0.1818 -0.79375,-0.22967 -0.15148,-0.0294 -0.36462,-0.0618 -0.52917,-0.0808 -0.1274,-0.0148 -0.20989,-0.0346 -0.33072,-0.0515 -0.13965,-0.0194 -0.42902,-0.001 -0.52917,-0.022 -0.13852,-0.0283 -0.20406,-0.0487 -0.28296,-0.25723 -0.0352,-0.0931 -0.0406,-0.17494 -0.0441,-0.19844 -0.0147,-0.0977 -0.0281,-0.15518 -0.0661,-0.39688 -0.0177,-0.11242 -0.0592,-0.34912 -0.0992,-0.46302 -0.0774,-0.22011 -0.22649,-0.43355 -0.28663,-0.66145 -0.0272,-0.10311 -0.0684,-0.30957 -0.09,-0.39688 -0.0453,-0.18308 -0.0583,-0.23974 -0.0735,-0.33073 l 0.0129,-0.13229 c 0.0504,-0.14717 0.13477,-0.19743 0.18741,-0.26458 0.0863,-0.11003 0.19883,-0.2827 0.34911,-0.46302 0.0946,-0.11347 0.17928,-0.21887 0.2756,-0.33073 0.32383,-0.37606 0.74576,-0.74851 1.17593,-1.03629 0.30134,-0.20159 0.56147,-0.35193 0.92604,-0.49793 0.30765,-0.1232 0.74327,-0.28571 1.05833,-0.35645 0.22718,-0.051 0.55047,-0.0778 0.79375,-0.0919 0.25267,-0.0146 0.33338,-0.002 0.59532,-0.002 0.31504,0 0.42672,-0.0271 0.7276,0.0147 0.42987,0.0597 0.79206,0.1309 1.19063,0.24069 0.25451,0.0701 0.54876,0.17689 0.79375,0.29031 0.30785,0.14252 0.47238,0.22469 0.7276,0.40607 0.26848,0.19079 0.61801,0.46366 0.85806,0.70371 0.22472,0.22473 0.49978,0.54807 0.68718,0.79191 0.22052,0.28695 0.26101,0.52395 0.57143,0.62839 0.19112,0.0643 0.35106,2.5e-4 0.5953,-0.0478 0.31969,-0.0629 0.66491,-0.22974 0.99219,-0.33808 0.16293,-0.0539 0.29299,-0.0902 0.46302,-0.11024 0.36103,-0.0426 0.74832,-0.12533 1.12448,-0.1323 0.26186,-0.005 0.54343,0.0462 0.79375,0.0717 0.65829,0.067 1.43858,0.31196 2.05052,0.68167 0.15307,0.0925 0.25995,0.17621 0.39687,0.28112 0.37258,0.28547 0.92597,0.75884 1.21451,1.14837 0.17761,0.23976 0.20383,0.45926 0.28296,0.58796 0.0357,0.058 0.0847,0.11289 0.22232,0.12678 0.13823,0.014 0.35328,-0.0497 0.46303,-0.068 0.15652,-0.0261 0.47701,-0.0647 0.66145,-0.1176 0.15565,-0.0446 0.28957,-0.0919 0.46302,-0.11759 0.2735,-0.0405 0.64332,-0.0626 0.92605,-0.079 0.35247,-0.0204 0.84947,0.0221 1.19062,0.079 0.28473,0.0474 0.57243,0.16084 0.8599,0.2407 0.17185,0.0478 0.30718,0.115 0.46302,0.19292 0.40643,0.20322 0.84469,0.50548 1.19062,0.79375 0.50485,0.42071 0.96372,1.1299 1.32292,1.6022"
             id="path46" /><path
             style="fill:none;stroke:#dfceb1;stroke-width:1.75;stroke-linecap:round;stroke-dasharray:none;stroke-opacity:1"
             d="m 118.84473,182.1618 -0.33992,0.52916 -0.25356,0.59532 -0.005,0.26458 0.12678,0.26458 0.40607,0.46302"
             id="path47" /></g><g
           id="g39"
           style="mix-blend-mode:normal;stroke:#fdecd0;stroke-width:0.75;stroke-dasharray:none;stroke-opacity:1;filter:url(#filter40)"><path
             style="fill:none;stroke:#fdecd0;stroke-width:0.75;stroke-linecap:round;stroke-dasharray:none;stroke-opacity:1"
             d="m 113.81816,184.87383 0.46302,-0.59532 0.66146,-0.53468 0.39687,-0.16352 0.52917,-0.0974 1.12448,-0.0643 h 0.92604 0.26458"
             id="path35" /><path
             style="fill:none;stroke:#fdecd0;stroke-width:0.75;stroke-linecap:round;stroke-dasharray:none;stroke-opacity:1"
             d="m 100.52286,182.55867 c -0.0502,0.0413 -0.10259,0.11644 -0.20212,0.15434 -0.39802,0.15157 -1.25739,0.28835 -1.84841,0.58796 -0.15246,0.0773 -0.25872,0.13862 -0.39687,0.22784 -0.24367,0.15737 -0.51385,0.3434 -0.7276,0.55122 -0.25464,0.24755 -0.46905,0.46904 -0.72761,0.7276"
             id="path36" /><path
             style="fill:none;stroke:#fdecd0;stroke-width:0.75;stroke-linecap:round;stroke-dasharray:none;stroke-opacity:1"
             d="m 83.39057,186.13072 c 0.22661,-0.37195 0.44392,-0.794 0.75333,-1.19062 0.11377,-0.14585 0.24802,-0.32413 0.37666,-0.46302 0.21053,-0.22731 0.53266,-0.46604 0.78824,-0.62104 0.33014,-0.20022 0.52481,-0.33194 0.92604,-0.47404 0.32931,-0.11664 0.65595,-0.20088 0.99219,-0.22968 0.28965,-0.0248 0.62532,-0.0727 0.92604,-0.0643 0.2649,0.007 0.60378,0.0498 0.8599,0.0919 0.54862,0.0902 0.91586,0.11029 1.12448,0.14699 0.0289,0.005 0.11765,0.0401 0.26458,0.009 0.10732,-0.0226 0.16577,-0.0593 0.19293,-0.0827 0.0746,-0.0643 0.12581,-0.10998 0.20211,-0.29766 0.0976,-0.24001 0.24778,-0.66447 0.38401,-0.92604 0.0971,-0.18652 0.17284,-0.29749 0.27745,-0.46302 0.16322,-0.25829 0.3632,-0.55453 0.57142,-0.79191 0.29565,-0.33706 0.77461,-0.74138 1.15021,-0.9683 0.11606,-0.0701 0.21057,-0.11236 0.33072,-0.17272 0.18045,-0.0906 0.40352,-0.21305 0.59532,-0.2903 0.16656,-0.0671 0.36019,-0.12066 0.52916,-0.16721 0.16448,-0.0453 0.29147,-0.0973 0.46302,-0.11759 0.60646,-0.0716 1.29532,-0.0745 1.91823,-0.011 0.25968,0.0265 0.41744,0.035 0.66146,0.11576 0.47149,0.15607 1.26203,0.49466 1.65365,0.59347 0.22044,0.0556 0.28312,0.0711 0.46302,0.09"
             id="path37" /><path
             style="fill:none;stroke:#fdecd0;stroke-width:0.75;stroke-linecap:round;stroke-dasharray:none;stroke-opacity:1"
             d="m 105.48315,184.87411 c -0.38692,-0.47713 -0.80387,-0.8446 -1.32291,-1.19063 -0.14727,-0.0982 -0.25214,-0.17496 -0.39688,-0.26274 -0.2153,-0.13058 -0.5467,-0.27329 -0.79375,-0.35278 -0.24881,-0.0801 -0.54753,-0.1818 -0.79375,-0.22967 -0.15148,-0.0294 -0.36462,-0.0618 -0.52917,-0.0808 -0.1274,-0.0148 -0.20989,-0.0346 -0.33072,-0.0515 -0.13965,-0.0194 -0.42902,-0.001 -0.52917,-0.022 -0.13852,-0.0283 -0.20406,-0.0487 -0.28296,-0.25723 -0.0352,-0.0931 -0.0406,-0.17494 -0.0441,-0.19844 -0.0147,-0.0977 -0.0281,-0.15518 -0.0661,-0.39688 -0.0177,-0.11242 -0.0592,-0.34912 -0.0992,-0.46302 -0.0774,-0.22011 -0.22649,-0.43355 -0.28663,-0.66145 -0.0272,-0.10311 -0.0684,-0.30957 -0.09,-0.39688 -0.0453,-0.18308 -0.0583,-0.23974 -0.0735,-0.33073 l 0.0129,-0.13229 c 0.0504,-0.14717 0.13477,-0.19743 0.18741,-0.26458 0.0863,-0.11003 0.19883,-0.2827 0.34911,-0.46302 0.0946,-0.11347 0.17928,-0.21887 0.2756,-0.33073 0.32383,-0.37606 0.74576,-0.74851 1.17593,-1.03629 0.30134,-0.20159 0.56147,-0.35193 0.92604,-0.49793 0.30765,-0.1232 0.74327,-0.28571 1.05833,-0.35645 0.22718,-0.051 0.55047,-0.0778 0.79375,-0.0919 0.25267,-0.0146 0.33338,-0.002 0.59532,-0.002 0.31504,0 0.42672,-0.0271 0.7276,0.0147 0.42987,0.0597 0.79206,0.1309 1.19063,0.24069 0.25451,0.0701 0.54876,0.17689 0.79375,0.29031 0.30785,0.14252 0.47238,0.22469 0.7276,0.40607 0.26848,0.19079 0.61801,0.46366 0.85806,0.70371 0.22472,0.22473 0.49978,0.54807 0.68718,0.79191 0.22052,0.28695 0.26101,0.52395 0.57143,0.62839 0.19112,0.0643 0.35106,2.5e-4 0.5953,-0.0478 0.31969,-0.0629 0.66491,-0.22974 0.99219,-0.33808 0.16293,-0.0539 0.29299,-0.0902 0.46302,-0.11024 0.36103,-0.0426 0.74832,-0.12533 1.12448,-0.1323 0.26186,-0.005 0.54343,0.0462 0.79375,0.0717 0.65829,0.067 1.43858,0.31196 2.05052,0.68167 0.15307,0.0925 0.25995,0.17621 0.39687,0.28112 0.37258,0.28547 0.92597,0.75884 1.21451,1.14837 0.17761,0.23976 0.20383,0.45926 0.28296,0.58796 0.0357,0.058 0.0847,0.11289 0.22232,0.12678 0.13823,0.014 0.35328,-0.0497 0.46303,-0.068 0.15652,-0.0261 0.47701,-0.0647 0.66145,-0.1176 0.15565,-0.0446 0.28957,-0.0919 0.46302,-0.11759 0.2735,-0.0405 0.64332,-0.0626 0.92605,-0.079 0.35247,-0.0204 0.84947,0.0221 1.19062,0.079 0.28473,0.0474 0.57243,0.16084 0.8599,0.2407 0.17185,0.0478 0.30718,0.115 0.46302,0.19292 0.40643,0.20322 0.84469,0.50548 1.19062,0.79375 0.50485,0.42071 0.96372,1.1299 1.32292,1.6022"
             id="path38" /><path
             style="fill:none;stroke:#fdecd0;stroke-width:0.75;stroke-linecap:round;stroke-dasharray:none;stroke-opacity:1"
             d="m 118.84473,182.1618 -0.33992,0.52916 -0.25356,0.59532 -0.005,0.26458 0.12678,0.26458 0.40607,0.46302"
             id="path39" /></g></g><g
         id="g57"
         transform="translate(-4.3189864,-118.77213)"><path
           style="opacity:1;fill:none;fill-opacity:0;stroke:#e4fffd;stroke-width:1.75;stroke-linecap:round;stroke-dasharray:none;stroke-opacity:1;filter:url(#filter58)"
           d="m 127.12118,188.06786 12.00573,-15.2824 c 0.26801,-0.34115 0.61272,-0.58749 0.92659,-0.8314 0.40751,-0.31669 0.9235,-0.52551 1.42692,-0.63919 0.45482,-0.10271 0.94706,-0.11027 1.3988,0.005 0.44832,0.11462 0.9584,0.28027 1.22035,0.66173 0.27397,0.39896 0.42586,0.78275 0.47051,1.21417 0.0405,0.39072 0.0104,0.8838 -0.0713,1.26803 -0.10746,0.50575 -0.31154,0.89069 -0.64377,1.20284 L 130.63728,188.086 Z"
           id="path2" /><path
           style="opacity:1;fill:none;fill-opacity:0;stroke:#7fcdc2;stroke-width:1.75;stroke-linecap:round;stroke-dasharray:none;stroke-opacity:1"
           d="m 127.12118,188.06786 12.00573,-15.2824 c 0.26801,-0.34115 0.61272,-0.58749 0.92659,-0.8314 0.40751,-0.31669 0.9235,-0.52551 1.42692,-0.63919 0.45482,-0.10271 0.94706,-0.11027 1.3988,0.005 0.44832,0.11462 0.9584,0.28027 1.22035,0.66173 0.27397,0.39896 0.42586,0.78275 0.47051,1.21417 0.0405,0.39072 0.0104,0.8838 -0.0713,1.26803 -0.10746,0.50575 -0.31154,0.89069 -0.64377,1.20284 L 130.63728,188.086 Z"
           id="path58" /><path
           style="opacity:1;fill:none;fill-opacity:0;stroke:#e1ffff;stroke-width:0.75;stroke-linecap:round;stroke-dasharray:none;stroke-opacity:1;filter:url(#filter57)"
           d="m 127.12118,188.06786 12.00573,-15.2824 c 0.26801,-0.34115 0.61272,-0.58749 0.92659,-0.8314 0.40751,-0.31669 0.9235,-0.52551 1.42692,-0.63919 0.45482,-0.10271 0.94706,-0.11027 1.3988,0.005 0.44832,0.11462 0.9584,0.28027 1.22035,0.66173 0.27397,0.39896 0.42586,0.78275 0.47051,1.21417 0.0405,0.39072 0.0104,0.8838 -0.0713,1.26803 -0.10746,0.50575 -0.31154,0.89069 -0.64377,1.20284 L 130.63728,188.086 Z"
           id="path57" /></g><g
         id="g13"
         style="stroke:#5ba29b;stroke-width:1.75;stroke-dasharray:none;stroke-opacity:1"
         transform="translate(-4.3189864,-118.77213)"><g
           id="g43"><path
             style="fill:none;stroke:#e5fffc;stroke-width:1.75;stroke-linecap:round;stroke-dasharray:none;stroke-opacity:1;filter:url(#filter21)"
             d="m 78.708431,192.49628 1.44153,-0.0157 c 12.655939,0.01 25.311819,-0.0359 37.967699,-0.0661"
             id="path23" /><path
             style="fill:none;stroke:#e5fffc;stroke-width:1.75;stroke-linecap:round;stroke-dasharray:none;stroke-opacity:1;filter:url(#filter21)"
             d="m 78.708431,192.49628 1.44153,-0.0157 c 12.655939,0.01 25.311819,-0.0359 37.967699,-0.0661"
             id="path21" /><path
             style="fill:none;stroke:#e5fffc;stroke-width:1.75;stroke-linecap:round;stroke-dasharray:none;stroke-opacity:1;filter:url(#filter28)"
             d="m 84.9786,196.44938 c 0.10776,0.1593 0.19531,0.30931 0.29031,0.46302 0.0572,0.0926 0.11384,0.17355 0.17088,0.26458 0.3416,0.54523 0.73891,1.16651 1.15387,1.7198 1.23792,1.65054 2.72622,3.13578 4.40422,4.3399 0.41481,0.29767 0.8956,0.61572 1.32291,0.88378 0.13726,0.0861 0.25363,0.14277 0.39688,0.226 0.17766,0.10322 0.36215,0.22208 0.52917,0.31603 0.0953,0.0536 0.16899,0.0876 0.26458,0.13596 0.46576,0.23576 0.97635,0.53526 1.32292,0.71291"
             id="path29" /><path
             style="fill:none;stroke:#e5fffc;stroke-width:1.75;stroke-linecap:round;stroke-dasharray:none;stroke-opacity:1;filter:url(#filter29)"
             d="m 84.9786,196.44938 c 0.10776,0.1593 0.19531,0.30931 0.29031,0.46302 0.0572,0.0926 0.11384,0.17355 0.17088,0.26458 0.3416,0.54523 0.73891,1.16651 1.15387,1.7198 1.23792,1.65054 2.72622,3.13578 4.40422,4.3399 0.41481,0.29767 0.8956,0.61572 1.32291,0.88378 0.13726,0.0861 0.25363,0.14277 0.39688,0.226 0.17766,0.10322 0.36215,0.22208 0.52917,0.31603 0.0953,0.0536 0.16899,0.0876 0.26458,0.13596 0.46576,0.23576 0.97635,0.53526 1.32292,0.71291"
             id="path28" /><path
             style="fill:#000000;fill-opacity:0;stroke:#e6fffc;stroke-width:1.75;stroke-linecap:round;stroke-dasharray:none;stroke-opacity:1;filter:url(#filter17)"
             d="m 136.56996,188.38167 c 0.0724,0.22288 0.0556,0.37807 0.0166,0.65962 -0.0297,0.21365 -0.0147,0.27181 -0.0147,0.46302 0,0.14216 0.009,0.19021 -0.005,0.33073 -0.014,0.1411 -0.041,0.18891 -0.0551,0.33073 -0.01,0.0989 -1.5e-4,0.16737 -0.007,0.26458 -0.007,0.10074 -0.0216,0.16617 -0.0386,0.26459 -0.0482,0.27874 -0.10096,0.5766 -0.15802,0.85989 -0.35262,1.75087 -0.86616,3.38504 -1.56177,5.02708 -0.29295,0.69153 -0.63804,1.40442 -1.01791,2.05053 -0.1869,0.31787 -0.35169,0.62358 -0.55122,0.92604 -0.42706,0.64733 -0.88747,1.29874 -1.35783,1.91823 -0.45611,0.60073 -0.97311,1.10019 -1.44969,1.65364 -0.17538,0.20367 -0.33658,0.39378 -0.54387,0.59531 -0.11266,0.10953 -0.21417,0.19291 -0.33073,0.29031 -0.12602,0.10531 -0.22073,0.19603 -0.33073,0.30501 -0.12508,0.12392 -0.26104,0.2652 -0.39687,0.38217 -0.53897,0.46412 -1.08435,0.91983 -1.65365,1.34681 -0.27599,0.20699 -0.58126,0.43534 -0.85989,0.63206 -0.16761,0.11833 -0.292,0.21487 -0.46302,0.32888 -0.20832,0.13888 -0.33986,0.20803 -0.52917,0.33073 -0.12353,0.0801 -0.21034,0.1423 -0.33073,0.21866 -0.11288,0.0716 -0.21549,0.13091 -0.33073,0.20027 -0.11191,0.0674 -0.21571,0.13001 -0.33073,0.19844 -0.4083,0.2429 -0.84444,0.46422 -1.25677,0.70188 -0.19021,0.10964 -0.42727,0.18864 -0.5898,0.32154 -0.0671,0.0549 -0.13798,0.14094 -0.17639,0.23335 -0.087,0.20922 -0.0959,0.30891 -0.13413,0.52916 -0.0373,0.21479 -0.0137,0.62992 -0.0276,0.8599 -0.0158,0.26179 -0.0642,0.32211 -0.12126,0.52917 -0.0568,0.20616 -0.0788,0.36174 -0.22417,0.49793 -0.13522,0.12672 -0.26175,0.17866 -0.44648,0.22783 -0.27749,0.0739 -0.39675,0.10227 -0.66146,0.12862 -0.59609,0.0593 -1.37163,0.006 -1.98437,0.006 h -4.16719 -13.36145 -5.754694 c -0.40993,0 -1.07623,-0.034 -1.45521,-0.0717 -0.16611,-0.0165 -0.28908,-0.0277 -0.46302,-0.1029 -0.10122,-0.0437 -0.17826,-0.0925 -0.24988,-0.17087 -0.12336,-0.13497 -0.16752,-0.21516 -0.22049,-0.38218 -0.0333,-0.105 -0.0587,-0.22271 -0.0827,-0.33073 -0.069,-0.31054 -0.0966,-0.67233 -0.1084,-0.99218 -0.005,-0.13338 -0.0281,-0.27013 -0.0533,-0.39688 -0.0406,-0.20416 -0.0273,-0.33291 -0.17822,-0.51263 -0.21157,-0.25196 -0.64689,-0.39779 -0.95912,-0.5604 -0.63385,-0.33013 -1.24372,-0.69335 -1.85208,-1.06936 -0.29191,-0.18041 -0.64942,-0.42926 -0.92604,-0.61368 -0.16817,-0.11211 -0.28644,-0.18605 -0.46303,-0.31236 -1.19815,-0.85701 -2.32968,-1.84094 -3.37344,-2.88469 -0.79406,-0.79406 -1.54677,-1.61404 -2.22139,-2.51354 -0.379599,-0.50613 -0.721399,-1.05916 -1.063849,-1.5875 -0.18456,-0.28476 -0.3626,-0.56675 -0.53835,-0.8599 -0.35228,-0.58759 -0.73862,-1.28403 -1.01608,-1.91823 -0.29757,-0.68016 -0.56932,-1.41032 -0.80477,-2.11667 -0.1031,-0.30931 -0.18377,-0.6097 -0.26826,-0.92604 -0.41439,-1.55154 -0.76803,-2.81323 -0.76803,-4.49791 0,-0.25908 -0.1196,-0.58367 0.0478,-0.85255 0.091,-0.14616 0.77839,-0.19199 1.27514,-0.20579 0.39618,-0.011 0.79428,0 1.19063,0 h 8.995839 29.699464 10.55028 c 5.80791,-1e-5 6.39837,-0.0881 6.51353,0.26641 z"
             id="path18" /><path
             style="fill:none;stroke:#e6fffc;stroke-width:1.75;stroke-linecap:round;stroke-dasharray:none;stroke-opacity:1;filter:url(#filter18)"
             d="m 136.56996,188.38167 c 0.0724,0.22288 0.0556,0.37807 0.0166,0.65962 -0.0297,0.21365 -0.0147,0.27181 -0.0147,0.46302 0,0.14216 0.009,0.19021 -0.005,0.33073 -0.014,0.1411 -0.041,0.18891 -0.0551,0.33073 -0.01,0.0989 -1.5e-4,0.16737 -0.007,0.26458 -0.007,0.10074 -0.0216,0.16617 -0.0386,0.26459 -0.0482,0.27874 -0.10096,0.5766 -0.15802,0.85989 -0.35262,1.75087 -0.86616,3.38504 -1.56177,5.02708 -0.29295,0.69153 -0.63804,1.40442 -1.01791,2.05053 -0.1869,0.31787 -0.35169,0.62358 -0.55122,0.92604 -0.42706,0.64733 -0.88747,1.29874 -1.35783,1.91823 -0.45611,0.60073 -0.97311,1.10019 -1.44969,1.65364 -0.17538,0.20367 -0.33658,0.39378 -0.54387,0.59531 -0.11266,0.10953 -0.21417,0.19291 -0.33073,0.29031 -0.12602,0.10531 -0.22073,0.19603 -0.33073,0.30501 -0.12508,0.12392 -0.26104,0.2652 -0.39687,0.38217 -0.53897,0.46412 -1.08435,0.91983 -1.65365,1.34681 -0.27599,0.20699 -0.58126,0.43534 -0.85989,0.63206 -0.16761,0.11833 -0.292,0.21487 -0.46302,0.32888 -0.20832,0.13888 -0.33986,0.20803 -0.52917,0.33073 -0.12353,0.0801 -0.21034,0.1423 -0.33073,0.21866 -0.11288,0.0716 -0.21549,0.13091 -0.33073,0.20027 -0.11191,0.0674 -0.21571,0.13001 -0.33073,0.19844 -0.4083,0.2429 -0.84444,0.46422 -1.25677,0.70188 -0.19021,0.10964 -0.42727,0.18864 -0.5898,0.32154 -0.0671,0.0549 -0.13798,0.14094 -0.17639,0.23335 -0.087,0.20922 -0.0959,0.30891 -0.13413,0.52916 -0.0373,0.21479 -0.0137,0.62992 -0.0276,0.8599 -0.0158,0.26179 -0.0642,0.32211 -0.12126,0.52917 -0.0568,0.20616 -0.0788,0.36174 -0.22417,0.49793 -0.13522,0.12672 -0.26175,0.17866 -0.44648,0.22783 -0.27749,0.0739 -0.39675,0.10227 -0.66146,0.12862 -0.59609,0.0593 -1.37163,0.006 -1.98437,0.006 h -4.16719 -13.36145 -5.754694 c -0.40993,0 -1.07623,-0.034 -1.45521,-0.0717 -0.16611,-0.0165 -0.28908,-0.0277 -0.46302,-0.1029 -0.10122,-0.0437 -0.17826,-0.0925 -0.24988,-0.17087 -0.12336,-0.13497 -0.16752,-0.21516 -0.22049,-0.38218 -0.0333,-0.105 -0.0587,-0.22271 -0.0827,-0.33073 -0.069,-0.31054 -0.0966,-0.67233 -0.1084,-0.99218 -0.005,-0.13338 -0.0281,-0.27013 -0.0533,-0.39688 -0.0406,-0.20416 -0.0273,-0.33291 -0.17822,-0.51263 -0.21157,-0.25196 -0.64689,-0.39779 -0.95912,-0.5604 -0.63385,-0.33013 -1.24372,-0.69335 -1.85208,-1.06936 -0.29191,-0.18041 -0.64942,-0.42926 -0.92604,-0.61368 -0.16817,-0.11211 -0.28644,-0.18605 -0.46303,-0.31236 -1.19815,-0.85701 -2.32968,-1.84094 -3.37344,-2.88469 -0.79406,-0.79406 -1.54677,-1.61404 -2.22139,-2.51354 -0.379599,-0.50613 -0.721399,-1.05916 -1.063849,-1.5875 -0.18456,-0.28476 -0.3626,-0.56675 -0.53835,-0.8599 -0.35228,-0.58759 -0.73862,-1.28403 -1.01608,-1.91823 -0.29757,-0.68016 -0.56932,-1.41032 -0.80477,-2.11667 -0.1031,-0.30931 -0.18377,-0.6097 -0.26826,-0.92604 -0.41439,-1.55154 -0.76803,-2.81323 -0.76803,-4.49791 0,-0.25908 -0.1196,-0.58367 0.0478,-0.85255 0.091,-0.14616 0.77839,-0.19199 1.27514,-0.20579 0.39618,-0.011 0.79428,0 1.19063,0 h 8.995839 29.699464 10.55028 c 5.80791,-1e-5 6.39837,-0.0881 6.51353,0.26641 z"
             id="path17" /></g><g
           id="g42"><path
             style="fill:none;stroke:#5ba29b;stroke-width:1.75;stroke-linecap:round;stroke-dasharray:none;stroke-opacity:1"
             d="m 78.708431,192.49628 1.44153,-0.0157 c 12.655939,0.01 25.311819,-0.0359 37.967699,-0.0661"
             id="path13" /><path
             style="fill:none;stroke:#5ba29b;stroke-width:1.75;stroke-linecap:round;stroke-dasharray:none;stroke-opacity:1"
             d="m 84.9786,196.44938 c 0.10776,0.1593 0.19531,0.30931 0.29031,0.46302 0.0572,0.0926 0.11384,0.17355 0.17088,0.26458 0.3416,0.54523 0.73891,1.16651 1.15387,1.7198 1.23792,1.65054 2.72622,3.13578 4.40422,4.3399 0.41481,0.29767 0.8956,0.61572 1.32291,0.88378 0.13726,0.0861 0.25363,0.14277 0.39688,0.226 0.17766,0.10322 0.36215,0.22208 0.52917,0.31603 0.0953,0.0536 0.16899,0.0876 0.26458,0.13596 0.46576,0.23576 0.97635,0.53526 1.32292,0.71291"
             id="path6" /><path
             style="fill:none;stroke:#5ba29b;stroke-width:1.75;stroke-linecap:round;stroke-dasharray:none;stroke-opacity:1"
             d="m 136.56996,188.38167 c 0.0724,0.22288 0.0556,0.37807 0.0166,0.65962 -0.0297,0.21365 -0.0147,0.27181 -0.0147,0.46302 0,0.14216 0.009,0.19021 -0.005,0.33073 -0.014,0.1411 -0.041,0.18891 -0.0551,0.33073 -0.01,0.0989 -1.5e-4,0.16737 -0.007,0.26458 -0.007,0.10074 -0.0216,0.16617 -0.0386,0.26459 -0.0482,0.27874 -0.10096,0.5766 -0.15802,0.85989 -0.35262,1.75087 -0.86616,3.38504 -1.56177,5.02708 -0.29295,0.69153 -0.63804,1.40442 -1.01791,2.05053 -0.1869,0.31787 -0.35169,0.62358 -0.55122,0.92604 -0.42706,0.64733 -0.88747,1.29874 -1.35783,1.91823 -0.45611,0.60073 -0.97311,1.10019 -1.44969,1.65364 -0.17538,0.20367 -0.33658,0.39378 -0.54387,0.59531 -0.11266,0.10953 -0.21417,0.19291 -0.33073,0.29031 -0.12602,0.10531 -0.22073,0.19603 -0.33073,0.30501 -0.12508,0.12392 -0.26104,0.2652 -0.39687,0.38217 -0.53897,0.46412 -1.08435,0.91983 -1.65365,1.34681 -0.27599,0.20699 -0.58126,0.43534 -0.85989,0.63206 -0.16761,0.11833 -0.292,0.21487 -0.46302,0.32888 -0.20832,0.13888 -0.33986,0.20803 -0.52917,0.33073 -0.12353,0.0801 -0.21034,0.1423 -0.33073,0.21866 -0.11288,0.0716 -0.21549,0.13091 -0.33073,0.20027 -0.11191,0.0674 -0.21571,0.13001 -0.33073,0.19844 -0.4083,0.2429 -0.84444,0.46422 -1.25677,0.70188 -0.19021,0.10964 -0.42727,0.18864 -0.5898,0.32154 -0.0671,0.0549 -0.13798,0.14094 -0.17639,0.23335 -0.087,0.20922 -0.0959,0.30891 -0.13413,0.52916 -0.0373,0.21479 -0.0137,0.62992 -0.0276,0.8599 -0.0158,0.26179 -0.0642,0.32211 -0.12126,0.52917 -0.0568,0.20616 -0.0788,0.36174 -0.22417,0.49793 -0.13522,0.12672 -0.26175,0.17866 -0.44648,0.22783 -0.27749,0.0739 -0.39675,0.10227 -0.66146,0.12862 -0.59609,0.0593 -1.37163,0.006 -1.98437,0.006 h -4.16719 -13.36145 -5.754694 c -0.40993,0 -1.07623,-0.034 -1.45521,-0.0717 -0.16611,-0.0165 -0.28908,-0.0277 -0.46302,-0.1029 -0.10122,-0.0437 -0.17826,-0.0925 -0.24988,-0.17087 -0.12336,-0.13497 -0.16752,-0.21516 -0.22049,-0.38218 -0.0333,-0.105 -0.0587,-0.22271 -0.0827,-0.33073 -0.069,-0.31054 -0.0966,-0.67233 -0.1084,-0.99218 -0.005,-0.13338 -0.0281,-0.27013 -0.0533,-0.39688 -0.0406,-0.20416 -0.0273,-0.33291 -0.17822,-0.51263 -0.21157,-0.25196 -0.64689,-0.39779 -0.95912,-0.5604 -0.63385,-0.33013 -1.24372,-0.69335 -1.85208,-1.06936 -0.29191,-0.18041 -0.64942,-0.42926 -0.92604,-0.61368 -0.16817,-0.11211 -0.28644,-0.18605 -0.46303,-0.31236 -1.19815,-0.85701 -2.32968,-1.84094 -3.37344,-2.88469 -0.79406,-0.79406 -1.54677,-1.61404 -2.22139,-2.51354 -0.379599,-0.50613 -0.721399,-1.05916 -1.063849,-1.5875 -0.18456,-0.28476 -0.3626,-0.56675 -0.53835,-0.8599 -0.35228,-0.58759 -0.73862,-1.28403 -1.01608,-1.91823 -0.29757,-0.68016 -0.56932,-1.41032 -0.80477,-2.11667 -0.1031,-0.30931 -0.18377,-0.6097 -0.26826,-0.92604 -0.41439,-1.55154 -0.76803,-2.81323 -0.76803,-4.49791 0,-0.25908 -0.1196,-0.58367 0.0478,-0.85255 0.091,-0.14616 0.77839,-0.19199 1.27514,-0.20579 0.39618,-0.011 0.79428,0 1.19063,0 h 8.995839 29.699464 10.55028 c 5.80791,-1e-5 6.39837,-0.0881 6.51353,0.26641 z"
             id="path7" /></g><g
           id="g41"><path
             style="fill:none;stroke:#dfffff;stroke-width:0.75;stroke-linecap:round;stroke-dasharray:none;stroke-opacity:1;filter:url(#filter23)"
             d="m 78.708431,192.49628 1.44153,-0.0157 c 12.655939,0.01 25.311819,-0.0359 37.967699,-0.0661"
             id="path19" /><path
             style="fill:none;stroke:#dfffff;stroke-width:0.75;stroke-linecap:round;stroke-dasharray:none;stroke-opacity:1;filter:url(#filter22)"
             d="m 78.708431,192.49628 1.44153,-0.0157 c 12.655939,0.01 25.311819,-0.0359 37.967699,-0.0661"
             id="path20" /><path
             style="fill:none;stroke:#e5fffc;stroke-width:0.75;stroke-linecap:round;stroke-dasharray:none;stroke-opacity:1;filter:url(#filter26)"
             d="m 84.9786,196.44938 c 0.10776,0.1593 0.19531,0.30931 0.29031,0.46302 0.0572,0.0926 0.11384,0.17355 0.17088,0.26458 0.3416,0.54523 0.73891,1.16651 1.15387,1.7198 1.23792,1.65054 2.72622,3.13578 4.40422,4.3399 0.41481,0.29767 0.8956,0.61572 1.32291,0.88378 0.13726,0.0861 0.25363,0.14277 0.39688,0.226 0.17766,0.10322 0.36215,0.22208 0.52917,0.31603 0.0953,0.0536 0.16899,0.0876 0.26458,0.13596 0.46576,0.23576 0.97635,0.53526 1.32292,0.71291"
             id="path26" /><path
             style="fill:none;stroke:#e5fffc;stroke-width:0.75;stroke-linecap:round;stroke-dasharray:none;stroke-opacity:1;filter:url(#filter27)"
             d="m 84.9786,196.44938 c 0.10776,0.1593 0.19531,0.30931 0.29031,0.46302 0.0572,0.0926 0.11384,0.17355 0.17088,0.26458 0.3416,0.54523 0.73891,1.16651 1.15387,1.7198 1.23792,1.65054 2.72622,3.13578 4.40422,4.3399 0.41481,0.29767 0.8956,0.61572 1.32291,0.88378 0.13726,0.0861 0.25363,0.14277 0.39688,0.226 0.17766,0.10322 0.36215,0.22208 0.52917,0.31603 0.0953,0.0536 0.16899,0.0876 0.26458,0.13596 0.46576,0.23576 0.97635,0.53526 1.32292,0.71291"
             id="path27" /><path
             style="fill:none;stroke:#e4fefc;stroke-width:0.75;stroke-linecap:round;stroke-dasharray:none;stroke-opacity:1;filter:url(#filter24)"
             d="m 136.56996,188.38167 c 0.0724,0.22288 0.0556,0.37807 0.0166,0.65962 -0.0297,0.21365 -0.0147,0.27181 -0.0147,0.46302 0,0.14216 0.009,0.19021 -0.005,0.33073 -0.014,0.1411 -0.041,0.18891 -0.0551,0.33073 -0.01,0.0989 -1.5e-4,0.16737 -0.007,0.26458 -0.007,0.10074 -0.0216,0.16617 -0.0386,0.26459 -0.0482,0.27874 -0.10096,0.5766 -0.15802,0.85989 -0.35262,1.75087 -0.86616,3.38504 -1.56177,5.02708 -0.29295,0.69153 -0.63804,1.40442 -1.01791,2.05053 -0.1869,0.31787 -0.35169,0.62358 -0.55122,0.92604 -0.42706,0.64733 -0.88747,1.29874 -1.35783,1.91823 -0.45611,0.60073 -0.97311,1.10019 -1.44969,1.65364 -0.17538,0.20367 -0.33658,0.39378 -0.54387,0.59531 -0.11266,0.10953 -0.21417,0.19291 -0.33073,0.29031 -0.12602,0.10531 -0.22073,0.19603 -0.33073,0.30501 -0.12508,0.12392 -0.26104,0.2652 -0.39687,0.38217 -0.53897,0.46412 -1.08435,0.91983 -1.65365,1.34681 -0.27599,0.20699 -0.58126,0.43534 -0.85989,0.63206 -0.16761,0.11833 -0.292,0.21487 -0.46302,0.32888 -0.20832,0.13888 -0.33986,0.20803 -0.52917,0.33073 -0.12353,0.0801 -0.21034,0.1423 -0.33073,0.21866 -0.11288,0.0716 -0.21549,0.13091 -0.33073,0.20027 -0.11191,0.0674 -0.21571,0.13001 -0.33073,0.19844 -0.4083,0.2429 -0.84444,0.46422 -1.25677,0.70188 -0.19021,0.10964 -0.42727,0.18864 -0.5898,0.32154 -0.0671,0.0549 -0.13798,0.14094 -0.17639,0.23335 -0.087,0.20922 -0.0959,0.30891 -0.13413,0.52916 -0.0373,0.21479 -0.0137,0.62992 -0.0276,0.8599 -0.0158,0.26179 -0.0642,0.32211 -0.12126,0.52917 -0.0568,0.20616 -0.0788,0.36174 -0.22417,0.49793 -0.13522,0.12672 -0.26175,0.17866 -0.44648,0.22783 -0.27749,0.0739 -0.39675,0.10227 -0.66146,0.12862 -0.59609,0.0593 -1.37163,0.006 -1.98437,0.006 h -4.16719 -13.36145 -5.754694 c -0.40993,0 -1.07623,-0.034 -1.45521,-0.0717 -0.16611,-0.0165 -0.28908,-0.0277 -0.46302,-0.1029 -0.10122,-0.0437 -0.17826,-0.0925 -0.24988,-0.17087 -0.12336,-0.13497 -0.16752,-0.21516 -0.22049,-0.38218 -0.0333,-0.105 -0.0587,-0.22271 -0.0827,-0.33073 -0.069,-0.31054 -0.0966,-0.67233 -0.1084,-0.99218 -0.005,-0.13338 -0.0281,-0.27013 -0.0533,-0.39688 -0.0406,-0.20416 -0.0273,-0.33291 -0.17822,-0.51263 -0.21157,-0.25196 -0.64689,-0.39779 -0.95912,-0.5604 -0.63385,-0.33013 -1.24372,-0.69335 -1.85208,-1.06936 -0.29191,-0.18041 -0.64942,-0.42926 -0.92604,-0.61368 -0.16817,-0.11211 -0.28644,-0.18605 -0.46303,-0.31236 -1.19815,-0.85701 -2.32968,-1.84094 -3.37344,-2.88469 -0.79406,-0.79406 -1.54677,-1.61404 -2.22139,-2.51354 -0.379599,-0.50613 -0.721399,-1.05916 -1.063849,-1.5875 -0.18456,-0.28476 -0.3626,-0.56675 -0.53835,-0.8599 -0.35228,-0.58759 -0.73862,-1.28403 -1.01608,-1.91823 -0.29757,-0.68016 -0.56932,-1.41032 -0.80477,-2.11667 -0.1031,-0.30931 -0.18377,-0.6097 -0.26826,-0.92604 -0.41439,-1.55154 -0.76803,-2.81323 -0.76803,-4.49791 0,-0.25908 -0.1196,-0.58367 0.0478,-0.85255 0.091,-0.14616 0.77839,-0.19199 1.27514,-0.20579 0.39618,-0.011 0.79428,0 1.19063,0 h 8.995839 29.699464 10.55028 c 5.80791,-1e-5 6.39837,-0.0881 6.51353,0.26641 z"
             id="path24" /><path
             style="fill:none;stroke:#e4fefc;stroke-width:0.75;stroke-linecap:round;stroke-dasharray:none;stroke-opacity:1;filter:url(#filter25)"
             d="m 136.56996,188.38167 c 0.0724,0.22288 0.0556,0.37807 0.0166,0.65962 -0.0297,0.21365 -0.0147,0.27181 -0.0147,0.46302 0,0.14216 0.009,0.19021 -0.005,0.33073 -0.014,0.1411 -0.041,0.18891 -0.0551,0.33073 -0.01,0.0989 -1.5e-4,0.16737 -0.007,0.26458 -0.007,0.10074 -0.0216,0.16617 -0.0386,0.26459 -0.0482,0.27874 -0.10096,0.5766 -0.15802,0.85989 -0.35262,1.75087 -0.86616,3.38504 -1.56177,5.02708 -0.29295,0.69153 -0.63804,1.40442 -1.01791,2.05053 -0.1869,0.31787 -0.35169,0.62358 -0.55122,0.92604 -0.42706,0.64733 -0.88747,1.29874 -1.35783,1.91823 -0.45611,0.60073 -0.97311,1.10019 -1.44969,1.65364 -0.17538,0.20367 -0.33658,0.39378 -0.54387,0.59531 -0.11266,0.10953 -0.21417,0.19291 -0.33073,0.29031 -0.12602,0.10531 -0.22073,0.19603 -0.33073,0.30501 -0.12508,0.12392 -0.26104,0.2652 -0.39687,0.38217 -0.53897,0.46412 -1.08435,0.91983 -1.65365,1.34681 -0.27599,0.20699 -0.58126,0.43534 -0.85989,0.63206 -0.16761,0.11833 -0.292,0.21487 -0.46302,0.32888 -0.20832,0.13888 -0.33986,0.20803 -0.52917,0.33073 -0.12353,0.0801 -0.21034,0.1423 -0.33073,0.21866 -0.11288,0.0716 -0.21549,0.13091 -0.33073,0.20027 -0.11191,0.0674 -0.21571,0.13001 -0.33073,0.19844 -0.4083,0.2429 -0.84444,0.46422 -1.25677,0.70188 -0.19021,0.10964 -0.42727,0.18864 -0.5898,0.32154 -0.0671,0.0549 -0.13798,0.14094 -0.17639,0.23335 -0.087,0.20922 -0.0959,0.30891 -0.13413,0.52916 -0.0373,0.21479 -0.0137,0.62992 -0.0276,0.8599 -0.0158,0.26179 -0.0642,0.32211 -0.12126,0.52917 -0.0568,0.20616 -0.0788,0.36174 -0.22417,0.49793 -0.13522,0.12672 -0.26175,0.17866 -0.44648,0.22783 -0.27749,0.0739 -0.39675,0.10227 -0.66146,0.12862 -0.59609,0.0593 -1.37163,0.006 -1.98437,0.006 h -4.16719 -13.36145 -5.754694 c -0.40993,0 -1.07623,-0.034 -1.45521,-0.0717 -0.16611,-0.0165 -0.28908,-0.0277 -0.46302,-0.1029 -0.10122,-0.0437 -0.17826,-0.0925 -0.24988,-0.17087 -0.12336,-0.13497 -0.16752,-0.21516 -0.22049,-0.38218 -0.0333,-0.105 -0.0587,-0.22271 -0.0827,-0.33073 -0.069,-0.31054 -0.0966,-0.67233 -0.1084,-0.99218 -0.005,-0.13338 -0.0281,-0.27013 -0.0533,-0.39688 -0.0406,-0.20416 -0.0273,-0.33291 -0.17822,-0.51263 -0.21157,-0.25196 -0.64689,-0.39779 -0.95912,-0.5604 -0.63385,-0.33013 -1.24372,-0.69335 -1.85208,-1.06936 -0.29191,-0.18041 -0.64942,-0.42926 -0.92604,-0.61368 -0.16817,-0.11211 -0.28644,-0.18605 -0.46303,-0.31236 -1.19815,-0.85701 -2.32968,-1.84094 -3.37344,-2.88469 -0.79406,-0.79406 -1.54677,-1.61404 -2.22139,-2.51354 -0.379599,-0.50613 -0.721399,-1.05916 -1.063849,-1.5875 -0.18456,-0.28476 -0.3626,-0.56675 -0.53835,-0.8599 -0.35228,-0.58759 -0.73862,-1.28403 -1.01608,-1.91823 -0.29757,-0.68016 -0.56932,-1.41032 -0.80477,-2.11667 -0.1031,-0.30931 -0.18377,-0.6097 -0.26826,-0.92604 -0.41439,-1.55154 -0.76803,-2.81323 -0.76803,-4.49791 0,-0.25908 -0.1196,-0.58367 0.0478,-0.85255 0.091,-0.14616 0.77839,-0.19199 1.27514,-0.20579 0.39618,-0.011 0.79428,0 1.19063,0 h 8.995839 29.699464 10.55028 c 5.80791,-1e-5 6.39837,-0.0881 6.51353,0.26641 z"
             id="path25" /></g></g><g
         id="g63"
         transform="translate(-4.3189864,-118.77213)"><g
           id="g66"
           style="mix-blend-mode:normal;stroke:#fee6a0;stroke-width:1.75;stroke-dasharray:none;stroke-opacity:1;filter:url(#filter66)"><path
             style="fill:none;stroke:#fee6a0;stroke-width:1.75;stroke-linecap:round;stroke-dasharray:none;stroke-opacity:1"
             d="m 84.316586,175.28279 c -0.0106,-0.13299 -0.006,-0.27547 -0.002,-0.39687 0.003,-0.10673 -0.005,-0.19258 0.004,-0.33073 0.008,-0.13411 0.03,-0.19196 0.0496,-0.33073 0.028,-0.1978 0.0239,-0.27253 0.0551,-0.46302 0.0157,-0.0956 0.0186,-0.16043 0.0275,-0.26459 0.008,-0.0896 0.0244,-0.1758 0.0386,-0.26458 0.014,-0.0874 0.0213,-0.17675 0.0257,-0.26458 0.005,-0.10018 0.008,-0.1649 0.0257,-0.26459 0.0922,-0.51474 0.14807,-1.05768 0.26458,-1.5875 0.35927,-1.6337 0.94161,-3.28697 1.67937,-4.76249 0.0967,-0.1933 0.18979,-0.39789 0.29582,-0.59532 0.21288,-0.39639 0.51391,-0.89489 0.75517,-1.25677 0.11169,-0.16753 0.1888,-0.2832 0.30868,-0.46302 0.67883,-1.01824 1.47821,-1.99938 2.29857,-2.91042 0.78426,-0.87095 1.72891,-1.66625 2.64032,-2.39411 0.1646,-0.13145 0.29799,-0.22478 0.46302,-0.34359 0.16608,-0.11956 0.30311,-0.23068 0.46302,-0.34542 0.11317,-0.0812 0.21201,-0.14502 0.33073,-0.22417 0.69676,-0.4645 1.50118,-0.97094 2.24896,-1.37252 1.32903,-0.71374 2.78754,-1.25532 4.233334,-1.6904 0.61992,-0.18655 1.28506,-0.35571 1.91823,-0.48323 0.39853,-0.0803 0.86143,-0.11785 1.25677,-0.18374 0.22316,-0.0372 0.25104,-0.0422 0.46302,-0.0808 0.0884,-0.0161 0.17576,-0.0214 0.26458,-0.0312 0.0981,-0.0109 0.16525,-0.0319 0.26459,-0.046 0.14074,-0.0198 0.1907,-0.01 0.33073,-0.0294 0.16541,-0.0234 0.21341,-0.0464 0.39687,-0.0515 0.21686,-0.006 0.26452,0.007 0.52917,0 0.27922,-0.008 0.34909,-0.0632 0.66146,-0.0661 0.282,-0.002 0.37118,0 0.66146,0 h 0.66145 c 0.15295,0 0.25246,-0.002 0.46302,0 0.22578,0.002 0.30028,0.0378 0.52917,0.0606 0.27064,0.0269 0.37775,-0.0106 0.59531,0.011 0.15555,0.0155 0.22631,0.0474 0.39688,0.0588 0.0948,0.006 0.17114,0.001 0.26458,0.0165 0.11767,0.0189 0.21193,0.0383 0.33073,0.0514 0.10387,0.0115 0.15185,0.0219 0.26458,0.0404 0.19086,0.0314 0.37043,0.0438 0.59531,0.0772 0.12066,0.0179 0.20706,0.0196 0.33073,0.0404 0.25635,0.0433 0.53587,0.0951 0.79375,0.14699 0.85082,0.17134 1.68359,0.43259 2.51354,0.70923 0.71869,0.23956 1.41374,0.50307 2.11666,0.78456 1.06992,0.42847 2.14335,0.99295 3.10886,1.61874 0.21859,0.14168 0.37768,0.25178 0.59531,0.39687 0.14406,0.096 0.26099,0.17143 0.39688,0.26643 0.136,0.0951 0.25933,0.19082 0.39687,0.29398 0.8252,0.6189 1.64657,1.31345 2.38125,2.04133 0.73184,0.72506 1.4627,1.50764 2.10381,2.3151 0.19117,0.24078 0.36586,0.47051 0.54202,0.72761 0.45605,0.66557 0.94041,1.39111 1.30822,2.11667 0.22146,0.43685 0.4541,0.87899 0.65962,1.32291 0.12022,0.25966 0.22257,0.52973 0.33624,0.79375 0.30342,0.70471 0.5972,1.44401 0.79559,2.18281 0.15677,0.58381 0.29139,1.19434 0.39136,1.78594 0.0346,0.20481 0.0651,0.38225 0.10657,0.59531 0.0476,0.24502 0.0825,0.48581 0.12127,0.72761 0.0149,0.0926 0.0364,0.16824 0.046,0.26458 0.0118,0.11793 -0.001,0.20936 0.011,0.33073 0.0117,0.11751 0.0429,0.20783 0.0551,0.33073 0.0159,0.15958 0.005,0.24765 0.005,0.39687 0,0.1234 -0.003,0.21699 0,0.33073 0.005,0.17263 0.057,0.41367 0.0661,0.59532"
             id="path63" /><path
             style="fill:none;stroke:#fee6a0;stroke-width:1.75;stroke-linecap:round;stroke-dasharray:none;stroke-opacity:1"
             d="m 89.343166,174.88577 0.0404,-0.46302 0.0405,-0.39688 0.0514,-0.33073 0.8158,-3.57187 0.58796,-1.52136 0.9242,-1.71979 0.34359,-0.52916 1.08406,-1.38907 2.06522,-2.10197 1.45521,-1.11345 0.39687,-0.24989 1.05834,-0.66145 0.92604,-0.48691 1.256774,-0.51998 3.10885,-0.95176 1.98438,-0.2701 1.38906,-0.12678 h 0.52917 0.26458 l 0.33073,0.006 0.59531,0.0606 1.25677,0.1176 1.25676,0.16168 1.91823,0.49426 1.98438,0.73128 1.12448,0.49793 1.19062,0.66881 0.52917,0.3491 0.59531,0.40974 0.26458,0.18741 0.39688,0.31052 1.98437,1.82636 0.35646,0.39687 0.55672,0.66146 1.28434,1.91823 0.14331,0.26459 0.15618,0.26458 0.20027,0.39687 0.78273,1.78594 0.47956,1.71979 0.33991,1.78594 0.0515,0.39687 0.0147,0.39688 0.006,0.33073 0.0606,0.33073"
             id="path64" /><path
             style="fill:none;stroke:#fee6a0;stroke-width:1.75;stroke-linecap:round;stroke-dasharray:none;stroke-opacity:1"
             d="m 94.436906,173.76174 c 0.0663,-0.23202 0.11069,-0.49577 0.20763,-0.85989 0.19841,-0.74534 0.41058,-1.48217 0.73495,-2.18282 0.2859,-0.61754 0.61688,-1.22253 0.9977,-1.78593 0.1516,-0.22429 0.28595,-0.37905 0.45016,-0.59531 0.76748,-1.01084 1.70583,-1.97138 2.76894,-2.68258 0.29118,-0.1948 0.451584,-0.28652 0.727604,-0.452 0.2084,-0.12494 0.44126,-0.27117 0.66146,-0.38585 0.13597,-0.0708 0.26,-0.13 0.39687,-0.19844 0.1598,-0.0799 0.29569,-0.15327 0.46302,-0.22416 0.79575,-0.33708 1.66946,-0.65071 2.51355,-0.86174 0.43084,-0.10771 0.87327,-0.15956 1.32291,-0.2168 0.13379,-0.0171 0.20206,-0.0248 0.33073,-0.046 0.15947,-0.0262 0.27996,-0.0257 0.46302,-0.0257 0.72365,0 1.54655,-0.0644 2.24896,0.006 0.14398,0.0143 0.25591,0.0443 0.39688,0.0606 0.59135,0.0684 1.12503,0.1577 1.71979,0.32154 1.23976,0.34152 2.481,0.80786 3.57186,1.46439 0.11523,0.0694 0.21785,0.12868 0.33073,0.20028 0.12206,0.0774 0.21658,0.14041 0.33073,0.22232 0.35937,0.25789 0.91797,0.6669 1.25677,0.97198 0.27032,0.24341 0.4011,0.39558 0.66146,0.65595 0.24539,0.24539 0.32471,0.31886 0.52917,0.52916 0.11678,0.12013 0.18701,0.20573 0.29031,0.33073 0.0968,0.1171 0.18234,0.207 0.27744,0.33073 0.14516,0.18889 0.28429,0.39008 0.42443,0.59531 0.21428,0.31378 0.41027,0.6515 0.58062,0.99219 0.25988,0.51976 0.4857,1.04168 0.72576,1.5875 0.30994,0.7047 0.39443,1.63422 0.61185,2.3151"
             id="path65" /><path
             style="fill:none;stroke:#fee6a0;stroke-width:1.75;stroke-linecap:round;stroke-dasharray:none;stroke-opacity:1"
             d="m 99.397846,173.69601 c 0.27611,-0.86465 0.637484,-1.77799 1.170414,-2.51354 0.11001,-0.15183 0.20988,-0.2573 0.32522,-0.39687 0.16133,-0.19522 0.37149,-0.41192 0.55489,-0.59532 0.31046,-0.31045 0.63843,-0.59275 0.99219,-0.8507 0.19223,-0.14017 0.33354,-0.22219 0.52916,-0.33992 0.52214,-0.31425 1.07797,-0.55776 1.65365,-0.74965 0.24224,-0.0807 0.48447,-0.16863 0.7276,-0.23335 0.49399,-0.1315 0.95228,-0.20646 1.45521,-0.20763 0.50705,-0.001 1.03246,-0.0431 1.52136,0.005 0.11345,0.0113 0.22227,0.0413 0.33073,0.0551 0.10457,0.0133 0.16144,0.0127 0.26458,0.0312 0.1723,0.0308 0.414,0.0525 0.59531,0.0974 0.78687,0.19489 1.6311,0.52832 2.3151,0.93523 0.11556,0.0687 0.21786,0.12869 0.33072,0.20027 0.14561,0.0924 0.25683,0.16701 0.39688,0.27561 0.35485,0.27517 0.73877,0.59063 1.05833,0.91318 0.28956,0.29226 0.58553,0.65539 0.81396,0.99219 0.12538,0.18485 0.19401,0.33022 0.31052,0.52916 0.34449,0.58821 0.5048,1.2435 0.79375,1.85209"
             id="path66" /></g><g
           id="g15"
           style="stroke:#f3b54f;stroke-width:1.75;stroke-dasharray:none;stroke-opacity:1"><path
             style="fill:none;stroke:#f3b54f;stroke-width:1.75;stroke-linecap:round;stroke-dasharray:none;stroke-opacity:1"
             d="m 84.316586,175.28279 c -0.0106,-0.13299 -0.006,-0.27547 -0.002,-0.39687 0.003,-0.10673 -0.005,-0.19258 0.004,-0.33073 0.008,-0.13411 0.03,-0.19196 0.0496,-0.33073 0.028,-0.1978 0.0239,-0.27253 0.0551,-0.46302 0.0157,-0.0956 0.0186,-0.16043 0.0275,-0.26459 0.008,-0.0896 0.0244,-0.1758 0.0386,-0.26458 0.014,-0.0874 0.0213,-0.17675 0.0257,-0.26458 0.005,-0.10018 0.008,-0.1649 0.0257,-0.26459 0.0922,-0.51474 0.14807,-1.05768 0.26458,-1.5875 0.35927,-1.6337 0.94161,-3.28697 1.67937,-4.76249 0.0967,-0.1933 0.18979,-0.39789 0.29582,-0.59532 0.21288,-0.39639 0.51391,-0.89489 0.75517,-1.25677 0.11169,-0.16753 0.1888,-0.2832 0.30868,-0.46302 0.67883,-1.01824 1.47821,-1.99938 2.29857,-2.91042 0.78426,-0.87095 1.72891,-1.66625 2.64032,-2.39411 0.1646,-0.13145 0.29799,-0.22478 0.46302,-0.34359 0.16608,-0.11956 0.30311,-0.23068 0.46302,-0.34542 0.11317,-0.0812 0.21201,-0.14502 0.33073,-0.22417 0.69676,-0.4645 1.50118,-0.97094 2.24896,-1.37252 1.32903,-0.71374 2.78754,-1.25532 4.233334,-1.6904 0.61992,-0.18655 1.28506,-0.35571 1.91823,-0.48323 0.39853,-0.0803 0.86143,-0.11785 1.25677,-0.18374 0.22316,-0.0372 0.25104,-0.0422 0.46302,-0.0808 0.0884,-0.0161 0.17576,-0.0214 0.26458,-0.0312 0.0981,-0.0109 0.16525,-0.0319 0.26459,-0.046 0.14074,-0.0198 0.1907,-0.01 0.33073,-0.0294 0.16541,-0.0234 0.21341,-0.0464 0.39687,-0.0515 0.21686,-0.006 0.26452,0.007 0.52917,0 0.27922,-0.008 0.34909,-0.0632 0.66146,-0.0661 0.282,-0.002 0.37118,0 0.66146,0 h 0.66145 c 0.15295,0 0.25246,-0.002 0.46302,0 0.22578,0.002 0.30028,0.0378 0.52917,0.0606 0.27064,0.0269 0.37775,-0.0106 0.59531,0.011 0.15555,0.0155 0.22631,0.0474 0.39688,0.0588 0.0948,0.006 0.17114,0.001 0.26458,0.0165 0.11767,0.0189 0.21193,0.0383 0.33073,0.0514 0.10387,0.0115 0.15185,0.0219 0.26458,0.0404 0.19086,0.0314 0.37043,0.0438 0.59531,0.0772 0.12066,0.0179 0.20706,0.0196 0.33073,0.0404 0.25635,0.0433 0.53587,0.0951 0.79375,0.14699 0.85082,0.17134 1.68359,0.43259 2.51354,0.70923 0.71869,0.23956 1.41374,0.50307 2.11666,0.78456 1.06992,0.42847 2.14335,0.99295 3.10886,1.61874 0.21859,0.14168 0.37768,0.25178 0.59531,0.39687 0.14406,0.096 0.26099,0.17143 0.39688,0.26643 0.136,0.0951 0.25933,0.19082 0.39687,0.29398 0.8252,0.6189 1.64657,1.31345 2.38125,2.04133 0.73184,0.72506 1.4627,1.50764 2.10381,2.3151 0.19117,0.24078 0.36586,0.47051 0.54202,0.72761 0.45605,0.66557 0.94041,1.39111 1.30822,2.11667 0.22146,0.43685 0.4541,0.87899 0.65962,1.32291 0.12022,0.25966 0.22257,0.52973 0.33624,0.79375 0.30342,0.70471 0.5972,1.44401 0.79559,2.18281 0.15677,0.58381 0.29139,1.19434 0.39136,1.78594 0.0346,0.20481 0.0651,0.38225 0.10657,0.59531 0.0476,0.24502 0.0825,0.48581 0.12127,0.72761 0.0149,0.0926 0.0364,0.16824 0.046,0.26458 0.0118,0.11793 -0.001,0.20936 0.011,0.33073 0.0117,0.11751 0.0429,0.20783 0.0551,0.33073 0.0159,0.15958 0.005,0.24765 0.005,0.39687 0,0.1234 -0.003,0.21699 0,0.33073 0.005,0.17263 0.057,0.41367 0.0661,0.59532"
             id="path5" /><path
             style="fill:none;stroke:#f3b54f;stroke-width:1.75;stroke-linecap:round;stroke-dasharray:none;stroke-opacity:1"
             d="m 89.343166,174.88577 0.0404,-0.46302 0.0405,-0.39688 0.0514,-0.33073 0.8158,-3.57187 0.58796,-1.52136 0.9242,-1.71979 0.34359,-0.52916 1.08406,-1.38907 2.06522,-2.10197 1.45521,-1.11345 0.39687,-0.24989 1.05834,-0.66145 0.92604,-0.48691 1.256774,-0.51998 3.10885,-0.95176 1.98438,-0.2701 1.38906,-0.12678 h 0.52917 0.26458 l 0.33073,0.006 0.59531,0.0606 1.25677,0.1176 1.25676,0.16168 1.91823,0.49426 1.98438,0.73128 1.12448,0.49793 1.19062,0.66881 0.52917,0.3491 0.59531,0.40974 0.26458,0.18741 0.39688,0.31052 1.98437,1.82636 0.35646,0.39687 0.55672,0.66146 1.28434,1.91823 0.14331,0.26459 0.15618,0.26458 0.20027,0.39687 0.78273,1.78594 0.47956,1.71979 0.33991,1.78594 0.0515,0.39687 0.0147,0.39688 0.006,0.33073 0.0606,0.33073"
             id="path4" /><path
             style="fill:none;stroke:#f3b54f;stroke-width:1.75;stroke-linecap:round;stroke-dasharray:none;stroke-opacity:1"
             d="m 94.436906,173.76174 c 0.0663,-0.23202 0.11069,-0.49577 0.20763,-0.85989 0.19841,-0.74534 0.41058,-1.48217 0.73495,-2.18282 0.2859,-0.61754 0.61688,-1.22253 0.9977,-1.78593 0.1516,-0.22429 0.28595,-0.37905 0.45016,-0.59531 0.76748,-1.01084 1.70583,-1.97138 2.76894,-2.68258 0.29118,-0.1948 0.451584,-0.28652 0.727604,-0.452 0.2084,-0.12494 0.44126,-0.27117 0.66146,-0.38585 0.13597,-0.0708 0.26,-0.13 0.39687,-0.19844 0.1598,-0.0799 0.29569,-0.15327 0.46302,-0.22416 0.79575,-0.33708 1.66946,-0.65071 2.51355,-0.86174 0.43084,-0.10771 0.87327,-0.15956 1.32291,-0.2168 0.13379,-0.0171 0.20206,-0.0248 0.33073,-0.046 0.15947,-0.0262 0.27996,-0.0257 0.46302,-0.0257 0.72365,0 1.54655,-0.0644 2.24896,0.006 0.14398,0.0143 0.25591,0.0443 0.39688,0.0606 0.59135,0.0684 1.12503,0.1577 1.71979,0.32154 1.23976,0.34152 2.481,0.80786 3.57186,1.46439 0.11523,0.0694 0.21785,0.12868 0.33073,0.20028 0.12206,0.0774 0.21658,0.14041 0.33073,0.22232 0.35937,0.25789 0.91797,0.6669 1.25677,0.97198 0.27032,0.24341 0.4011,0.39558 0.66146,0.65595 0.24539,0.24539 0.32471,0.31886 0.52917,0.52916 0.11678,0.12013 0.18701,0.20573 0.29031,0.33073 0.0968,0.1171 0.18234,0.207 0.27744,0.33073 0.14516,0.18889 0.28429,0.39008 0.42443,0.59531 0.21428,0.31378 0.41027,0.6515 0.58062,0.99219 0.25988,0.51976 0.4857,1.04168 0.72576,1.5875 0.30994,0.7047 0.39443,1.63422 0.61185,2.3151"
             id="path3" /><path
             style="fill:none;stroke:#f3b54f;stroke-width:1.75;stroke-linecap:round;stroke-dasharray:none;stroke-opacity:1"
             d="m 99.397846,173.69601 c 0.27611,-0.86465 0.637484,-1.77799 1.170414,-2.51354 0.11001,-0.15183 0.20988,-0.2573 0.32522,-0.39687 0.16133,-0.19522 0.37149,-0.41192 0.55489,-0.59532 0.31046,-0.31045 0.63843,-0.59275 0.99219,-0.8507 0.19223,-0.14017 0.33354,-0.22219 0.52916,-0.33992 0.52214,-0.31425 1.07797,-0.55776 1.65365,-0.74965 0.24224,-0.0807 0.48447,-0.16863 0.7276,-0.23335 0.49399,-0.1315 0.95228,-0.20646 1.45521,-0.20763 0.50705,-0.001 1.03246,-0.0431 1.52136,0.005 0.11345,0.0113 0.22227,0.0413 0.33073,0.0551 0.10457,0.0133 0.16144,0.0127 0.26458,0.0312 0.1723,0.0308 0.414,0.0525 0.59531,0.0974 0.78687,0.19489 1.6311,0.52832 2.3151,0.93523 0.11556,0.0687 0.21786,0.12869 0.33072,0.20027 0.14561,0.0924 0.25683,0.16701 0.39688,0.27561 0.35485,0.27517 0.73877,0.59063 1.05833,0.91318 0.28956,0.29226 0.58553,0.65539 0.81396,0.99219 0.12538,0.18485 0.19401,0.33022 0.31052,0.52916 0.34449,0.58821 0.5048,1.2435 0.79375,1.85209"
             id="path42" /></g><g
           id="g62"
           style="mix-blend-mode:normal;stroke:#ffe399;stroke-width:0.75;stroke-dasharray:none;stroke-opacity:1;filter:url(#filter63)"><path
             style="fill:none;stroke:#ffe399;stroke-width:0.75;stroke-linecap:round;stroke-dasharray:none;stroke-opacity:1"
             d="m 84.316586,175.28279 c -0.0106,-0.13299 -0.006,-0.27547 -0.002,-0.39687 0.003,-0.10673 -0.005,-0.19258 0.004,-0.33073 0.008,-0.13411 0.03,-0.19196 0.0496,-0.33073 0.028,-0.1978 0.0239,-0.27253 0.0551,-0.46302 0.0157,-0.0956 0.0186,-0.16043 0.0275,-0.26459 0.008,-0.0896 0.0244,-0.1758 0.0386,-0.26458 0.014,-0.0874 0.0213,-0.17675 0.0257,-0.26458 0.005,-0.10018 0.008,-0.1649 0.0257,-0.26459 0.0922,-0.51474 0.14807,-1.05768 0.26458,-1.5875 0.35927,-1.6337 0.94161,-3.28697 1.67937,-4.76249 0.0967,-0.1933 0.18979,-0.39789 0.29582,-0.59532 0.21288,-0.39639 0.51391,-0.89489 0.75517,-1.25677 0.11169,-0.16753 0.1888,-0.2832 0.30868,-0.46302 0.67883,-1.01824 1.47821,-1.99938 2.29857,-2.91042 0.78426,-0.87095 1.72891,-1.66625 2.64032,-2.39411 0.1646,-0.13145 0.29799,-0.22478 0.46302,-0.34359 0.16608,-0.11956 0.30311,-0.23068 0.46302,-0.34542 0.11317,-0.0812 0.21201,-0.14502 0.33073,-0.22417 0.69676,-0.4645 1.50118,-0.97094 2.24896,-1.37252 1.32903,-0.71374 2.78754,-1.25532 4.233334,-1.6904 0.61992,-0.18655 1.28506,-0.35571 1.91823,-0.48323 0.39853,-0.0803 0.86143,-0.11785 1.25677,-0.18374 0.22316,-0.0372 0.25104,-0.0422 0.46302,-0.0808 0.0884,-0.0161 0.17576,-0.0214 0.26458,-0.0312 0.0981,-0.0109 0.16525,-0.0319 0.26459,-0.046 0.14074,-0.0198 0.1907,-0.01 0.33073,-0.0294 0.16541,-0.0234 0.21341,-0.0464 0.39687,-0.0515 0.21686,-0.006 0.26452,0.007 0.52917,0 0.27922,-0.008 0.34909,-0.0632 0.66146,-0.0661 0.282,-0.002 0.37118,0 0.66146,0 h 0.66145 c 0.15295,0 0.25246,-0.002 0.46302,0 0.22578,0.002 0.30028,0.0378 0.52917,0.0606 0.27064,0.0269 0.37775,-0.0106 0.59531,0.011 0.15555,0.0155 0.22631,0.0474 0.39688,0.0588 0.0948,0.006 0.17114,0.001 0.26458,0.0165 0.11767,0.0189 0.21193,0.0383 0.33073,0.0514 0.10387,0.0115 0.15185,0.0219 0.26458,0.0404 0.19086,0.0314 0.37043,0.0438 0.59531,0.0772 0.12066,0.0179 0.20706,0.0196 0.33073,0.0404 0.25635,0.0433 0.53587,0.0951 0.79375,0.14699 0.85082,0.17134 1.68359,0.43259 2.51354,0.70923 0.71869,0.23956 1.41374,0.50307 2.11666,0.78456 1.06992,0.42847 2.14335,0.99295 3.10886,1.61874 0.21859,0.14168 0.37768,0.25178 0.59531,0.39687 0.14406,0.096 0.26099,0.17143 0.39688,0.26643 0.136,0.0951 0.25933,0.19082 0.39687,0.29398 0.8252,0.6189 1.64657,1.31345 2.38125,2.04133 0.73184,0.72506 1.4627,1.50764 2.10381,2.3151 0.19117,0.24078 0.36586,0.47051 0.54202,0.72761 0.45605,0.66557 0.94041,1.39111 1.30822,2.11667 0.22146,0.43685 0.4541,0.87899 0.65962,1.32291 0.12022,0.25966 0.22257,0.52973 0.33624,0.79375 0.30342,0.70471 0.5972,1.44401 0.79559,2.18281 0.15677,0.58381 0.29139,1.19434 0.39136,1.78594 0.0346,0.20481 0.0651,0.38225 0.10657,0.59531 0.0476,0.24502 0.0825,0.48581 0.12127,0.72761 0.0149,0.0926 0.0364,0.16824 0.046,0.26458 0.0118,0.11793 -0.001,0.20936 0.011,0.33073 0.0117,0.11751 0.0429,0.20783 0.0551,0.33073 0.0159,0.15958 0.005,0.24765 0.005,0.39687 0,0.1234 -0.003,0.21699 0,0.33073 0.005,0.17263 0.057,0.41367 0.0661,0.59532"
             id="path59" /><path
             style="fill:none;stroke:#ffe399;stroke-width:0.75;stroke-linecap:round;stroke-dasharray:none;stroke-opacity:1"
             d="m 89.343166,174.88577 0.0404,-0.46302 0.0405,-0.39688 0.0514,-0.33073 0.8158,-3.57187 0.58796,-1.52136 0.9242,-1.71979 0.34359,-0.52916 1.08406,-1.38907 2.06522,-2.10197 1.45521,-1.11345 0.39687,-0.24989 1.05834,-0.66145 0.92604,-0.48691 1.256774,-0.51998 3.10885,-0.95176 1.98438,-0.2701 1.38906,-0.12678 h 0.52917 0.26458 l 0.33073,0.006 0.59531,0.0606 1.25677,0.1176 1.25676,0.16168 1.91823,0.49426 1.98438,0.73128 1.12448,0.49793 1.19062,0.66881 0.52917,0.3491 0.59531,0.40974 0.26458,0.18741 0.39688,0.31052 1.98437,1.82636 0.35646,0.39687 0.55672,0.66146 1.28434,1.91823 0.14331,0.26459 0.15618,0.26458 0.20027,0.39687 0.78273,1.78594 0.47956,1.71979 0.33991,1.78594 0.0515,0.39687 0.0147,0.39688 0.006,0.33073 0.0606,0.33073"
             id="path60" /><path
             style="fill:none;stroke:#ffe399;stroke-width:0.75;stroke-linecap:round;stroke-dasharray:none;stroke-opacity:1"
             d="m 94.436906,173.76174 c 0.0663,-0.23202 0.11069,-0.49577 0.20763,-0.85989 0.19841,-0.74534 0.41058,-1.48217 0.73495,-2.18282 0.2859,-0.61754 0.61688,-1.22253 0.9977,-1.78593 0.1516,-0.22429 0.28595,-0.37905 0.45016,-0.59531 0.76748,-1.01084 1.70583,-1.97138 2.76894,-2.68258 0.29118,-0.1948 0.451584,-0.28652 0.727604,-0.452 0.2084,-0.12494 0.44126,-0.27117 0.66146,-0.38585 0.13597,-0.0708 0.26,-0.13 0.39687,-0.19844 0.1598,-0.0799 0.29569,-0.15327 0.46302,-0.22416 0.79575,-0.33708 1.66946,-0.65071 2.51355,-0.86174 0.43084,-0.10771 0.87327,-0.15956 1.32291,-0.2168 0.13379,-0.0171 0.20206,-0.0248 0.33073,-0.046 0.15947,-0.0262 0.27996,-0.0257 0.46302,-0.0257 0.72365,0 1.54655,-0.0644 2.24896,0.006 0.14398,0.0143 0.25591,0.0443 0.39688,0.0606 0.59135,0.0684 1.12503,0.1577 1.71979,0.32154 1.23976,0.34152 2.481,0.80786 3.57186,1.46439 0.11523,0.0694 0.21785,0.12868 0.33073,0.20028 0.12206,0.0774 0.21658,0.14041 0.33073,0.22232 0.35937,0.25789 0.91797,0.6669 1.25677,0.97198 0.27032,0.24341 0.4011,0.39558 0.66146,0.65595 0.24539,0.24539 0.32471,0.31886 0.52917,0.52916 0.11678,0.12013 0.18701,0.20573 0.29031,0.33073 0.0968,0.1171 0.18234,0.207 0.27744,0.33073 0.14516,0.18889 0.28429,0.39008 0.42443,0.59531 0.21428,0.31378 0.41027,0.6515 0.58062,0.99219 0.25988,0.51976 0.4857,1.04168 0.72576,1.5875 0.30994,0.7047 0.39443,1.63422 0.61185,2.3151"
             id="path61" /><path
             style="fill:none;stroke:#ffe399;stroke-width:0.75;stroke-linecap:round;stroke-dasharray:none;stroke-opacity:1"
             d="m 99.397846,173.69601 c 0.27611,-0.86465 0.637484,-1.77799 1.170414,-2.51354 0.11001,-0.15183 0.20988,-0.2573 0.32522,-0.39687 0.16133,-0.19522 0.37149,-0.41192 0.55489,-0.59532 0.31046,-0.31045 0.63843,-0.59275 0.99219,-0.8507 0.19223,-0.14017 0.33354,-0.22219 0.52916,-0.33992 0.52214,-0.31425 1.07797,-0.55776 1.65365,-0.74965 0.24224,-0.0807 0.48447,-0.16863 0.7276,-0.23335 0.49399,-0.1315 0.95228,-0.20646 1.45521,-0.20763 0.50705,-0.001 1.03246,-0.0431 1.52136,0.005 0.11345,0.0113 0.22227,0.0413 0.33073,0.0551 0.10457,0.0133 0.16144,0.0127 0.26458,0.0312 0.1723,0.0308 0.414,0.0525 0.59531,0.0974 0.78687,0.19489 1.6311,0.52832 2.3151,0.93523 0.11556,0.0687 0.21786,0.12869 0.33072,0.20027 0.14561,0.0924 0.25683,0.16701 0.39688,0.27561 0.35485,0.27517 0.73877,0.59063 1.05833,0.91318 0.28956,0.29226 0.58553,0.65539 0.81396,0.99219 0.12538,0.18485 0.19401,0.33022 0.31052,0.52916 0.34449,0.58821 0.5048,1.2435 0.79375,1.85209"
             id="path62" /></g></g><g
         id="g2"
         transform="matrix(0.7721055,0,0,0.7721055,22.47008,-621.91266)"><text
           xml:space="preserve"
           style="font-style:normal;font-variant:normal;font-weight:normal;font-stretch:normal;font-size:25.4px;line-height:0;font-family:'Tilt Neon';-inkscape-font-specification:'Tilt Neon';writing-mode:lr-tb;direction:ltr;opacity:0.3;fill:#00ff00;stroke:#008000;stroke-width:1;stroke-linecap:round;filter:url(#filter2)"
           x="50.387096"
           y="954.87097"
           id="text2"><tspan
             id="tspan2"
             x="50.387096"
             y="954.87097"
             style="fill:#00ff00;stroke:#008000;stroke-width:1">TrackEats</tspan></text><text
           xml:space="preserve"
           style="font-style:normal;font-variant:normal;font-weight:normal;font-stretch:normal;font-size:25.4px;line-height:0;font-family:'Tilt Neon';-inkscape-font-specification:'Tilt Neon';writing-mode:lr-tb;direction:ltr;fill:#00ff00;stroke:#008000;stroke-width:1;stroke-linecap:round"
           x="50.387096"
           y="954.87097"
           id="text1"><tspan
             id="tspan1"
             x="50.387096"
             y="954.87097"
             style="fill:#00ff00;stroke:#008000;stroke-width:1">TrackEats</tspan></text></g></g></g></svg>
