<?xml version="1.0" encoding="UTF-8" standalone="no"?>
<!-- Created with Inkscape (http://www.inkscape.org/) -->

<svg
   width="1024"
   height="1024"
   viewBox="0 0 270.93333 270.93333"
   version="1.1"
   id="svg1"
   xml:space="preserve"
   inkscape:version="1.4.3 (0d15f75, 2025-12-25)"
   sodipodi:docname="trackeats-logo-neon-text.svg"
   xmlns:inkscape="http://www.inkscape.org/namespaces/inkscape"
   xmlns:sodipodi="http://sodipodi.sourceforge.net/DTD/sodipodi-0.dtd"
   xmlns="http://www.w3.org/2000/svg"
   xmlns:svg="http://www.w3.org/2000/svg"><defs
     id="defs1"><linearGradient
       id="swatch3"
       inkscape:swatch="solid"><stop
         style="stop-color:#000000;stop-opacity:1;"
         offset="0"
         id="stop3" /></linearGradient></defs><sodipodi:namedview
     id="namedview1"
     pagecolor="#ffffff"
     bordercolor="#000000"
     borderopacity="0.25"
     inkscape:showpageshadow="2"
     inkscape:pageopacity="0.0"
     inkscape:pagecheckerboard="false"
     inkscape:deskcolor="#d1d1d1"
     inkscape:document-units="px"
     inkscape:zoom="0.46529246"
     inkscape:cx="511.50625"
     inkscape:cy="549.117"
     inkscape:window-width="1920"
     inkscape:window-height="1017"
     inkscape:window-x="1912"
     inkscape:window-y="-8"
     inkscape:window-maximized="1"
     inkscape:current-layer="g67"
     showgrid="false"
     inkscape:lockguides="false"><inkscape:page
       x="0"
       y="0"
       width="270.93332"
       height="270.93332"
       id="page2"
       margin="0"
       bleed="0" /></sodipodi:namedview><g
     inkscape:label="Layer 1"
     inkscape:groupmode="layer"
     id="layer1"
     transform="translate(-61.460164,-34.137375)"><g
       id="g67"
       inkscape:label="trackeats logo"
       inkscape:export-filename="..\..\test.png"
       inkscape:export-xdpi="317.48001"
       inkscape:export-ydpi="317.48001"
       transform="matrix(2.1168029,0,0,2.1168029,-22.371757,10.631873)"><g
         id="g1"
         inkscape:label="image"
         transform="translate(-3.1530754)"><g
           id="g40"
           inkscape:label="food"
           transform="translate(-4.3189866,-118.77213)"
           style="opacity:1;fill:none"><g
             id="g47"
             inkscape:label="food edge"
             style="fill:none;stroke:#e5ceae;stroke-width:1.75;stroke-dasharray:none;stroke-opacity:1"><path
               style="fill:none;stroke:#e5ceae;stroke-width:1.75;stroke-linecap:round;stroke-dasharray:none;stroke-opacity:1"
               d="m 113.81816,184.87383 0.46302,-0.59532 0.66146,-0.53468 0.39687,-0.16352 0.52917,-0.0974 1.12448,-0.0643 h 0.92604 0.26458"
               id="path43" /><path
               style="fill:none;stroke:#e5ceae;stroke-width:1.75;stroke-linecap:round;stroke-dasharray:none;stroke-opacity:1"
               d="m 100.52286,182.55867 c -0.0502,0.0413 -0.10259,0.11644 -0.20212,0.15434 -0.39802,0.15157 -1.25739,0.28835 -1.84841,0.58796 -0.15246,0.0773 -0.25872,0.13862 -0.39687,0.22784 -0.24367,0.15737 -0.51385,0.3434 -0.7276,0.55122 -0.25464,0.24755 -0.46905,0.46904 -0.72761,0.7276"
               id="path44" /><path
               style="fill:none;stroke:#e5ceae;stroke-width:1.75;stroke-linecap:round;stroke-dasharray:none;stroke-opacity:1"
               d="m 83.39057,186.13072 c 0.22661,-0.37195 0.44392,-0.794 0.75333,-1.19062 0.11377,-0.14585 0.24802,-0.32413 0.37666,-0.46302 0.21053,-0.22731 0.53266,-0.46604 0.78824,-0.62104 0.33014,-0.20022 0.52481,-0.33194 0.92604,-0.47404 0.32931,-0.11664 0.65595,-0.20088 0.99219,-0.22968 0.28965,-0.0248 0.62532,-0.0727 0.92604,-0.0643 0.2649,0.007 0.60378,0.0498 0.8599,0.0919 0.54862,0.0902 0.91586,0.11029 1.12448,0.14699 0.0289,0.005 0.11765,0.0401 0.26458,0.009 0.10732,-0.0226 0.16577,-0.0593 0.19293,-0.0827 0.0746,-0.0643 0.12581,-0.10998 0.20211,-0.29766 0.0976,-0.24001 0.24778,-0.66447 0.38401,-0.92604 0.0971,-0.18652 0.17284,-0.29749 0.27745,-0.46302 0.16322,-0.25829 0.3632,-0.55453 0.57142,-0.79191 0.29565,-0.33706 0.77461,-0.74138 1.15021,-0.9683 0.11606,-0.0701 0.21057,-0.11236 0.33072,-0.17272 0.18045,-0.0906 0.40352,-0.21305 0.59532,-0.2903 0.16656,-0.0671 0.36019,-0.12066 0.52916,-0.16721 0.16448,-0.0453 0.29147,-0.0973 0.46302,-0.11759 0.60646,-0.0716 1.29532,-0.0745 1.91823,-0.011 0.25968,0.0265 0.41744,0.035 0.66146,0.11576 0.47149,0.15607 1.26203,0.49466 1.65365,0.59347 0.22044,0.0556 0.28312,0.0711 0.46302,0.09"
               id="path45" /><path
               style="fill:none;stroke:#e5ceae;stroke-width:1.75;stroke-linecap:round;stroke-dasharray:none;stroke-opacity:1"
               d="m 105.48315,184.87411 c -0.38692,-0.47713 -0.80387,-0.8446 -1.32291,-1.19063 -0.14727,-0.0982 -0.25214,-0.17496 -0.39688,-0.26274 -0.2153,-0.13058 -0.5467,-0.27329 -0.79375,-0.35278 -0.24881,-0.0801 -0.54753,-0.1818 -0.79375,-0.22967 -0.15148,-0.0294 -0.36462,-0.0618 -0.52917,-0.0808 -0.1274,-0.0148 -0.20989,-0.0346 -0.33072,-0.0515 -0.13965,-0.0194 -0.42902,-0.001 -0.52917,-0.022 -0.13852,-0.0283 -0.20406,-0.0487 -0.28296,-0.25723 -0.0352,-0.0931 -0.0406,-0.17494 -0.0441,-0.19844 -0.0147,-0.0977 -0.0281,-0.15518 -0.0661,-0.39688 -0.0177,-0.11242 -0.0592,-0.34912 -0.0992,-0.46302 -0.0774,-0.22011 -0.22649,-0.43355 -0.28663,-0.66145 -0.0272,-0.10311 -0.0684,-0.30957 -0.09,-0.39688 -0.0453,-0.18308 -0.0583,-0.23974 -0.0735,-0.33073 l 0.0129,-0.13229 c 0.0504,-0.14717 0.13477,-0.19743 0.18741,-0.26458 0.0863,-0.11003 0.19883,-0.2827 0.34911,-0.46302 0.0946,-0.11347 0.17928,-0.21887 0.2756,-0.33073 0.32383,-0.37606 0.74576,-0.74851 1.17593,-1.03629 0.30134,-0.20159 0.56147,-0.35193 0.92604,-0.49793 0.30765,-0.1232 0.74327,-0.28571 1.05833,-0.35645 0.22718,-0.051 0.55047,-0.0778 0.79375,-0.0919 0.25267,-0.0146 0.33338,-0.002 0.59532,-0.002 0.31504,0 0.42672,-0.0271 0.7276,0.0147 0.42987,0.0597 0.79206,0.1309 1.19063,0.24069 0.25451,0.0701 0.54876,0.17689 0.79375,0.29031 0.30785,0.14252 0.47238,0.22469 0.7276,0.40607 0.26848,0.19079 0.61801,0.46366 0.85806,0.70371 0.22472,0.22473 0.49978,0.54807 0.68718,0.79191 0.22052,0.28695 0.26101,0.52395 0.57143,0.62839 0.19112,0.0643 0.35106,2.5e-4 0.5953,-0.0478 0.31969,-0.0629 0.66491,-0.22974 0.99219,-0.33808 0.16293,-0.0539 0.29299,-0.0902 0.46302,-0.11024 0.36103,-0.0426 0.74832,-0.12533 1.12448,-0.1323 0.26186,-0.005 0.54343,0.0462 0.79375,0.0717 0.65829,0.067 1.43858,0.31196 2.05052,0.68167 0.15307,0.0925 0.25995,0.17621 0.39687,0.28112 0.37258,0.28547 0.92597,0.75884 1.21451,1.14837 0.17761,0.23976 0.20383,0.45926 0.28296,0.58796 0.0357,0.058 0.0847,0.11289 0.22232,0.12678 0.13823,0.014 0.35328,-0.0497 0.46303,-0.068 0.15652,-0.0261 0.47701,-0.0647 0.66145,-0.1176 0.15565,-0.0446 0.28957,-0.0919 0.46302,-0.11759 0.2735,-0.0405 0.64332,-0.0626 0.92605,-0.079 0.35247,-0.0204 0.84947,0.0221 1.19062,0.079 0.28473,0.0474 0.57243,0.16084 0.8599,0.2407 0.17185,0.0478 0.30718,0.115 0.46302,0.19292 0.40643,0.20322 0.84469,0.50548 1.19062,0.79375 0.50485,0.42071 0.96372,1.1299 1.32292,1.6022"
               id="path46" /><path
               style="fill:none;stroke:#e5ceae;stroke-width:1.75;stroke-linecap:round;stroke-dasharray:none;stroke-opacity:1"
               d="m 118.84473,182.1618 -0.33992,0.52916 -0.25356,0.59532 -0.005,0.26458 0.12678,0.26458 0.40607,0.46302"
               id="path47" /></g><g
             id="g87"
             inkscape:label="food gas"
             style="opacity:1;fill:none;stroke:#fdecd2;stroke-width:0.75;stroke-linecap:round;stroke-dasharray:none;stroke-opacity:1"><path
               style="fill:none;stroke:#fdecd2;stroke-width:0.75;stroke-linecap:round;stroke-dasharray:none;stroke-opacity:1"
               d="m 113.81816,184.87383 0.46302,-0.59532 0.66146,-0.53468 0.39687,-0.16352 0.52917,-0.0974 1.12448,-0.0643 h 0.92604 0.26458"
               id="path83" /><path
               style="fill:none;stroke:#fdecd2;stroke-width:0.75;stroke-linecap:round;stroke-dasharray:none;stroke-opacity:1"
               d="m 100.52286,182.55867 c -0.0502,0.0413 -0.10259,0.11644 -0.20212,0.15434 -0.39802,0.15157 -1.25739,0.28835 -1.84841,0.58796 -0.15246,0.0773 -0.25872,0.13862 -0.39687,0.22784 -0.24367,0.15737 -0.51385,0.3434 -0.7276,0.55122 -0.25464,0.24755 -0.46905,0.46904 -0.72761,0.7276"
               id="path84" /><path
               style="fill:none;stroke:#fdecd2;stroke-width:0.75;stroke-linecap:round;stroke-dasharray:none;stroke-opacity:1"
               d="m 83.39057,186.13072 c 0.22661,-0.37195 0.44392,-0.794 0.75333,-1.19062 0.11377,-0.14585 0.24802,-0.32413 0.37666,-0.46302 0.21053,-0.22731 0.53266,-0.46604 0.78824,-0.62104 0.33014,-0.20022 0.52481,-0.33194 0.92604,-0.47404 0.32931,-0.11664 0.65595,-0.20088 0.99219,-0.22968 0.28965,-0.0248 0.62532,-0.0727 0.92604,-0.0643 0.2649,0.007 0.60378,0.0498 0.8599,0.0919 0.54862,0.0902 0.91586,0.11029 1.12448,0.14699 0.0289,0.005 0.11765,0.0401 0.26458,0.009 0.10732,-0.0226 0.16577,-0.0593 0.19293,-0.0827 0.0746,-0.0643 0.12581,-0.10998 0.20211,-0.29766 0.0976,-0.24001 0.24778,-0.66447 0.38401,-0.92604 0.0971,-0.18652 0.17284,-0.29749 0.27745,-0.46302 0.16322,-0.25829 0.3632,-0.55453 0.57142,-0.79191 0.29565,-0.33706 0.77461,-0.74138 1.15021,-0.9683 0.11606,-0.0701 0.21057,-0.11236 0.33072,-0.17272 0.18045,-0.0906 0.40352,-0.21305 0.59532,-0.2903 0.16656,-0.0671 0.36019,-0.12066 0.52916,-0.16721 0.16448,-0.0453 0.29147,-0.0973 0.46302,-0.11759 0.60646,-0.0716 1.29532,-0.0745 1.91823,-0.011 0.25968,0.0265 0.41744,0.035 0.66146,0.11576 0.47149,0.15607 1.26203,0.49466 1.65365,0.59347 0.22044,0.0556 0.28312,0.0711 0.46302,0.09"
               id="path85" /><path
               style="fill:none;stroke:#fdecd2;stroke-width:0.75;stroke-linecap:round;stroke-dasharray:none;stroke-opacity:1"
               d="m 105.48315,184.87411 c -0.38692,-0.47713 -0.80387,-0.8446 -1.32291,-1.19063 -0.14727,-0.0982 -0.25214,-0.17496 -0.39688,-0.26274 -0.2153,-0.13058 -0.5467,-0.27329 -0.79375,-0.35278 -0.24881,-0.0801 -0.54753,-0.1818 -0.79375,-0.22967 -0.15148,-0.0294 -0.36462,-0.0618 -0.52917,-0.0808 -0.1274,-0.0148 -0.20989,-0.0346 -0.33072,-0.0515 -0.13965,-0.0194 -0.42902,-0.001 -0.52917,-0.022 -0.13852,-0.0283 -0.20406,-0.0487 -0.28296,-0.25723 -0.0352,-0.0931 -0.0406,-0.17494 -0.0441,-0.19844 -0.0147,-0.0977 -0.0281,-0.15518 -0.0661,-0.39688 -0.0177,-0.11242 -0.0592,-0.34912 -0.0992,-0.46302 -0.0774,-0.22011 -0.22649,-0.43355 -0.28663,-0.66145 -0.0272,-0.10311 -0.0684,-0.30957 -0.09,-0.39688 -0.0453,-0.18308 -0.0583,-0.23974 -0.0735,-0.33073 l 0.0129,-0.13229 c 0.0504,-0.14717 0.13477,-0.19743 0.18741,-0.26458 0.0863,-0.11003 0.19883,-0.2827 0.34911,-0.46302 0.0946,-0.11347 0.17928,-0.21887 0.2756,-0.33073 0.32383,-0.37606 0.74576,-0.74851 1.17593,-1.03629 0.30134,-0.20159 0.56147,-0.35193 0.92604,-0.49793 0.30765,-0.1232 0.74327,-0.28571 1.05833,-0.35645 0.22718,-0.051 0.55047,-0.0778 0.79375,-0.0919 0.25267,-0.0146 0.33338,-0.002 0.59532,-0.002 0.31504,0 0.42672,-0.0271 0.7276,0.0147 0.42987,0.0597 0.79206,0.1309 1.19063,0.24069 0.25451,0.0701 0.54876,0.17689 0.79375,0.29031 0.30785,0.14252 0.47238,0.22469 0.7276,0.40607 0.26848,0.19079 0.61801,0.46366 0.85806,0.70371 0.22472,0.22473 0.49978,0.54807 0.68718,0.79191 0.22052,0.28695 0.26101,0.52395 0.57143,0.62839 0.19112,0.0643 0.35106,2.5e-4 0.5953,-0.0478 0.31969,-0.0629 0.66491,-0.22974 0.99219,-0.33808 0.16293,-0.0539 0.29299,-0.0902 0.46302,-0.11024 0.36103,-0.0426 0.74832,-0.12533 1.12448,-0.1323 0.26186,-0.005 0.54343,0.0462 0.79375,0.0717 0.65829,0.067 1.43858,0.31196 2.05052,0.68167 0.15307,0.0925 0.25995,0.17621 0.39687,0.28112 0.37258,0.28547 0.92597,0.75884 1.21451,1.14837 0.17761,0.23976 0.20383,0.45926 0.28296,0.58796 0.0357,0.058 0.0847,0.11289 0.22232,0.12678 0.13823,0.014 0.35328,-0.0497 0.46303,-0.068 0.15652,-0.0261 0.47701,-0.0647 0.66145,-0.1176 0.15565,-0.0446 0.28957,-0.0919 0.46302,-0.11759 0.2735,-0.0405 0.64332,-0.0626 0.92605,-0.079 0.35247,-0.0204 0.84947,0.0221 1.19062,0.079 0.28473,0.0474 0.57243,0.16084 0.8599,0.2407 0.17185,0.0478 0.30718,0.115 0.46302,0.19292 0.40643,0.20322 0.84469,0.50548 1.19062,0.79375 0.50485,0.42071 0.96372,1.1299 1.32292,1.6022"
               id="path86" /><path
               style="fill:none;stroke:#fdecd2;stroke-width:0.75;stroke-linecap:round;stroke-dasharray:none;stroke-opacity:1"
               d="m 118.84473,182.1618 -0.33992,0.52916 -0.25356,0.59532 -0.005,0.26458 0.12678,0.26458 0.40607,0.46302"
               id="path87" /></g></g><g
           id="g57"
           inkscape:label="spoon"
           transform="translate(-4.3189866,-118.77213)"
           style="opacity:1;fill:none"><path
             style="opacity:1;fill:none;fill-opacity:0;stroke:#5ba29b;stroke-width:1.75;stroke-linecap:round;stroke-dasharray:none;stroke-opacity:1"
             d="m 127.12118,188.06786 12.00573,-15.2824 c 0.26801,-0.34115 0.61272,-0.58749 0.92659,-0.8314 0.40751,-0.31669 0.9235,-0.52551 1.42692,-0.63919 0.45482,-0.10271 0.94706,-0.11027 1.3988,0.005 0.44832,0.11462 0.9584,0.28027 1.22035,0.66173 0.27397,0.39896 0.42586,0.78275 0.47051,1.21417 0.0405,0.39072 0.0104,0.8838 -0.0713,1.26803 -0.10746,0.50575 -0.31154,0.89069 -0.64377,1.20284 L 130.63728,188.086 Z"
             id="path80"
             sodipodi:nodetypes="csssssssscc"
             inkscape:label="spoon" /><path
             style="opacity:1;fill:none;fill-opacity:0;stroke:#d5f9f8;stroke-width:0.75;stroke-linecap:round;stroke-dasharray:none;stroke-opacity:1"
             d="m 127.12118,188.06786 12.00573,-15.2824 c 0.26801,-0.34115 0.61272,-0.58749 0.92659,-0.8314 0.40751,-0.31669 0.9235,-0.52551 1.42692,-0.63919 0.45482,-0.10271 0.94706,-0.11027 1.3988,0.005 0.44832,0.11462 0.9584,0.28027 1.22035,0.66173 0.27397,0.39896 0.42586,0.78275 0.47051,1.21417 0.0405,0.39072 0.0104,0.8838 -0.0713,1.26803 -0.10746,0.50575 -0.31154,0.89069 -0.64377,1.20284 L 130.63728,188.086 Z"
             id="path58"
             sodipodi:nodetypes="csssssssscc"
             inkscape:label="spoon gas" /></g><g
           id="g13"
           inkscape:label="bowl"
           style="opacity:1;fill:none;stroke:#5ba29b;stroke-width:1.75;stroke-dasharray:none;stroke-opacity:1"
           transform="translate(-4.3189866,-118.77213)"><g
             id="g42"
             inkscape:label="bowl edge"
             style="fill:none"><path
               style="fill:none;stroke:#5ba29b;stroke-width:1.75;stroke-linecap:round;stroke-dasharray:none;stroke-opacity:1"
               d="m 78.708431,192.49628 1.44153,-0.0157 c 12.655939,0.01 25.311819,-0.0359 37.967699,-0.0661"
               id="path13"
               inkscape:label="bowl lip" /><path
               style="fill:none;stroke:#5ba29b;stroke-width:1.75;stroke-linecap:round;stroke-dasharray:none;stroke-opacity:1"
               d="m 84.9786,196.44938 c 0.899364,1.46521 1.850659,2.91057 3.043886,4.15747 1.724939,1.88116 3.83805,3.37278 6.108497,4.52209 0.23397,0.12834 0.466179,0.26003 0.703357,0.38242"
               id="path6"
               inkscape:label="bowl accent" /><path
               style="fill:none;stroke:#5ba29b;stroke-width:1.75;stroke-linecap:round;stroke-dasharray:none;stroke-opacity:1"
               d="m 136.56996,188.38167 c 0.0376,4.02633 -1.18455,7.79623 -3.55439,11.41968 -2.36984,3.62345 -6.39217,7.03895 -10.59254,9.18107 -0.33933,1.51855 -0.22639,3.09729 -2.77743,3.0312 -8.46842,-0.0726 -16.70176,0.0507 -25.168769,-0.0638 -2.358388,-0.0919 -1.815771,-1.66075 -2.585396,-3.04895 -3.727,-1.85151 -7.202199,-5.45913 -9.570775,-8.87842 -2.225422,-3.27614 -4.24697,-8.51456 -4.748234,-11.69893 -0.09212,-0.58522 0.219733,-0.53412 1.235144,-0.49411 18.392818,0.015 38.79157,0.25471 57.18314,0.31261 0.17084,0.0412 0.5092,0.007 0.57925,0.23966 z"
               id="path7"
               inkscape:label="bowl"
               sodipodi:nodetypes="sccccccsccss" /></g><g
             id="g41"
             inkscape:label="bowl gas"
             style="fill:none;stroke:#d5f9f8;stroke-width:0.75;stroke-dasharray:none;stroke-opacity:1"><path
               style="opacity:1;fill:none;stroke:#d5f9f8;stroke-width:0.75;stroke-linecap:round;stroke-dasharray:none;stroke-opacity:1"
               d="m 78.708431,192.49628 1.44153,-0.0157 c 12.655939,0.01 25.311819,-0.0359 37.967699,-0.0661"
               id="path82"
               inkscape:label="bowl lip" /><path
               style="opacity:1;fill:none;stroke:#d5f9f8;stroke-width:0.75;stroke-linecap:round;stroke-dasharray:none;stroke-opacity:1"
               d="m 84.9786,196.44938 c 0.899364,1.46521 1.850659,2.91057 3.043886,4.15747 1.724939,1.88116 3.83805,3.37278 6.108497,4.52209 0.23397,0.12834 0.466179,0.26003 0.703357,0.38242"
               id="path81"
               inkscape:label="bowl accent" /><path
               style="opacity:1;fill:none;fill-opacity:0;stroke:#d5f9f8;stroke-width:0.75;stroke-linecap:round;stroke-dasharray:none;stroke-opacity:1"
               d="m 136.56996,188.38167 c 0.0376,4.02633 -1.18455,7.79623 -3.55439,11.41968 -2.36984,3.62345 -6.39217,7.03895 -10.59254,9.18107 -0.33933,1.51855 -0.22639,3.09729 -2.77743,3.0312 -8.46842,-0.0726 -16.70176,0.0507 -25.168769,-0.0638 -2.358388,-0.0919 -1.815771,-1.66075 -2.585396,-3.04895 -3.727,-1.85151 -7.202199,-5.45913 -9.570775,-8.87842 -2.225422,-3.27614 -4.24697,-8.51456 -4.748234,-11.69893 -0.09212,-0.58522 0.219733,-0.53412 1.235144,-0.49411 18.392818,0.015 38.79157,0.25471 57.18314,0.31261 0.17084,0.0412 0.5092,0.007 0.57925,0.23966 z"
               id="path73"
               inkscape:label="bowl"
               sodipodi:nodetypes="sccccccsccss" /></g></g><g
           id="g63"
           inkscape:label="heat waves"
           transform="translate(-4.3189866,-118.77213)"
           style="opacity:1;fill:none"><g
             id="g15"
             inkscape:label="heat waves edge"
             style="fill:none;stroke:#f3b54f;stroke-width:1.75;stroke-dasharray:none;stroke-opacity:1"><path
               style="fill:none;stroke:#f3b54f;stroke-width:1.75;stroke-linecap:round;stroke-dasharray:none;stroke-opacity:1"
               d="m 84.316586,175.28279 c -0.0106,-0.13299 -0.006,-0.27547 -0.002,-0.39687 0.003,-0.10673 -0.005,-0.19258 0.004,-0.33073 0.008,-0.13411 0.03,-0.19196 0.0496,-0.33073 0.028,-0.1978 0.0239,-0.27253 0.0551,-0.46302 0.0157,-0.0956 0.0186,-0.16043 0.0275,-0.26459 0.008,-0.0896 0.0244,-0.1758 0.0386,-0.26458 0.014,-0.0874 0.0213,-0.17675 0.0257,-0.26458 0.005,-0.10018 0.008,-0.1649 0.0257,-0.26459 0.0922,-0.51474 0.14807,-1.05768 0.26458,-1.5875 0.35927,-1.6337 0.94161,-3.28697 1.67937,-4.76249 0.0967,-0.1933 0.18979,-0.39789 0.29582,-0.59532 0.21288,-0.39639 0.51391,-0.89489 0.75517,-1.25677 0.11169,-0.16753 0.1888,-0.2832 0.30868,-0.46302 0.67883,-1.01824 1.47821,-1.99938 2.29857,-2.91042 0.78426,-0.87095 1.72891,-1.66625 2.64032,-2.39411 0.1646,-0.13145 0.29799,-0.22478 0.46302,-0.34359 0.16608,-0.11956 0.30311,-0.23068 0.46302,-0.34542 0.11317,-0.0812 0.21201,-0.14502 0.33073,-0.22417 0.69676,-0.4645 1.50118,-0.97094 2.24896,-1.37252 1.32903,-0.71374 2.78754,-1.25532 4.233334,-1.6904 0.61992,-0.18655 1.28506,-0.35571 1.91823,-0.48323 0.39853,-0.0803 0.86143,-0.11785 1.25677,-0.18374 0.22316,-0.0372 0.25104,-0.0422 0.46302,-0.0808 0.0884,-0.0161 0.17576,-0.0214 0.26458,-0.0312 0.0981,-0.0109 0.16525,-0.0319 0.26459,-0.046 0.14074,-0.0198 0.1907,-0.01 0.33073,-0.0294 0.16541,-0.0234 0.21341,-0.0464 0.39687,-0.0515 0.21686,-0.006 0.26452,0.007 0.52917,0 0.27922,-0.008 0.34909,-0.0632 0.66146,-0.0661 0.282,-0.002 0.37118,0 0.66146,0 h 0.66145 c 0.15295,0 0.25246,-0.002 0.46302,0 0.22578,0.002 0.30028,0.0378 0.52917,0.0606 0.27064,0.0269 0.37775,-0.0106 0.59531,0.011 0.15555,0.0155 0.22631,0.0474 0.39688,0.0588 0.0948,0.006 0.17114,0.001 0.26458,0.0165 0.11767,0.0189 0.21193,0.0383 0.33073,0.0514 0.10387,0.0115 0.15185,0.0219 0.26458,0.0404 0.19086,0.0314 0.37043,0.0438 0.59531,0.0772 0.12066,0.0179 0.20706,0.0196 0.33073,0.0404 0.25635,0.0433 0.53587,0.0951 0.79375,0.14699 0.85082,0.17134 1.68359,0.43259 2.51354,0.70923 0.71869,0.23956 1.41374,0.50307 2.11666,0.78456 1.06992,0.42847 2.14335,0.99295 3.10886,1.61874 0.21859,0.14168 0.37768,0.25178 0.59531,0.39687 0.14406,0.096 0.26099,0.17143 0.39688,0.26643 0.136,0.0951 0.25933,0.19082 0.39687,0.29398 0.8252,0.6189 1.64657,1.31345 2.38125,2.04133 0.73184,0.72506 1.4627,1.50764 2.10381,2.3151 0.19117,0.24078 0.36586,0.47051 0.54202,0.72761 0.45605,0.66557 0.94041,1.39111 1.30822,2.11667 0.22146,0.43685 0.4541,0.87899 0.65962,1.32291 0.12022,0.25966 0.22257,0.52973 0.33624,0.79375 0.30342,0.70471 0.5972,1.44401 0.79559,2.18281 0.15677,0.58381 0.29139,1.19434 0.39136,1.78594 0.0346,0.20481 0.0651,0.38225 0.10657,0.59531 0.0476,0.24502 0.0825,0.48581 0.12127,0.72761 0.0149,0.0926 0.0364,0.16824 0.046,0.26458 0.0118,0.11793 -0.001,0.20936 0.011,0.33073 0.0117,0.11751 0.0429,0.20783 0.0551,0.33073 0.0159,0.15958 0.005,0.24765 0.005,0.39687 0,0.1234 -0.003,0.21699 0,0.33073 0.005,0.17263 0.057,0.41367 0.0661,0.59532"
               id="path5" /><path
               style="fill:none;stroke:#f3b54f;stroke-width:1.75;stroke-linecap:round;stroke-dasharray:none;stroke-opacity:1"
               d="m 89.343166,174.88577 0.0404,-0.46302 0.0405,-0.39688 0.0514,-0.33073 0.8158,-3.57187 0.58796,-1.52136 0.9242,-1.71979 0.34359,-0.52916 1.08406,-1.38907 2.06522,-2.10197 1.45521,-1.11345 0.39687,-0.24989 1.05834,-0.66145 0.92604,-0.48691 1.256774,-0.51998 3.10885,-0.95176 1.98438,-0.2701 1.38906,-0.12678 h 0.52917 0.26458 l 0.33073,0.006 0.59531,0.0606 1.25677,0.1176 1.25676,0.16168 1.91823,0.49426 1.98438,0.73128 1.12448,0.49793 1.19062,0.66881 0.52917,0.3491 0.59531,0.40974 0.26458,0.18741 0.39688,0.31052 1.98437,1.82636 0.35646,0.39687 0.55672,0.66146 1.28434,1.91823 0.14331,0.26459 0.15618,0.26458 0.20027,0.39687 0.78273,1.78594 0.47956,1.71979 0.33991,1.78594 0.0515,0.39687 0.0147,0.39688 0.006,0.33073 0.0606,0.33073"
               id="path4" /><path
               style="fill:none;stroke:#f3b54f;stroke-width:1.75;stroke-linecap:round;stroke-dasharray:none;stroke-opacity:1"
               d="m 94.436906,173.76174 c 0.0663,-0.23202 0.11069,-0.49577 0.20763,-0.85989 0.19841,-0.74534 0.41058,-1.48217 0.73495,-2.18282 0.2859,-0.61754 0.61688,-1.22253 0.9977,-1.78593 0.1516,-0.22429 0.28595,-0.37905 0.45016,-0.59531 0.76748,-1.01084 1.70583,-1.97138 2.76894,-2.68258 0.29118,-0.1948 0.451584,-0.28652 0.727604,-0.452 0.2084,-0.12494 0.44126,-0.27117 0.66146,-0.38585 0.13597,-0.0708 0.26,-0.13 0.39687,-0.19844 0.1598,-0.0799 0.29569,-0.15327 0.46302,-0.22416 0.79575,-0.33708 1.66946,-0.65071 2.51355,-0.86174 0.43084,-0.10771 0.87327,-0.15956 1.32291,-0.2168 0.13379,-0.0171 0.20206,-0.0248 0.33073,-0.046 0.15947,-0.0262 0.27996,-0.0257 0.46302,-0.0257 0.72365,0 1.54655,-0.0644 2.24896,0.006 0.14398,0.0143 0.25591,0.0443 0.39688,0.0606 0.59135,0.0684 1.12503,0.1577 1.71979,0.32154 1.23976,0.34152 2.481,0.80786 3.57186,1.46439 0.11523,0.0694 0.21785,0.12868 0.33073,0.20028 0.12206,0.0774 0.21658,0.14041 0.33073,0.22232 0.35937,0.25789 0.91797,0.6669 1.25677,0.97198 0.27032,0.24341 0.4011,0.39558 0.66146,0.65595 0.24539,0.24539 0.32471,0.31886 0.52917,0.52916 0.11678,0.12013 0.18701,0.20573 0.29031,0.33073 0.0968,0.1171 0.18234,0.207 0.27744,0.33073 0.14516,0.18889 0.28429,0.39008 0.42443,0.59531 0.21428,0.31378 0.41027,0.6515 0.58062,0.99219 0.25988,0.51976 0.4857,1.04168 0.72576,1.5875 0.30994,0.7047 0.39443,1.63422 0.61185,2.3151"
               id="path3" /><path
               style="fill:none;stroke:#f3b54f;stroke-width:1.75;stroke-linecap:round;stroke-dasharray:none;stroke-opacity:1"
               d="m 99.397846,173.69601 c 0.27611,-0.86465 0.637484,-1.77799 1.170414,-2.51354 0.11001,-0.15183 0.20988,-0.2573 0.32522,-0.39687 0.16133,-0.19522 0.37149,-0.41192 0.55489,-0.59532 0.31046,-0.31045 0.63843,-0.59275 0.99219,-0.8507 0.19223,-0.14017 0.33354,-0.22219 0.52916,-0.33992 0.52214,-0.31425 1.07797,-0.55776 1.65365,-0.74965 0.24224,-0.0807 0.48447,-0.16863 0.7276,-0.23335 0.49399,-0.1315 0.95228,-0.20646 1.45521,-0.20763 0.50705,-0.001 1.03246,-0.0431 1.52136,0.005 0.11345,0.0113 0.22227,0.0413 0.33073,0.0551 0.10457,0.0133 0.16144,0.0127 0.26458,0.0312 0.1723,0.0308 0.414,0.0525 0.59531,0.0974 0.78687,0.19489 1.6311,0.52832 2.3151,0.93523 0.11556,0.0687 0.21786,0.12869 0.33072,0.20027 0.14561,0.0924 0.25683,0.16701 0.39688,0.27561 0.35485,0.27517 0.73877,0.59063 1.05833,0.91318 0.28956,0.29226 0.58553,0.65539 0.81396,0.99219 0.12538,0.18485 0.19401,0.33022 0.31052,0.52916 0.34449,0.58821 0.5048,1.2435 0.79375,1.85209"
               id="path42" /></g><g
             id="g91"
             inkscape:label="heat waves gas"
             style="fill:none;stroke:#ffe3a2;stroke-width:0.75;stroke-dasharray:none;stroke-opacity:1"><path
               style="fill:none;stroke:#ffe3a2;stroke-width:0.75;stroke-linecap:round;stroke-dasharray:none;stroke-opacity:1"
               d="m 84.316586,175.28279 c -0.0106,-0.13299 -0.006,-0.27547 -0.002,-0.39687 0.003,-0.10673 -0.005,-0.19258 0.004,-0.33073 0.008,-0.13411 0.03,-0.19196 0.0496,-0.33073 0.028,-0.1978 0.0239,-0.27253 0.0551,-0.46302 0.0157,-0.0956 0.0186,-0.16043 0.0275,-0.26459 0.008,-0.0896 0.0244,-0.1758 0.0386,-0.26458 0.014,-0.0874 0.0213,-0.17675 0.0257,-0.26458 0.005,-0.10018 0.008,-0.1649 0.0257,-0.26459 0.0922,-0.51474 0.14807,-1.05768 0.26458,-1.5875 0.35927,-1.6337 0.94161,-3.28697 1.67937,-4.76249 0.0967,-0.1933 0.18979,-0.39789 0.29582,-0.59532 0.21288,-0.39639 0.51391,-0.89489 0.75517,-1.25677 0.11169,-0.16753 0.1888,-0.2832 0.30868,-0.46302 0.67883,-1.01824 1.47821,-1.99938 2.29857,-2.91042 0.78426,-0.87095 1.72891,-1.66625 2.64032,-2.39411 0.1646,-0.13145 0.29799,-0.22478 0.46302,-0.34359 0.16608,-0.11956 0.30311,-0.23068 0.46302,-0.34542 0.11317,-0.0812 0.21201,-0.14502 0.33073,-0.22417 0.69676,-0.4645 1.50118,-0.97094 2.24896,-1.37252 1.32903,-0.71374 2.78754,-1.25532 4.233334,-1.6904 0.61992,-0.18655 1.28506,-0.35571 1.91823,-0.48323 0.39853,-0.0803 0.86143,-0.11785 1.25677,-0.18374 0.22316,-0.0372 0.25104,-0.0422 0.46302,-0.0808 0.0884,-0.0161 0.17576,-0.0214 0.26458,-0.0312 0.0981,-0.0109 0.16525,-0.0319 0.26459,-0.046 0.14074,-0.0198 0.1907,-0.01 0.33073,-0.0294 0.16541,-0.0234 0.21341,-0.0464 0.39687,-0.0515 0.21686,-0.006 0.26452,0.007 0.52917,0 0.27922,-0.008 0.34909,-0.0632 0.66146,-0.0661 0.282,-0.002 0.37118,0 0.66146,0 h 0.66145 c 0.15295,0 0.25246,-0.002 0.46302,0 0.22578,0.002 0.30028,0.0378 0.52917,0.0606 0.27064,0.0269 0.37775,-0.0106 0.59531,0.011 0.15555,0.0155 0.22631,0.0474 0.39688,0.0588 0.0948,0.006 0.17114,0.001 0.26458,0.0165 0.11767,0.0189 0.21193,0.0383 0.33073,0.0514 0.10387,0.0115 0.15185,0.0219 0.26458,0.0404 0.19086,0.0314 0.37043,0.0438 0.59531,0.0772 0.12066,0.0179 0.20706,0.0196 0.33073,0.0404 0.25635,0.0433 0.53587,0.0951 0.79375,0.14699 0.85082,0.17134 1.68359,0.43259 2.51354,0.70923 0.71869,0.23956 1.41374,0.50307 2.11666,0.78456 1.06992,0.42847 2.14335,0.99295 3.10886,1.61874 0.21859,0.14168 0.37768,0.25178 0.59531,0.39687 0.14406,0.096 0.26099,0.17143 0.39688,0.26643 0.136,0.0951 0.25933,0.19082 0.39687,0.29398 0.8252,0.6189 1.64657,1.31345 2.38125,2.04133 0.73184,0.72506 1.4627,1.50764 2.10381,2.3151 0.19117,0.24078 0.36586,0.47051 0.54202,0.72761 0.45605,0.66557 0.94041,1.39111 1.30822,2.11667 0.22146,0.43685 0.4541,0.87899 0.65962,1.32291 0.12022,0.25966 0.22257,0.52973 0.33624,0.79375 0.30342,0.70471 0.5972,1.44401 0.79559,2.18281 0.15677,0.58381 0.29139,1.19434 0.39136,1.78594 0.0346,0.20481 0.0651,0.38225 0.10657,0.59531 0.0476,0.24502 0.0825,0.48581 0.12127,0.72761 0.0149,0.0926 0.0364,0.16824 0.046,0.26458 0.0118,0.11793 -0.001,0.20936 0.011,0.33073 0.0117,0.11751 0.0429,0.20783 0.0551,0.33073 0.0159,0.15958 0.005,0.24765 0.005,0.39687 0,0.1234 -0.003,0.21699 0,0.33073 0.005,0.17263 0.057,0.41367 0.0661,0.59532"
               id="path88" /><path
               style="fill:none;stroke:#ffe3a2;stroke-width:0.75;stroke-linecap:round;stroke-dasharray:none;stroke-opacity:1"
               d="m 89.343166,174.88577 0.0404,-0.46302 0.0405,-0.39688 0.0514,-0.33073 0.8158,-3.57187 0.58796,-1.52136 0.9242,-1.71979 0.34359,-0.52916 1.08406,-1.38907 2.06522,-2.10197 1.45521,-1.11345 0.39687,-0.24989 1.05834,-0.66145 0.92604,-0.48691 1.256774,-0.51998 3.10885,-0.95176 1.98438,-0.2701 1.38906,-0.12678 h 0.52917 0.26458 l 0.33073,0.006 0.59531,0.0606 1.25677,0.1176 1.25676,0.16168 1.91823,0.49426 1.98438,0.73128 1.12448,0.49793 1.19062,0.66881 0.52917,0.3491 0.59531,0.40974 0.26458,0.18741 0.39688,0.31052 1.98437,1.82636 0.35646,0.39687 0.55672,0.66146 1.28434,1.91823 0.14331,0.26459 0.15618,0.26458 0.20027,0.39687 0.78273,1.78594 0.47956,1.71979 0.33991,1.78594 0.0515,0.39687 0.0147,0.39688 0.006,0.33073 0.0606,0.33073"
               id="path89" /><path
               style="fill:none;stroke:#ffe3a2;stroke-width:0.75;stroke-linecap:round;stroke-dasharray:none;stroke-opacity:1"
               d="m 94.436906,173.76174 c 0.0663,-0.23202 0.11069,-0.49577 0.20763,-0.85989 0.19841,-0.74534 0.41058,-1.48217 0.73495,-2.18282 0.2859,-0.61754 0.61688,-1.22253 0.9977,-1.78593 0.1516,-0.22429 0.28595,-0.37905 0.45016,-0.59531 0.76748,-1.01084 1.70583,-1.97138 2.76894,-2.68258 0.29118,-0.1948 0.451584,-0.28652 0.727604,-0.452 0.2084,-0.12494 0.44126,-0.27117 0.66146,-0.38585 0.13597,-0.0708 0.26,-0.13 0.39687,-0.19844 0.1598,-0.0799 0.29569,-0.15327 0.46302,-0.22416 0.79575,-0.33708 1.66946,-0.65071 2.51355,-0.86174 0.43084,-0.10771 0.87327,-0.15956 1.32291,-0.2168 0.13379,-0.0171 0.20206,-0.0248 0.33073,-0.046 0.15947,-0.0262 0.27996,-0.0257 0.46302,-0.0257 0.72365,0 1.54655,-0.0644 2.24896,0.006 0.14398,0.0143 0.25591,0.0443 0.39688,0.0606 0.59135,0.0684 1.12503,0.1577 1.71979,0.32154 1.23976,0.34152 2.481,0.80786 3.57186,1.46439 0.11523,0.0694 0.21785,0.12868 0.33073,0.20028 0.12206,0.0774 0.21658,0.14041 0.33073,0.22232 0.35937,0.25789 0.91797,0.6669 1.25677,0.97198 0.27032,0.24341 0.4011,0.39558 0.66146,0.65595 0.24539,0.24539 0.32471,0.31886 0.52917,0.52916 0.11678,0.12013 0.18701,0.20573 0.29031,0.33073 0.0968,0.1171 0.18234,0.207 0.27744,0.33073 0.14516,0.18889 0.28429,0.39008 0.42443,0.59531 0.21428,0.31378 0.41027,0.6515 0.58062,0.99219 0.25988,0.51976 0.4857,1.04168 0.72576,1.5875 0.30994,0.7047 0.39443,1.63422 0.61185,2.3151"
               id="path90" /><path
               style="fill:none;stroke:#ffe3a2;stroke-width:0.75;stroke-linecap:round;stroke-dasharray:none;stroke-opacity:1"
               d="m 99.397846,173.69601 c 0.27611,-0.86465 0.637484,-1.77799 1.170414,-2.51354 0.11001,-0.15183 0.20988,-0.2573 0.32522,-0.39687 0.16133,-0.19522 0.37149,-0.41192 0.55489,-0.59532 0.31046,-0.31045 0.63843,-0.59275 0.99219,-0.8507 0.19223,-0.14017 0.33354,-0.22219 0.52916,-0.33992 0.52214,-0.31425 1.07797,-0.55776 1.65365,-0.74965 0.24224,-0.0807 0.48447,-0.16863 0.7276,-0.23335 0.49399,-0.1315 0.95228,-0.20646 1.45521,-0.20763 0.50705,-0.001 1.03246,-0.0431 1.52136,0.005 0.11345,0.0113 0.22227,0.0413 0.33073,0.0551 0.10457,0.0133 0.16144,0.0127 0.26458,0.0312 0.1723,0.0308 0.414,0.0525 0.59531,0.0974 0.78687,0.19489 1.6311,0.52832 2.3151,0.93523 0.11556,0.0687 0.21786,0.12869 0.33072,0.20027 0.14561,0.0924 0.25683,0.16701 0.39688,0.27561 0.35485,0.27517 0.73877,0.59063 1.05833,0.91318 0.28956,0.29226 0.58553,0.65539 0.81396,0.99219 0.12538,0.18485 0.19401,0.33022 0.31052,0.52916 0.34449,0.58821 0.5048,1.2435 0.79375,1.85209"
               id="path91" /></g></g></g><g
         id="g73"
         inkscape:label="text"><path
           d="m 69.876595,103.6746 q 0.5099,0 0.74524,-0.25495 0.25495,-0.27456 0.25495,-0.62757 0,-0.353 -0.25495,-0.60795 -0.23534,-0.27456 -0.74524,-0.27456 -0.19611,0 -0.764843,0 -0.549122,0 -1.333581,0 -0.784459,0 -1.647364,0 -0.843294,0 -1.666976,0 -0.804071,0 -1.412026,0 -0.39223,0 -0.647179,0.1765 -0.235338,0.1765 -0.313784,0.45106 -0.07845,0.25495 0,0.52951 0.07845,0.25495 0.313784,0.43146 0.254949,0.1765 0.647179,0.1765 0.470675,0 0.921739,0.0193 0.451064,0.0193 0.804071,0.15689 0.372618,0.13728 0.588344,0.47068 0.215726,0.31378 0.215726,0.92174 0,0.62756 0,1.52969 0,0.90213 0,1.86309 0,0.94135 0,1.72581 0,0.76485 0,1.13747 0,0.47067 0,1.00018 0,0.52951 0,1.03941 0,0.49029 0,0.92174 0,0.49029 0.25495,0.74524 0.27456,0.25495 0.627567,0.25495 0.353007,0 0.607956,-0.25495 0.274561,-0.25495 0.274561,-0.74524 0,-0.43145 0,-0.92174 0,-0.5099 0,-1.03941 0,-0.52951 0,-1.00018 0,-0.37262 0,-1.09825 0,-0.72562 0,-1.60814 0,-0.90212 0,-1.82386 0,-0.94135 0,-1.72581 0,-0.74524 -0.25495,-1.29436 -0.235337,-0.54912 -0.66679,-0.94135 -0.431453,-0.39223 -0.980574,-0.62757 -0.549121,-0.25495 -1.176689,-0.35301 -0.607956,-0.11767 -1.215911,-0.11767 -0.39223,0 -0.647179,0.17651 -0.235338,0.1765 -0.313784,0.45106 -0.07845,0.25495 0,0.52951 0.07845,0.25495 0.313784,0.43145 0.254949,0.17651 0.647179,0.17651 0.372618,0 1.078631,0 0.725625,0 1.568918,0 0.862905,0 1.706199,0 0.862905,0 1.510084,0 0.66679,0 0.960958,0 z m 7.217,3.51045 q 0.49028,0.0587 0.76485,-0.15689 0.29417,-0.23534 0.33339,-0.58834 0.0588,-0.35301 -0.15689,-0.64718 -0.21573,-0.29417 -0.70601,-0.37262 -1.07864,-0.13728 -1.94154,0.0785 -0.84329,0.21573 -1.47086,0.70601 -0.62757,0.49029 -1.03941,1.17669 -0.41184,0.6864 -0.62757,1.49048 -0.19611,0.80407 -0.19611,1.64736 0,0.37262 0,1.09824 0,0.72563 0,1.51009 0,0.78446 0,1.33358 0,0.39223 0.1765,0.64718 0.1765,0.23533 0.43145,0.31378 0.27456,0.0785 0.52951,-0.0193 0.27456,-0.0785 0.45107,-0.31378 0.1765,-0.23534 0.1765,-0.62757 0,-0.39223 0,-1.03941 0,-0.66679 0,-1.39241 0,-0.72563 0,-1.31397 0,-0.58835 0,-0.8433 0,-0.64718 0,-1.1963 0,-0.56873 0,-1.11785 0,-0.56873 0,-1.21591 0,-0.49029 -0.27456,-0.74524 -0.25495,-0.25495 -0.60796,-0.25495 -0.353,0 -0.62756,0.25495 -0.25495,0.23534 -0.25495,0.74524 0,0.52951 0,1.15707 0,0.60796 0,1.21592 0,0.60795 0,1.15707 0,0.37262 0,0.98058 0,0.60795 0,1.29435 0,0.66679 0,1.29436 0,0.60796 0,1.0198 0,0.39223 0.1765,0.64718 0.1765,0.23534 0.43145,0.31378 0.27456,0.0785 0.52951,-0.0193 0.27456,-0.0785 0.45107,-0.31378 0.1765,-0.23534 0.1765,-0.62757 0,-0.39223 0,-0.94135 0,-0.54912 0,-1.15708 0,-0.60795 0,-1.1963 0,-0.58834 0,-1.03941 0,-0.6864 0.1765,-1.27474 0.17651,-0.58835 0.54913,-1.00019 0.39222,-0.43145 1.01979,-0.60795 0.62757,-0.19612 1.5297,-0.0587 z m 11.37467,-0.80407 q 0,-0.49028 -0.27456,-0.74523 -0.25495,-0.25495 -0.60796,-0.25495 -0.353,0 -0.62756,0.25495 -0.25495,0.25495 -0.25495,0.74523 0,0.3334 0,0.86291 0,0.5099 0,1.11785 0,0.60796 0,1.23553 0,0.62756 0,1.1963 0,0.72562 -0.21573,1.27474 -0.19611,0.54912 -0.58834,0.92174 -0.39223,0.35301 -0.94135,0.52951 -0.52951,0.1765 -1.17669,0.1765 -0.64718,0 -1.1963,-0.23533 -0.54912,-0.25495 -0.94135,-0.70602 -0.39223,-0.45106 -0.60796,-1.05902 -0.21573,-0.60795 -0.21573,-1.33358 0,-0.72562 0.21573,-1.33358 0.21573,-0.60795 0.58834,-1.03941 0.39223,-0.45106 0.94136,-0.6864 0.54912,-0.25495 1.1963,-0.25495 0.8629,0 1.52969,0.41184 0.66679,0.41185 1.03941,1.15708 0.37262,0.74524 0.37262,1.7062 0,0.29417 0,0.78446 0,0.47068 0,0.94135 0,0.45106 0,0.66679 0,0.3334 0,0.66679 0,0.31378 0,0.64718 0,0.3334 0,0.64718 0,0.49029 0.25495,0.74524 0.27456,0.25494 0.62756,0.25494 0.35301,0 0.60796,-0.25494 0.27456,-0.25495 0.27456,-0.74524 0,-0.52951 0,-0.98058 0,-0.45106 0,-0.98057 0,-0.33339 0,-0.70601 0,-0.39223 0,-0.80407 0,-0.43146 0,-0.88252 0,-1.11785 -0.37262,-2.03959 -0.353,-0.92174 -1.00018,-1.58853 -0.62757,-0.6864 -1.49047,-1.03941 -0.8433,-0.37262 -1.84348,-0.37262 -1.33358,0 -2.41222,0.64718 -1.05902,0.64718 -1.68658,1.80426 -0.60796,1.13746 -0.60796,2.62793 0,1.11786 0.35301,2.05921 0.353,0.92174 1.00018,1.60814 0.64718,0.6864 1.51009,1.05902 0.8629,0.37262 1.86309,0.37262 1.00018,0 1.84348,-0.31379 0.8629,-0.31378 1.49047,-0.90212 0.64718,-0.60796 1.00018,-1.47086 0.35301,-0.86291 0.35301,-1.98076 0,-0.8433 0,-1.45125 0,-0.62757 0,-1.09825 0,-0.49028 0,-0.92174 0,-0.43145 0,-0.94135 z m 9.51156,8.25644 q 0.41184,-0.29418 0.45107,-0.64718 0.0588,-0.35301 -0.13729,-0.62757 -0.1765,-0.29417 -0.50989,-0.37262 -0.3334,-0.0981 -0.72563,0.13728 -0.52951,0.3334 -1.00018,0.45107 -0.47068,0.11766 -0.88252,0.11766 -0.80407,0.0193 -1.47086,-0.37261 -0.66679,-0.41184 -1.05902,-1.15708 -0.37262,-0.76485 -0.37262,-1.78465 0,-1.01979 0.37262,-1.74542 0.39223,-0.74523 1.03941,-1.15707 0.64718,-0.41184 1.45125,-0.41184 0.41184,0 0.88251,0.11766 0.49029,0.0981 1.03941,0.43146 0.39223,0.23533 0.72563,0.15689 0.353,-0.0981 0.52951,-0.37262 0.19611,-0.29417 0.13728,-0.64718 -0.0588,-0.35301 -0.47068,-0.64718 -0.58834,-0.41184 -1.3728,-0.60795 -0.76485,-0.19612 -1.47086,-0.19612 -1.25514,0 -2.31416,0.62757 -1.03941,0.60796 -1.68659,1.76503 -0.62756,1.13747 -0.62756,2.68677 0,1.58853 0.64718,2.726 0.64718,1.13747 1.70619,1.76503 1.07864,0.60796 2.35338,0.58835 0.66679,0 1.43164,-0.21573 0.76485,-0.21572 1.33358,-0.60795 z m 4.216475,-13.02203 q 0,-0.49028 -0.27456,-0.72562 -0.25495,-0.25495 -0.60796,-0.25495 -0.35301,0 -0.62757,0.25495 -0.25495,0.23534 -0.25495,0.72562 0,0.54913 0,1.00019 0,0.43145 0,0.82368 0,0.39223 0,0.78446 0,1.15708 0,2.07882 0,0.90213 0,1.74542 0,0.84329 0,1.76503 0,0.90213 0,2.05921 0,0.58834 0,1.23552 0,0.64718 0,1.35319 0,0.5099 0.25495,0.76485 0.27456,0.23534 0.62757,0.23534 0.35301,0 0.60796,-0.25495 0.27456,-0.25495 0.27456,-0.74524 0,-0.47067 0,-0.88251 0,-0.41185 0,-0.82369 0,-0.41184 0,-0.88251 0,-0.78446 0,-1.76504 0,-1.00018 0,-2.0592 0,-1.05902 0,-2.03959 0,-1.00019 0,-1.78465 0,-0.47067 0,-0.88252 0,-0.41184 0,-0.82368 0,-0.43145 0,-0.90213 z m 5.51082,5.35394 q 0.39223,-0.29417 0.43146,-0.64718 0.0392,-0.37262 -0.17651,-0.64718 -0.19611,-0.29417 -0.56873,-0.35301 -0.35301,-0.0587 -0.74524,0.23534 -0.5099,0.39223 -1.07863,0.80407 -0.54912,0.39223 -1.13746,0.80407 -0.56874,0.41184 -1.17669,0.86291 -0.82369,0.60795 -1.23553,1.07863 -0.41184,0.45106 -0.43145,0.88252 0,0.41184 0.39223,0.90212 0.41184,0.47068 1.21591,1.09825 0.60796,0.47067 1.21591,1.01979 0.60796,0.52951 1.21592,1.07863 0.60795,0.52951 1.15707,1.0198 0.35301,0.3334 0.70602,0.29417 0.37261,-0.0193 0.60795,-0.27456 0.23534,-0.25495 0.23534,-0.60795 0,-0.37262 -0.37262,-0.70602 -0.56873,-0.52951 -1.17669,-1.07863 -0.60795,-0.54912 -1.25513,-1.07863 -0.62757,-0.54912 -1.23552,-1.03941 -0.45107,-0.353 -0.60796,-0.47067 -0.15689,-0.13728 0,-0.23534 0.15689,-0.11767 0.62757,-0.47068 0.58834,-0.43145 1.15707,-0.84329 0.58835,-0.41184 1.13747,-0.82368 0.56873,-0.41184 1.09824,-0.80407 z m 9.47233,-3.29473 q 0.49029,0 0.74524,-0.25495 0.25495,-0.27456 0.25495,-0.62757 0,-0.353 -0.25495,-0.60795 -0.25495,-0.27456 -0.74524,-0.27456 -0.58834,0 -0.96096,0 -0.37262,0 -0.72563,0 -0.33339,0 -0.84329,0 -0.29417,0 -0.5099,0 -0.21572,0 -0.49028,0 -0.27457,0 -0.72563,0 -0.90213,0 -1.45125,0.29417 -0.52951,0.29417 -0.78446,0.90213 -0.23534,0.58834 -0.23534,1.47086 0,0.37262 0,0.82368 0,0.43145 0,0.84329 0,0.41184 0,0.64718 0,0.5099 0.1569,0.94135 0.1765,0.43146 0.47067,0.76485 0.29417,0.31378 0.66679,0.49029 0.39223,0.1765 0.8433,0.1765 0.25495,0 0.80407,0 0.54912,0 1.17669,0 0.64717,0 1.23552,0 0.60795,0 0.98057,0 0.39223,0 0.62757,-0.1765 0.23534,-0.17651 0.31378,-0.43145 0.0785,-0.27457 0,-0.52951 -0.0785,-0.27457 -0.31378,-0.45107 -0.23534,-0.1765 -0.62757,-0.1765 -0.37262,0 -0.90213,0 -0.50989,0 -1.09824,0 -0.58834,0 -1.15708,0 -0.54912,0 -1.01979,0 -0.74524,0 -1.23553,0.23534 -0.47067,0.21572 -0.70601,0.64717 -0.21573,0.43146 -0.21573,1.03941 0,0.47068 0,1.09825 0,0.62756 0,1.25513 0,0.62757 0,1.07863 0,0.86291 0.27457,1.39242 0.29417,0.52951 0.82368,0.76484 0.54912,0.23534 1.33358,0.23534 0.23534,0 0.41184,0 0.19611,0 0.47067,0 0.27457,0 0.76485,0 0.45107,0 1.21591,0 0.76485,0 1.43164,0 0.49029,0 0.72563,-0.25495 0.25495,-0.27456 0.25495,-0.62756 0,-0.35301 -0.25495,-0.60796 -0.23534,-0.27456 -0.72563,-0.27456 -0.66679,0 -1.09824,0 -0.41184,0 -0.76485,0 -0.33339,0 -0.78446,0 -0.49028,0 -0.80407,0 -0.31378,0 -0.84329,0 -0.43145,0 -0.54912,-0.0785 -0.11767,-0.0784 -0.11767,-0.54912 0,-0.29417 0,-0.8433 0,-0.54912 0,-1.21591 0,-0.6864 0,-1.3728 0,-0.15689 0.0981,-0.15689 0.0981,0 0.29417,0 0.31378,0 0.84329,0 0.54912,0 1.17669,0 0.62757,0 1.1963,0 0.58835,0 0.96096,0 0.39223,0 0.62757,-0.17651 0.23534,-0.1765 0.31379,-0.43145 0.0785,-0.27456 0,-0.52951 -0.0785,-0.27456 -0.31379,-0.45106 -0.23534,-0.1765 -0.62757,-0.1765 -0.37262,0 -0.92174,0 -0.54912,0 -1.15707,0 -0.60796,0 -1.17669,0 -0.54912,0 -0.94135,0 -0.0981,0 -0.17651,-0.0587 -0.0588,-0.0587 -0.11767,-0.13728 -0.0392,-0.0981 -0.0588,-0.19612 -0.0196,-0.11767 -0.0196,-0.21572 0,-0.35301 0,-0.68641 0,-0.33339 0,-0.72562 0,-0.39223 0,-0.90213 0,-0.54912 0.0785,-0.72562 0.0785,-0.17651 0.62757,-0.17651 0.31378,0 0.52951,0 0.23534,0 0.49029,0 0.27456,0 0.70601,0 0.5099,0 1.21591,0 0.72563,0 1.31397,0 z m 11.84536,2.70638 q 0,-0.49028 -0.27456,-0.74523 -0.25495,-0.25495 -0.60795,-0.25495 -0.35301,0 -0.62757,0.25495 -0.25495,0.25495 -0.25495,0.74523 0,0.3334 0,0.86291 0,0.5099 0,1.11785 0,0.60796 0,1.23553 0,0.62756 0,1.1963 0,0.72562 -0.21573,1.27474 -0.19611,0.54912 -0.58834,0.92174 -0.39223,0.35301 -0.94135,0.52951 -0.52951,0.1765 -1.17669,0.1765 -0.64718,0 -1.1963,-0.23533 -0.54912,-0.25495 -0.94135,-0.70602 -0.39223,-0.45106 -0.60796,-1.05902 -0.21572,-0.60795 -0.21572,-1.33358 0,-0.72562 0.21572,-1.33358 0.21573,-0.60795 0.58835,-1.03941 0.39223,-0.45106 0.94135,-0.6864 0.54912,-0.25495 1.1963,-0.25495 0.8629,0 1.52969,0.41184 0.66679,0.41185 1.03941,1.15708 0.37262,0.74524 0.37262,1.7062 0,0.29417 0,0.78446 0,0.47068 0,0.94135 0,0.45106 0,0.66679 0,0.3334 0,0.66679 0,0.31378 0,0.64718 0,0.3334 0,0.64718 0,0.49029 0.25495,0.74524 0.27456,0.25494 0.62757,0.25494 0.353,0 0.60795,-0.25494 0.27456,-0.25495 0.27456,-0.74524 0,-0.52951 0,-0.98058 0,-0.45106 0,-0.98057 0,-0.33339 0,-0.70601 0,-0.39223 0,-0.80407 0,-0.43146 0,-0.88252 0,-1.11785 -0.37261,-2.03959 -0.35301,-0.92174 -1.00019,-1.58853 -0.62757,-0.6864 -1.49047,-1.03941 -0.8433,-0.37262 -1.84348,-0.37262 -1.33358,0 -2.41221,0.64718 -1.05902,0.64718 -1.68659,1.80426 -0.60796,1.13746 -0.60796,2.62793 0,1.11786 0.35301,2.05921 0.35301,0.92174 1.00019,1.60814 0.64717,0.6864 1.51008,1.05902 0.8629,0.37262 1.86309,0.37262 1.00019,0 1.84348,-0.31379 0.8629,-0.31378 1.49047,-0.90212 0.64718,-0.60796 1.00019,-1.47086 0.353,-0.86291 0.353,-1.98076 0,-0.8433 0,-1.45125 0,-0.62757 0,-1.09825 0,-0.49028 0,-0.92174 0,-0.43145 0,-0.94135 z m 3.5889,8.07993 q 0,0.5099 0.25494,0.76485 0.27457,0.23534 0.62757,0.23534 0.35301,0 0.60796,-0.25495 0.27456,-0.25495 0.27456,-0.74524 0,-0.52951 0,-0.8629 0,-0.35301 0,-0.70602 0,-0.353 0,-0.88251 0,-0.98058 0,-1.74542 0,-0.76485 0,-1.43164 0,-0.66679 0,-1.29436 0,-0.64718 0,-1.3728 0,-0.45107 0,-0.76485 0,-0.3334 0,-0.58834 0,-0.25495 0,-0.5099 0,-0.25495 0,-0.58835 0,-0.49028 -0.27456,-0.74523 -0.25495,-0.25495 -0.60796,-0.25495 -0.353,0 -0.62757,0.25495 -0.25494,0.25495 -0.25494,0.74523 0,0.29417 0,0.72563 0,0.41184 0,0.8629 0,0.45107 0,0.86291 0,1.07863 0,1.8827 0,0.80407 0,1.47086 0,0.64718 0,1.25513 0,0.58835 0,1.23553 0,0.49028 0,0.8629 0,0.37262 0,0.74524 0,0.37262 0,0.84329 z m 3.15744,-7.21702 q 0.49029,0 0.74524,-0.25495 0.25495,-0.27456 0.25495,-0.62757 0,-0.353 -0.25495,-0.60795 -0.25495,-0.27456 -0.74524,-0.27456 -0.31378,0 -0.56873,0 -0.23534,0 -0.54912,0 -0.54912,0 -1.09824,0 -0.52951,0 -1.07864,0 -0.19611,0 -0.353,0 -0.13728,0 -0.29417,0 -0.1569,0 -0.41185,0 -0.49028,0 -0.74523,0.27456 -0.25495,0.25495 -0.25495,0.60795 0,0.35301 0.25495,0.62757 0.25495,0.25495 0.74523,0.25495 0.19612,0 0.37262,0 0.19612,0 0.35301,0 0.15689,0 0.33339,0 0.58835,0 1.07864,0 0.50989,0 1.09824,0 0.27456,0 0.54912,0 0.27456,0 0.56873,0 z m 7.68772,0.31378 q 0.45106,0.23534 0.78445,0.0981 0.35301,-0.13728 0.49029,-0.45106 0.15689,-0.31379 0.0392,-0.64718 -0.0981,-0.35301 -0.52951,-0.56873 -0.74523,-0.37262 -1.47086,-0.52951 -0.72562,-0.17651 -1.39241,-0.17651 -1.0198,0 -1.80426,0.37262 -0.78446,0.35301 -1.23552,1.00019 -0.45107,0.64718 -0.45107,1.51008 0,0.88252 0.43146,1.43164 0.45106,0.52951 1.1963,0.90213 0.74523,0.353 1.66697,0.66679 0.41184,0.13728 0.92174,0.33339 0.52951,0.17651 0.90213,0.47068 0.37262,0.27456 0.37262,0.6864 0,0.37262 -0.25495,0.60796 -0.23534,0.21572 -0.62757,0.33339 -0.37262,0.0981 -0.82368,0.0981 -0.39223,0 -0.82368,-0.0784 -0.41185,-0.0981 -0.8433,-0.25495 -0.43145,-0.15689 -0.8629,-0.39223 -0.43146,-0.23534 -0.78446,-0.11767 -0.3334,0.11767 -0.5099,0.43145 -0.15689,0.31379 -0.0785,0.6668 0.0981,0.353 0.54912,0.58834 0.84329,0.45106 1.7062,0.6864 0.8629,0.23534 1.64736,0.23534 1.0198,0 1.78465,-0.3334 0.78446,-0.353 1.23552,-0.98057 0.45107,-0.64718 0.45107,-1.49047 0,-0.92174 -0.47068,-1.51009 -0.45106,-0.58835 -1.23552,-0.96097 -0.76485,-0.39223 -1.7062,-0.70601 -0.27456,-0.0785 -0.62756,-0.19611 -0.35301,-0.13728 -0.68641,-0.29418 -0.33339,-0.15689 -0.54912,-0.353 -0.21572,-0.21573 -0.21572,-0.47068 0,-0.39223 0.23533,-0.62757 0.25495,-0.25495 0.64718,-0.37261 0.39223,-0.11767 0.8433,-0.11767 0.33339,0 0.66679,0.0587 0.353,0.0587 0.70601,0.1765 0.35301,0.11767 0.70601,0.27456 z"
           id="text67"
           style="font-size:25.4px;line-height:0;font-family:'Tilt Neon';-inkscape-font-specification:'Tilt Neon';fill:#00ff00;stroke:#008000;stroke-width:0.772106;stroke-linecap:round"
           inkscape:label="text"
           aria-label="TrackEats" /></g></g></g></svg>
