<svg version="1.1" id="Layer_1" xmlns="http://www.w3.org/2000/svg" xmlns:xlink="http://www.w3.org/1999/xlink" x="0px" y="0px"
	 width="100%" viewBox="0 0 200 201" enable-background="new 0 0 200 201" xml:space="preserve">
<path fill="#AD202B" opacity="1.000000" stroke="none" 
	d="
M36.777275,173.209427 
	C30.998936,166.687271 24.833080,160.854263 20.170959,153.998642 
	C15.529272,147.173065 11.937428,139.510742 8.773772,131.848450 
	C6.845323,127.177795 6.606442,121.811775 5.590188,116.761810 
	C2.730726,102.552597 3.942495,88.377594 7.356610,74.563576 
	C10.159498,63.222672 15.860176,52.978622 22.815880,43.457726 
	C30.326656,33.177052 39.440647,24.673672 50.228413,18.077087 
	C55.508350,14.848473 61.138863,11.900528 66.985527,9.947788 
	C82.737534,4.686737 98.994698,2.303218 115.504730,5.304490 
	C131.709778,8.250320 146.491425,14.436407 159.684052,24.826117 
	C172.321411,34.778526 181.459961,47.169441 188.360123,61.322792 
	C191.054840,66.850136 192.824997,73.022018 193.901688,79.097855 
	C195.422745,87.681206 197.142181,96.529152 196.575317,105.118706 
	C195.483704,121.659912 191.302155,137.438461 181.776352,151.658020 
	C175.206604,161.464951 167.951859,170.300934 158.598907,177.508438 
	C149.253494,184.710159 138.819473,189.690247 127.783142,193.579590 
	C127.314339,193.744812 126.830833,193.893280 126.341690,193.972061 
	C118.984810,195.156677 111.655685,197.045303 104.261108,197.353134 
	C89.058868,197.985916 74.175674,194.914917 60.392895,188.846893 
	C51.982265,185.143997 44.788868,178.676315 36.777275,173.209427 
M52.833118,31.188713 
	C44.101223,37.670559 36.642948,45.111885 30.240736,54.174496 
	C21.346466,66.764732 17.531103,80.759491 16.294638,95.395920 
	C15.561484,104.074509 17.494364,113.105560 19.121218,121.811310 
	C20.197346,127.569984 22.137720,133.427689 24.950048,138.549896 
	C31.877787,151.167603 40.995014,161.719574 53.088543,170.234619 
	C65.495331,178.970230 79.199051,182.707596 93.537926,184.712463 
	C100.019020,185.618652 106.885414,183.950409 113.558395,183.268173 
	C131.899094,181.393005 146.784500,172.674057 159.777588,160.031036 
	C174.156403,146.039642 182.036636,128.812256 183.998642,109.192665 
	C184.836075,100.818466 183.239288,92.123268 182.149078,83.651093 
	C180.260391,68.973824 173.239655,56.757599 163.708633,45.575745 
	C151.031311,30.702637 134.862503,21.888884 116.155975,18.176147 
	C107.333702,16.425169 97.867363,16.622934 88.843422,17.495249 
	C76.039261,18.732983 64.193344,23.566130 52.833118,31.188713 
z"/>
<path fill="#FEFAFA" opacity="1.000000" stroke="none" 
	d="
M53.120396,30.961166 
	C64.193344,23.566130 76.039261,18.732983 88.843422,17.495249 
	C97.867363,16.622934 107.333702,16.425169 116.155975,18.176147 
	C134.862503,21.888884 151.031311,30.702637 163.708633,45.575745 
	C173.239655,56.757599 180.260391,68.973824 182.149078,83.651093 
	C183.239288,92.123268 184.836075,100.818466 183.998642,109.192665 
	C182.036636,128.812256 174.156403,146.039642 159.777588,160.031036 
	C146.784500,172.674057 131.899094,181.393005 113.558395,183.268173 
	C106.885414,183.950409 100.019020,185.618652 93.537926,184.712463 
	C79.199051,182.707596 65.495331,178.970230 53.088543,170.234619 
	C40.995014,161.719574 31.877787,151.167603 24.950048,138.549896 
	C22.137720,133.427689 20.197346,127.569984 19.121218,121.811310 
	C17.494364,113.105560 15.561484,104.074509 16.294638,95.395920 
	C17.531103,80.759491 21.346466,66.764732 30.240736,54.174496 
	C36.642948,45.111885 44.101223,37.670559 53.120396,30.961166 
M62.513374,107.719101 
	C64.808517,111.691116 68.722610,112.756752 72.787575,112.788628 
	C90.114655,112.924484 107.446091,113.013710 124.770309,112.750153 
	C131.537384,112.647202 135.105637,109.546944 136.211380,104.334702 
	C137.356277,98.937981 134.746552,93.901466 129.017365,90.981010 
	C125.689430,89.284592 124.041626,86.993874 124.309929,83.080650 
	C124.547806,79.611259 124.473122,76.045898 123.948631,72.612694 
	C122.346718,62.126873 116.426888,54.800076 106.353874,51.597351 
	C96.267380,48.390335 87.314041,51.143463 79.942474,58.724697 
	C73.311737,65.544022 72.500977,74.118256 73.131256,82.959846 
	C73.408493,86.849060 71.884033,89.171036 68.553535,90.901100 
	C61.553871,94.537140 59.774460,99.209419 62.513374,107.719101 
M156.478271,86.256943 
	C161.501770,100.480247 158.859360,113.745316 150.923721,126.706535 
	C153.561996,128.440369 155.959351,130.015884 158.293625,131.549927 
	C171.470078,116.107391 171.395203,84.607712 158.209641,69.785423 
	C155.893326,71.399239 153.531006,73.045097 151.256195,74.629990 
	C153.062408,78.595078 154.637680,82.053200 156.478271,86.256943 
M31.083319,114.272263 
	C32.773327,120.846306 35.189575,127.065918 39.505974,132.893234 
	C42.305035,130.921448 44.558224,129.334198 47.037071,127.587982 
	C36.234600,110.247681 36.385113,93.099533 47.043171,75.727737 
	C44.374817,73.946068 41.987427,72.351997 39.421429,70.638672 
	C29.960381,83.999931 28.669720,98.367836 31.083319,114.272263 
M147.850327,120.920982 
	C155.719131,107.691345 155.406052,89.899345 146.851440,79.833305 
	C144.579163,81.257416 142.252625,82.715538 139.472717,84.457794 
	C145.594055,95.375282 145.277435,106.237289 139.459427,117.327522 
	C142.365860,118.798271 144.826675,120.043518 147.850327,120.920982 
M46.582935,89.154343 
	C42.719261,100.872009 44.196583,111.907944 50.686821,122.955437 
	C53.480785,121.136032 55.878971,119.574356 58.467602,117.888664 
	C52.418610,106.858017 52.811337,96.173805 58.399464,85.362663 
	C55.721718,83.692116 53.394947,82.240532 50.468391,80.414764 
	C49.117123,83.385597 47.976280,85.893791 46.582935,89.154343 
M105.046585,132.918259 
	C111.417496,129.926071 114.933121,125.077393 115.357681,117.602943 
	C111.022362,117.538712 107.149353,115.444191 104.732635,121.197830 
	C102.775856,125.856483 94.844246,125.957748 92.803185,121.358185 
	C90.246590,115.596840 86.414467,117.354774 82.402496,117.733650 
	C82.498436,129.513016 92.129028,136.153198 105.046585,132.918259 
z"/>
<path fill="#AE212C" opacity="1.000000" stroke="none" 
	d="
M62.320824,107.379242 
	C59.774460,99.209419 61.553871,94.537140 68.553535,90.901100 
	C71.884033,89.171036 73.408493,86.849060 73.131256,82.959846 
	C72.500977,74.118256 73.311737,65.544022 79.942474,58.724697 
	C87.314041,51.143463 96.267380,48.390335 106.353874,51.597351 
	C116.426888,54.800076 122.346718,62.126873 123.948631,72.612694 
	C124.473122,76.045898 124.547806,79.611259 124.309929,83.080650 
	C124.041626,86.993874 125.689430,89.284592 129.017365,90.981010 
	C134.746552,93.901466 137.356277,98.937981 136.211380,104.334702 
	C135.105637,109.546944 131.537384,112.647202 124.770309,112.750153 
	C107.446091,113.013710 90.114655,112.924484 72.787575,112.788628 
	C68.722610,112.756752 64.808517,111.691116 62.320824,107.379242 
M82.500893,84.998810 
	C82.657082,91.668312 78.650307,95.618210 73.538231,98.929199 
	C72.292870,99.735794 71.324883,100.970642 69.378922,102.814316 
	C89.578728,102.814316 108.181610,102.814316 126.784492,102.814316 
	C126.183243,100.776123 125.151703,99.716156 123.931496,98.961060 
	C118.185951,95.405594 114.379166,90.823982 114.933128,83.550735 
	C115.146919,80.743721 115.084778,77.889511 114.858940,75.080055 
	C114.154694,66.319221 107.255775,59.925556 98.687210,59.933529 
	C90.089378,59.941528 83.263283,66.332397 82.622711,75.130936 
	C82.405907,78.108910 82.532440,81.111877 82.500893,84.998810 
z"/>
<path fill="#E72D3D" opacity="1.000000" stroke="none" 
	d="
M156.345612,85.884132 
	C154.637680,82.053200 153.062408,78.595078 151.256195,74.629990 
	C153.531006,73.045097 155.893326,71.399239 158.209641,69.785423 
	C171.395203,84.607712 171.470078,116.107391 158.293625,131.549927 
	C155.959351,130.015884 153.561996,128.440369 150.923721,126.706535 
	C158.859360,113.745316 161.501770,100.480247 156.345612,85.884132 
z"/>
<path fill="#E72D3D" opacity="1.000000" stroke="none" 
	d="
M30.999874,113.854874 
	C28.669720,98.367836 29.960381,83.999931 39.421429,70.638672 
	C41.987427,72.351997 44.374817,73.946068 47.043171,75.727737 
	C36.385113,93.099533 36.234600,110.247681 47.037071,127.587982 
	C44.558224,129.334198 42.305035,130.921448 39.505974,132.893234 
	C35.189575,127.065918 32.773327,120.846306 30.999874,113.854874 
z"/>
<path fill="#E72C3C" opacity="1.000000" stroke="none" 
	d="
M147.568909,121.104874 
	C144.826675,120.043518 142.365860,118.798271 139.459427,117.327522 
	C145.277435,106.237289 145.594055,95.375282 139.472717,84.457794 
	C142.252625,82.715538 144.579163,81.257416 146.851440,79.833305 
	C155.406052,89.899345 155.719131,107.691345 147.568909,121.104874 
z"/>
<path fill="#E72C3C" opacity="1.000000" stroke="none" 
	d="
M46.709187,88.778168 
	C47.976280,85.893791 49.117123,83.385597 50.468391,80.414764 
	C53.394947,82.240532 55.721718,83.692116 58.399464,85.362663 
	C52.811337,96.173805 52.418610,106.858017 58.467602,117.888664 
	C55.878971,119.574356 53.480785,121.136032 50.686821,122.955437 
	C44.196583,111.907944 42.719261,100.872009 46.709187,88.778168 
z"/>
<path fill="#AE232E" opacity="1.000000" stroke="none" 
	d="
M104.664978,133.032562 
	C92.129028,136.153198 82.498436,129.513016 82.402496,117.733650 
	C86.414467,117.354774 90.246590,115.596840 92.803185,121.358185 
	C94.844246,125.957748 102.775856,125.856483 104.732635,121.197830 
	C107.149353,115.444191 111.022362,117.538712 115.357681,117.602943 
	C114.933121,125.077393 111.417496,129.926071 104.664978,133.032562 
z"/>
<path fill="#FDFAFA" opacity="1.000000" stroke="none" 
	d="
M82.501480,84.551117 
	C82.532440,81.111877 82.405907,78.108910 82.622711,75.130936 
	C83.263283,66.332397 90.089378,59.941528 98.687210,59.933529 
	C107.255775,59.925556 114.154694,66.319221 114.858940,75.080055 
	C115.084778,77.889511 115.146919,80.743721 114.933128,83.550735 
	C114.379166,90.823982 118.185951,95.405594 123.931496,98.961060 
	C125.151703,99.716156 126.183243,100.776123 126.784492,102.814316 
	C108.181610,102.814316 89.578728,102.814316 69.378922,102.814316 
	C71.324883,100.970642 72.292870,99.735794 73.538231,98.929199 
	C78.650307,95.618210 82.657082,91.668312 82.501480,84.551117 
z"/>
</svg>