<?xml version="1.0" encoding="UTF-8" standalone="no"?>
<!-- Created with Inkscape (http://www.inkscape.org/) -->

<svg
   width="180mm"
   height="190mm"
   viewBox="0 0 180 190"
   version="1.1"
   id="svg1"
   xml:space="preserve"
   xmlns="http://www.w3.org/2000/svg"
   xmlns:svg="http://www.w3.org/2000/svg"><defs
     id="defs1"><linearGradient
       id="swatch1"><stop
         style="stop-color:#000000;stop-opacity:1;"
         offset="0"
         id="stop1" /></linearGradient></defs><g
     id="layer1"
     style="display:inline"
     transform="translate(2.5755128,-1.5453077)"><ellipse
       style="fill:none;fill-opacity:1;stroke:#1e1d1c;stroke-width:0.8;stroke-dasharray:none;stroke-opacity:1"
       id="path12"
       ry="31.977606"
       rx="60.584358"
       cy="133.66753"
       cx="86.722076" /><ellipse
       style="fill:none;fill-opacity:1;stroke:#1e1d1c;stroke-width:0.8;stroke-dasharray:none;stroke-opacity:1"
       id="path12-6"
       ry="34.412991"
       rx="63.384155"
       cy="133.65154"
       cx="86.47229" /><ellipse
       style="opacity:1;fill:none;fill-opacity:1;stroke:#000000;stroke-width:0.9;stroke-dasharray:none;stroke-opacity:1"
       id="path14"
       cx="86.539864"
       cy="132.48317"
       rx="80.837997"
       ry="43.576328" /><ellipse
       style="opacity:1;fill:none;fill-opacity:1;stroke:#1e1d1c;stroke-width:1.3;stroke-dasharray:none;stroke-opacity:1"
       id="path17"
       ry="46.361282"
       rx="83.98735"
       cy="132.48318"
       cx="86.722076" /><path
       id="path18"
       style="opacity:1;fill:none;fill-opacity:1;stroke:#1e1d1c;stroke-width:1.3;stroke-dasharray:none;stroke-opacity:1"
       d="m 170.60882,129.80621 a 83.908435,53.570841 0 0 1 0.0217,1.21841 v 0 a 83.908435,53.570841 0 0 1 -83.90844,53.57085 83.908435,53.570841 0 0 1 -83.908432,-53.57085 83.908435,53.570841 0 0 1 0.003,-0.41465" /><path
       style="opacity:1;fill:#bad9cb;fill-opacity:1;stroke:#1e1d1c;stroke-width:0.799999;stroke-dasharray:none;stroke-opacity:1"
       d="m 80.344784,165.07369 c -27.971337,-1.81581 -49.451072,-12.78638 -53.243887,-27.19382 -0.660569,-2.50924 -0.660569,-5.91567 0,-8.42492 3.300963,-12.53907 20.382936,-22.8062 43.586831,-26.19789 5.68068,-0.83033 8.428291,-1.006 15.852147,-1.01347 7.255272,-0.007 9.511215,0.1184 14.911765,0.83094 23.6377,3.1187 41.53607,13.61746 44.87731,26.32399 0.67456,2.56528 0.68138,5.95249 0.017,8.45969 -2.43388,9.18555 -12.08131,17.17563 -26.82935,22.22028 -6.86851,2.34941 -13.81975,3.81409 -22.135367,4.66408 -2.700904,0.27608 -14.385915,0.50319 -17.036503,0.33112 z"
       id="path19" /><path
       style="opacity:1;fill:#bad9cb;fill-opacity:1;stroke:#1e1d1c;stroke-width:0.799999;stroke-dasharray:none;stroke-opacity:1"
       d="M 82.349079,167.53089 C 66.497021,167.06256 51.051223,163.06734 40.124456,156.60905 31.413195,151.46024 25.985363,145.29538 24.11673,138.4277 c -0.474853,-1.7452 -0.671891,-5.96274 -0.364006,-7.79149 1.821725,-10.82058 13.121243,-20.50343 30.559166,-26.18694 18.535999,-6.041385 42.313518,-6.365142 61.55042,-0.8381 11.51968,3.3098 20.47193,8.20276 26.52449,14.49732 12.83666,13.34989 7.74781,29.69598 -12.48128,40.09161 -10.02366,5.15111 -22.17186,8.26999 -35.712884,9.16878 -3.926083,0.26059 -7.056961,0.30342 -11.843557,0.16201 z m 9.839264,-1.6147 c 4.21296,-0.22207 9.495447,-0.77899 12.972367,-1.36766 18.94576,-3.20762 33.73241,-11.08034 39.74036,-21.15858 2.95117,-4.95055 3.57836,-10.66376 1.73441,-15.79912 -4.48743,-12.49742 -22.62374,-22.56737 -45.79223,-25.42554 -8.947417,-1.1038 -18.850644,-1.13764 -27.513496,-0.094 -23.69679,2.85479 -41.985118,12.88701 -46.521071,25.51955 -1.84395,5.13536 -1.216758,10.84857 1.734413,15.79912 8.645088,14.50199 35.507167,24.00941 63.645247,22.52624 z"
       id="path20" /><path
       style="opacity:1;fill:#bad9cb;fill-opacity:1;stroke:#1e1d1c;stroke-width:0.799999;stroke-dasharray:none;stroke-opacity:1"
       d="M 78.796011,175.38059 C 52.11601,173.96468 28.545395,165.54649 15.830954,152.89278 9.4023335,146.49486 6.24709,139.77548 6.24709,132.48306 c 0,-7.24753 3.0961647,-13.90303 9.411766,-20.23149 9.43566,-9.45487 24.590885,-16.53558 43.252252,-20.208053 32.509094,-6.397649 68.728322,-0.955035 90.438902,13.590083 8.18656,5.48466 13.96973,12.3097 16.25015,19.17774 1.2347,3.71859 1.59111,8.17356 0.93457,11.68158 -2.90778,15.53679 -20.30145,28.65462 -46.65069,35.18266 -12.4686,3.0891 -27.371598,4.43294 -41.088029,3.70501 z m 18.038651,-7.36361 c 15.788588,-1.52701 29.127358,-5.74511 39.083738,-12.35941 7.94181,-5.27596 12.84532,-11.83334 14.05737,-18.79868 0.41005,-2.35644 0.25503,-5.79545 -0.36973,-8.20221 -0.609,-2.34604 -2.43049,-6.02073 -4.0643,-8.19939 -7.25054,-9.66845 -22.19542,-17.07857 -40.5988,-20.1301 -9.645354,-1.599328 -21.291918,-1.902205 -31.06656,-0.807911 -18.690145,2.092411 -34.414089,8.440631 -43.500426,17.562401 -3.716827,3.73133 -5.928368,7.41227 -7.110486,11.83487 -0.410895,1.53727 -0.466267,2.10145 -0.466267,4.75087 0,2.65655 0.05478,3.21148 0.470693,4.76831 1.216671,4.55416 3.625448,8.41153 7.717912,12.35929 10.090822,9.73404 27.912046,16.1657 48.445935,17.4841 3.684651,0.23658 13.823678,0.0838 17.400921,-0.26214 z"
       id="path21" /><path
       style="opacity:1;fill:#bad9cb;fill-opacity:1;stroke:#1e1d1c;stroke-width:0.799999;stroke-dasharray:none;stroke-opacity:1"
       d="m 79.342637,178.01849 c -0.450966,-0.0363 -2.090843,-0.15445 -3.644172,-0.26257 C 52.783874,176.1609 31.376997,168.95046 18.120552,158.36205 11.510306,153.0822 6.8942296,147.00658 5.0341937,141.13797 3.7111413,136.96359 3.1929884,131.51816 3.7923144,128.08667 6.9932938,109.75921 30.508794,94.052169 62.670551,88.759249 c 8.830604,-1.453268 13.740043,-1.825995 24.051532,-1.825995 8.537774,0 10.689476,0.105341 17.036507,0.834046 30.62715,3.516323 55.28362,16.28883 63.38951,32.83701 2.8589,5.83643 3.45818,11.45135 1.93333,18.11396 -1.90269,8.31348 -8.10434,16.12924 -18.03972,22.73493 -13.31245,8.85099 -30.81021,14.31228 -52.020547,16.23632 -2.965101,0.26897 -17.420984,0.51064 -19.678526,0.32897 z m 15.214417,-1.71667 c 26.993096,-1.57807 49.752906,-9.65018 62.927356,-22.31815 5.33757,-5.13238 8.7945,-11.07909 9.98094,-17.16953 0.42174,-2.16497 0.42174,-6.49719 0,-8.66216 C 164.79508,114.44442 151.15552,102.49263 129.87662,95.214513 109.64131,88.293318 84.388043,86.588528 61.486194,90.597638 33.256968,95.53933 12.243625,108.43794 6.6637158,124.24934 c -0.9874347,2.79803 -1.3483656,4.96532 -1.3560332,8.14261 -0.00473,1.9585 0.089746,3.31832 0.3081922,4.43606 1.8665362,9.55062 8.9081932,18.14392 20.6370162,25.18442 13.446951,8.07185 31.64826,13.07915 51.905389,14.27952 3.54389,0.21 12.879425,0.21562 16.398774,0.01 z"
       id="path22" /><path
       style="opacity:1;fill:#bad9cb;fill-opacity:1;stroke:#1e1d1c;stroke-width:0.89526;stroke-dasharray:none;stroke-opacity:1"
       d="m 81.255826,183.84331 c -25.732205,-1.20733 -48.525678,-9.49395 -63.226378,-22.9861 -2.287047,-2.09902 -3.751058,-3.68489 -3.401755,-3.68489 0.09267,0 0.281016,0.13639 0.418555,0.30309 1.053769,1.27716 7.275102,5.67992 11.181259,7.91282 27.13315,15.51034 70.645154,18.57066 104.315743,7.33683 10.55598,-3.52189 20.72204,-8.97697 26.99691,-14.48646 0.66792,-0.58645 1.26787,-1.06628 1.33321,-1.06628 0.53704,0 -4.05232,4.41343 -7.10282,6.83055 -13.64706,10.81346 -32.63278,17.59803 -54.571472,19.5012 -3.088524,0.26793 -12.978188,0.47836 -15.943252,0.33924 z"
       id="path23" /></g><g
     id="layer2"
     transform="matrix(0.9,0,0,0.9,216.14484,81.231949)"><path
       style="fill:#b37313;fill-opacity:1"
       d="m -182.78303,56.80258 c -20.44995,-2.4836 -27.88345,-13.79358 -28.78543,-28.576529 -0.41184,-6.749687 0.5755,-9.163102 1.99562,-12.793998 7.43492,-19.0092073 27.24548,-25.1724776 61.67722,-14.72891934 9.1933,2.78843674 14.43354,3.01351474 22.02019,0.94580594 6.77719,-1.84709086 9.84639,0.197883 6.87872,4.5832048 -1.0739,1.586899 -0.89837,1.897682 1.08039,1.912863 3.50614,0.0269 4.70376,2.2123306 2.75814,5.0330846 -0.9806,1.421678 -0.93454,1.833756 0.20617,1.844167 0.96242,0.0088 2.07645,1.308181 2.07645,2.42196 0,2.214843 -0.9997,3.212442 -4.87151,4.861253 -5.52815,2.354162 -7.52862,3.867194 -11.19014,8.463546 -7.83241,9.832092 -23.97239,21.077922 -32.69624,24.041012 -6.36409,2.16159 -14.43673,2.80781 -21.14958,1.99255 z m 11.59662,-2.11657 c 12.82991,-1.37422 30.04695,-12.09304 40.32895,-25.107617 3.87055,-4.899209 6.9372,-7.234479 12.25825,-9.334746 3.77764,-1.491069 4.6092,-2.575345 2.40048,-3.129999 -2.66222,-0.668536 -2.91871,-2.33075 -0.81232,-5.264559 0.9767,-1.360367 0.80026,-1.538915 -1.8091,-1.830748 -3.48986,-0.3903096 -4.29166,-2.0538676 -2.30689,-4.7863216 1.79596,-2.4725259 0.86339,-2.7993169 -4.23753,-1.484907 -8.77384,2.260851 -13.50104,1.948102 -25.6392,-1.6962739 -23.62469,-7.0931028 -39.86695,-5.7779478 -50.39166,4.0802709 -12.66012,11.8584076 -10.28219,35.2905306 2.65103,43.6647106 6.99187,4.5272 17.95439,5.91883 27.55799,4.89019 z m -16.30576,-16.92673 c -0.59986,-0.34843 -0.58515,-0.84025 0.10747,-3.59431 l 0.57175,-2.27345 -0.55327,-0.428957 c -0.30429,-0.235929 -1.26986,-0.996111 -2.1457,-1.689292 -0.87585,-0.693182 -1.63903,-1.169432 -1.69598,-1.058333 -0.0569,0.111098 -0.25639,0.737778 -0.44321,1.392621 -0.75128,2.633311 -0.95576,3.040961 -1.56956,3.129161 -1.48254,0.21304 -1.67857,-0.80401 -0.70511,-3.658327 0.88092,-2.582972 0.87106,-2.636179 -0.68407,-3.693246 -1.5979,-1.086138 -1.9688,-1.650904 -1.57101,-2.392171 0.40057,-0.746435 1.17492,-0.658605 2.55755,0.290087 0.6567,0.45059 1.22753,0.778011 1.26853,0.727604 0.16877,-0.207495 2.2759,-5.999646 2.2759,-6.256055 0,-0.153031 -0.49654,-0.555049 -1.10343,-0.893374 -1.37279,-0.765302 -1.78932,-1.366528 -1.3885,-2.004199 0.42598,-0.677687 1.32452,-0.710067 2.3852,-0.08595 1.26511,0.744407 1.23475,0.759584 2.10259,-1.051209 0.71248,-1.486638 0.82419,-1.59459 1.57427,-1.521354 1.0882,0.106247 1.19078,1.072551 0.31613,2.977858 -0.49092,1.069388 -0.58039,1.501414 -0.34957,1.687943 0.61713,0.498719 3.90025,2.689069 4.03065,2.689069 0.0735,0 0.82815,-1.410505 1.67694,-3.134455 l 1.54326,-3.134456 -0.88787,-0.606728 c -0.99108,-0.677258 -1.37275,-1.65959 -0.87649,-2.255921 0.45192,-0.543047 0.7825,-0.496909 1.90888,0.266409 l 0.9737,0.659848 0.75488,-1.120945 c 0.80378,-1.1935406 1.45101,-1.4996166 2.07645,-0.9819526 0.57355,0.4747116 0.46855,1.3318016 -0.30163,2.4621506 -0.37776,0.55442 -0.64638,1.035135 -0.59693,1.068255 0.0494,0.03312 0.74653,0.593878 1.54908,1.24613 2.54391,2.067517 2.2449,2.029397 3.07616,0.39216 0.76433,-1.505392 1.14698,-1.832894 1.83424,-1.569882 0.76516,0.292824 0.77496,1.410688 0.0257,2.934212 -0.87631,1.781925 -0.80671,1.979015 1.3154,3.724508 1.72741,1.420851 2.09951,2.1998 1.38922,2.908167 -0.54249,0.541015 -1.00791,0.363499 -2.66295,-1.015665 -1.99372,-1.661387 -1.92835,-1.691693 -3.15996,1.46496 -1.29712,3.324559 -1.29967,3.296342 0.4339,4.812591 1.45612,1.273585 1.78315,2.038349 1.14415,2.675614 -0.56108,0.559559 -1.2563,0.344172 -2.45966,-0.762037 l -1.17434,-1.079536 -0.42578,1.542557 c -0.66644,2.41451 -0.84752,2.73318 -1.55301,2.73318 -1.39664,0 -1.48899,-0.94654 -0.41841,-4.28863 0.28681,-0.895381 0.42061,-1.695715 0.29732,-1.778521 -0.34821,-0.233868 -2.79281,-2.227725 -3.18738,-2.599683 -1.23092,-1.160378 -1.40558,-0.905732 -3.23932,4.722901 l -0.56837,1.744605 1.38963,1.322008 c 2.16619,2.06079 1.1317,3.9619 -1.12527,2.06794 -1.09708,-0.92063 -1.12508,-0.89848 -1.6451,1.30132 -0.51981,2.19895 -0.9743,2.63116 -2.08709,1.98478 z m 3.95827,-15.091413 c 0.1375,-0.448622 -3.23605,-2.90954 -4.08189,-2.977639 -0.30555,-0.0246 -0.73557,0.860055 -1.59123,3.273522 l -1.17252,3.307232 0.58764,0.389121 c 0.32321,0.214016 1.30777,0.963206 2.18793,1.664866 l 1.60028,1.275746 1.16927,-3.252307 c 0.6431,-1.788769 1.22834,-3.445012 1.30052,-3.680541 z m 8.41269,0.0084 c 0.49207,-1.224282 1.08675,-2.664257 1.3215,-3.199944 l 0.42682,-0.973977 -2.04913,-1.64396 -2.04912,-1.64396 -1.27826,2.675215 c -1.75856,3.680404 -1.76709,3.603048 0.60918,5.52792 1.09438,0.886489 2.02005,1.583195 2.05705,1.548236 0.037,-0.03496 0.46988,-1.065248 0.96196,-2.28953 z m -30.73695,3.632162 c -1.16503,-0.84958 1.21546,-10.71194 2.78816,-11.551341 1.5082,-0.804974 1.83168,0.619044 0.78421,3.452233 -0.90606,2.450707 -1.58887,5.346016 -1.58887,6.737294 0,1.439659 -0.96665,2.103334 -1.9835,1.361814 z m 7.20114,-15.427226 c -0.97161,-0.9689646 1.19525,-3.3249446 5.26185,-5.7211116 7.2001,-4.24252378 19.4765,-5.2359257 28.99416,-2.3461959 1.38161,0.419483 1.51574,0.5269339 1.51574,1.2142619 0,1.288469 -0.56067,1.379014 -3.75288,0.606075 -11.28097,-2.7314889 -23.84782,-0.400412 -29.52843,5.4773476 -0.86132,0.891214 -2.01197,1.2468 -2.49044,0.769623 z m 44.26586,-3.1723116 c -3.78763,-0.940281 -4.10544,-1.105377 -4.11254,-2.136362 -0.007,-0.972815 0.96074,-0.961264 5.23578,0.06251 4.14293,0.992143 4.67764,1.263501 4.53043,2.299133 -0.12815,0.901509 -1.30337,0.85468 -5.65367,-0.225284 z"
       id="path32" /><path
       style="opacity:1;fill:#cb954b;fill-opacity:1;stroke:#b37213;stroke-width:0.550929;stroke-linecap:butt;stroke-linejoin:miter;stroke-dasharray:none;stroke-opacity:1;paint-order:normal"
       d="m -188.15817,27.92467 c -1.56072,-1.2167 -2.08415,-1.726525 -2.05136,-1.998083 0.0679,-0.562483 1.8093,-5.249802 2.13505,-5.746933 0.15901,-0.242715 0.42167,-0.441301 0.58364,-0.441301 0.72139,0 3.88665,2.349267 3.88949,2.886752 0.003,0.321408 -2.16408,6.591623 -2.35088,6.806131 -0.0608,0.06981 -1.05347,-0.608142 -2.20594,-1.506566 z"
       id="path34" /><path
       style="opacity:1;fill:#cb954b;fill-opacity:1;stroke:#b37213;stroke-width:0.550929;stroke-linecap:butt;stroke-linejoin:miter;stroke-dasharray:none;stroke-opacity:1;paint-order:normal"
       d="m -177.77227,23.739821 c -2.67882,-2.13796 -2.69211,-2.217502 -0.98287,-5.883796 0.66201,-1.419979 1.21957,-2.599549 1.23903,-2.621266 0.11743,-0.131025 4.12838,3.298518 4.06001,3.471484 -1.20593,3.050918 -2.58553,6.132822 -2.74365,6.129091 -0.11328,-0.0027 -0.82091,-0.495654 -1.57252,-1.095513 z"
       id="path35" /><path
       id="path49"
       style="fill:#989591;fill-opacity:1"
       d="m -90.195507,-15.039474 c -3.56518,0.120033 -7.33464,2.47274 -8.862503,7.1809585 -0.70517,2.1730382 -2.00904,3.3923772 -5.6162,5.2503262 -4.10353,2.11361204 -10.57343,4.8465198 -13.24229,5.4623518 l -0.45551,2.5120679 c 0.51637,-0.242902 1.75274,-0.755379 2.84937,-1.134011 12.84389,-4.43458766 17.01981,-7.0542277 18.676893,-11.7155639 1.39132,-3.9137705 3.20341,-5.2803445 6.92051,-5.2188045 3.494,0.05785 5.406,2.120945 5.23896,5.6518536 l -0.0801,1.6965371 -1.54668,0.597896 c -2.21095,0.854854 -3.34811,1.78698 -3.34811,2.743502 0,1.38395504 0.84498,1.51172804 2.54248,0.384989 3.90567,-2.592435 8.80538,0.98484404 7.75456,5.6616697 -1.06831,4.754706 -4.8243,6.4050936 -9.86709,4.335136 -4.43261,-1.819491 -10.503303,-0.357677 -22.125793,5.3283566 -1.03297,0.505359 -2.0746,1.277356 -2.75451,1.591139 l 1.1719,1.954248 c 0.61595,-0.297768 1.23584,-0.909236 2.1862,-1.393063 4.43943,-2.26011 7.79523,-3.645174 12.47469,-5.14904 4.935583,-1.5861786 5.142253,-1.5955746 8.110103,-0.378272 10.70691,4.391577 18.95645,-8.8546024 8.85269,-14.2146353 l -1.12448,-0.596863 0.0202,-2.5342121 c 0.0434,-5.4207496 -3.7347,-8.1526036 -7.77524,-8.0165666 z" /><path
       style="opacity:1;fill:#cb954b;fill-opacity:1;stroke:#b37213;stroke-width:0.550929;stroke-linecap:butt;stroke-linejoin:miter;stroke-dasharray:none;stroke-opacity:1;paint-order:normal"
       d="m -181.23423,54.89439 c -6.92174,-0.503135 -13.28291,-2.371241 -17.58569,-5.164453 -10.22178,-6.635612 -14.02268,-23.286592 -8.17399,-35.808726 1.25148,-2.679491 2.99125,-5.1404886 5.16189,-7.3018756 9.32506,-9.2852117 23.6381,-11.3996685 43.82939,-6.47488324 1.80386,0.4399743 5.15887,1.34426554 7.45558,2.00953554 8.30044,2.4043247 10.91064,2.8918557 15.5027,2.8955777 3.59161,0.0029 4.76196,-0.155405 9.47484,-1.281675 4.73703,-1.1320416 5.819,-1.0391745 5.06476,0.434714 -0.19301,0.377162 -0.60945,1.095719 -0.92542,1.596793 -0.31598,0.501073 -0.62831,1.257551 -0.69408,1.681061 -0.10981,0.707113 -0.0685,0.821138 0.5062,1.395792 0.67948,0.679476 1.32976,0.908158 3.42717,1.2052056 1.95312,0.276611 2.05313,0.44073 1.13151,1.856798 -1.94464,2.987948 -1.75037,4.335695 0.73807,5.120105 1.68556,0.531324 1.77351,1.019874 0.3471,1.928093 -0.46711,0.297418 -1.58724,0.844167 -2.48917,1.214993 -5.64286,2.320042 -7.95091,4.098571 -12.75891,9.831695 -5.38169,6.417188 -11.40686,11.74211 -18.13313,16.02569 -7.66329,4.880317 -15.37529,7.919228 -21.95187,8.650129 -2.50568,0.278474 -7.3914,0.369739 -9.92695,0.185431 z m -4.84915,-17.325428 c 0.15033,-0.214638 0.45653,-1.083738 0.68045,-1.931339 0.22389,-0.847598 0.51665,-1.583124 0.65053,-1.6345 0.13391,-0.05138 0.6735,0.202768 1.19909,0.564771 1.12186,0.772644 1.69786,0.839073 1.97631,0.227923 0.27051,-0.593685 -0.15362,-1.387578 -1.45153,-2.717096 l -1.02696,-1.051968 0.96999,-2.88735 c 1.04217,-3.102181 1.49262,-4.028043 1.95975,-4.028043 0.16282,0 1.143,0.67645 2.17815,1.50322 2.17443,1.73669 2.14737,1.66063 1.44865,4.071773 -0.49312,1.701636 -0.5837,2.969964 -0.23688,3.316785 0.32182,0.321813 1.14001,0.265996 1.46901,-0.100214 0.15755,-0.175376 0.50826,-1.097806 0.77935,-2.049846 0.27109,-0.952039 0.5185,-1.759783 0.5498,-1.794983 0.0313,-0.0352 0.45174,0.301818 0.93431,0.748932 1.41724,1.313098 2.39232,1.608047 2.79969,0.84687 0.33316,-0.622525 0.0711,-1.125307 -1.30554,-2.50467 l -1.3049,-1.307489 0.10865,-0.864116 c 0.10408,-0.827767 1.00172,-3.307908 1.64818,-4.553839 0.43195,-0.832498 0.87019,-0.759528 2.28204,0.379984 1.91286,1.543876 2.47367,1.699657 2.88317,0.80087 0.27631,-0.606478 10e-4,-1.122516 -1.16569,-2.18676 -2.52399,-2.301899 -2.54437,-2.348002 -1.77802,-4.021928 0.89792,-1.96132 0.76814,-3.107624 -0.33963,-2.999986 -0.51029,0.04958 -0.66428,0.211838 -1.30891,1.379087 -0.52538,0.951318 -0.82098,1.309569 -1.0524,1.275461 -0.17699,-0.02609 -1.09431,-0.658201 -2.03849,-1.404694 l -1.71668,-1.357259 0.62638,-1.120066 c 0.68367,-1.222529 0.78253,-1.905003 0.34004,-2.3474916 -0.60386,-0.603869 -1.23369,-0.296063 -2.167,1.0590606 l -0.68754,0.998281 -0.96399,-0.640046 c -1.12879,-0.749482 -1.72627,-0.757179 -1.98249,-0.02553 -0.24281,0.69329 0.0822,1.303964 1.06116,1.994014 l 0.81092,0.571603 -1.53019,3.056427 c -0.84164,1.681035 -1.59859,3.098673 -1.68212,3.150303 -0.21955,0.135692 -4.23378,-2.60882 -4.23378,-2.894613 0,-0.131971 0.25091,-0.866542 0.55758,-1.632383 0.65985,-1.647897 0.64718,-2.271036 -0.053,-2.605061 -0.73393,-0.350124 -1.13398,-0.04471 -1.8788,1.434322 -0.35357,0.702095 -0.76817,1.324625 -0.92134,1.3834 -0.15316,0.05878 -0.70493,-0.108889 -1.2261,-0.372594 -1.13517,-0.574329 -1.64015,-0.601647 -2.12678,-0.115041 -0.66497,0.664983 -0.41111,1.152403 1.10101,2.113891 1.03061,0.655325 1.11028,0.752899 1.0286,1.259787 -0.11314,0.702167 -1.88127,5.561296 -2.10505,5.785096 -0.10361,0.103587 -0.64683,-0.119507 -1.40618,-0.577506 -1.44137,-0.869333 -1.95146,-0.930172 -2.3753,-0.283313 -0.44249,0.675333 -0.13504,1.18395 1.38692,2.294411 0.70511,0.514464 1.3253,1.108938 1.37821,1.321051 0.0529,0.212114 -0.15705,1.205601 -0.46662,2.20775 -0.97496,3.156341 -0.9023,3.917484 0.37397,3.917484 0.69119,0 0.91641,-0.371274 1.63036,-2.687576 0.3166,-1.027203 0.63079,-1.867639 0.69821,-1.867639 0.11784,0 2.63951,1.872327 3.76343,2.794326 l 0.54346,0.445809 -0.51594,2.115373 c -0.63259,2.5937 -0.67503,3.343789 -0.20844,3.684969 0.50353,0.368189 1.12617,0.308435 1.43894,-0.138089 z m -18.16217,-11.405205 c 0.12118,-0.153734 0.26384,-0.657916 0.31708,-1.120405 0.2105,-1.828927 0.7057,-4.040304 1.37152,-6.124937 0.84484,-2.645143 0.99261,-3.432694 0.73451,-3.914931 -0.27718,-0.517912 -1.02076,-0.465439 -1.55371,0.109643 -1.191,1.285105 -3.11796,8.687453 -2.72603,10.471914 0.21529,0.980287 1.27889,1.311807 1.85663,0.578716 z m 7.45347,-15.565543 c 0.28911,-0.216771 0.89461,-0.7401616 1.34557,-1.1630896 3.01768,-2.830051 8.17607,-4.880135 14.21228,-5.648337 1.94609,-0.24767 3.23993,-0.290578 6.19509,-0.205451 3.72206,0.107217 4.88014,0.257255 9.35455,1.211954 1.98787,0.424148 2.42674,0.373663 2.6863,-0.309011 0.24136,-0.634827 0.0477,-1.128735 -0.53175,-1.3559646 -1.02559,-0.4022063 -4.5884,-1.220574 -6.68057,-1.5345075 -2.63912,-0.3960046 -8.58708,-0.4483852 -11.20582,-0.098684 -3.82378,0.5106166 -8.13953,1.7161731 -10.6472,2.9741701 -4.04974,2.031589 -7.48424,5.259738 -6.65678,6.2567876 0.32435,0.390811 1.32506,0.324454 1.92833,-0.127867 z m 47.89988,-2.8930966 c 0,-0.541513 -0.0914,-0.674977 -0.64916,-0.947826 -0.76919,-0.376289 -5.31048,-1.531325 -6.84121,-1.74 -1.58332,-0.215844 -1.98448,-0.0745 -1.98448,0.699216 0,0.540125 0.0918,0.674413 0.64626,0.945699 1.53763,0.752293 7.27779,1.989145 8.28196,1.784546 0.48054,-0.09791 0.54663,-0.187569 0.54663,-0.741635 z"
       id="path33" /><path
       style="opacity:1;fill:#bdbeb9;fill-opacity:1;stroke:none;stroke-width:0.389369;stroke-linecap:butt;stroke-linejoin:miter;stroke-dasharray:none;stroke-opacity:1;paint-order:normal"
       d="m -114.46462,15.177463 c -0.17707,-0.06103 -0.54229,-0.144984 -0.81161,-0.186568 -0.81888,-0.126434 -0.78662,-0.335283 0.35749,-2.314305 0.86966,-1.504289 0.85518,-2.656136 -0.0447,-3.5560236 -0.58227,-0.582266 -1.3703,-0.833946 -2.99784,-0.95745 -1.37188,-0.104106 -1.65435,-0.208405 -1.65435,-0.610848 0,-0.303515 1.20356,-2.45098 1.31258,-2.341968 0.0354,0.0354 0.3775,-0.07395 0.76023,-0.242991 0.38272,-0.169046 1.94177,-0.752254 3.46454,-1.296019 8.06062,-2.87835698 12.32617,-4.9904688 14.62155,-7.2399441 1.07045,-1.0490475 1.813683,-2.1275505 2.303213,-3.3421897 1.223941,-3.0368822 2.132801,-4.3540816 3.528391,-5.1136566 1.192117,-0.648831 3.307085,-0.909044 4.913071,-0.604475 1.827488,0.346576 3.231327,1.477605 3.71465,2.9927764 0.36409,1.1413865 0.432689,1.7866894 0.333531,3.1375144 l -0.08682,1.182768 -0.916993,0.3532121 c -2.557467,0.9850959 -3.943222,2.0362376 -3.943222,2.9910653 0,0.6081036 0.302455,1.06173594 0.707903,1.06173594 0.168836,0 0.904401,-0.31237984 1.634588,-0.69417754 0.730189,-0.3817974 1.661006,-0.762613 2.068483,-0.8462565 2.522897,-0.5178788 5.272553,1.3524708 5.883365,4.0019365 0.408765,1.7730728 -0.297474,4.3499828 -1.613562,5.8875368 -1.703921,1.990648 -4.8242,2.364984 -8.285776,0.994034 -4.052279,-1.6049 -9.247882,-0.594748 -18.470902,3.5911946 -2.74214,1.244542 -3.85848,1.806205 -5.23249,2.632615 -0.60203,0.362096 -1.12357,0.652301 -1.15898,0.644901 -0.0354,-0.0074 -0.20926,-0.06339 -0.38633,-0.124418 z"
       id="path50" /></g><g
     id="layer6"><path
       style="fill:#c3c4c1;stroke:none;stroke-width:0.9"
       d="m 91.01669,73.686456 c -0.46914,-4.68109 -2.79027,-8.045327 -1.18531,-12.964584 2.49973,-7.661766 9.84308,-13.024043 10.42205,-21.431249 0.36044,-5.234008 -1.02445,-10.063836 -4.5508,-14.019037 -2.40651,-2.699194 -5.7431,-4.305487 -6.97144,-7.94138 -1.03526,-3.064392 -0.26141,-6.118247 1.04527,-8.9958315 0.66516,-1.4648241 2.08049,-2.8340952 1.7694,-4.4979147 -8.42687,3.2646493 -11.949049,16.3092642 -7.80133,23.8124962 2.18952,3.960853 7.09532,6.704319 7.26073,11.641667 0.22813,6.809665 -6.81792,11.295398 -7.1219,17.991666 -0.2153,4.742524 0.86447,9.023262 3.58453,12.964583 0.9412,1.36379 1.78953,3.155912 3.5488,3.439584 M 75.406276,31.08854 c 0.630279,2.20475 1.384983,3.983102 0.972999,6.349999 -0.760509,4.369199 -4.790745,7.456263 -6.169734,11.641667 -2.34711,7.123781 1.804284,13.776984 7.048818,18.290752 1.878264,1.616551 6.055731,5.943483 8.731251,4.992581 -3.99092,-5.649962 -10.748511,-9.888374 -10.758087,-17.727084 -0.0063,-5.338368 3.974688,-9.759635 4.359294,-15.081249 0.185382,-2.565012 -0.982926,-8.329885 -4.184541,-8.466666 M 95.25002,73.421872 c 0.025,-9.069674 9.32058,-9.324471 13.52295,-15.610416 4.3709,-6.538026 -0.37552,-11.8166 -0.28888,-18.520833 0.0344,-2.661441 2.55559,-5.565241 2.11177,-7.937501 -1.20921,0.458463 -2.24831,1.193811 -3.1503,2.127285 -5.90618,6.112337 -0.51001,13.131527 -3.3226,19.833132 -1.9505,4.647507 -7.07051,6.743714 -9.42824,11.1125 -1.04575,1.937753 -2.28213,8.076647 0.5553,8.995833 z"
       id="path63" /></g><g
     id="layer4"
     transform="matrix(0.765,0,0,0.765,201.62604,-60.887595)"><circle
       style="fill:#709335;fill-opacity:1;stroke:#3b6a17;stroke-width:3;stroke-linecap:butt;stroke-linejoin:miter;stroke-dasharray:none;stroke-opacity:1;paint-order:normal"
       id="path52-8-38"
       cx="-120.19288"
       cy="265.17374"
       r="7.9840894" /><circle
       style="fill:#709335;fill-opacity:1;stroke:#3b6a17;stroke-width:3;stroke-linecap:butt;stroke-linejoin:miter;stroke-dasharray:none;stroke-opacity:1;paint-order:normal"
       id="path52-8-53"
       cx="-67.805374"
       cy="246.9173"
       r="7.9840894" /><circle
       style="fill:#709335;fill-opacity:1;stroke:#3b6a17;stroke-width:3;stroke-linecap:butt;stroke-linejoin:miter;stroke-dasharray:none;stroke-opacity:1;paint-order:normal"
       id="path52-8-5"
       cx="-89.236626"
       cy="263.8508"
       r="7.9840894" /><circle
       style="fill:#709335;fill-opacity:1;stroke:#3b6a17;stroke-width:3;stroke-linecap:butt;stroke-linejoin:miter;stroke-dasharray:none;stroke-opacity:1;paint-order:normal"
       id="path52-8-2"
       cx="-106.16996"
       cy="256.44247"
       r="7.9840894" /><circle
       style="fill:#709335;fill-opacity:1;stroke:#3b6a17;stroke-width:3;stroke-linecap:butt;stroke-linejoin:miter;stroke-dasharray:none;stroke-opacity:1;paint-order:normal"
       id="path52-8-0"
       cx="-118.86997"
       cy="254.59035"
       r="7.9840894" /><circle
       style="fill:#709335;fill-opacity:1;stroke:#3b6a17;stroke-width:3;stroke-linecap:butt;stroke-linejoin:miter;stroke-dasharray:none;stroke-opacity:1;paint-order:normal"
       id="path52-8-24"
       cx="-123.63245"
       cy="242.15479"
       r="7.9840894" /><circle
       style="fill:#709335;fill-opacity:1;stroke:#3b6a17;stroke-width:3;stroke-linecap:butt;stroke-linejoin:miter;stroke-dasharray:none;stroke-opacity:1;paint-order:normal"
       id="path52-8-9"
       cx="-131.83455"
       cy="251.94444"
       r="7.9840894" /><circle
       style="fill:#709335;fill-opacity:1;stroke:#3b6a17;stroke-width:3;stroke-linecap:butt;stroke-linejoin:miter;stroke-dasharray:none;stroke-opacity:1;paint-order:normal"
       id="path52-8-3"
       cx="-137.65536"
       cy="235.80479"
       r="7.9840894" /><circle
       style="fill:#709335;fill-opacity:1;stroke:#3b6a17;stroke-width:3;stroke-linecap:butt;stroke-linejoin:miter;stroke-dasharray:none;stroke-opacity:1;paint-order:normal"
       id="path52-8-4"
       cx="-140.03662"
       cy="219.66522"
       r="7.9840894" /><circle
       style="fill:#709335;fill-opacity:1;stroke:#3b6a17;stroke-width:3;stroke-linecap:butt;stroke-linejoin:miter;stroke-dasharray:none;stroke-opacity:1;paint-order:normal"
       id="path52-8-1"
       cx="-104.05328"
       cy="267.55496"
       r="7.9840894" /><g
       id="g53-01"
       transform="translate(-98.664936,-5.6991276)"><circle
         style="opacity:1;fill:#709335;fill-opacity:1;stroke:#3b6a17;stroke-width:3;stroke-linecap:butt;stroke-linejoin:miter;stroke-dasharray:none;stroke-opacity:1;paint-order:normal"
         id="path52-6"
         cx="22.922068"
         cy="225.09982"
         r="7.9840894" /><path
         style="opacity:1;fill:none;fill-opacity:1;stroke:#3b6a17;stroke-width:1.40625;stroke-linecap:round;stroke-linejoin:miter;stroke-dasharray:none;stroke-opacity:1;paint-order:normal"
         id="path53-4"
         d="m 23.024876,221.10074 a 3.6220315,3.8632693 0 0 1 3.622031,3.86326" /></g><g
       id="g53-9"
       transform="translate(-90.198272,8.5883743)"><circle
         style="opacity:1;fill:#709335;fill-opacity:1;stroke:#3b6a17;stroke-width:3;stroke-linecap:butt;stroke-linejoin:miter;stroke-dasharray:none;stroke-opacity:1;paint-order:normal"
         id="path52-84"
         cx="22.922068"
         cy="225.09982"
         r="7.9840894" /><path
         style="opacity:1;fill:none;fill-opacity:1;stroke:#3b6a17;stroke-width:1.40625;stroke-linecap:round;stroke-linejoin:miter;stroke-dasharray:none;stroke-opacity:1;paint-order:normal"
         id="path53-14"
         d="m 23.024876,221.10074 a 3.6220315,3.8632693 0 0 1 3.622031,3.86326" /></g><g
       id="g53-08"
       transform="translate(-105.01494,18.113374)"><circle
         style="opacity:1;fill:#709335;fill-opacity:1;stroke:#3b6a17;stroke-width:3;stroke-linecap:butt;stroke-linejoin:miter;stroke-dasharray:none;stroke-opacity:1;paint-order:normal"
         id="path52-7"
         cx="22.922068"
         cy="225.09982"
         r="7.9840894" /><path
         style="opacity:1;fill:none;fill-opacity:1;stroke:#3b6a17;stroke-width:1.40625;stroke-linecap:round;stroke-linejoin:miter;stroke-dasharray:none;stroke-opacity:1;paint-order:normal"
         id="path53-78"
         d="m 23.024876,221.10074 a 3.6220315,3.8632693 0 0 1 3.622031,3.86326" /></g><g
       id="g53-68"
       transform="translate(-101.83994,31.607124)"><circle
         style="opacity:1;fill:#709335;fill-opacity:1;stroke:#3b6a17;stroke-width:3;stroke-linecap:butt;stroke-linejoin:miter;stroke-dasharray:none;stroke-opacity:1;paint-order:normal"
         id="path52-34"
         cx="22.922068"
         cy="225.09982"
         r="7.9840894" /><path
         style="opacity:1;fill:none;fill-opacity:1;stroke:#3b6a17;stroke-width:1.40625;stroke-linecap:round;stroke-linejoin:miter;stroke-dasharray:none;stroke-opacity:1;paint-order:normal"
         id="path53-84"
         d="m 23.024876,221.10074 a 3.6220315,3.8632693 0 0 1 3.622031,3.86326" /></g><g
       id="g53-66"
       transform="translate(-112.95244,-8.874127)"><circle
         style="opacity:1;fill:#709335;fill-opacity:1;stroke:#3b6a17;stroke-width:3;stroke-linecap:butt;stroke-linejoin:miter;stroke-dasharray:none;stroke-opacity:1;paint-order:normal"
         id="path52-0"
         cx="22.922068"
         cy="225.09982"
         r="7.9840894" /><path
         style="opacity:1;fill:none;fill-opacity:1;stroke:#3b6a17;stroke-width:1.40625;stroke-linecap:round;stroke-linejoin:miter;stroke-dasharray:none;stroke-opacity:1;paint-order:normal"
         id="path53-38"
         d="m 23.024876,221.10074 a 3.6220315,3.8632693 0 0 1 3.622031,3.86326" /></g><g
       id="g53-09"
       transform="translate(-106.33786,3.2967065)"><circle
         style="opacity:1;fill:#709335;fill-opacity:1;stroke:#3b6a17;stroke-width:3;stroke-linecap:butt;stroke-linejoin:miter;stroke-dasharray:none;stroke-opacity:1;paint-order:normal"
         id="path52-47"
         cx="22.922068"
         cy="225.09982"
         r="7.9840894" /><path
         style="opacity:1;fill:none;fill-opacity:1;stroke:#3b6a17;stroke-width:1.40625;stroke-linecap:round;stroke-linejoin:miter;stroke-dasharray:none;stroke-opacity:1;paint-order:normal"
         id="path53-8"
         d="m 23.024876,221.10074 a 3.6220315,3.8632693 0 0 1 3.622031,3.86326" /></g><g
       id="g53-1"
       transform="translate(-129.62119,-14.69496)"><circle
         style="opacity:1;fill:#709335;fill-opacity:1;stroke:#3b6a17;stroke-width:3;stroke-linecap:butt;stroke-linejoin:miter;stroke-dasharray:none;stroke-opacity:1;paint-order:normal"
         id="path52-2"
         cx="22.922068"
         cy="225.09982"
         r="7.9840894" /><path
         style="opacity:1;fill:none;fill-opacity:1;stroke:#3b6a17;stroke-width:1.40625;stroke-linecap:round;stroke-linejoin:miter;stroke-dasharray:none;stroke-opacity:1;paint-order:normal"
         id="path53-0"
         d="m 23.024876,221.10074 a 3.6220315,3.8632693 0 0 1 3.622031,3.86326" /></g><g
       id="g53-0"
       transform="translate(-149.20035,-13.10746)"><circle
         style="opacity:1;fill:#709335;fill-opacity:1;stroke:#3b6a17;stroke-width:3;stroke-linecap:butt;stroke-linejoin:miter;stroke-dasharray:none;stroke-opacity:1;paint-order:normal"
         id="path52-9"
         cx="22.922068"
         cy="225.09982"
         r="7.9840894" /><path
         style="opacity:1;fill:none;fill-opacity:1;stroke:#3b6a17;stroke-width:1.40625;stroke-linecap:round;stroke-linejoin:miter;stroke-dasharray:none;stroke-opacity:1;paint-order:normal"
         id="path53-7"
         d="m 23.024876,221.10074 a 3.6220315,3.8632693 0 0 1 3.622031,3.86326" /></g><g
       id="g53-5-1"
       transform="rotate(180,-34.612485,238.25757)"><circle
         style="opacity:1;fill:#709335;fill-opacity:1;stroke:#3b6a17;stroke-width:3;stroke-linecap:butt;stroke-linejoin:miter;stroke-dasharray:none;stroke-opacity:1;paint-order:normal"
         id="path52-4-0"
         cx="22.922068"
         cy="225.09982"
         r="7.9840894" /><path
         style="opacity:1;fill:none;fill-opacity:1;stroke:#3b6a17;stroke-width:1.40625;stroke-linecap:round;stroke-linejoin:miter;stroke-dasharray:none;stroke-opacity:1;paint-order:normal"
         id="path53-3-7"
         d="m 23.024876,221.10074 a 3.6220315,3.8632693 0 0 1 3.622031,3.86326" /></g><g
       id="g53-4-0"
       transform="rotate(-90,-48.706846,290.50045)"><circle
         style="opacity:1;fill:#709335;fill-opacity:1;stroke:#3b6a17;stroke-width:3;stroke-linecap:butt;stroke-linejoin:miter;stroke-dasharray:none;stroke-opacity:1;paint-order:normal"
         id="path52-1-1"
         cx="22.922068"
         cy="225.09982"
         r="7.9840894" /><path
         style="opacity:1;fill:none;fill-opacity:1;stroke:#3b6a17;stroke-width:1.40625;stroke-linecap:round;stroke-linejoin:miter;stroke-dasharray:none;stroke-opacity:1;paint-order:normal"
         id="path53-1-6"
         d="m 23.024876,221.10074 a 3.6220315,3.8632693 0 0 1 3.622031,3.86326" /></g><g
       id="g53-4-1"
       transform="rotate(-90,-52.014137,301.74524)"><circle
         style="opacity:1;fill:#709335;fill-opacity:1;stroke:#3b6a17;stroke-width:3;stroke-linecap:butt;stroke-linejoin:miter;stroke-dasharray:none;stroke-opacity:1;paint-order:normal"
         id="path52-1-8"
         cx="22.922068"
         cy="225.09982"
         r="7.9840894" /><path
         style="opacity:1;fill:none;fill-opacity:1;stroke:#3b6a17;stroke-width:1.40625;stroke-linecap:round;stroke-linejoin:miter;stroke-dasharray:none;stroke-opacity:1;paint-order:normal"
         id="path53-1-4"
         d="m 23.024876,221.10074 a 3.6220315,3.8632693 0 0 1 3.622031,3.86326" /></g><circle
       style="fill:#709335;fill-opacity:1;stroke:#3b6a17;stroke-width:3;stroke-linecap:butt;stroke-linejoin:miter;stroke-dasharray:none;stroke-opacity:1;paint-order:normal"
       id="path52-8-8"
       cx="-119.13454"
       cy="231.83604"
       r="7.9840894" /><g
       id="g53-4-3"
       transform="rotate(-90,-36.536008,297.90878)"><circle
         style="opacity:1;fill:#709335;fill-opacity:1;stroke:#3b6a17;stroke-width:3;stroke-linecap:butt;stroke-linejoin:miter;stroke-dasharray:none;stroke-opacity:1;paint-order:normal"
         id="path52-1-5"
         cx="22.922068"
         cy="225.09982"
         r="7.9840894" /><path
         style="opacity:1;fill:none;fill-opacity:1;stroke:#3b6a17;stroke-width:1.40625;stroke-linecap:round;stroke-linejoin:miter;stroke-dasharray:none;stroke-opacity:1;paint-order:normal"
         id="path53-1-9"
         d="m 23.024876,221.10074 a 3.6220315,3.8632693 0 0 1 3.622031,3.86326" /></g><g
       id="g53-6"
       transform="translate(-125.65244,21.817541)"><circle
         style="opacity:1;fill:#709335;fill-opacity:1;stroke:#3b6a17;stroke-width:3;stroke-linecap:butt;stroke-linejoin:miter;stroke-dasharray:none;stroke-opacity:1;paint-order:normal"
         id="path52-3"
         cx="22.922068"
         cy="225.09982"
         r="7.9840894" /><path
         style="opacity:1;fill:none;fill-opacity:1;stroke:#3b6a17;stroke-width:1.40625;stroke-linecap:round;stroke-linejoin:miter;stroke-dasharray:none;stroke-opacity:1;paint-order:normal"
         id="path53-6"
         d="m 23.024876,221.10074 a 3.6220315,3.8632693 0 0 1 3.622031,3.86326" /></g><g
       id="g53-07"
       transform="translate(-125.12327,-1.2012081)"><circle
         style="opacity:1;fill:#709335;fill-opacity:1;stroke:#3b6a17;stroke-width:3;stroke-linecap:butt;stroke-linejoin:miter;stroke-dasharray:none;stroke-opacity:1;paint-order:normal"
         id="path52-17"
         cx="22.922068"
         cy="225.09982"
         r="7.9840894" /><path
         style="opacity:1;fill:none;fill-opacity:1;stroke:#3b6a17;stroke-width:1.40625;stroke-linecap:round;stroke-linejoin:miter;stroke-dasharray:none;stroke-opacity:1;paint-order:normal"
         id="path53-77"
         d="m 23.024876,221.10074 a 3.6220315,3.8632693 0 0 1 3.622031,3.86326" /></g><circle
       style="fill:#709335;fill-opacity:1;stroke:#3b6a17;stroke-width:3;stroke-linecap:butt;stroke-linejoin:miter;stroke-dasharray:none;stroke-opacity:1;paint-order:normal"
       id="path52-8-99"
       cx="-93.999123"
       cy="233.95271"
       r="7.9840894" /></g><g
     id="layer5"
     style="display:inline"
     transform="matrix(0.63,0,0,0.63,141.25239,54.174282)"><path
       style="display:inline;fill:#c8b27e;fill-opacity:1"
       d="m -115.9631,176.28266 c -3.23853,-0.60427 -6.02647,-2.54295 -8.56939,-4.55611 -4.80356,3.7639 -11.91293,2.12634 -15.63999,-2.38208 -3.84856,0.99483 -6.27225,-2.40784 -9.47286,-2.70616 -6.657,0.43417 -13.32395,-5.88816 -12.31279,-12.62317 -6.77478,1.48708 -14.77706,-4.45405 -13.27164,-11.73558 -0.92443,-4.53676 1.87294,-8.42091 5.55358,-10.76936 -3.39725,-6.37146 2.1608,-14.40244 9.06693,-14.79853 0.11309,-3.14089 3.91825,-4.21698 5.22324,-5.77416 0.47157,-9.09084 11.80919,-14.790788 19.76663,-10.78706 1.54882,-5.526165 8.42495,-7.466646 13.18793,-4.814105 3.77158,-6.285321 12.45854,-8.805198 18.66989,-4.573395 2.72365,3.822055 4.768785,1.914074 8.089505,-0.0336 5.104507,-1.561941 10.62499,0.757357 13.57142,5.089352 5.695455,-2.357611 12.130338,1.429064 13.89484,7.057228 7.523627,-1.7031 14.81401,5.15935 14.52931,12.67091 4.761871,1.15596 7.137703,6.29781 6.31808,10.90377 4.196482,2.51755 7.029093,7.00786 6.0079,12.00748 0.761541,4.22718 -2.041873,8.04709 -5.45917,10.22643 0.496317,4.9423 -4.246263,8.8587 -8.99175,8.49677 -1.296638,6.17345 -8.876154,8.23367 -14.09928,5.75603 -2.861752,7.01293 -12.285026,9.60455 -18.480618,5.2433 -1.920318,4.39718 -8.561137,6.97905 -12.690907,3.40791 -3.86843,3.8725 -9.42153,6.18666 -14.89086,4.69409 z"
       id="path55" /><path
       style="display:inline;opacity:1;fill:#ede5be;fill-opacity:1;stroke:none;stroke-width:3;stroke-linecap:round;stroke-linejoin:miter;stroke-dasharray:none;stroke-opacity:1;paint-order:normal"
       d="m -116.62456,173.43657 c -2.09984,-0.70261 -3.03099,-1.24227 -4.38963,-2.54408 -1.94637,-1.86495 -3.7839,-2.02433 -6.67725,-0.57914 -1.59894,0.79864 -2.94756,0.99573 -4.63749,0.67772 -1.96788,-0.37032 -3.81796,-1.35925 -5.3507,-2.86014 l -1.3407,-1.31283 -2.22972,-0.17611 c -2.95565,-0.23345 -3.76303,-0.51223 -4.75477,-1.64176 -0.82125,-0.93536 -0.86052,-0.94816 -3.12208,-1.01773 -6.36856,-0.19591 -10.36016,-3.71318 -10.36016,-9.12905 0,-1.05499 -0.17211,-2.26716 -0.39903,-2.81023 l -0.39902,-0.95502 -1.6515,0.21979 c -2.59374,0.3452 -4.34645,0.19659 -5.86133,-0.49694 -2.66346,-1.21937 -4.50981,-3.45815 -5.34745,-6.48399 -0.39294,-1.41941 -0.41896,-1.94062 -0.16959,-3.39644 0.48577,-2.83588 1.36052,-4.27455 3.73312,-6.13971 2.73159,-2.14736 2.92943,-2.52906 2.19529,-4.23561 -2.02952,-4.71775 1.28929,-10.48379 6.39278,-11.1067 l 1.37444,-0.16775 1.90873,-2.55497 c 1.54137,-2.06324 2.15923,-2.6743 3.21034,-3.175 l 1.30162,-0.62003 0.18504,-1.66198 c 0.25407,-2.28189 1.60499,-4.90555 3.4,-6.60319 1.62542,-1.53725 2.97985,-2.29036 5.12304,-2.84859 2.2836,-0.5948 3.92374,-0.49537 6.56706,0.39813 3.46771,1.17216 3.51476,1.16045 4.71274,-1.17316 0.577,-1.123963 1.5085,-2.425447 2.1769,-3.041557 1.12134,-1.033614 1.23885,-1.076934 2.92145,-1.076934 1.14292,0 2.51612,0.237897 3.94524,0.683467 2.04835,0.638637 2.24413,0.656577 2.98504,0.27343 0.45562,-0.2356 1.13231,-1.011397 1.59075,-1.823684 0.97421,-1.726204 2.3368,-2.958591 4.27769,-3.868938 1.30313,-0.611217 1.79445,-0.688207 4.39177,-0.688207 2.84143,0 2.98098,0.0279 4.9135,0.983187 1.40107,0.692567 2.43206,1.455094 3.4879,2.579681 0.82439,0.878067 1.68701,1.596484 1.91692,1.596484 0.644795,0 1.452675,-0.501627 2.896775,-1.798664 1.758924,-1.579794 2.736576,-1.949474 5.278698,-1.996014 2.905373,-0.0532 4.536162,0.74605 7.439995,3.646318 l 2.13536,2.132734 1.83339,-0.44143 c 2.805401,-0.675467 4.212347,-0.610447 6.098403,0.28181 1.793518,0.848477 2.627381,1.773697 3.609774,4.005237 0.354562,0.80541 1.043903,1.80032 1.531863,2.21091 0.815792,0.68645 1.006734,0.73301 2.372373,0.5785 3.857538,-0.43643 8.046167,1.74884 9.907627,5.16896 0.603809,1.10939 0.738571,1.6687 0.70131,2.91058 -0.02537,0.8455 0.117742,1.92874 0.318029,2.40718 0.481156,1.14938 2.063584,2.54332 3.99255,3.51699 2.061728,1.04068 2.524021,1.99688 2.53211,5.23741 0.0057,2.26585 0.448664,3.88946 1.061257,3.88946 0.136461,0 1.024998,0.72674 1.974532,1.61499 1.192131,1.11518 1.993485,2.15791 2.589369,3.36931 0.808513,1.64368 0.862896,1.92982 0.862174,4.53658 -10e-4,3.59151 -0.411774,4.52229 -3.162943,7.16691 -2.139112,2.05627 -2.886224,3.12498 -2.637584,3.77293 0.261943,0.68261 -0.414017,2.53689 -1.287441,3.53168 -1.180288,1.34429 -2.841289,2.03639 -4.949804,2.06246 l -1.719792,0.0213 -1.322916,2.6385 c -1.315532,2.62377 -1.332516,2.64329 -3.042709,3.49611 -2.072835,1.03365 -2.941058,1.06443 -5.662392,0.20072 -1.146257,-0.3638 -2.537717,-0.66145 -3.092133,-0.66145 -0.978326,0 -1.031809,0.0498 -1.815139,1.69115 -1.037302,2.17347 -3.360137,4.37742 -5.494624,5.21342 -1.162542,0.45531 -2.079408,0.60098 -3.813619,0.60589 -2.245511,0.006 -2.318409,-0.014 -4.425693,-1.23846 -2.89519,-1.68222 -4.080846,-1.60451 -4.664091,0.30568 -0.294878,0.96576 -2.005145,2.71274 -3.179183,3.24744 -2.054625,0.93575 -4.819031,0.55301 -6.393636,-0.88521 -0.78616,-0.71806 -1.27642,-0.50965 -4.00391,1.7021 -3.23694,2.62486 -3.99334,2.91646 -7.85871,3.02958 -2.55966,0.0749 -3.45703,-0.001 -4.63021,-0.39399 z"
       id="path54" /><path
       style="display:inline;fill:#c6b07f;fill-opacity:1"
       d="m -130.53624,122.07039 c -6.73377,-0.71325 -9.33992,-10.26837 -3.86591,-14.28048 4.99932,-2.07778 0.46357,3.20161 -0.37703,5.42956 -0.74529,4.5823 4.15198,7.28202 8.18677,6.35311 3.58136,2.13502 -2.3245,3.26783 -3.94383,2.49781 z"
       id="path59" /><path
       style="display:inline;fill:#c6b17e;fill-opacity:1"
       d="m -125.46313,160.53326 c -2.99136,-1.59516 -4.33599,-4.34927 -7.86622,-2.35867 -5.05712,0.92918 -10.18395,-3.55543 -9.55327,-8.76217 -4.78599,-0.60205 -7.29395,-6.47946 -4.70394,-10.38261 4.30837,-0.88854 -0.28206,5.06466 2.89627,6.69618 3.42613,1.0522 5.50123,2.40835 4.77236,6.33262 1.46506,4.23425 7.53774,4.78128 10.30371,1.44252 2.47936,1.07261 3.46024,5.69493 7.17635,4.79651 1.98928,-1.90782 7.35252,-2.27785 3.97349,1.2618 -2.13619,1.08034 -4.66192,1.90166 -6.99875,0.97382 z"
       id="path56" /><path
       style="display:inline;fill:#c7b080;fill-opacity:1"
       d="m -114.96721,143.54198 c -3.52449,-0.38846 -3.874,-5.70009 -7.57617,-4.23338 -3.08108,-0.26597 -6.40215,-4.1601 -4.12314,-6.93088 3.2921,-0.5859 1.05395,4.86563 4.78951,4.24994 4.06478,-2.06163 4.49226,3.45638 7.69545,4.59245 3.42303,1.51325 6.12557,-2.03857 8.3587,-2.76602 2.48313,2.20441 -2.62304,5.03631 -4.79518,5.5653 -1.45531,-0.12768 -3.0264,0.30021 -4.34917,-0.47741 z"
       id="path58" /><path
       style="display:inline;fill:#c6b180;fill-opacity:1"
       d="m -89.306149,152.09274 c -3.099651,0.4751 -7.73256,-5.82571 -2.544963,-4.07903 4.262138,3.40644 11.14702,1.7686 12.8045,-3.62087 -0.03722,-4.29826 2.732926,-3.806 5.761343,-2.75544 4.674038,0.58142 8.320404,-5.38225 5.88091,-9.39197 0.08366,-2.94809 4.753093,-4.17184 3.430152,-7.89612 -2.24123,-2.25604 -0.835083,-7.53979 1.62441,-3.22822 1.983193,3.4715 1.16293,8.31756 -2.154232,10.71104 2.684743,6.63501 -4.130467,14.56665 -11.088634,12.10641 -1.259135,1.52146 -2.406352,5.09399 -4.856728,6.54357 -2.418492,1.97784 -5.898114,2.44102 -8.856758,1.61063 z"
       id="path57" /><g
       id="g53"
       style="display:inline"
       transform="translate(-30.238095,-0.83994727)"><circle
         style="display:inline;fill:#7c5a24;fill-opacity:1;stroke:#7c5c21;stroke-width:1.5;stroke-linecap:round;stroke-linejoin:miter;stroke-dasharray:none;stroke-opacity:1;paint-order:normal"
         id="path63-3"
         cx="-64.436722"
         cy="113.62786"
         r="0.42994791" /><circle
         style="display:inline;fill:#7c5a24;fill-opacity:1;stroke:#7c5c21;stroke-width:1.5;stroke-linecap:round;stroke-linejoin:miter;stroke-dasharray:none;stroke-opacity:1;paint-order:normal"
         id="path63-86"
         cx="-57.82214"
         cy="108.3362"
         r="0.42994791" /><circle
         style="display:inline;fill:#7c5a24;fill-opacity:1;stroke:#7c5c21;stroke-width:1.5;stroke-linecap:round;stroke-linejoin:miter;stroke-dasharray:none;stroke-opacity:1;paint-order:normal"
         id="path63-94"
         cx="-50.14922"
         cy="112.56952"
         r="0.42994791" /><circle
         style="display:inline;fill:#7c5a24;fill-opacity:1;stroke:#7c5c21;stroke-width:1.5;stroke-linecap:round;stroke-linejoin:miter;stroke-dasharray:none;stroke-opacity:1;paint-order:normal"
         id="path63-82"
         cx="-46.445049"
         cy="122.3591"
         r="0.42994791" /><circle
         style="display:inline;fill:#7c5a24;fill-opacity:1;stroke:#7c5c21;stroke-width:1.5;stroke-linecap:round;stroke-linejoin:miter;stroke-dasharray:none;stroke-opacity:1;paint-order:normal"
         id="path63-12"
         cx="-57.028389"
         cy="116.53828"
         r="0.42994791" /><circle
         style="display:inline;fill:#7c5a24;fill-opacity:1;stroke:#7c5c21;stroke-width:1.5;stroke-linecap:round;stroke-linejoin:miter;stroke-dasharray:none;stroke-opacity:1;paint-order:normal"
         id="path63-93"
         cx="-63.907555"
         cy="121.56536"
         r="0.42994791" /><circle
         style="display:inline;fill:#7c5a24;fill-opacity:1;stroke:#7c5c21;stroke-width:1.5;stroke-linecap:round;stroke-linejoin:miter;stroke-dasharray:none;stroke-opacity:1;paint-order:normal"
         id="path63-9"
         cx="-80.444016"
         cy="107.27786"
         r="0.42994791" /><circle
         style="display:inline;fill:#7c5a24;fill-opacity:1;stroke:#7c5c21;stroke-width:1.5;stroke-linecap:round;stroke-linejoin:miter;stroke-dasharray:none;stroke-opacity:1;paint-order:normal"
         id="path63-2"
         cx="-72.638802"
         cy="103.04453"
         r="0.42994791" /><circle
         style="display:inline;fill:#7c5a24;fill-opacity:1;stroke:#7c5c21;stroke-width:1.5;stroke-linecap:round;stroke-linejoin:miter;stroke-dasharray:none;stroke-opacity:1;paint-order:normal"
         id="path63-0"
         cx="-94.59922"
         cy="112.30495"
         r="0.42994791" /><circle
         style="display:inline;fill:#7c5a24;fill-opacity:1;stroke:#7c5c21;stroke-width:1.5;stroke-linecap:round;stroke-linejoin:miter;stroke-dasharray:none;stroke-opacity:1;paint-order:normal"
         id="path63-8"
         cx="-84.015892"
         cy="116.53828"
         r="0.42994791" /><circle
         style="display:inline;fill:#7c5a24;fill-opacity:1;stroke:#7c5c21;stroke-width:1.5;stroke-linecap:round;stroke-linejoin:miter;stroke-dasharray:none;stroke-opacity:1;paint-order:normal"
         id="path63-25"
         cx="-77.665894"
         cy="113.62787"
         r="0.42994791" /><circle
         style="display:inline;fill:#7c5a24;fill-opacity:1;stroke:#7c5c21;stroke-width:1.5;stroke-linecap:round;stroke-linejoin:miter;stroke-dasharray:none;stroke-opacity:1;paint-order:normal"
         id="path63-5"
         cx="-72.374222"
         cy="110.71745"
         r="0.42994791" /><circle
         style="display:inline;fill:#7c5a24;fill-opacity:1;stroke:#7c5c21;stroke-width:1.5;stroke-linecap:round;stroke-linejoin:miter;stroke-dasharray:none;stroke-opacity:1;paint-order:normal"
         id="path63-6"
         cx="-73.167969"
         cy="120.77161"
         r="0.42994791" /><circle
         style="display:inline;fill:#7c5a24;fill-opacity:1;stroke:#7c5c21;stroke-width:1.5;stroke-linecap:round;stroke-linejoin:miter;stroke-dasharray:none;stroke-opacity:1;paint-order:normal"
         id="path63-1"
         cx="-74.490883"
         cy="128.17995"
         r="0.42994791" /><circle
         style="display:inline;fill:#7c5a24;fill-opacity:1;stroke:#7c5c21;stroke-width:1.5;stroke-linecap:round;stroke-linejoin:miter;stroke-dasharray:none;stroke-opacity:1;paint-order:normal"
         id="path63-95"
         cx="-95.128387"
         cy="127.91537"
         r="0.42994791" /><circle
         style="display:inline;fill:#7c5a24;fill-opacity:1;stroke:#7c5c21;stroke-width:1.5;stroke-linecap:round;stroke-linejoin:miter;stroke-dasharray:none;stroke-opacity:1;paint-order:normal"
         id="path63-91"
         cx="-103.59505"
         cy="128.17995"
         r="0.42994791" /></g></g></svg>
